<svg xmlns="http://www.w3.org/2000/svg" width="97.071" height="9.866" viewBox="0 0 97.071 9.866">
  <g id="Group_1436" data-name="Group 1436" transform="translate(-387.297 -401.057)">
    <path id="Path_124" data-name="Path 124" d="M461.6,412.453l-.748,5.947h-.029l-1.549-5.947h-.954l-1.552,5.947h-.026l-.749-5.947h-.9L456.3,419.4h.93l1.549-5.842h.026l1.564,5.842h.926l1.21-6.942Z" transform="translate(-51.944 -8.732)" fill="#1a1818"/>
    <path id="Path_125" data-name="Path 125" d="M630.526,401.057l-1.24,8.41h-.027l-2.207-8.41h-1.144l-2.2,8.41h-.026l-1.154-8.41h-.981l1.636,9.607h1l2.278-8.6h.026l2.289,8.6h.972l1.7-9.607Z" transform="translate(-179.488 0)" fill="#1a1818"/>
    <g id="Group_1432" data-name="Group 1432" transform="translate(387.297 401.103)">
      <path id="Path_126" data-name="Path 126" d="M387.3,410.861h3.439c1.857,0,2.658-1.018,2.658-2.444a2.033,2.033,0,0,0-1.626-2.14v-.027a2.149,2.149,0,0,0,1.715-2.4c0-1.683-1.09-2.6-2.906-2.6H387.3Zm.863-8.88H390.4c1.5,0,2.222.582,2.222,1.873s-.654,1.964-2.148,1.964H388.16Zm0,4.565H390.3c1.482,0,2.3.687,2.3,1.8,0,1.278-.805,1.785-2.152,1.785H388.16Z" transform="translate(-387.297 -401.256)" fill="#1a1818"/>
    </g>
    <rect id="Rectangle_132" data-name="Rectangle 132" width="0.846" height="6.942" transform="translate(453.843 403.759)" fill="#1a1818"/>
    <rect id="Rectangle_133" data-name="Rectangle 133" width="0.849" height="6.942" transform="translate(467.638 403.759)" fill="#1a1818"/>
    <g id="Group_1433" data-name="Group 1433" transform="translate(395.334 403.558)">
      <path id="Path_127" data-name="Path 127" d="M745.82,411.957h.846v1.2h.029a2.355,2.355,0,0,1,2.22-1.4c1.951,0,2.425,1.023,2.425,2.679V418.9h-.848v-4.331c0-1.2-.27-2.1-1.642-2.1a2.193,2.193,0,0,0-2.183,2.381v4.05h-.846Z" transform="translate(-670.039 -411.756)" fill="#1a1818"/>
      <path id="Path_128" data-name="Path 128" d="M783.113,414.058c.365-.977-.7-1.523-1.665-1.523-.752,0-1.641.3-1.641,1.2,0,.754.861,1.025,1.44,1.17l1.13.258a2.036,2.036,0,0,1,1.978,1.924c0,1.509-1.492,2.087-2.785,2.087-1.615,0-3.045-.855-2.7-2.452h.847c-.38,1.01.763,1.739,1.894,1.739.794,0,1.9-.352,1.9-1.32,0-.807-.754-1.077-1.521-1.266l-1.092-.242c-1.1-.3-1.937-.674-1.937-1.857,0-1.414,1.387-1.951,2.611-1.951,1.384,0,2.8.866,2.393,2.234Z" transform="translate(-695.321 -411.808)" fill="#1a1818"/>
      <path id="Path_129" data-name="Path 129" d="M551.717,413.99c.366-.975-.7-1.523-1.664-1.523-.753,0-1.643.3-1.643,1.2,0,.756.862,1.023,1.44,1.172l1.132.256a2.036,2.036,0,0,1,1.978,1.926c0,1.507-1.494,2.086-2.787,2.086-1.614,0-3.044-.855-2.7-2.448h.847c-.379,1.007.762,1.734,1.9,1.734.794,0,1.9-.35,1.9-1.318,0-.807-.752-1.076-1.521-1.266l-1.088-.242c-1.1-.3-1.938-.673-1.938-1.857,0-1.413,1.384-1.951,2.61-1.951,1.387,0,2.8.868,2.394,2.234Z" transform="translate(-518.023 -411.756)" fill="#1a1818"/>
      <path id="Path_130" data-name="Path 130" d="M424.808,411.912c-2.105,0-3.132,1.665-3.132,3.636s1.027,3.637,3.132,3.637,3.131-1.665,3.131-3.637-1.026-3.636-3.131-3.636m0,.705c1.612,0,2.291,1.465,2.291,2.931s-.679,2.931-2.291,2.931-2.292-1.466-2.292-2.931.68-2.931,2.292-2.931" transform="translate(-421.676 -411.876)" fill="#1a1818"/>
    </g>
    <path id="Path_131" data-name="Path 131" d="M701.859,401.221v9.607h.846v-2.636l1.165-1.174,2.358,3.81h.984l-2.751-4.373,2.574-2.57h-1.1l-3.228,3.216v-5.88Z" transform="translate(-241.021 -0.126)" fill="#1a1818"/>
    <g id="Group_1434" data-name="Group 1434" transform="translate(420.496 403.673)">
      <path id="Path_132" data-name="Path 132" d="M532.372,413.386a1.535,1.535,0,0,0-.906-.264c-.836,0-1.306.777-1.306,2.1v4.063H529.3v-6.926h.859v.86a1.7,1.7,0,0,1,1.49-.967,1.955,1.955,0,0,1,.938.209Z" transform="translate(-529.301 -412.248)" fill="#1a1818"/>
    </g>
    <rect id="Rectangle_134" data-name="Rectangle 134" width="0.847" height="9.606" transform="translate(457.35 401.097)" fill="#1a1818"/>
    <g id="Group_1435" data-name="Group 1435" transform="translate(412.292 402.928)">
      <path id="Path_133" data-name="Path 133" d="M587.156,416.234a1.514,1.514,0,0,1-1.587-1.419c0-.9.671-1.374,1.454-1.83l.01.011,1.876,2.25a2.016,2.016,0,0,1-1.753.988m1.312-5.662c0,.834-.741,1.245-1.207,1.523a2.919,2.919,0,0,1-.762-1.525.988.988,0,0,1,1.969,0m-1.871,1.9,0,0c-.449.276-1.871.928-1.871,2.385h0v.011a2.159,2.159,0,0,0,2.393,2.081,2.5,2.5,0,0,0,2.229-1.175l.888,1.042h1.018l-1.461-1.693a4.713,4.713,0,0,0,.539-1.883H589.6a4.332,4.332,0,0,1-.3,1.309l-1.58-1.923s1.529-.714,1.529-2.028a1.641,1.641,0,0,0-1.839-1.537,1.564,1.564,0,0,0-1.7,1.548,3.123,3.123,0,0,0,.89,1.859" transform="translate(-563.565 -409.063)" fill="#1a1818"/>
      <path id="Path_134" data-name="Path 134" d="M497.193,412.617c1.36,0,2.026,1.186,2.066,2.451h-4.208c.131-1.253.77-2.451,2.141-2.451m2.02,4.176a1.952,1.952,0,0,1-2.02,1.686c-1.611,0-2.132-1.479-2.141-2.7H500.1c.066-1.932-.692-3.863-2.905-3.863-2.183,0-2.982,1.824-2.982,3.636,0,1.959.8,3.637,2.982,3.637a2.635,2.635,0,0,0,2.822-2.237Z" transform="translate(-494.211 -411.246)" fill="#1a1818"/>
    </g>
    <rect id="Rectangle_135" data-name="Rectangle 135" width="0.846" height="1.358" transform="translate(453.843 401.097)" fill="#1a1818"/>
    <rect id="Rectangle_136" data-name="Rectangle 136" width="0.849" height="1.358" transform="translate(467.638 401.097)" fill="#1a1818"/>
  </g>
</svg>
