<svg xmlns="http://www.w3.org/2000/svg" width="42.912" height="127.757" viewBox="0 0 42.912 127.757">
  <path id="Path_66" data-name="Path 66" d="M588.992,336.175a6.431,6.431,0,0,0-1.951.544,13.65,13.65,0,0,1-1.759-.41,2.1,2.1,0,0,0-.609-.874c-.062.019-.13.042-.2.063a1.335,1.335,0,0,0-.063.408c.276.368.246,1.006.406,1.481.3.938.591,2.085.871,3.036a6.864,6.864,0,0,1,.278,1.685c-.278.385-1.719.227-2.095.677a1.708,1.708,0,0,0-.134.538,2.5,2.5,0,0,0-1.01.206c-.2-.028-.41-.053-.607-.07-.141.042-.225.283-.343.327a5.659,5.659,0,0,1-1.414.2c-.053.158-.137.473-.264.551-.206.019-.408.042-.607.063-.4.169-.468.57-1.013.6a10.979,10.979,0,0,1-1.752-.264c-.505-.213-.362-.707-1.145-.739-.283.153-.586-.042-.809-.072-.447-.06-.795.32-1.416.072-.276-.111-.51-.524-.813-.6-.146-.049-.225.16-.269.266-.317.415-.09.98-.067,1.485.018.382-.16.658-.134.934.046.556.234,1.23.266,1.828a1.87,1.87,0,0,1,1.08,1.543,2.77,2.77,0,0,0-.6.48c0,.983.528.973.665,1.6.014.192-.2.264-.262.482-.12.352.178.563.2.943-.246.12-.5.181-.6.463a3.037,3.037,0,0,0-.276,1.353c.03.132.227.3.2.473s-.341.438-.267.744c.012.026.2.181.2.192.072.276-.185.431-.2.751-.025.894-.044,1.8-.067,2.693-.109.468-.3,1.01-.406,1.416V363c-.121.5-.47,1.031-.6,1.488.026.758.044,1.525.065,2.289-.167.679-.788.844-.876,1.481a3.048,3.048,0,0,1,.2,2.561c-.278.389-.964.491-1.147.948-.338.577.417,1.193.2,1.953-.063.225-.276.433-.336.677v1.14a5.417,5.417,0,0,0-.067,2.3c-.03,1.033-.049,2.069-.072,3.1,0,1.293.192,3.392-.6,3.907-.89.572-2.971.48-4.111.2-.545-.137-1.333-.046-1.483-.542-.1-.308.151-.445.2-.6.026-.447.044-.9.067-1.351a10.431,10.431,0,0,1,.545-1.413,14.668,14.668,0,0,0,.2-1.543,11.188,11.188,0,0,0,.4-4.588,5.867,5.867,0,0,0-1.613-.074c-.225-.132-.591-.049-.876-.125a3.317,3.317,0,0,1-1.757-1.015c-.38-.579-.144-1.335-.336-2.157a20.273,20.273,0,0,1-.269-4.79,5.705,5.705,0,0,0,.139-1.548,11.071,11.071,0,0,0-.273-1.546c-.183-.477-.755-.874-.936-1.416-.38-1.061-.155-2.408-.413-3.582V357.4c-.111-.09-.222-.183-.336-.266-.077-.174-.086-1.325-.135-1.548a1.205,1.205,0,0,0-.4-.139c-.246.3-.354.415-.939.4-.023-.13-.049-.262-.072-.4a2.576,2.576,0,0,1-1.075-.538,3.614,3.614,0,0,1,.065-.4c-.174-.109-.153-.153-.408-.216a.554.554,0,0,1-.336.079c-.8,1.182-1.4.853-2.7,1.409-.6.264-.9.739-1.749.811a1.111,1.111,0,0,1-.067-.4c.368-.41,0-.4-.065-.542-.107-.218.174-.28.132-.473-.025-.1-.211-.243-.271-.338h.065v-.07c1.147-.042,2.479-.6,2.294-1.673-.248-.079-.489-.06-.607-.271a1.951,1.951,0,0,0,1.01-.271,6.192,6.192,0,0,0,1.351-3.974c-.141-.41-.269-.813-.408-1.221-.155-.649.095-1.244-.2-1.678-.457-.7-1.74-.755-2.088-1.557v-2.021a.947.947,0,0,0,0-.746,5.345,5.345,0,0,0-1.413-1.277c-.158-.213-.311-.4-.475-.612a12.368,12.368,0,0,1,.614-3.566c.253-1,.315-1.979.535-2.9v-1.142c.318-1.386.415-3.126.739-4.514q.108-5.134.208-10.244c-.12-.334-.6-.549-.744-.883a12.4,12.4,0,0,1-.269-2.153v-1.145a15.888,15.888,0,0,1,.065-4.043,6.8,6.8,0,0,0,.132-2.227,6.852,6.852,0,0,1-2.023-1.617,5.268,5.268,0,0,0-.939-1.147c-.507-.385-1.427-.816-1.62-1.485-.176-.63.227-1.159.338-1.541-.023-1.11-.046-2.211-.07-3.311.278-.876.809-1.8,1.147-2.7.957-2.533,1.439-5.476,2.294-8.082a18.763,18.763,0,0,1,1.351-4.115,10.221,10.221,0,0,1,2.15-2.218c.181-.083.364-.144.535-.209.359-.241.656-.686,1.013-.938a13.949,13.949,0,0,1,3.307-1.553c.313-.067.628-.144.943-.209a8.451,8.451,0,0,0,1.687-1.274,3.009,3.009,0,0,0,.943-.746c.236-.389.053-.869.2-1.416.035-.137.227-.352.266-.468a8.628,8.628,0,0,0-.4-2.421c-.341-.209-.8-.362-1.01-.681-.276-.392-.167-.765-.813-.806-.125.22-.586,1.087-.809,1.152.069-.345.134-.679.2-1.017a8.7,8.7,0,0,0-.732-1.882,9.5,9.5,0,0,1-.276-3.983c.167-.728-.1-1.506.137-2.095a3.883,3.883,0,0,1,2.016-1.951c.338-.086.681-.174,1.01-.264.366-.241.382-.7.612-1.084a5.66,5.66,0,0,1,1.01-1.078,5.084,5.084,0,0,1,2.162.216c.47.178.785.658,1.277.8.913.264,1.552-.134,2.421.063.13.209.352.4.477.612a8.779,8.779,0,0,0,.67,1.346c.118-.049.07-.007.137-.065.463-.35.387-1,1.145-1.084.07.056.019.021.142.072.076.348.4.7.271,1.212-.1.373-.515.867-.343,1.488.13.48.505.952.672,1.413.158.424.037.964.2,1.416.466,1.242,1.673,1.733,1.821,3.3a.841.841,0,0,1-.54.139,1.311,1.311,0,0,0-.948-.269c-.026.065-.039.13-.063.2-.148.239.028.51.063.8-.45.216-1.064.51-1.21,1.02-.081.271,0,.672-.07.871a.9.9,0,0,0-.47,0,8.9,8.9,0,0,0-.878,1.958c-.074-.065,0,0-.07-.072-.167-.218-.049-.3-.468-.331a14.209,14.209,0,0,0-.67,1.749c.162.468.683.691.871,1.145s0,1.221.07,1.629a23.094,23.094,0,0,0,3.506,1.2c.788.287,1.654.691,2.424,1.017.691.285,2.039.3,2.292.994.47.568.429,1.68.674,2.435.456,1.421.778,2.966,1.145,4.377.067.633.132,1.261.206,1.893v1.017c.058.171.269.4.329.607.2.607.264,1.27.413,1.817.315,1.189.206,2.549.468,3.708.281,1.223.07,2.588.334,3.775.118,1.594.229,3.184.336,4.785.651,2.866.306,6.263.948,9.16V317.1c.121.466.529.989.609,1.409-.046.2-.088.412-.137.6a13.054,13.054,0,0,1,.338,1.416c-.234.225-.874.623-.67,1.217.153.487.841.883,1.14,1.27a15.056,15.056,0,0,0,1.555,1.766,14.578,14.578,0,0,1,1.281,1.075,8.537,8.537,0,0,0,.6.881c-.042.111-.012.067-.065.137-.069.044-.065.032-.2.063a2.937,2.937,0,0,0-1.082-.062h-1.75c-.348-.1-.549-.269-.945-.2a12.925,12.925,0,0,1-.065,1.745c-.058.227-.329.54-.2.948a25.432,25.432,0,0,0,1.212,2.357,9.15,9.15,0,0,0,.876,1.889c.255.329.848.44,1.21.674.809.5,1.527,1.254,2.364,1.678Zm-.07,2.09c.046.069.037.067.07.2h-.07Z" transform="translate(-546.08 -257.501)" fill="#fff" fill-rule="evenodd" opacity="0.5"/>
</svg>
