<svg xmlns="http://www.w3.org/2000/svg" width="67.456" height="115.667" viewBox="0 0 67.456 115.667">
  <path id="Path_159" data-name="Path 159" d="M78.129,170.175c-.015-.419-.024-.5.218-.659.319-.111.384.057.594-.229.027-.1.048-.191.076-.287-.351-.4-.866-.99-1.479-.889.056,1.28-.1,1.862-.885,2.286-.1-.024-.2-.043-.3-.071a20.545,20.545,0,0,1,.149-2.063,11.14,11.14,0,0,1,0-3.031c.27-.443.543-.885.814-1.331.417-1.3-1.149-5.473-1.626-6.047a10.6,10.6,0,0,0-3.765,2.216c.347,2.106.689,4.229,1.036,6.342-.229.256-.522.407-.743.67.09,3.473.845,8.181.224,11.652-.389,1.127-.788,2.266-1.179,3.4-.075,1.263-.147,2.511-.222,3.766-.172.491-.342.98-.519,1.475a5.006,5.006,0,0,0,.519,2.581c-.076.566-.151,1.13-.222,1.7a7.891,7.891,0,0,1,.369,2.956q-.479,6.563-.961,13.138c-.222.517-.441,1.025-.665,1.546-.287,1.137-.066,2.386-.512,3.319-.3.371-.6.738-.888,1.116-.928,2.319.864,10.989-1.255,12.018a13.17,13.17,0,0,1-5.679-.294c-.339-.678-1.15-1.658-.89-2.8.234-1.022,1.334-1.408.96-2.881-1.464.046-3.5.237-4.649-.214a2.645,2.645,0,0,1-.886-4.512,2.459,2.459,0,0,0-.37-1.32c.027-.745.052-1.483.075-2.22-.334-.8-1.322-1.274-1.622-2.287-.024-.566-.048-1.133-.075-1.7-.68-3.1-1.047-6.634-1.622-9.963-1-5.779-.594-12.2-1.4-17.865q-.078-2.359-.142-4.721c-.252-1.106-.494-2.21-.745-3.322-.018-.789-.051-1.572-.072-2.363-.2-.163-.4-.339-.588-.514v-2.51c-.258-1.6.236-3.217-.075-4.945-.172-.584-.347-1.179-.521-1.767-.494-2.335.6-4.1.743-6.123-.2-1.575-.4-3.155-.593-4.724-.087-1.769.517-4.6-.37-5.76-.073.053-.149.1-.219.151-.594,2.44-1.154,4.906-1.627,7.749q-.106,3.687-.218,7.377-.374,3.984-.74,7.972c.2.979.4,1.964.59,2.949.548,1.12,1.745,1.783,2.214,3.174.049.713.095,1.422.148,2.144a6.725,6.725,0,0,1,.517,2.285c-.446.018-.743,0-1.032.3.352.376.937.356,1.254.8-.174.225-.343.443-.517.671-1.83-.555-3.731-1.089-4.652-2.515-.881-1.369-.257-3.728-.589-5.679-.172-.541-.346-1.082-.517-1.626q-.148-1.947-.3-3.911c-.886-4.145-1.7-9.387-.96-14.094q.152-3.317.3-6.644c.247-.835.491-1.674.741-2.511q.034-2.688.071-5.386c.3-.978.59-1.969.885-2.948.774-1.854,2.259-2.872,3.689-4.064.417-.342.252-.979.594-1.4.61-.322,1.231-.645,1.841-.962,1.132-.694,1.887-1.8,3.177-2.362a13.4,13.4,0,0,0-.962-4.131c-2.923-.23-.491-7.328.37-8.414,1.7-2.14,5.8-2.134,7.378.076.881,1.228.659,2.614,1.111,4.422,1.208.222.845,2.853.148,3.473-.171.152-.507.162-.665.3a6.646,6.646,0,0,0,.37,2.808c2.088-.119,4.289,1.285,6.274,1.764.878.214,1.978-.091,2.728.075.784,1.815,2.534,2.673,3.321,4.645.542,1.377.2,3.7.886,5.023q1.364,1.736,2.728,3.47c.588,1.472-.413,3.181-.072,4.8.31,1.451,1.1,2.792,1.477,4.354.32,2.167.636,4.335.962,6.493.427,2.653-.274,6.1.952,7.971.053-.024.1-.047.149-.073q.631-4.5,1.259-9c.659-1.99,1.328-3.989,1.99-5.981.805-3.609.667-7.8,2.509-10.331,1.58-2.162,4.476-2.847,6.792-4.277-.334-.726-.09-1.08-.224-1.846-.352-.424-1.25-.519-1.474-1.032a8.759,8.759,0,0,1-.442-4.059c.073-.446.144-.884.218-1.327q-.4-1.077-.812-2.142c-.329-2.648,2.092-6.164,4.945-5.757,4.088.575,6.412,3.972,7.159,7.748.36,1.812-.443,2.765.369,4.283h.076c.148-.076.294-.151.443-.225.047.027.1.048.143.075a17.876,17.876,0,0,1,.227,3.69,4.1,4.1,0,0,1,.664.662,3.549,3.549,0,0,1-.74,1.849c.076.075.147.149.223.217.472.672,1.444.493,2.212.892.905.464,1.437,1.93,1.7,3.023.49,2.041.015,4.3.37,6.569a35.515,35.515,0,0,1,0,10.477c-.319,1.632-1.906,4.4-1.477,6.055.4,1.555.8,3.527,1.331,5.166.3.938.913,1.9,1.178,2.949.428,1.684-.894,2.4-1.251,3.324-.1,1.247-.2,2.505-.3,3.761-.65,3.714-1.322,6.8-2.139,10.033.027,1.824.049,3.642.073,5.467-.49,1.788-.98,3.59-1.474,5.385-.075,1.5-.149,3-.22,4.506q-.847,3.761-1.7,7.529c-.21,1.783.956,3.612.293,5.68-.337,1.037-1.5,1.378-1.773,2.509-.355,1.506.334,2.846,0,3.982a4.221,4.221,0,0,1-2.951-.446,2.023,2.023,0,0,0-.218-1.023,5.072,5.072,0,0,1-3.029-.594,2.51,2.51,0,0,1-.144-1.7q.7-.959,1.4-1.919c.337-1.139-.75-2.437-.293-3.841.268-.47.538-.932.812-1.4-.024-1.506-.052-3-.073-4.5,1.089-6.418.962-16.027.514-22.36-.117-1.692.638-8.37.147-9.149-1.273,1-.845,6.192-1.474,8.038-1.15,3.361-.918,7.928-1.548,11.961q-.04,2.025-.075,4.055-.228,2.143-.445,4.283c-.2.716-.4,1.43-.591,2.142-.1.742.6.905.445,1.769-.142.77-.927,1.044-1.032,1.691.072.621.144,1.241.215,1.846-.241.719-.489,1.432-.735,2.142-.048.843-.1,1.679-.146,2.515-.051.071-.1.149-.147.217-1.269.063-2.41,0-2.809-.808-.12-.564-.243-1.131-.365-1.7-1.339-.137-3.49-.764-2.956-2.437.179-.612,1.046-.944,1.478-1.331-.6-4.1-2.129-6.841-1.255-11.8.343-1.948.993-3.851,1.4-5.537.3-1.208-.128-2.254.071-3.391.148-.8.3-1.572.447-2.368-.2-1.1-.314-2.382-.518-3.681-.274-1.73.19-3.852-.075-5.536v-4.135q-.184-1.879-.367-3.759a4.856,4.856,0,0,1-.442-2.364c.223-1.214.966-2,1.255-3.029.243-1.52.491-3.05.736-4.574.249-1.12,1.042-1.379,1.254-2.358.4-1.848-.275-5.7-.738-7.383-.219-.778.151-2.47-.293-3.1-1.732,1.422-1.44,3.953-2.138,6.5q-1.556,4.344-3.105,8.7c-.741,3.5.591,7.378-1.178,10.19-1.273-.135-3.56,1.144-3.765-.885h.148C77.883,170.227,78,170.2,78.129,170.175Zm26.125-21.842c-.339,1.962-2.21,6.791.144,7.749v-7.749ZM47.279,173.867a2.293,2.293,0,0,0,.443,2.285c.072-.019.148-.041.223-.068C47.722,175.347,47.5,174.6,47.279,173.867ZM60.046,188.7c-.068,1.54-.141,5.567.817,6.5.049-.028.091-.048.144-.073C61.67,192.9,61.688,189.9,60.046,188.7Zm1.187,21.33c-.1.222-.2.437-.3.666.148.215.3.445.445.659.044-.027.092-.044.143-.073.025-.318.051-.638.075-.957-.049-.1-.1-.2-.147-.294Z" transform="translate(-41.457 -110.282)" fill="#fff" fill-rule="evenodd"/>
</svg>
