<svg xmlns="http://www.w3.org/2000/svg" width="77.753" height="133.658" viewBox="0 0 77.753 133.658">
  <path id="Path_62" data-name="Path 62" d="M291.613,212.175c12.085-.307,8.005,17.573,2.139,19.668.131.174.265.35.4.532,2.936,1.331,7.73,3.5,8.96,6.546,2.453,6.082-1.334,12.112-.126,19.539a23.019,23.019,0,0,0,1.6,4.82c.539,2.351,1.072,4.718,1.6,7.079a18,18,0,0,0,3.617,4.819c1.493-.355,3.836-1.281,4.143-2.8-1.349-2.433-3.255-4.574-3.869-7.768-1.014-5.173,6.277-7.309,10.7-5.48,2.661,1.1,2.509,2.789,4.133,4.153,1.143-.345,3.806-.877,4.958-.406H329.6c-1.674.734-3.917.628-5.361,1.462.128,3.152.6,6.1-.936,8.966a8.693,8.693,0,0,1-3.066.144v.123c.224.263.434.539.661.8a8.817,8.817,0,0,0,5.352,0c3.137,2.373,5.669,5.026,9.1,7.1.7,2.741.9,3.52,0,6.156-1.742.442-3.478.88-5.213,1.329-1.665.3-3.158-.277-4.421.142-.093,5.854,2.1,8.814,2.945,13.379,1.148,6.153.829,11.223,2.941,16.178-.462.759-1.733,1.115-2,1.871-.582,1.563-1.814,10.849-1.344,12.847a15.594,15.594,0,0,1,.268,7.356c-1.122.7-1.818,1.234-3.478.794-.58-.794-1.163-1.606-1.743-2.4.229-1.336.451-2.681.676-4.01-.21-1.155-1.293-2.35-.94-3.881.338-1.452,2.252-2.492,1.74-4.948-.152-.734-.184-3.087-.673-4.017-.4-.307-.8-.626-1.2-.931-1.082-2.958-1.173-4.182-3.48-5.75-.129.081-.265.177-.4.265-.177,1.475-.308,3.878-.94,4.955-.307.114-.626.262-.933.4.22,1.641.441,3.3.666,4.941-.088,1.471-.885,3.072-.535,4.955.421,2.214,1.4,6.582.27,9.089a11.328,11.328,0,0,1-6.02-1.069,3.251,3.251,0,0,1,.4-2.406c.673-.5,1.347-.981,2.007-1.48v-1.064c-.393-.3-.8-.625-1.2-.933.1-.179.184-.351.273-.54.313-.038.62-.08.931-.131.025-2.537-.643-4.378-1.064-6.693-.045-1.291-.093-2.577-.141-3.878a9.388,9.388,0,0,1-5.213-1.193c.063-1.844,1.375-3.864.8-5.629-.66-.441-1.334-.885-2-1.332-1.382-7.556,2.247-16.142.535-22.2h-.129a3,3,0,0,1-3.081-.668c-.709-2.252-1.475-4.192-.805-6.688.338-1.246,1.351-1.826,1.473-3.477-.4.225-.805.446-1.206.666-.091-.138-.174-.26-.267-.4.587-.893,1.167-1.788,1.742-2.67-.355-1.389-.708-2.772-1.074-4.159-1.485-3.579-4.441-6.449-5.477-10.564q-.137-6.813-.268-13.646l-.8.678c-.36,1.243-.709,2.5-1.072,3.742.045.9.091,1.778.134,2.68-.308.716-.625,1.423-.931,2.138.134.664.268,1.339.4,2.005-.116.363-.7.282-.537,1.067.713,1.387,1.417,2.762,2.138,4.151,1.12,4.05,1.329,12.879.544,17.661q-.684,3.39-1.344,6.814c-.437,1.172-1.624,2.61-2.007,3.873q-.206,2.215-.4,4.423a31,31,0,0,0-1.2,3.614c-.124,1.332-.263,2.663-.394,4.007-.449.489-.9.981-1.337,1.475-1.19,3.155.577,7.053-.146,10.3-.832,3.818-1.636,7.888-3.2,11.237a22.976,22.976,0,0,0-2.01,4.675c-1.177,5.026,2.53,7.044,2.139,8.831-.744,2.59-4.444,2.762-7.084,2.143-.154-3.472-.711-6.1.128-9.493.373-1.5,1.929-4.062,1.08-6.294-.189.139-.36.27-.539.406-.729,2.406-2.772,3-4.953,3.869.258,1.914-.035,2.4-1.334,3.086-.048.93-.083,1.882-.136,2.8-.086.05-.174.088-.268.138a5.6,5.6,0,0,1-3.874-.406v-3.327l-.805-.413c.043-1.468.769-2.05.535-2.805h-.136c-.444.3-.883.625-1.337.925a2.7,2.7,0,0,1-1.466-.655c-.22-1.216-.22-2.327-.408-3.084-.62-1.08-1.965-.771-2.945-1.473-2.156-1.554-4.318-6.554-2.8-9.759a8.661,8.661,0,0,0,3.478-1.471c.093-1.468,1.175-1.945.933-2.946-.6-1.147-1.786-1.08-2-2.673.126-.086.263-.171.4-.265.456-.187.9-.36,1.342-.535.152-2.951,1.334-3.472,1.2-6.431.492-.4.978-.8,1.468-1.2-.633-3.112-2.22-5.628-2.805-9.233-.678-4.139,2.632-9.308,3.084-13.234H267.8c-1.732.545-3.12-.446-4.416-.938a8.206,8.206,0,0,1-5.071-4.946c-.842-2.216,3.293-12.3,4.136-13.779.794-1.375,2.262-2.805,2.547-4.547-3.187-.608-1.526-4.491-.809-6.42,1.289-3.472,6.174-17.333,8.425-18.856,3.463-2.332,10.708,1.137,13.514-3.342-.124-.358-.263-.723-.393-1.077h-.143c-1.016.283-.491.552-1.738.54.048.312.1.611.133.93.144.093.264.174.4.27a4.268,4.268,0,0,1-2.27-.936,2.557,2.557,0,0,1,0-2.01c-.186-.041-.37-.085-.542-.131.05-.094.088-.174.134-.273.747-.28,1.447-.514,2.418-.8v-.133c-.144-.312-.277-.625-.409-.93a6.08,6.08,0,0,0,1.342-.678C284.116,216.055,286.678,214.837,291.613,212.175Zm-19.655,35.99c-.474.688-1.452,2.134-.676,2.8.408.088.8.182,1.206.27v-2.945C272.3,248.248,272.134,248.21,271.958,248.165Zm41.6,84.928c.129.164.265.348.393.53v-.53Z" transform="translate(-258.201 -212.171)" fill="#fff" fill-rule="evenodd"/>
</svg>
