<svg xmlns="http://www.w3.org/2000/svg" width="642.555" height="342.396" viewBox="0 0 642.555 342.396">
  <g id="Group_1537" data-name="Group 1537" transform="translate(-679.088 -66.936)">
    <g id="Group_1498" data-name="Group 1498" transform="translate(826.593 176.83)">
      <g id="Group_1495" data-name="Group 1495" transform="translate(0 0)">
        <path id="Path_183" data-name="Path 183" d="M848.545,144.672c1.477,1.023,2.272,1.707,2.272,1.933,0,.681-.341.909-.91.909-12.733.8-29.327,2.047-49.791,3.865q-6.139.681-10.574,1.023l-.454,16.257,31.943-3.184c4.093-.226,6.709-.8,7.846-1.477a19.515,19.515,0,0,1,2.388-.456,6.856,6.856,0,0,1,2.386,1.137c1.023.909,1.592,1.477,1.592,1.933s-.455.8-1.252.909c-8.411.568-22.283,1.7-41.72,3.524a12.256,12.256,0,0,0-2.956.569,3.787,3.787,0,0,1-1.592.8c-.342,0-.909-.341-1.591-1.137-.682-.568-1.023-.91-1.023-1.137a3.948,3.948,0,0,1,.341-1.363,4.707,4.707,0,0,0,.569-2.16V152.744c-8.983.909-13.983,1.591-15.006,1.819a8.524,8.524,0,0,1-2.729.454,6.337,6.337,0,0,1-3.526-1.477c-.907-.684-1.362-1.137-1.362-1.591,0-.57.341-.911,1.251-.911,6.023,0,19.438-.568,40.128-1.933,20.349-1.819,33.081-3.637,38.2-5.342a5.9,5.9,0,0,1,2.5-.682A9.419,9.419,0,0,1,848.545,144.672Zm-59.685,32.74A26.447,26.447,0,0,1,790,181.959l36.835-3.864a2.068,2.068,0,0,0,1.817-.909q1.024-1.706,1.364-1.7a6.046,6.046,0,0,1,2.274.908q1.706,1.2,1.7,1.707c0,.454-.567,1.137-1.479,2.047a6.1,6.1,0,0,0-.8,3.3c-.567,9.1-.907,17.394-.907,24.9-.228,8.3-.683,14.778-1.252,19.327-.57,3.41-1.136,5.115-1.817,5.115-.457,0-1.138-.8-1.819-2.161a7.278,7.278,0,0,1-.8-2.728,6.766,6.766,0,0,1,.682-3.07,1.166,1.166,0,0,1,.116-.456c-.457,0-1.024.116-1.707.116-12.278.682-23.532,1.249-33.762,1.933v5c-.227,2.5-.683,3.75-1.365,3.978-.455,0-.91-.682-1.365-1.819a7.951,7.951,0,0,1-.8-3.524,22.8,22.8,0,0,1,.228-3.638c.226-3.3.452-10,.452-20.122,0-11.028-.227-19.327-.452-25.009-.228-3.184-.228-4.89-.228-5.344,0-.909.113-1.363.453-1.363C787.608,174.571,788.065,175.593,788.86,177.412Zm31.491,44a27.887,27.887,0,0,1,2.956-.228,6.624,6.624,0,0,1,2.157,1.137l.682.682a68.218,68.218,0,0,0,1.024-7.958c.911-16.6,1.479-28.307,1.818-35.012l-38.762,4.091c0,1.365.112,2.73.227,4.207v8.413c13.981-1.363,22.279-2.728,25.008-3.979a10.694,10.694,0,0,1,2.5-.454,3.9,3.9,0,0,1,1.931,1.023c.685.682,1.137,1.023,1.137,1.251,0,.68-.8,1.021-2.273,1.135-10.231,1.251-19.667,2.388-28.306,3.524v10.8c14.551-1.137,23.077-2.386,25.805-3.525a11.084,11.084,0,0,1,2.614-.34,3.776,3.776,0,0,1,1.819.909c.8.682,1.25,1.023,1.25,1.251,0,.682-.8,1.023-2.274,1.023-10.685,1.135-20.349,2.273-29.215,3.3v11.141C807.278,223.112,817.168,222.316,820.351,221.407Zm-16.713-90.946a63.29,63.29,0,0,1,8.07,7.617c1.14,1.365,1.822,2.274,1.822,2.728a7.025,7.025,0,0,1-.57,2.844q-1.024,2.045-1.7,2.045c-.682,0-1.138-.454-1.478-1.365a71.4,71.4,0,0,0-7.276-12.5c-.683-.909-.91-1.365-.91-1.593s.115-.454.342-.454A4.239,4.239,0,0,1,803.638,130.462Z" transform="translate(-763.177 -129.559)" fill="#070203"/>
        <path id="Path_184" data-name="Path 184" d="M789.218,235.705h-.036c-.536,0-1.034-.622-1.57-1.957a8.169,8.169,0,0,1-.811-3.608,22.844,22.844,0,0,1,.231-3.669c.281-4.123.45-11.638.45-20.089,0-9.022-.153-17.433-.454-25-.15-2.11-.228-3.913-.228-5.351,0-.553,0-1.584.675-1.584.349,0,.592.487,1.681,2.973l0,.005a26,26,0,0,1,1.113,4.389l36.629-3.842a1.857,1.857,0,0,0,1.657-.813c1-1.663,1.323-1.8,1.548-1.8a5.952,5.952,0,0,1,2.381.938c1.611,1.128,1.819,1.607,1.819,1.9,0,.475-.434,1.093-1.542,2.2a6.014,6.014,0,0,0-.731,3.142c-.612,9.8-.909,17.937-.909,24.9-.214,7.818-.647,14.51-1.253,19.353-.629,3.774-1.221,5.309-2.04,5.309-.76,0-1.589-1.43-2.012-2.283a7.579,7.579,0,0,1-.821-2.826,7.039,7.039,0,0,1,.683-3.124,1.41,1.41,0,0,1,.021-.165c-.108.007-.226.02-.348.032a10.007,10.007,0,0,1-1.047.068c-3.159.175-6.265.343-9.3.51-8.593.466-16.714.908-24.24,1.407v4.8c-.236,2.6-.717,3.92-1.515,4.186Zm-1.774-60.812c-.079.037-.2.238-.2,1.135,0,1.428.077,3.221.228,5.328.3,7.58.454,16,.454,25.025,0,8.46-.17,15.987-.454,20.138a22.641,22.641,0,0,0-.228,3.62,7.723,7.723,0,0,0,.773,3.426c.56,1.395.939,1.668,1.132,1.694.407-.168.926-.974,1.181-3.774V226.3l.2-.014c7.587-.5,15.778-.951,24.45-1.423q4.557-.247,9.316-.51a9.919,9.919,0,0,0,1.013-.065c.257-.026.493-.051.7-.051h.356l-.159.319a.971.971,0,0,0-.09.357l-.024.1a6.6,6.6,0,0,0-.658,2.972,7.3,7.3,0,0,0,.774,2.635c.7,1.395,1.326,2.032,1.617,2.032s.887-.641,1.6-4.931c.6-4.822,1.033-11.5,1.247-19.3,0-6.961.3-15.111.908-24.9a6.282,6.282,0,0,1,.832-3.4c.686-.692,1.441-1.5,1.441-1.924,0-.093-.118-.478-1.61-1.526a5.862,5.862,0,0,0-2.148-.867c-.034.01-.305.149-1.176,1.6a2.283,2.283,0,0,1-2.006,1.018L789.914,182.3l-.04-.2a26.452,26.452,0,0,0-1.124-4.5A18,18,0,0,0,787.445,174.894Zm2.883,49.224V212.552l4.545-.526c7.819-.906,15.9-1.84,24.865-2.793.791,0,2.078-.107,2.078-.8a4.177,4.177,0,0,0-.819-.781l-.354-.3a3.728,3.728,0,0,0-1.674-.857,10.843,10.843,0,0,0-2.561.333c-2.862,1.2-12.049,2.453-25.841,3.531l-.238.019V199.141l.191-.026c7.454-.98,15.558-1.968,24.14-3.014l4.169-.51c2.08-.159,2.08-.729,2.08-.916a3.048,3.048,0,0,0-.552-.594c-.153-.144-.328-.308-.52-.5a3.888,3.888,0,0,0-1.776-.959,8.945,8.945,0,0,0-2.135.368l-.313.079c-2.773,1.276-11.448,2.658-25.039,3.984l-.243.023-.02-8.9c-.107-1.374-.209-2.67-.209-3.964v-.2l.2-.021,39.021-4.119-.234,4.685c-.343,6.842-.864,17.184-1.6,30.586a68.5,68.5,0,0,1-1.028,7.99l-.082.4-.972-.973a6.479,6.479,0,0,0-2.055-1.079c-.858.007-1.875.121-2.862.231-3.217.911-13.287,1.715-29.931,2.39Zm.441-11.174v10.715c16.5-.673,26.466-1.47,29.615-2.369l.037-.007a27.937,27.937,0,0,1,2.98-.23,6.428,6.428,0,0,1,2.293,1.181l.411.41a69.914,69.914,0,0,0,.938-7.526c.737-13.4,1.255-23.739,1.6-30.581l.209-4.168-38.309,4.044c.011,1.209.107,2.436.207,3.728l.02.261v8.186c13.4-1.314,21.943-2.674,24.7-3.935l.351-.093a9.313,9.313,0,0,1,2.243-.382,4.062,4.062,0,0,1,2.064,1.067c.214.21.387.373.535.515.462.434.692.654.692.913,0,1.044-1.414,1.274-2.477,1.356l-4.159.507c-8.508,1.037-16.543,2.018-23.943,2.991v10.366c13.613-1.069,22.666-2.308,25.5-3.489a11.246,11.246,0,0,1,2.7-.357,3.856,3.856,0,0,1,1.946.952l.367.31c.67.568.976.825.976,1.12,0,.825-.841,1.244-2.495,1.244-8.938.951-17.021,1.887-24.838,2.791Zm-2.95-40.22c-.464,0-1.09-.431-1.762-1.213-.816-.678-1.074-.983-1.074-1.281a4.1,4.1,0,0,1,.356-1.446,4.487,4.487,0,0,0,.553-2.078V153.082c-8.971.911-13.8,1.58-14.737,1.791a8.659,8.659,0,0,1-2.777.459,6.549,6.549,0,0,1-3.655-1.523c-.921-.689-1.452-1.2-1.452-1.766,0-.517.254-1.13,1.468-1.13,6.879,0,21.5-.7,40.119-1.933,20.074-1.794,32.909-3.589,38.138-5.332a6.106,6.106,0,0,1,2.572-.694c.473,0,1.367.456,3.19,1.626l0,.005c2.37,1.64,2.37,1.959,2.37,2.113A1,1,0,0,1,850,147.83c-14.106.883-30.859,2.183-49.776,3.865-3.983.442-7.474.782-10.375,1.007l-.443,15.807,31.7-3.158c5.121-.285,7.056-1.028,7.754-1.447l.07-.026c.376-.075.715-.151,1.017-.217a7.562,7.562,0,0,1,1.413-.243,6.749,6.749,0,0,1,2.5,1.169c1.184,1.048,1.7,1.593,1.7,2.122,0,.577-.538,1-1.44,1.129-9.417.636-24.232,1.887-41.73,3.525a12.049,12.049,0,0,0-2.876.547A3.9,3.9,0,0,1,787.818,172.725ZM786.334,152.6v14.112a4.9,4.9,0,0,1-.592,2.259,3.716,3.716,0,0,0-.318,1.265c0,.121.318.445.943.967.7.808,1.214,1.085,1.451,1.085a3.627,3.627,0,0,0,1.463-.753l.058-.03a12.714,12.714,0,0,1,3.007-.578c17.5-1.638,32.32-2.889,41.724-3.524.648-.095,1.045-.352,1.045-.69,0-.389-.685-1.03-1.518-1.768a7.078,7.078,0,0,0-2.239-1.081,7.621,7.621,0,0,0-1.318.231c-.295.065-.624.138-.99.212-1.281.748-4.088,1.277-7.911,1.489L788.955,169l.466-16.7.2-.016c2.933-.226,6.489-.57,10.564-1.023,18.924-1.682,35.679-2.984,49.8-3.866.516,0,.7-.187.7-.69-.009-.011-.173-.363-2.174-1.749a10.741,10.741,0,0,0-2.948-1.554,5.711,5.711,0,0,0-2.4.659c-5.292,1.766-18.16,3.567-38.276,5.365-18.628,1.228-33.26,1.934-40.15,1.934-.906,0-1.028.347-1.028.689,0,.38.51.841,1.276,1.414a6.211,6.211,0,0,0,3.391,1.433,8.232,8.232,0,0,0,2.659-.443c1.018-.228,5.842-.9,15.053-1.828Zm25.017-6.585c-1,0-1.442-.86-1.685-1.508a70.317,70.317,0,0,0-7.25-12.453c-.836-1.116-.95-1.5-.95-1.719a.606.606,0,0,1,.562-.676,4.344,4.344,0,0,1,1.815.711l.028.019a63.425,63.425,0,0,1,8.1,7.643c1.218,1.461,1.876,2.35,1.876,2.874a7.291,7.291,0,0,1-.588,2.929C812.511,145.322,811.908,146.011,811.351,146.011ZM802.028,130.1c-.082,0-.121.137-.121.235s.114.454.866,1.46a70.8,70.8,0,0,1,7.3,12.549c.321.853.713,1.23,1.276,1.23.165,0,.638-.187,1.506-1.924a6.836,6.836,0,0,0,.545-2.744c0-.463-1.15-1.845-1.768-2.586a62.857,62.857,0,0,0-8.027-7.575A3.853,3.853,0,0,0,802.028,130.1Z" transform="translate(-763.271 -129.654)" fill="#070203"/>
      </g>
      <g id="Group_1496" data-name="Group 1496" transform="translate(115.729 3.979)">
        <path id="Path_185" data-name="Path 185" d="M842.973,141.942a22.13,22.13,0,0,1,1.25,5.8l14.552-2.842c1.934-.342,3.185-.909,3.638-1.819q1.022-1.7,1.705-1.7.512,0,2.047,1.7a4.265,4.265,0,0,1,1.024,1.819,3.132,3.132,0,0,1-.91,1.7,3.619,3.619,0,0,0-.91,2.274l-1.592,15.234c.456,0,.8-.114,1.251-.114a4.827,4.827,0,0,1,1.591.91q1.024,1.022,1.023,1.365,0,.681-1.705.682c-3.864.454-7.389.909-10.684,1.249v19.554c4.774-.909,7.729-1.7,8.752-2.614a3.276,3.276,0,0,1,1.024-.228,4.789,4.789,0,0,1,1.591.909c.682.682,1.023,1.023,1.023,1.251,0,.568-.34.8-1.023.8-4.092.908-7.957,1.7-11.367,2.386v21.713l10.343-3.752a1.617,1.617,0,0,1,.683-.228q0,.683-1.024,1.365l-22.168,10.231a74.13,74.13,0,0,0-8.413,4.091,2.724,2.724,0,0,1-1.7.683A3.976,3.976,0,0,1,830.81,223a17.3,17.3,0,0,1-1.364-1.707,1.1,1.1,0,0,1,.681-1.023c2.5-.568,5.913-1.591,10.006-2.956V190.6a12.732,12.732,0,0,0-.683-4.321,8.384,8.384,0,0,1-.682-2.274c0-.452.114-.8.454-.908a4.915,4.915,0,0,1,2.16,1.135c1.137.911,1.819,1.707,1.819,2.388a5.681,5.681,0,0,1-.228,1.363,9.8,9.8,0,0,0-.227,2.616v25.918a1.615,1.615,0,0,0,.682-.228l9.094-3.3v-44.45c-2.84.456-5.457.8-7.956,1.023v2.842c-.229,2.5-.682,3.865-1.365,3.979-.454,0-.909-.568-1.365-1.819a7.5,7.5,0,0,1-.8-3.412,7.819,7.819,0,0,1,.228-2.045,83.68,83.68,0,0,0,.455-10.233c0-6.707-.227-11.822-.455-15.233a25.678,25.678,0,0,1-.228-3.182c0-.909.116-1.365.341-1.365S842.177,140.122,842.973,141.942ZM861.048,164.9l1.137-17.392-17.734,2.956c0,.8.115,1.591.115,2.386v14.1A145.5,145.5,0,0,0,861.048,164.9Zm24.783-8.868a7.662,7.662,0,0,1,1.362,3.07,2.064,2.064,0,0,1-.567,1.251,21.241,21.241,0,0,0-3.184,5.115c-1.477,2.728-2.84,5.116-4.206,7.163v57.523c-.114.8-.453,1.249-.909,1.363-.339,0-1.024-.8-2.16-2.387a6.127,6.127,0,0,1-1.024-2.956,15.262,15.262,0,0,1,.8-3.41,30.451,30.451,0,0,0,.569-6.367V176.387a91.14,91.14,0,0,1-7.959,8.3c-.452.456-.68.682-.908.682-.34,0-.453-.114-.453-.454,0-.114.113-.342.453-.8a62.218,62.218,0,0,0,7.5-9.663,81.506,81.506,0,0,0,6.708-12.505,20.552,20.552,0,0,0,1.818-7.729v-.456C883.9,153.764,884.693,154.56,885.832,156.037ZM882.647,138.3a7.621,7.621,0,0,1,1.366,3.07,1.287,1.287,0,0,1-.342.909,14.343,14.343,0,0,0-2.5,4.092,49.956,49.956,0,0,1-5.23,8.414,58.694,58.694,0,0,1-6.251,6.935c-.343.226-.569.454-.682.454-.341,0-.457-.114-.457-.342,0,0,.116-.228.343-.681a55.756,55.756,0,0,0,5.457-7.957,81.037,81.037,0,0,0,4.887-10.347,19.122,19.122,0,0,0,1.252-6.366v-.454C880.829,136.03,881.512,136.826,882.647,138.3Zm23.989,35.242c1.136,1.023,1.818,1.819,1.818,2.5a5.721,5.721,0,0,1-.228,1.365,9.747,9.747,0,0,0-.227,2.614v11.368c6.253-.8,10-1.593,11.256-2.274a4.817,4.817,0,0,1,1.248-.226,3.32,3.32,0,0,1,1.591.907c.684.684,1.023,1.025,1.023,1.251,0,.456-.453.682-1.135.682-5.231.8-9.891,1.593-13.984,2.274v20.918a89.162,89.162,0,0,0,10,6.253,61.455,61.455,0,0,0,14.892,3.182.489.489,0,0,1,.455.454c0,.342-.34.684-.908.911-1.821.568-4.775,1.25-8.754,2.159a29.433,29.433,0,0,1-4.548.909,3.287,3.287,0,0,1-2.047-.909c-3.979-3.752-8.98-8.184-14.891-13.413-3.752-3.184-7.617-6.481-11.483-10.119-.682,1.7-1.365,3.184-1.933,4.549a77.814,77.814,0,0,1-6.708,11.936c-.339.454-.567.8-.681.909-.342,0-.456-.114-.456-.456a9,9,0,0,1,.456-1.023,78.663,78.663,0,0,0,5.8-12.959,121.013,121.013,0,0,0,5.345-16.71,46.448,46.448,0,0,0,1.25-10.119v-.454c.341,0,1.024.8,2.16,2.16.908,1.477,1.478,2.5,1.478,3.182a3.7,3.7,0,0,1-.455,1.593q-1.194,1.706-2.728,7.161a86.123,86.123,0,0,1-2.728,8.185c2.5,2.046,5.8,4.661,10,7.958,1.364,1.137,2.728,2.047,3.865,2.842V180.024a12.967,12.967,0,0,0-.681-4.433,8.345,8.345,0,0,1-.682-2.274.926.926,0,0,1,.453-.909A4.914,4.914,0,0,1,906.636,173.545Zm-7.047-38.424a7.355,7.355,0,0,1,1.363,3.182,3.71,3.71,0,0,1-.456,1.593,34.033,34.033,0,0,0-2.614,7.161c-.682,2.047-1.249,3.751-1.705,5.342,3.07,2.274,5.231,3.979,6.594,5.23a4.054,4.054,0,0,1,1.251,2.386,6.783,6.783,0,0,1-.342,2.614c-.229.683-.456.911-.909.911q-.341,0-1.024-1.023c-1.705-2.616-3.524-5.344-5.457-8.072-.227-.342-.453-.568-.569-.8a74.277,74.277,0,0,1-3.41,8.184,87.742,87.742,0,0,1-6.594,11.938,3.383,3.383,0,0,1-.794.908c-.342,0-.457-.112-.457-.454a2.878,2.878,0,0,1,.457-1.023,91.178,91.178,0,0,0,5.911-12.959,137.07,137.07,0,0,0,5.229-16.71,40.75,40.75,0,0,0,1.364-10.117v-.456C897.766,132.96,898.451,133.756,899.588,135.121Zm18.187-.909a7.33,7.33,0,0,1,1.365,3.182,3.212,3.212,0,0,1-.455,1.477,30.943,30.943,0,0,0-2.5,6.6c-.909,2.728-1.7,5-2.388,6.933a2.361,2.361,0,0,0,.683.455c3.522,2.5,6.819,4.775,9.775,6.819a2.749,2.749,0,0,1,1.137,2.16c0,.456-.114,1.365-.114,2.5-.112,1.022-.228,1.477-.34,1.477a1.985,1.985,0,0,1-1.479-1.023,83.673,83.673,0,0,0-10.117-11.254c-.91,2.274-1.82,4.093-2.5,5.684a96.866,96.866,0,0,1-6.48,11.028,3.377,3.377,0,0,1-.8.908c-.343,0-.455-.112-.455-.454a2.836,2.836,0,0,1,.455-1.023,86.627,86.627,0,0,0,5.683-12.05,129.444,129.444,0,0,0,5.116-15.575,42.438,42.438,0,0,0,1.251-9.55v-.454C915.956,132.051,916.64,132.846,917.775,134.211Z" transform="translate(-829.224 -131.83)" fill="#070203"/>
        <path id="Path_186" data-name="Path 186" d="M878.468,231.83c-.411,0-.915-.415-2.384-2.472a6.351,6.351,0,0,1-1.064-3.084,15.864,15.864,0,0,1,.806-3.476,30.31,30.31,0,0,0,.559-6.3V177.081a91.471,91.471,0,0,1-7.587,7.862c-.493.491-.741.74-1.06.74a.588.588,0,0,1-.675-.675c0-.137.061-.344.5-.929a63.1,63.1,0,0,0,7.49-9.646,81.555,81.555,0,0,0,6.692-12.474,20.389,20.389,0,0,0,1.8-7.645v-.676h.221c.428,0,1.505,1.283,2.334,2.36l.012.017a7.707,7.707,0,0,1,1.4,3.186,2.251,2.251,0,0,1-.611,1.382,20.932,20.932,0,0,0-3.162,5.081c-1.7,3.131-2.988,5.332-4.183,7.131v57.456c-.124.885-.508,1.435-1.078,1.577Zm-1.642-55.951V216.5a30.634,30.634,0,0,1-.574,6.413,15.275,15.275,0,0,0-.791,3.364,5.911,5.911,0,0,0,.993,2.842c1.341,1.88,1.812,2.279,1.97,2.279.331-.089.6-.508.69-1.176l0-57.556.039-.056c1.2-1.8,2.491-4,4.194-7.145a20.848,20.848,0,0,1,3.221-5.165,1.871,1.871,0,0,0,.5-1.1c0-.359-.23-1.16-1.325-2.944a14.939,14.939,0,0,0-1.755-2.01v.067a20.829,20.829,0,0,1-1.836,7.813,81.969,81.969,0,0,1-6.725,12.539,62.335,62.335,0,0,1-7.529,9.7c-.363.485-.393.624-.4.646,0,.218.016.233.234.233.136,0,.381-.247.755-.618a91.462,91.462,0,0,0,7.945-8.285Zm42.41,53.23a3.47,3.47,0,0,1-2.189-.96c-3.835-3.617-8.388-7.661-14.895-13.418-3.974-3.369-7.571-6.45-11.253-9.9-.371.915-.738,1.757-1.091,2.572-.254.584-.5,1.139-.72,1.679a78.632,78.632,0,0,1-6.728,11.975c-.134.179-.246.333-.34.464a5.019,5.019,0,0,1-.37.478l-.067.065h-.088a.59.59,0,0,1-.677-.676l.012-.07a9.213,9.213,0,0,1,.465-1.051,78.741,78.741,0,0,0,5.787-12.931,120,120,0,0,0,5.337-16.69,46.2,46.2,0,0,0,1.246-10.07V179.9h.22c.423,0,.976.613,2.329,2.239,1.02,1.652,1.529,2.609,1.529,3.324a3.856,3.856,0,0,1-.478,1.691c-.8,1.141-1.7,3.529-2.714,7.123-.885,3.1-1.786,5.807-2.676,8.057,2.33,1.9,5.386,4.335,9.875,7.853,1.137.946,2.273,1.735,3.274,2.43l.235.163V180.119a12.843,12.843,0,0,0-.67-4.358,9.4,9.4,0,0,1-.694-2.35,1.137,1.137,0,0,1,.554-1.094l.056-.037h.066a4.864,4.864,0,0,1,2.29,1.181l.015.012c1.136,1.023,1.893,1.868,1.893,2.665a5.883,5.883,0,0,1-.235,1.417,9.651,9.651,0,0,0-.221,2.562v11.118c5.8-.745,9.672-1.532,10.929-2.216L919.3,189l.213-.056a4.014,4.014,0,0,1,1.09-.179,3.357,3.357,0,0,1,1.733.96c.786.782,1.1,1.1,1.1,1.419,0,.564-.508.9-1.356.9-4.31.659-8.3,1.326-11.82,1.917l-1.943.324v20.616a88.22,88.22,0,0,0,9.886,6.171,61.332,61.332,0,0,0,14.813,3.159h0a.7.7,0,0,1,.651.673c0,.436-.393.853-1.048,1.114-1.8.564-4.649,1.227-8.785,2.171A29.383,29.383,0,0,1,919.236,229.109Zm-28.506-25.044.236.221c3.756,3.536,7.419,6.671,11.473,10.11,6.517,5.765,11.069,9.811,14.9,13.422a3.04,3.04,0,0,0,1.895.85,29.9,29.9,0,0,0,4.5-.9c4.131-.945,6.967-1.6,8.739-2.155.451-.182.754-.459.754-.7a.272.272,0,0,0-.235-.233,61.636,61.636,0,0,1-14.969-3.2,88.414,88.414,0,0,1-10.052-6.278l-.095-.065V193.916l2.312-.387c3.521-.589,7.515-1.258,11.861-1.919.308,0,.947-.047.947-.464a4.674,4.674,0,0,0-.958-1.1c-.913-.761-1.308-.843-1.435-.843a3.658,3.658,0,0,0-.977.163l-.193.051c-1.361.727-5.27,1.516-11.306,2.285l-.249.032V180.119a9.92,9.92,0,0,1,.237-2.675,5.451,5.451,0,0,0,.219-1.3c0-.671-.878-1.554-1.738-2.331a4.871,4.871,0,0,0-1.956-1.083.7.7,0,0,0-.3.685,7.425,7.425,0,0,0,.665,2.194,13.268,13.268,0,0,1,.7,4.514v33.5l-.927-.645c-1.007-.7-2.153-1.495-3.3-2.45-4.567-3.58-7.655-6.036-10-7.959l-.123-.1.059-.151a85.772,85.772,0,0,0,2.721-8.163c1.026-3.641,1.955-6.073,2.761-7.228a3.388,3.388,0,0,0,.414-1.465,8.371,8.371,0,0,0-1.445-3.067,18.644,18.644,0,0,0-1.751-1.936v.114a46.667,46.667,0,0,1-1.256,10.168,120.67,120.67,0,0,1-5.355,16.74,79.217,79.217,0,0,1-5.809,12.987,9.614,9.614,0,0,0-.427.953c0,.149.02.186.137.194.065-.08.161-.212.264-.356s.212-.291.34-.463a78.03,78.03,0,0,0,6.681-11.894c.225-.536.468-1.1.72-1.679.392-.9.8-1.833,1.208-2.861Zm-57.665,20.611a4.158,4.158,0,0,1-2.315-1.43c-.4-.5-.7-.855-.926-1.118-.408-.482-.506-.6-.506-.743a1.323,1.323,0,0,1,.8-1.219c2.419-.555,5.637-1.505,9.885-2.918V190.692a12.643,12.643,0,0,0-.669-4.245,8.379,8.379,0,0,1-.7-2.348c0-.608.2-.985.6-1.118l.071-.012a4.86,4.86,0,0,1,2.293,1.179c1.3,1.044,1.906,1.857,1.906,2.565a5.9,5.9,0,0,1-.234,1.418,9.735,9.735,0,0,0-.219,2.562v25.656a2.975,2.975,0,0,0,.352-.156l8.982-3.259V168.9c-2.748.435-5.211.752-7.518.965V172.5c-.246,2.735-.739,4.062-1.548,4.2h0c-.619,0-1.117-.624-1.6-1.961a7.653,7.653,0,0,1-.809-3.487,8.062,8.062,0,0,1,.233-2.1,78.541,78.541,0,0,0,.45-10.178c0-6.947-.246-12.109-.457-15.218a27.337,27.337,0,0,1-.227-3.2c0-.783.067-1.586.564-1.586.183,0,.491,0,1.79,2.975l0,.009a22,22,0,0,1,1.241,5.614l14.313-2.8c1.948-.341,3.084-.9,3.483-1.7.753-1.251,1.354-1.828,1.9-1.828.286,0,.794.2,2.211,1.779.792,1.053,1.081,1.582,1.081,1.966a3.21,3.21,0,0,1-.961,1.847,3.411,3.411,0,0,0-.859,2.132l-1.565,15c.116-.01.231-.026.348-.042a4.334,4.334,0,0,1,.657-.059c.192,0,.546.114,1.719.95.987.983,1.117,1.332,1.117,1.545,0,.9-1.449.9-1.926.9-1.235.145-2.46.294-3.653.438-2.389.291-4.65.564-6.811.788v19.088c4.968-.955,7.48-1.708,8.383-2.513l.078-.044a3.535,3.535,0,0,1,1.094-.238c.192,0,.549.112,1.719.951.8.79,1.117,1.109,1.117,1.43,0,.673-.419,1.017-1.245,1.017-3.376.755-7.039,1.524-11.145,2.346v21.217l10.047-3.643a1.715,1.715,0,0,1,.759-.242h.221v.221c0,.533-.379,1.053-1.124,1.547l-22.2,10.249a73.18,73.18,0,0,0-8.388,4.079A2.917,2.917,0,0,1,833.066,224.675Zm6.288-41.266c-.125.054-.27.2-.27.689a7.368,7.368,0,0,0,.665,2.19,12.851,12.851,0,0,1,.7,4.4v26.873l-.15.051c-4.337,1.446-7.618,2.414-10.027,2.961a.86.86,0,0,0-.512.808c.018.006.2.216.4.459.225.263.528.625.916,1.109a3.753,3.753,0,0,0,1.988,1.281,2.53,2.53,0,0,0,1.568-.634,72.3,72.3,0,0,1,8.462-4.121l22.163-10.231a2.132,2.132,0,0,0,.839-.881,3.249,3.249,0,0,0-.306.144l-10.664,3.869V190.17l.177-.035c4.174-.836,7.891-1.616,11.362-2.387.717-.005.85-.226.85-.58a4.552,4.552,0,0,0-.958-1.095c-1.1-.783-1.378-.845-1.435-.845a2.994,2.994,0,0,0-.914.2c-1.009.862-3.655,1.652-8.822,2.635l-.261.049V168.1l.2-.019c2.218-.23,4.541-.51,7-.808q1.789-.218,3.681-.441c.97,0,1.509-.17,1.509-.463,0-.042-.045-.3-.958-1.209-1.1-.781-1.378-.844-1.435-.844a4.055,4.055,0,0,0-.594.054,4.332,4.332,0,0,1-.658.06h-.245l1.618-15.477a3.831,3.831,0,0,1,.959-2.392,2.959,2.959,0,0,0,.859-1.565,4.769,4.769,0,0,0-.98-1.686c-1.352-1.5-1.773-1.617-1.871-1.617-.207,0-.679.207-1.514,1.6-.464.934-1.672,1.549-3.79,1.922L844.124,148.1l-.023-.243a22.106,22.106,0,0,0-1.235-5.735,11.671,11.671,0,0,0-1.383-2.669,2.919,2.919,0,0,0-.126,1.107,27.077,27.077,0,0,0,.226,3.156c.209,3.128.458,8.3.458,15.26a79.032,79.032,0,0,1-.458,10.263,7.72,7.72,0,0,0-.226,2.015,7.269,7.269,0,0,0,.772,3.314c.539,1.479.963,1.7,1.168,1.7.218-.039.844-.492,1.144-3.778l0-3.024.2-.019c2.424-.219,5.024-.552,7.947-1.02l.254-.04v44.861l-.146.053-9.094,3.3a1.732,1.732,0,0,1-.757.24h-.22V190.692a10.037,10.037,0,0,1,.234-2.676,5.541,5.541,0,0,0,.219-1.3c0-.557-.566-1.281-1.735-2.216A4.617,4.617,0,0,0,839.354,183.41ZM885.069,175h-.053a.588.588,0,0,1-.673-.675,3.012,3.012,0,0,1,.484-1.135,91.269,91.269,0,0,0,5.894-12.922,134.864,134.864,0,0,0,5.223-16.684,40.535,40.535,0,0,0,1.358-10.068v-.677h.221c.425,0,.946.58,2.328,2.239l.02.026a7.381,7.381,0,0,1,1.4,3.3,3.835,3.835,0,0,1-.48,1.691,34.481,34.481,0,0,0-2.6,7.123l-.023.063c-.641,1.927-1.2,3.6-1.639,5.134,3.1,2.3,5.16,3.937,6.486,5.153a4.242,4.242,0,0,1,1.323,2.55,6.883,6.883,0,0,1-.365,2.714c-.2.625-.469,1.03-1.107,1.03-.321,0-.683-.335-1.207-1.121-2.066-3.166-3.8-5.728-5.451-8.065-.1-.152-.2-.277-.287-.389l-.041-.052a73.845,73.845,0,0,1-3.275,7.8A87.328,87.328,0,0,1,886,173.986l-.155.21a2.489,2.489,0,0,1-.727.776Zm12.674-41.6v.116a41,41,0,0,1-1.37,10.171,135.505,135.505,0,0,1-5.237,16.733A91.729,91.729,0,0,1,885.21,173.4a2.948,2.948,0,0,0-.426.916c0,.2.008.23.174.233a3.074,3.074,0,0,0,.529-.62l.149-.2a87.055,87.055,0,0,0,6.569-11.894,75.136,75.136,0,0,0,3.4-8.17l.172-.482.231.457a2.742,2.742,0,0,0,.252.363c.1.121.2.254.3.412,1.656,2.336,3.388,4.9,5.456,8.072.609.913.83.921.839.921.31,0,.483-.108.7-.759a6.207,6.207,0,0,0,.329-2.544,3.861,3.861,0,0,0-1.2-2.243c-1.314-1.2-3.4-2.859-6.559-5.2l-.12-.091.04-.147c.454-1.58,1.026-3.3,1.689-5.3l.019-.054a34.941,34.941,0,0,1,2.634-7.2,3.379,3.379,0,0,0,.425-1.479,7.189,7.189,0,0,0-1.323-3.054A18.5,18.5,0,0,0,897.743,133.4Zm5.969,38.077h-.051a.589.589,0,0,1-.675-.676,3.037,3.037,0,0,1,.486-1.135,85.106,85.106,0,0,0,5.666-12.013,129.215,129.215,0,0,0,5.11-15.552,41.921,41.921,0,0,0,1.244-9.493v-.676h.221c.425,0,.975.613,2.328,2.239l.02.026a7.379,7.379,0,0,1,1.4,3.3,3.4,3.4,0,0,1-.48,1.575,31.211,31.211,0,0,0-2.485,6.555c-.9,2.691-1.687,4.948-2.344,6.811a2.489,2.489,0,0,0,.525.321c3.2,2.267,6.231,4.365,8.905,6.213l.9.624a2.962,2.962,0,0,1,1.232,2.341c0,.181-.017.429-.039.736-.035.48-.075,1.076-.075,1.766-.161,1.465-.3,1.7-.563,1.7a2.189,2.189,0,0,1-1.659-1.121,83.42,83.42,0,0,0-9.853-11c-.535,1.314-1.067,2.483-1.543,3.522-.3.661-.586,1.279-.838,1.868a96.546,96.546,0,0,1-6.5,11.063l-.153.207a2.517,2.517,0,0,1-.728.776Zm12.221-38.986v.116a42.374,42.374,0,0,1-1.255,9.6,129.7,129.7,0,0,1-5.128,15.6,85.314,85.314,0,0,1-5.7,12.078,3.029,3.029,0,0,0-.426.916c0,.2.011.23.176.233a3.265,3.265,0,0,0,.529-.62l.15-.2a96.29,96.29,0,0,0,6.457-10.993c.249-.58.533-1.2.837-1.866.51-1.113,1.085-2.374,1.654-3.8l.122-.3.235.221a83.772,83.772,0,0,1,10.146,11.286,1.891,1.891,0,0,0,1.207.927,6.783,6.783,0,0,0,.214-1.275c0-.68.041-1.286.076-1.772.019-.295.037-.532.037-.706a2.51,2.51,0,0,0-1.057-1.99l-.882-.611c-2.676-1.85-5.709-3.948-8.883-6.2a2.424,2.424,0,0,1-.709-.478l-.1-.1.047-.132c.667-1.887,1.473-4.186,2.389-6.93a31.484,31.484,0,0,1,2.519-6.637,2.983,2.983,0,0,0,.424-1.363,7.168,7.168,0,0,0-1.322-3.056A18.6,18.6,0,0,0,915.933,132.486Zm-71.495,34.8V152.949c0-.391-.027-.79-.056-1.179s-.056-.8-.056-1.207v-.187l18.2-3.033-.018.279-1.15,17.557-.16.037a147.083,147.083,0,0,1-16.515,2.05Zm.332-16.537c.007.329.029.666.054.992.028.394.056.8.056,1.209v13.856a148,148,0,0,0,16.055-1.987l1.109-16.949ZM869.1,162.492c-.557,0-.675-.307-.675-.563l.023-.1.341-.682a56.292,56.292,0,0,0,5.461-7.964,81.1,81.1,0,0,0,4.876-10.32,18.905,18.905,0,0,0,1.236-6.287V135.9h.22c.4,0,.927.529,2.335,2.358l.013.019a7.732,7.732,0,0,1,1.4,3.186,1.5,1.5,0,0,1-.407,1.065,14.4,14.4,0,0,0-2.456,4.027,50.665,50.665,0,0,1-5.256,8.458,58.868,58.868,0,0,1-6.274,6.96c-.157.108-.266.193-.362.264C869.37,162.4,869.246,162.492,869.1,162.492Zm-.231-.515c.007.049.049.073.231.073.006-.011.117-.093.2-.159s.219-.168.355-.257a58.626,58.626,0,0,0,6.2-6.884,50.355,50.355,0,0,0,5.21-8.379,14.74,14.74,0,0,1,2.541-4.149,1.072,1.072,0,0,0,.276-.753c0-.359-.23-1.162-1.325-2.946a17.2,17.2,0,0,0-1.757-2.055v.112a19.32,19.32,0,0,1-1.264,6.439,81.216,81.216,0,0,1-4.9,10.38,56.029,56.029,0,0,1-5.478,7.987Z" transform="translate(-829.319 -131.925)" fill="#070203"/>
      </g>
      <g id="Group_1497" data-name="Group 1497" transform="translate(249.356 0)">
        <path id="Path_187" data-name="Path 187" d="M917.19,143.081q.341,1.193.682,2.387l13.643-2.387c1.933-.342,3.182-.909,3.638-1.819q1.022-1.706,1.705-1.707.512,0,2.046,1.707a4.264,4.264,0,0,1,1.024,1.819c0,.454-.342.909-.909,1.591a4.28,4.28,0,0,0-.8,2.388l-1.706,18.3c.228,0,.569-.112.8-.112a3.326,3.326,0,0,1,1.592.907q1.022,1.025,1.024,1.365c0,.456-.568.8-1.591.8-3.069.456-5.911.8-8.64,1.023v18.3c4.774-1.023,7.616-2.047,8.526-2.956a1.227,1.227,0,0,1,.8-.341,4.088,4.088,0,0,1,1.7.911q1.022,1.02,1.023,1.363a.811.811,0,0,1-.908.8c-4.093,1.137-7.845,2.046-11.141,2.956v20.348l12.618-5.229a2.114,2.114,0,0,1,.8-.228c.226,0,.34.228.34.454q0,.683-1.024,1.365l-22.4,11.368c-3.865,1.932-6.82,3.523-8.639,4.661a2.986,2.986,0,0,1-1.592.8,4.218,4.218,0,0,1-2.5-1.363c-1.139-1.023-1.592-1.593-1.592-1.819a1.183,1.183,0,0,1,.8-1.137,85.6,85.6,0,0,0,8.184-2.728q-.338-14.5-.68-27.283c-.116-1.251-.34-2.844-.683-4.775l-.456-2.274a.3.3,0,0,1,.343-.342,16.111,16.111,0,0,1,2.842,1.933c1.364,1.139,2.16,1.935,2.16,2.16a16.256,16.256,0,0,1-.569,1.819,10.105,10.105,0,0,0-.34,2.161v25.577c.909-.34,1.7-.68,2.5-1.022l7.276-3.07V169.681c-3.183.455-6.14.8-8.981,1.139,0,1.817.114,3.864.114,5.912,0,1.249-.342,1.817-.909,1.817-.342,0-.8-.568-1.478-1.932a6.777,6.777,0,0,1-.8-2.956,15.387,15.387,0,0,1,.113-2.387c.228-2.273.456-6.252.456-12.05,0-3.751-.228-8.07-.456-12.845-.228-3.184-.34-5.23-.456-6.026a.3.3,0,0,1,.343-.342C915.6,140.011,916.282,141.034,917.19,143.081Zm16.6,22.964,1.137-20.464L918.213,148.2c0,2.045,0,8.638-.114,20.008C926.058,167.408,931.286,166.727,933.787,166.045ZM955.161,200.6a10,10,0,0,1,.794,2.842,1.016,1.016,0,0,1-.454.909,41.294,41.294,0,0,0-4.434,5.457,69.413,69.413,0,0,1-7.846,9.323,67.931,67.931,0,0,1-7.729,6.592,3.082,3.082,0,0,1-.908.342.417.417,0,0,1-.456-.456,1.085,1.085,0,0,1,.683-.8,83.811,83.811,0,0,0,11.139-12.733,49.09,49.09,0,0,0,6.822-13.3c0-.454.228-.682.455-.682C953.681,198.1,954.363,199.011,955.161,200.6Zm-5.457-49.11c0,1.479-.116,2.728-.116,3.865l17.849-2.046c11.369-1.363,17.959-2.274,19.553-2.728a6.307,6.307,0,0,0,4.2-2.614c.456-.91.912-1.365,1.593-1.365.227,0,.909.681,2.274,1.932a5.143,5.143,0,0,1,1.7,2.5,1.613,1.613,0,0,1-1.363,1.707q-3.243,2.557-9.55,11.936c-.227.342-.34.57-.568.57-.341,0-.455-.342-.455-.911a8.561,8.561,0,0,1,1.25-2.841c1.591-3.3,2.843-6.14,3.752-8.414l-40.356,5a42.5,42.5,0,0,1-1.707,11.141c-.682,2.274-1.363,3.41-2.045,3.638-.456,0-.911-.454-1.591-1.591a9.467,9.467,0,0,1-.683-2.047,2.786,2.786,0,0,1,.683-1.819c2.5-3.865,3.976-9.889,4.659-18.075,0-.568.114-.909.455-.909C949.476,148.423,949.7,149.447,949.7,151.493Zm44.448,32.626q1.366,1.193,1.365,2.047a.417.417,0,0,1-.454.455c-7.958.568-16.484,1.249-25.806,1.933a1.127,1.127,0,0,0,.454.568c1.136,1.137,1.818,2.16,1.818,2.842a13.341,13.341,0,0,1-.226,1.819,18.941,18.941,0,0,0-.228,3.865v24.9c-.114,4.205-.454,7.161-1.136,8.752-.682,1.932-1.365,3.07-2.047,3.3-.567,0-1.136-.456-1.7-1.365-3.753-4.547-7.162-8.3-10.119-11.254-.682-.909-1.023-1.365-1.023-1.591a.416.416,0,0,1,.455-.454c.34,0,1.023.454,2.159,1.363,4.774,4.091,7.731,6.14,8.98,6.14.57-.456.91-1.593,1.024-3.639,0-2.5.114-5.342.226-8.3V194.124a21.534,21.534,0,0,0-.567-4.319,3.923,3.923,0,0,1-.114-1.023H967.1c-9.778.8-15.8,1.363-17.962,1.819a6.1,6.1,0,0,1-2.046.454,4,4,0,0,1-2.158-1.023c-1.024-.682-1.479-1.249-1.479-1.7a.417.417,0,0,1,.455-.456c7.956-.34,13.526-.681,16.483-1.137q5.628-.339,10.573-1.023c4.775-.452,8.755-.8,11.709-1.249a49.756,49.756,0,0,0,6.367-1.023c1.363-.228,2.274-.34,2.842-.456A3.907,3.907,0,0,1,994.152,184.119Zm-11.14-14.892c.909.8,1.366,1.365,1.366,1.819a.418.418,0,0,1-.457.456c-5,.455-10.457.909-16.37,1.591-5.685.568-9.095,1.023-10.459,1.251a2.718,2.718,0,0,1-1.137.228,3.078,3.078,0,0,1-1.933-.8c-.8-.683-1.136-1.139-1.136-1.365s.114-.454.341-.454c4.547-.342,7.731-.683,9.436-.911q3.237-.339,6.139-.682c2.727-.341,4.888-.683,6.706-.909a28.73,28.73,0,0,0,3.637-.8c.8-.114,1.366-.227,1.706-.227A4.606,4.606,0,0,1,983.011,169.227Zm-20.234-38.652a65.757,65.757,0,0,1,7.5,8.185,6.786,6.786,0,0,1,1.592,2.956,12.39,12.39,0,0,1-.456,3.07c-.682,1.593-1.25,2.274-1.7,2.274-.682,0-1.137-.455-1.364-1.479a82.346,82.346,0,0,0-6.708-13.529,4.8,4.8,0,0,1-.8-1.819.418.418,0,0,1,.456-.454A4.771,4.771,0,0,1,962.777,130.575Zm16.483,72.642a158.59,158.59,0,0,1,13.414,11.368c1.593,1.819,2.389,3.524,2.389,4.889a13.535,13.535,0,0,1-.455,3.638c-.228.8-.683,1.249-1.367,1.249-.452,0-1.134-.68-1.93-1.931-3.639-5-7.277-10.119-11.142-15.234-2.275-2.728-3.409-4.207-3.409-4.661a.415.415,0,0,1,.455-.454A6.339,6.339,0,0,1,979.26,203.218Z" transform="translate(-905.487 -129.559)" fill="#070203"/>
        <path id="Path_188" data-name="Path 188" d="M968.022,234.91h-.037c-.655,0-1.271-.48-1.891-1.469-3.541-4.288-6.941-8.069-10.088-11.216l-.042-.049c-.738-.99-1.046-1.4-1.046-1.7a.633.633,0,0,1,.677-.675c.387,0,1.01.382,2.3,1.412,4.679,4.011,7.547,6,8.763,6.087.492-.457.782-1.581.882-3.427,0-2.352.1-4.994.209-7.794l.017-.5V194.219a21.179,21.179,0,0,0-.563-4.274,3.887,3.887,0,0,1-.113-.841c-10.7.872-15.87,1.4-17.813,1.806a6.092,6.092,0,0,1-2.092.459,4.136,4.136,0,0,1-2.291-1.067c-1.054-.7-1.569-1.318-1.569-1.882a.633.633,0,0,1,.677-.675c8.81-.378,13.732-.718,16.449-1.135,3.732-.226,7.283-.569,10.576-1.023l2.162-.205c3.784-.354,7.052-.661,9.54-1.046a49.154,49.154,0,0,0,6.35-1.02c.648-.109,1.184-.189,1.632-.258.517-.077.917-.137,1.219-.2h.011a4.006,4.006,0,0,1,2.45,1.186l0,0c.967.848,1.439,1.572,1.439,2.211a.635.635,0,0,1-.677.676q-6.381.455-13.32,1-5.842.444-12.123.911a.541.541,0,0,0,.193.175l.057.042c.859.859,1.882,2.076,1.882,3a12.461,12.461,0,0,1-.224,1.812l-.008.056a19.02,19.02,0,0,0-.221,3.816v24.9c-.12,4.473-.489,7.28-1.156,8.84-.722,2.048-1.438,3.171-2.178,3.419Zm-12.428-14.666c-.115,0-.235.028-.235.235a6.724,6.724,0,0,0,.958,1.433c3.158,3.159,6.567,6.951,10.134,11.272.526.839,1.025,1.262,1.5,1.282.411-.161,1.061-.846,1.873-3.149.642-1.5,1.008-4.335,1.125-8.686v-24.89a19.113,19.113,0,0,1,.233-3.913,13.012,13.012,0,0,0,.221-1.771,5.054,5.054,0,0,0-1.731-2.662,1.412,1.412,0,0,1-.519-.65l-.146-.294.328-.024c4.319-.316,8.466-.633,12.466-.936,4.633-.354,9.069-.692,13.339-1,.221,0,.249-.114.249-.235,0-.5-.431-1.132-1.287-1.879a3.7,3.7,0,0,0-2.128-1.084c-.265.058-.674.119-1.2.2-.447.068-.979.149-1.61.254a49.675,49.675,0,0,1-6.379,1.025c-2.494.385-5.766.692-9.558,1.048l-2.151.2c-3.3.454-6.86.8-10.582,1.023-2.714.419-7.649.76-16.484,1.139-.134,0-.246.028-.246.233,0,.224.181.72,1.38,1.523a3.877,3.877,0,0,0,2.038.986,5.776,5.776,0,0,0,1.968-.441c2.334-.494,8.889-1.09,18.021-1.833h.355v.221a3.785,3.785,0,0,0,.105.969,21.4,21.4,0,0,1,.574,4.373l-.02,21.881c-.106,2.795-.208,5.434-.208,7.789-.114,2.092-.466,3.3-1.106,3.811l-.061.049h-.077c-1.3,0-4.193-1.968-9.124-6.192A7.4,7.4,0,0,0,955.595,220.244Zm-20.919,6.14a.632.632,0,0,1-.674-.676,1.272,1.272,0,0,1,.774-.978,83.4,83.4,0,0,0,11.088-12.675,49.155,49.155,0,0,0,6.781-13.212c.015-.569.349-.866.676-.866.2,0,.818,0,2.13,2.623l.009.023.062.17a9.291,9.291,0,0,1,.748,2.747,1.238,1.238,0,0,1-.543,1.088,41.668,41.668,0,0,0-4.386,5.4,69.278,69.278,0,0,1-7.869,9.352A67.7,67.7,0,0,1,935.716,226,3.346,3.346,0,0,1,934.676,226.384Zm18.646-27.965c-.112,0-.235.161-.235.461l-.013.07a49.531,49.531,0,0,1-6.85,13.359,83.724,83.724,0,0,1-11.166,12.763l-.052.039c-.389.193-.562.466-.562.6,0,.207.118.235.233.235a3.277,3.277,0,0,0,.81-.317,67.722,67.722,0,0,0,7.674-6.551,68.748,68.748,0,0,0,7.818-9.294,41.822,41.822,0,0,1,4.46-5.486l.056-.04a.815.815,0,0,0,.336-.713,9.152,9.152,0,0,0-.721-2.6l-.06-.158C953.923,198.532,953.413,198.419,953.322,198.419Zm40.015,26.258c-.546,0-1.26-.683-2.119-2.034-.959-1.321-1.93-2.662-2.9-4.009-2.651-3.667-5.394-7.459-8.227-11.209-2.614-3.135-3.455-4.3-3.455-4.794a.634.634,0,0,1,.676-.676,6.494,6.494,0,0,1,2.178,1.181l0,0a158.8,158.8,0,0,1,13.433,11.386c1.608,1.835,2.451,3.574,2.451,5.045a13.614,13.614,0,0,1-.463,3.7C994.581,224.434,993.873,224.677,993.336,224.677Zm-16.083-22.286c-.068.005-.18.035-.18.24,0,.489,2.27,3.212,3.36,4.519,2.843,3.764,5.586,7.557,8.238,11.226q1.462,2.019,2.91,4.02c.867,1.36,1.476,1.84,1.755,1.84.559,0,.946-.366,1.153-1.09a13.213,13.213,0,0,0,.445-3.576c0-1.341-.828-3.026-2.333-4.743a158.006,158.006,0,0,0-13.382-11.338A5.972,5.972,0,0,0,977.254,202.391ZM909.9,224.223a4.358,4.358,0,0,1-2.65-1.419c-1.664-1.5-1.664-1.84-1.664-1.983a1.4,1.4,0,0,1,.935-1.342c2.129-.562,4.826-1.46,8.043-2.674-.238-10.049-.46-18.923-.68-27.127-.115-1.246-.344-2.846-.677-4.741l-.453-2.269a.524.524,0,0,1,.554-.606c.271,0,.794.377,2.569,1.678l.406.3c2.25,1.875,2.25,2.2,2.25,2.337a10.008,10.008,0,0,1-.407,1.384c-.057.161-.117.329-.173.506a9.659,9.659,0,0,0-.33,2.087v25.26c.765-.295,1.448-.587,2.191-.906l7.142-3.012V170.03c-2.695.384-5.223.683-7.671.976l-.867.1c0,.82.028,1.677.055,2.581.026,1.021.06,2.078.06,3.136,0,1.684-.615,2.038-1.132,2.038-.461,0-.945-.6-1.674-2.055a6.877,6.877,0,0,1-.821-3.054,15.013,15.013,0,0,1,.12-2.423c.166-1.68.45-5.495.45-12.013,0-3.376-.189-7.293-.389-11.438l-.066-1.4c-.068-.955-.126-1.81-.177-2.56-.12-1.745-.2-2.9-.277-3.445a.529.529,0,0,1,.56-.594c.668,0,1.353.927,2.362,3.2l.01.03.628,2.2,13.448-2.353c1.939-.342,3.077-.9,3.478-1.7.752-1.251,1.353-1.829,1.9-1.829.283,0,.792.2,2.212,1.78.779,1.037,1.079,1.584,1.079,1.966,0,.541-.382,1.037-.963,1.733a4.007,4.007,0,0,0-.741,2.246l-1.683,18.05c.037-.007.076-.012.11-.021a2.435,2.435,0,0,1,.441-.061,3.383,3.383,0,0,1,1.733.96c.975.972,1.1,1.321,1.1,1.535,0,.492-.475,1.016-1.812,1.016-3.037.452-5.8.782-8.421,1.006v17.827c4.38-.953,7.271-1.961,8.152-2.839a1.436,1.436,0,0,1,.952-.406c.361,0,.878.268,1.834.951.983.979,1.113,1.328,1.113,1.544a1.024,1.024,0,0,1-1.1,1.014c-2.2.611-4.274,1.149-6.282,1.67-1.642.427-3.2.83-4.67,1.235v19.851l12.314-5.1a2.263,2.263,0,0,1,.881-.245.606.606,0,0,1,.562.676c0,.531-.379,1.051-1.123,1.547l-22.417,11.382c-3.915,1.957-6.814,3.52-8.622,4.65A3.021,3.021,0,0,1,909.9,224.223Zm3.4-41.721c-.092,0-.107.016-.107.121l.449,2.23c.338,1.914.57,3.525.683,4.8.222,8.262.446,17.185.684,27.3l0,.156-.147.056a85.875,85.875,0,0,1-8.207,2.734.955.955,0,0,0-.631.925c0,.03.077.356,1.517,1.654a4.065,4.065,0,0,0,2.356,1.309,2.777,2.777,0,0,0,1.454-.748c1.839-1.151,4.751-2.723,8.675-4.687l22.4-11.366c.591-.4.9-.794.9-1.167,0-.1-.036-.235-.12-.235a1.882,1.882,0,0,0-.7.2l-12.938,5.361V190.3l.163-.044c1.519-.421,3.13-.839,4.838-1.281,2.013-.524,4.1-1.064,6.3-1.675l.06-.009c.424,0,.686-.221.686-.575,0-.026-.027-.279-.956-1.209a4.436,4.436,0,0,0-1.549-.845,1.012,1.012,0,0,0-.64.277c-1.229,1.225-5.375,2.316-8.637,3.015l-.267.056V169.232l.2-.017c2.667-.223,5.49-.555,8.628-1.021.841,0,1.4-.238,1.4-.577,0-.024-.026-.277-.958-1.209-.915-.76-1.31-.845-1.436-.845a2.333,2.333,0,0,0-.354.053,2.424,2.424,0,0,1-.441.061h-.243l1.73-18.544a4.427,4.427,0,0,1,.829-2.49c.519-.62.873-1.076.873-1.468a4.9,4.9,0,0,0-.976-1.685c-1.353-1.5-1.774-1.619-1.872-1.619-.208,0-.681.208-1.517,1.6-.465.934-1.673,1.549-3.789,1.922l-13.835,2.422-.734-2.564c-.865-1.939-1.519-2.924-1.954-2.924-.1,0-.12.016-.12.121.078.533.157,1.691.277,3.447.051.748.109,1.6.178,2.563l.066,1.4c.2,4.151.391,8.071.391,11.459,0,6.537-.288,10.369-.458,12.073a15.186,15.186,0,0,0-.112,2.364,6.675,6.675,0,0,0,.773,2.858c.818,1.635,1.168,1.81,1.28,1.81.569,0,.689-.867.689-1.6,0-1.051-.028-2.1-.058-3.126-.028-.977-.055-1.9-.055-2.786v-.2l1.257-.151c2.522-.3,5.127-.611,7.913-1.009l.252-.037v42.465l-7.411,3.126c-.841.361-1.61.689-2.509,1.025l-.3.112v-25.9a10.374,10.374,0,0,1,.348-2.211c.063-.194.123-.363.18-.527a10.267,10.267,0,0,0,.377-1.237,10.739,10.739,0,0,0-2.077-1.992l-.393-.289A18.194,18.194,0,0,0,913.293,182.5Zm42.757-7.615a3.234,3.234,0,0,1-2.074-.848c-1.215-1.043-1.215-1.412-1.215-1.535a.6.6,0,0,1,.561-.673c5.355-.4,8.363-.769,9.406-.908,2.16-.228,4.225-.457,6.141-.683,1.487-.186,2.809-.373,3.992-.54.99-.14,1.887-.267,2.712-.37a27.864,27.864,0,0,0,3.6-.789l.708-.109a7.6,7.6,0,0,1,1.061-.128,4.817,4.817,0,0,1,2.268.825l.036.026c1.022.894,1.437,1.47,1.437,1.985a.632.632,0,0,1-.673.675l-2.776.251c-4.3.384-8.743.782-13.566,1.339-5.443.545-8.966,1-10.45,1.249A2.778,2.778,0,0,1,956.05,174.887Zm24.9-6.14a7.763,7.763,0,0,0-.992.121c-.206.033-.433.068-.682.1a28.775,28.775,0,0,1-3.635.8c-.832.1-1.727.231-2.713.37-1.189.168-2.512.354-4,.541-1.918.226-3.987.456-6.139.683-1.042.139-4.061.506-9.444.909-.105,0-.135.144-.135.233,0,0,.012.3,1.057,1.2a2.892,2.892,0,0,0,1.79.743,2.487,2.487,0,0,0,1.053-.212c1.538-.261,5.074-.72,10.521-1.265,4.828-.557,9.275-.955,13.574-1.341l2.794-.252c.228,0,.257-.119.257-.233,0-.466-.723-1.156-1.273-1.64A4.428,4.428,0,0,0,980.947,168.747Zm-35.093,4.433h-.036c-.548,0-1.046-.477-1.782-1.7a8.072,8.072,0,0,1-.712-2.16,3.019,3.019,0,0,1,.731-1.957c2.4-3.714,3.917-9.593,4.613-17.954,0-.261,0-1.113.675-1.113.167,0,.675,0,.675,3.291,0,.792-.033,1.505-.063,2.2-.022.5-.046.971-.049,1.423l17.6-2.018c11.594-1.391,17.98-2.281,19.519-2.721a6.159,6.159,0,0,0,4.082-2.521c.355-.715.856-1.466,1.778-1.466.258,0,.562.273,1.689,1.316l.732.675c1.132,1.134,1.776,2.1,1.776,2.665a1.829,1.829,0,0,1-1.482,1.906c-2.132,1.7-5.317,5.688-9.467,11.859l-.086.128c-.188.287-.349.536-.666.536-.677,0-.677-.85-.677-1.13a8.759,8.759,0,0,1,1.281-2.951c1.4-2.9,2.643-5.675,3.6-8.039l-39.8,4.934a42.3,42.3,0,0,1-1.707,11.014c-.683,2.278-1.4,3.515-2.185,3.778Zm3.43-24.433c-.075.03-.175.154-.175.68-.7,8.454-2.239,14.4-4.7,18.195a2.587,2.587,0,0,0-.646,1.7,8.857,8.857,0,0,0,.669,1.964c.587.978,1,1.425,1.35,1.452.433-.172,1.1-.925,1.871-3.48a42.39,42.39,0,0,0,1.694-11.088l.008-.186.186-.023,40.728-5.048-.139.347c-.976,2.444-2.277,5.36-3.758,8.427a8.824,8.824,0,0,0-1.228,2.746c0,.689.172.689.234.689s.157-.121.3-.335l.088-.135c4.2-6.245,7.428-10.277,9.594-11.987l.083-.04a1.39,1.39,0,0,0,1.2-1.491c0-.324-.43-1.134-1.64-2.346l-.728-.669a9.475,9.475,0,0,0-1.406-1.2c-.532,0-.937.361-1.38,1.244a6.544,6.544,0,0,1-4.354,2.732c-1.551.443-7.957,1.339-19.576,2.732L949.461,155.7v-.247c0-.536.027-1.1.051-1.689.033-.685.063-1.393.063-2.176A8.123,8.123,0,0,0,949.284,148.748Zm-31.312,19.8,0-.247c.113-11.366.113-17.869.113-20V148.1l17.169-2.688-1.161,20.895-.154.042c-2.374.648-7.22,1.316-15.723,2.166Zm.557-20.064c0,2.3,0,8.673-.112,19.575,8.145-.818,12.874-1.465,15.252-2.089l1.113-20.031Zm51.275-1.1c-.807,0-1.336-.557-1.579-1.652a81.581,81.581,0,0,0-6.681-13.464,4.908,4.908,0,0,1-.828-1.929.633.633,0,0,1,.676-.676c.21,0,.562.142,1.6.834l.027.021a65.861,65.861,0,0,1,7.53,8.211c1.1,1.47,1.638,2.481,1.638,3.091a12.554,12.554,0,0,1-.463,3.124C971.01,146.61,970.4,147.376,969.8,147.376Zm-8.411-17.28c-.121,0-.233.028-.233.235a4.717,4.717,0,0,0,.759,1.7,82,82,0,0,1,6.729,13.571c.268,1.2.787,1.334,1.156,1.334.177,0,.677-.209,1.5-2.139a12.3,12.3,0,0,0,.437-2.984c0-.345-.27-1.118-1.549-2.823a65.242,65.242,0,0,0-7.463-8.142C961.755,130.192,961.474,130.1,961.393,130.1Z" transform="translate(-905.582 -129.654)" fill="#070203"/>
      </g>
    </g>
    <g id="Group_1511" data-name="Group 1511" transform="translate(1060.619 287.433)">
      <g id="Group_1499" data-name="Group 1499" transform="translate(0 11.757)">
        <path id="Path_189" data-name="Path 189" d="M897.054,220.7l.81-1.379a9.522,9.522,0,0,0,6.949,2.665A4.923,4.923,0,0,0,910,216.888c0-3.949-3.759-4.806-5.282-4.9-3.283-.189-7.757-1.473-7.757-6.043a6.435,6.435,0,0,1,6.662-6.329,8.427,8.427,0,0,1,5.665,2.188l-.9,1.617a6.89,6.89,0,0,0-4.714-2.045,4.68,4.68,0,0,0-4.948,4.568c0,3.142,2.713,4.235,5.377,4.379,3.571.191,7.665,2.379,7.665,6.567a6.8,6.8,0,0,1-6.95,6.76C901.623,223.648,898.529,222.505,897.054,220.7Z" transform="translate(-896.738 -199.392)" fill="#070203"/>
        <path id="Path_190" data-name="Path 190" d="M904.905,223.963c-3.311,0-6.425-1.191-7.928-3.033l-.1-.119,1.026-1.747.2.184a9.3,9.3,0,0,0,6.8,2.606,4.7,4.7,0,0,0,4.964-4.869c0-4.242-4.556-4.652-5.077-4.684-2.393-.139-7.964-1.025-7.964-6.264a6.652,6.652,0,0,1,6.885-6.55,8.713,8.713,0,0,1,5.819,2.253l.118.119-1.124,2.011-.208-.2a6.659,6.659,0,0,0-4.571-1.983,4.464,4.464,0,0,0-4.715,4.349c0,3.376,3.237,4.056,5.168,4.16,3.911.209,7.871,2.607,7.871,6.788A7,7,0,0,1,904.905,223.963Zm-7.488-3.2c1.46,1.677,4.375,2.755,7.488,2.755a6.564,6.564,0,0,0,6.729-6.537c0-3.906-3.748-6.151-7.454-6.348-3.55-.191-5.585-1.866-5.585-4.6a4.9,4.9,0,0,1,5.168-4.789,7.028,7.028,0,0,1,4.658,1.912l.684-1.223a8.32,8.32,0,0,0-5.388-2.008,6.215,6.215,0,0,0-6.443,6.108c0,4.864,5.28,5.693,7.548,5.824.565.035,5.492.479,5.492,5.124a5.126,5.126,0,0,1-5.4,5.311,9.679,9.679,0,0,1-6.9-2.539Z" transform="translate(-896.833 -199.487)" fill="#070203"/>
      </g>
      <g id="Group_1500" data-name="Group 1500" transform="translate(19.511 2.57)">
        <path id="Path_191" data-name="Path 191" d="M908.094,195.465a1.108,1.108,0,0,1,1.095-1.1,1.077,1.077,0,0,1,1.094,1.1,1.066,1.066,0,0,1-1.094,1.046A1.1,1.1,0,0,1,908.094,195.465Zm1.9,8.375v23.893h-1.9V203.841Z" transform="translate(-907.873 -194.149)" fill="#070203"/>
        <path id="Path_192" data-name="Path 192" d="M910.314,228.049h-2.346V203.714h2.346Zm-1.905-.442h1.464V204.156h-1.464Zm.876-30.78a1.292,1.292,0,1,1,0-2.583,1.292,1.292,0,1,1,0,2.583Zm0-2.141a.885.885,0,0,0-.876.874.873.873,0,0,0,.876.825.842.842,0,0,0,.874-.825A.855.855,0,0,0,909.284,194.686Z" transform="translate(-907.968 -194.244)" fill="#070203"/>
      </g>
      <g id="Group_1501" data-name="Group 1501" transform="translate(26.441 11.661)">
        <path id="Path_193" data-name="Path 193" d="M931.083,234.444a11.463,11.463,0,0,1-16.275-2.094l.666-1.141v.047l.332-.62a9.846,9.846,0,0,0,8.139,4.426c4.426,0,9.282-4.093,9.614-8.71v-3.758l-.047-3.713-2.522,2.1-.048.047a11.417,11.417,0,0,1-14.134.237,11.318,11.318,0,0,1-3.142-3.569,12.412,12.412,0,0,1-1.617-6.092,11.855,11.855,0,0,1,11.658-12.041,11.206,11.206,0,0,1,7.33,2.665l2.523,2.094v-4.759h1.856v25.368A12.077,12.077,0,0,1,931.083,234.444Zm2.429-24.178a9.883,9.883,0,0,0-19.7,1.333,10.63,10.63,0,0,0,.523,3.189,9.925,9.925,0,0,0,3.236,4.759,9.681,9.681,0,0,0,6.138,2.191,10.078,10.078,0,0,0,6.427-2.427,10.461,10.461,0,0,0,3.094-4.9,9.667,9.667,0,0,0,.285-1.525Z" transform="translate(-911.828 -199.337)" fill="#070203"/>
        <path id="Path_194" data-name="Path 194" d="M924.043,237.236a11.587,11.587,0,0,1-9.317-4.657l-.087-.118,1.243-2.157.2.307a9.579,9.579,0,0,0,7.956,4.326c4.512,0,9.078-4.133,9.392-8.5v-3.743l-.041-3.248-2.2,1.834a11.64,11.64,0,0,1-14.422.257,11.62,11.62,0,0,1-3.2-3.637,12.68,12.68,0,0,1-1.646-6.2,12.09,12.09,0,0,1,11.88-12.262,11.472,11.472,0,0,1,7.474,2.718l2.158,1.792v-4.51h2.3v25.589a12.369,12.369,0,0,1-4.413,9.688l0,0A11.646,11.646,0,0,1,924.043,237.236Zm-8.875-4.806a11.246,11.246,0,0,0,15.875,1.936,11.777,11.777,0,0,0,4.247-9.344V199.874h-1.414v5.008l-2.883-2.394a11.037,11.037,0,0,0-7.192-2.614,11.647,11.647,0,0,0-11.437,11.82,12.232,12.232,0,0,0,1.587,5.984,11.44,11.44,0,0,0,9.85,5.789,11.317,11.317,0,0,0,7.1-2.522l.029-.031,2.891-2.4.055,4.174v3.764c-.332,4.6-5.111,8.929-9.833,8.929a10,10,0,0,1-8.116-4.225l-.577,1.074v-.11Zm8.634-10.377a9.868,9.868,0,0,1-6.279-2.239,10.245,10.245,0,0,1-3.307-4.866,10.918,10.918,0,0,1-.533-3.254,10.1,10.1,0,0,1,20.143-1.359v2.646a9.447,9.447,0,0,1-.293,1.581,10.645,10.645,0,0,1-3.161,5.009A10.27,10.27,0,0,1,923.8,222.053Zm0-20.275a9.81,9.81,0,0,0-9.677,9.916,10.441,10.441,0,0,0,.514,3.123,9.788,9.788,0,0,0,3.163,4.656,9.44,9.44,0,0,0,6,2.139,9.817,9.817,0,0,0,6.283-2.376,10.2,10.2,0,0,0,3.027-4.8,9.417,9.417,0,0,0,.277-1.482l0-2.583A9.731,9.731,0,0,0,923.8,201.778Z" transform="translate(-911.923 -199.432)" fill="#070203"/>
      </g>
      <g id="Group_1502" data-name="Group 1502" transform="translate(55.55 0.049)">
        <path id="Path_195" data-name="Path 195" d="M930.612,213.633v15.088h-1.951v-35.79h1.951v16.944a15.722,15.722,0,0,1,2.382-2.618,10.01,10.01,0,0,1,15.324,3.093,11.886,11.886,0,0,1,1.619,5.092c0,.809.095,2.665-.048,13.233H948.08V214.823c-.38-4.282-4.664-8.139-8.709-8.139A9.343,9.343,0,0,0,930.612,213.633Z" transform="translate(-928.44 -192.71)" fill="#070203"/>
        <path id="Path_196" data-name="Path 196" d="M930.927,229.035h-2.391V192.8h2.391v16.508a13.839,13.839,0,0,1,2.022-2.134,10.233,10.233,0,0,1,15.654,3.155,12.077,12.077,0,0,1,1.646,5.187c0,.152,0,.319.01.554.017,1.172.063,3.921-.056,12.7l0,.219h-2.247V214.918c-.362-4.062-4.486-7.918-8.489-7.918a9.146,9.146,0,0,0-8.537,6.76Zm-1.951-.442h1.51l.008-14.927a9.594,9.594,0,0,1,8.969-7.109c4.21,0,8.549,4.053,8.929,8.34l0,13.65h1.37c.116-8.6.07-11.305.053-12.467,0-.237-.008-.406-.008-.545a11.61,11.61,0,0,0-1.589-4.978,9.791,9.791,0,0,0-15-3.035,15.632,15.632,0,0,0-2.338,2.574l-.4.559v-17.41h-1.51Z" transform="translate(-928.536 -192.805)" fill="#070203"/>
      </g>
      <g id="Group_1503" data-name="Group 1503" transform="translate(80.424 2.379)">
        <path id="Path_197" data-name="Path 197" d="M956.612,207.683h-5.9v20.086h-1.9V207.683h-5.949v-1.952h5.949v-11.47h1.856l.047,11.47h5.9Z" transform="translate(-942.637 -194.04)" fill="#070203"/>
        <path id="Path_198" data-name="Path 198" d="M951.028,228.084h-2.347V208h-5.949v-2.391h5.949V194.135h2.3v.221l.047,11.251h5.9V208h-5.9Zm-1.905-.441h1.463V207.557h5.9v-1.509h-5.9l0-.221-.047-11.251h-1.415v11.472h-5.949v1.509h5.949Z" transform="translate(-942.732 -194.135)" fill="#070203"/>
      </g>
      <g id="Group_1504" data-name="Group 1504" transform="translate(97.516 0.065)">
        <path id="Path_199" data-name="Path 199" d="M966.607,213.851h-8.329V228.7h-1.761v-14.85h-3.9v-1.617h3.9v-7.426a11.8,11.8,0,0,1,10.09-11.85v1.808a9.778,9.778,0,0,0-8.329,9.994v7.473h8.329Z" transform="translate(-952.392 -192.706)" fill="#070203"/>
        <path id="Path_200" data-name="Path 200" d="M958.594,229.029h-2.2V214.18h-3.9v-2.059h3.9v-7.205a12.074,12.074,0,0,1,10.282-12.069l.251-.034v2.248l-.188.03a9.518,9.518,0,0,0-8.142,9.777v7.252h8.33v2.059h-8.33Zm-1.761-.442h1.319V213.739h8.33v-1.178h-8.33v-7.692a9.942,9.942,0,0,1,8.33-10.182v-1.366a11.644,11.644,0,0,0-9.649,11.6v7.645h-3.9v1.178h3.9Z" transform="translate(-952.487 -192.814)" fill="#070203"/>
      </g>
      <g id="Group_1505" data-name="Group 1505" transform="translate(115.592 11.708)">
        <path id="Path_201" data-name="Path 201" d="M986.25,212.532H964.642c.856,6.282,5.571,9.329,9.948,9.329a10.9,10.9,0,0,0,5.141-1.477l2.855.047a11.588,11.588,0,0,1-8,3.238,12.048,12.048,0,0,1,0-24.084C981.158,199.585,986.108,205.248,986.25,212.532Zm-1.9-1.808c-1.238-6.236-5.378-9.378-9.756-9.378s-8.948,2.761-9.9,9.378Z" transform="translate(-962.709 -199.364)" fill="#070203"/>
        <path id="Path_202" data-name="Path 202" d="M974.682,223.984a12.269,12.269,0,0,1,0-24.525c6.628,0,11.735,5.658,11.883,13.162l0,.226H964.992c.688,4.328,3.974,8.885,9.69,8.885a10.573,10.573,0,0,0,5.033-1.446l.051-.03,3.454.058-.391.37A11.748,11.748,0,0,1,974.682,223.984Zm0-24.084a11.828,11.828,0,0,0,0,23.642,11.284,11.284,0,0,0,7.439-2.805l-2.241-.037a10.987,10.987,0,0,1-5.2,1.474c-6.092,0-9.537-4.934-10.165-9.518l-.034-.25h21.635C985.881,205.26,981,199.9,974.682,199.9Zm10.029,11.137H964.528l.038-.252c.634-4.412,3.664-9.565,10.116-9.565,4.907,0,8.822,3.75,9.974,9.555ZM965.04,210.6h19.13c-1.174-5.437-4.875-8.934-9.488-8.934C970.692,201.662,966.093,204.015,965.04,210.6Z" transform="translate(-962.803 -199.459)" fill="#070203"/>
      </g>
      <g id="Group_1506" data-name="Group 1506" transform="translate(143.301 11.708)">
        <path id="Path_203" data-name="Path 203" d="M1002.065,212.532H980.456c.858,6.282,5.571,9.329,9.949,9.329a10.9,10.9,0,0,0,5.14-1.477l2.856.047a11.591,11.591,0,0,1-8,3.238,12.048,12.048,0,0,1,0-24.084C996.974,199.585,1001.923,205.248,1002.065,212.532Zm-1.9-1.808c-1.237-6.236-5.378-9.378-9.756-9.378s-8.948,2.761-9.9,9.378Z" transform="translate(-978.522 -199.364)" fill="#070203"/>
        <path id="Path_204" data-name="Path 204" d="M990.5,223.984a12.269,12.269,0,0,1,0-24.525c6.628,0,11.735,5.658,11.882,13.162l0,.226H980.806c.689,4.328,3.975,8.885,9.692,8.885a10.579,10.579,0,0,0,5.034-1.446l.051-.03,3.453.058-.388.37A11.763,11.763,0,0,1,990.5,223.984Zm0-24.084a11.828,11.828,0,0,0,0,23.642,11.289,11.289,0,0,0,7.438-2.805L995.7,220.7a10.974,10.974,0,0,1-5.2,1.474c-6.092,0-9.54-4.934-10.164-9.518l-.035-.25h21.634C1001.694,205.26,996.814,199.9,990.5,199.9Zm10.027,11.137h-20.18l.034-.252c.638-4.412,3.671-9.565,10.12-9.565,4.909,0,8.823,3.75,9.974,9.555Zm-19.668-.441h19.129c-1.174-5.437-4.873-8.934-9.487-8.934C986.508,201.662,981.909,204.015,980.856,210.6Z" transform="translate(-978.617 -199.459)" fill="#070203"/>
      </g>
      <g id="Group_1507" data-name="Group 1507" transform="translate(171.874)">
        <path id="Path_205" data-name="Path 205" d="M997.1,192.9v35.79H995.05V192.9Z" transform="translate(-994.829 -192.682)" fill="#070203"/>
        <path id="Path_206" data-name="Path 206" d="M997.413,229.01h-2.489V192.777h2.489Zm-2.047-.441h1.607V193.218h-1.607Z" transform="translate(-994.924 -192.777)" fill="#070203"/>
      </g>
      <g id="Group_1508" data-name="Group 1508" transform="translate(180.551 2.57)">
        <path id="Path_207" data-name="Path 207" d="M1000,195.465a1.107,1.107,0,0,1,1.093-1.1,1.077,1.077,0,0,1,1.1,1.1,1.066,1.066,0,0,1-1.1,1.046A1.1,1.1,0,0,1,1000,195.465Zm1.9,8.375v23.893H1000V203.841Z" transform="translate(-999.781 -194.149)" fill="#070203"/>
        <path id="Path_208" data-name="Path 208" d="M1002.22,228.049h-2.344V203.714h2.344Zm-1.9-.442h1.461V204.156h-1.461Zm.873-30.78a1.309,1.309,0,0,1-1.315-1.267,1.332,1.332,0,0,1,1.315-1.316,1.292,1.292,0,1,1,0,2.583Zm0-2.141a.884.884,0,0,0-.873.874.871.871,0,0,0,.873.825.842.842,0,0,0,.874-.825A.855.855,0,0,0,1001.191,194.686Z" transform="translate(-999.876 -194.244)" fill="#070203"/>
      </g>
      <g id="Group_1509" data-name="Group 1509" transform="translate(188.764 12.041)">
        <path id="Path_209" data-name="Path 209" d="M1006.451,208.485l.047,15.088h-1.809v-23.7h1.809v4.855a15.584,15.584,0,0,1,2.379-2.618A10.012,10.012,0,0,1,1024.2,205.2a11.883,11.883,0,0,1,1.617,5.092c0,.809.095,2.665-.047,13.233h-1.714l-.046-13.851c-.382-4.283-4.712-8.186-8.759-8.186A9.435,9.435,0,0,0,1006.451,208.485Z" transform="translate(-1004.467 -199.554)" fill="#070203"/>
        <path id="Path_210" data-name="Path 210" d="M1006.815,223.887h-2.252V199.745h2.252v4.419a13.837,13.837,0,0,1,2.02-2.134,10.235,10.235,0,0,1,15.656,3.156,12.089,12.089,0,0,1,1.646,5.186c0,.153,0,.319.009.554.019,1.173.063,3.921-.055,12.7l0,.219h-2.151v-.221l-.047-13.851c-.365-4.084-4.516-7.965-8.538-7.965a9.2,9.2,0,0,0-8.586,6.807Zm-1.81-.441h1.369l-.048-14.9.007-.032a9.652,9.652,0,0,1,9.019-7.156c4.23,0,8.594,4.078,8.976,8.388l.048,13.649h1.278c.114-8.6.069-11.3.05-12.467,0-.236-.008-.407-.008-.545a11.627,11.627,0,0,0-1.587-4.978,9.792,9.792,0,0,0-15-3.035,15.576,15.576,0,0,0-2.338,2.574l-.4.559v-5.321H1005Z" transform="translate(-1004.562 -199.649)" fill="#070203"/>
      </g>
      <g id="Group_1510" data-name="Group 1510" transform="translate(214.461 11.661)">
        <path id="Path_211" data-name="Path 211" d="M1038.393,234.444a11.465,11.465,0,0,1-16.276-2.094l.665-1.141v.047l.333-.62a9.846,9.846,0,0,0,8.139,4.426c4.426,0,9.281-4.093,9.614-8.71v-3.758l-.047-3.713-2.523,2.1-.047.047a11.418,11.418,0,0,1-14.135.237,11.314,11.314,0,0,1-3.141-3.569,12.406,12.406,0,0,1-1.62-6.092,11.858,11.858,0,0,1,11.661-12.041,11.211,11.211,0,0,1,7.33,2.665l2.523,2.094v-4.759h1.856v25.368A12.079,12.079,0,0,1,1038.393,234.444Zm2.428-24.178a9.884,9.884,0,0,0-19.705,1.333,10.662,10.662,0,0,0,.524,3.189,9.936,9.936,0,0,0,3.235,4.759,9.687,9.687,0,0,0,6.14,2.191,10.072,10.072,0,0,0,6.426-2.427,10.449,10.449,0,0,0,3.094-4.9,9.59,9.59,0,0,0,.286-1.525Z" transform="translate(-1019.134 -199.337)" fill="#070203"/>
        <path id="Path_212" data-name="Path 212" d="M1031.349,237.236a11.578,11.578,0,0,1-9.314-4.657l-.09-.118,1.244-2.157.2.307a9.583,9.583,0,0,0,7.957,4.326c4.513,0,9.077-4.133,9.392-8.5v-3.743l-.041-3.248-2.2,1.833a11.641,11.641,0,0,1-14.425.259,11.618,11.618,0,0,1-3.2-3.637,12.671,12.671,0,0,1-1.647-6.2,12.089,12.089,0,0,1,11.882-12.262,11.464,11.464,0,0,1,7.47,2.718l2.16,1.792v-4.51h2.3v25.589a12.38,12.38,0,0,1-4.412,9.688l0,0A11.656,11.656,0,0,1,1031.349,237.236Zm-8.873-4.806a11.247,11.247,0,0,0,15.876,1.936,11.781,11.781,0,0,0,4.246-9.344V199.874h-1.414v5.008l-2.882-2.394a11.038,11.038,0,0,0-7.19-2.614,11.648,11.648,0,0,0-11.441,11.82,12.254,12.254,0,0,0,1.589,5.984,11.44,11.44,0,0,0,9.852,5.789,11.322,11.322,0,0,0,7.1-2.522l.025-.03,2.9-2.4.051,4.174v3.764c-.332,4.6-5.11,8.929-9.834,8.929a10,10,0,0,1-8.115-4.225l-.575,1.074v-.11Zm8.635-10.377a9.86,9.86,0,0,1-6.279-2.239,10.228,10.228,0,0,1-3.308-4.866,10.9,10.9,0,0,1-.535-3.254,10.1,10.1,0,0,1,20.145-1.359v2.646a9.276,9.276,0,0,1-.3,1.581,10.613,10.613,0,0,1-3.159,5.009A10.256,10.256,0,0,1,1031.111,222.053Zm0-20.275a9.811,9.811,0,0,0-9.679,9.916,10.47,10.47,0,0,0,.513,3.123,9.8,9.8,0,0,0,3.163,4.656,9.446,9.446,0,0,0,6,2.139,9.813,9.813,0,0,0,6.283-2.376,10.189,10.189,0,0,0,3.024-4.8,9.454,9.454,0,0,0,.28-1.484l0-2.581A9.735,9.735,0,0,0,1031.111,201.778Z" transform="translate(-1019.229 -199.432)" fill="#070203"/>
      </g>
    </g>
    <g id="Group_1512" data-name="Group 1512" transform="translate(679.088 106.981)">
      <rect id="Rectangle_148" data-name="Rectangle 148" width="44.554" height="3.528" transform="translate(0 0)" fill="#070203"/>
      <rect id="Rectangle_149" data-name="Rectangle 149" width="3.528" height="197.986" transform="translate(0 0)" fill="#070203"/>
      <rect id="Rectangle_150" data-name="Rectangle 150" width="44.554" height="3.528" transform="translate(0 194.457)" fill="#070203"/>
    </g>
    <g id="Group_1513" data-name="Group 1513" transform="translate(1277.088 211.346)">
      <rect id="Rectangle_151" data-name="Rectangle 151" width="44.554" height="3.528" transform="translate(0 0)" fill="#070203"/>
      <rect id="Rectangle_152" data-name="Rectangle 152" width="3.528" height="197.986" transform="translate(41.026 0)" fill="#070203"/>
      <rect id="Rectangle_153" data-name="Rectangle 153" width="44.554" height="3.528" transform="translate(0 194.457)" fill="#070203"/>
    </g>
    <path id="Path_213" data-name="Path 213" d="M952.8,307.192a133.71,133.71,0,0,1-92.757,39.358,129.228,129.228,0,0,1-93.668-38.443,131.411,131.411,0,0,1-35.529-67.969,133.855,133.855,0,0,1-2.416-25.7,135.476,135.476,0,0,1,10-50.377,134.012,134.012,0,0,1,28.3-42.941,132.285,132.285,0,0,1,42.658-28.981,130.874,130.874,0,0,1,50.658-10.368,133.109,133.109,0,0,1,50.845,9.917,130.812,130.812,0,0,1,81.323,122.75A133.742,133.742,0,0,1,952.8,307.192Zm-.252-.25a128,128,0,0,0,37.326-92.505A131.658,131.658,0,0,0,951.385,123.1a130.187,130.187,0,0,0-183.281-.606,128.3,128.3,0,0,0-35.824,117.362,131.961,131.961,0,0,0,55.85,82.225,137.952,137.952,0,0,0,22.368,11.98,133.263,133.263,0,0,0,49.55,10.264,128.02,128.02,0,0,0,92.505-37.381Z" transform="translate(37.116 11.157)" fill="#070203"/>
    <path id="Path_214" data-name="Path 214" d="M1024.8,224.069a161.231,161.231,0,0,1-11.286,59.226,156.1,156.1,0,0,1-32.8,50.966,150.772,150.772,0,0,1-110.192,46.247,155.351,155.351,0,0,1-59.563-12.644A160.382,160.382,0,0,1,727.292,283.4a163.857,163.857,0,0,1-9.04-29.039,157,157,0,0,1-3.324-30.29,154.224,154.224,0,0,1,44.753-110.847,157.3,157.3,0,0,1,50.734-34.275,154.915,154.915,0,0,1,120.133.215,151.8,151.8,0,0,1,50.234,34.65,156.713,156.713,0,0,1,32.779,51.01A160.761,160.761,0,0,1,1024.8,224.069Zm-.592,0a153.028,153.028,0,0,0-3.086-29.959,145.958,145.958,0,0,0-9.081-28.659,152.01,152.01,0,0,0-34.014-48.888,157.29,157.29,0,0,0-49.663-32.142,152.791,152.791,0,0,0-210.2,139.648,148.79,148.79,0,0,0,67.491,127.023,152.185,152.185,0,0,0,84.871,24.5,157.333,157.333,0,0,0,57.933-11.645A158.946,158.946,0,0,0,978.1,331.636a152.6,152.6,0,0,0,33.992-48.932,145.768,145.768,0,0,0,9.07-28.671A152.94,152.94,0,0,0,1024.211,224.069Z" transform="translate(26.95 0)" fill="#070203"/>
  </g>
</svg>
