<?xml version="1.0" encoding="utf-8"?>
<!-- Generator: Adobe Illustrator 25.2.3, SVG Export Plug-In . SVG Version: 6.00 Build 0)  -->
<svg version="1.1" id="Layer_1" xmlns="http://www.w3.org/2000/svg" xmlns:xlink="http://www.w3.org/1999/xlink" x="0px" y="0px"
	 viewBox="0 0 642.6 342.4" style="enable-background:new 0 0 642.6 342.4;" xml:space="preserve">
<style type="text/css">
	.st0{fill:#FFFFFF;}
</style>
<g id="Group_1537" transform="translate(-679.088 -66.936)">
	<g id="Group_1498" transform="translate(826.593 176.83)">
		<g id="Group_1495" transform="translate(0 0)">
			<path id="Path_183" class="st0" d="M85.4,15.1c1.5,1,2.3,1.7,2.3,1.9c0,0.7-0.3,0.9-0.9,0.9c-12.7,0.8-29.3,2-49.8,3.9
				c-4.1,0.5-7.6,0.8-10.6,1l-0.5,16.3l31.9-3.2c4.1-0.2,6.7-0.8,7.8-1.5c0.8-0.2,1.6-0.4,2.4-0.5c0.9,0.2,1.7,0.6,2.4,1.1
				c1,0.9,1.6,1.5,1.6,1.9s-0.5,0.8-1.3,0.9c-8.4,0.6-22.3,1.7-41.7,3.5c-1,0.1-2,0.3-3,0.6c-0.5,0.4-1,0.7-1.6,0.8
				c-0.3,0-0.9-0.3-1.6-1.1c-0.7-0.6-1-0.9-1-1.1c0-0.5,0.1-0.9,0.3-1.4c0.4-0.7,0.6-1.4,0.6-2.2V23.2c-9,0.9-14,1.6-15,1.8
				C7,25.3,6,25.5,5.1,25.5c-1.3-0.1-2.5-0.6-3.5-1.5c-0.9-0.7-1.4-1.1-1.4-1.6c0-0.6,0.3-0.9,1.3-0.9c6,0,19.4-0.6,40.1-1.9
				c20.3-1.8,33.1-3.6,38.2-5.3c0.8-0.4,1.6-0.6,2.5-0.7C83.4,13.9,84.5,14.4,85.4,15.1z M25.7,47.9c0.5,1.5,0.9,3,1.1,4.5l36.8-3.9
				c0.7,0,1.4-0.3,1.8-0.9c0.7-1.1,1.1-1.7,1.4-1.7c0.8,0.1,1.6,0.5,2.3,0.9c1.1,0.8,1.7,1.4,1.7,1.7c0,0.5-0.6,1.1-1.5,2
				c-0.6,1-0.9,2.1-0.8,3.3C68,63,67.6,71.3,67.6,78.8c-0.2,8.3-0.7,14.8-1.3,19.3c-0.6,3.4-1.1,5.1-1.8,5.1c-0.5,0-1.1-0.8-1.8-2.2
				c-0.4-0.8-0.7-1.8-0.8-2.7c0-1.1,0.2-2.1,0.7-3.1c0-0.2,0-0.3,0.1-0.5c-0.5,0-1,0.1-1.7,0.1c-12.3,0.7-23.5,1.2-33.8,1.9v5
				c-0.2,2.5-0.7,3.8-1.4,4c-0.5,0-0.9-0.7-1.4-1.8c-0.5-1.1-0.8-2.3-0.8-3.5c0-1.2,0.1-2.4,0.2-3.6c0.2-3.3,0.5-10,0.5-20.1
				c0-11-0.2-19.3-0.5-25c-0.2-3.2-0.2-4.9-0.2-5.3c0-0.9,0.1-1.4,0.5-1.4C24.4,45,24.9,46,25.7,47.9z M57.2,91.9c1-0.1,2-0.2,3-0.2
				c0.8,0.2,1.5,0.6,2.2,1.1l0.7,0.7c0.5-2.6,0.8-5.3,1-8c0.9-16.6,1.5-28.3,1.8-35L27,54.6c0,1.4,0.1,2.7,0.2,4.2v8.4
				c14-1.4,22.3-2.7,25-4c0.8-0.3,1.7-0.4,2.5-0.5c0.7,0.2,1.4,0.5,1.9,1c0.7,0.7,1.1,1,1.1,1.3c0,0.7-0.8,1-2.3,1.1
				c-10.2,1.3-19.7,2.4-28.3,3.5v10.8c14.6-1.1,23.1-2.4,25.8-3.5c0.9-0.2,1.7-0.3,2.6-0.3c0.7,0.1,1.3,0.4,1.8,0.9
				c0.8,0.7,1.2,1,1.2,1.3c0,0.7-0.8,1-2.3,1c-10.7,1.1-20.3,2.3-29.2,3.3v11.1C44.1,93.6,54,92.8,57.2,91.9L57.2,91.9z M40.5,0.9
				c2.9,2.3,5.6,4.8,8.1,7.6c1.1,1.4,1.8,2.3,1.8,2.7c0,1-0.2,1.9-0.6,2.8c-0.7,1.4-1.2,2-1.7,2c-0.7,0-1.1-0.5-1.5-1.4
				c-2-4.4-4.4-8.6-7.3-12.5c-0.7-0.9-0.9-1.4-0.9-1.6s0.1-0.5,0.3-0.5C39.4,0.3,40,0.6,40.5,0.9L40.5,0.9z"/>
			<path id="Path_184" class="st0" d="M25.9,106.1L25.9,106.1c-0.6,0-1.1-0.6-1.6-2c-0.5-1.1-0.8-2.4-0.8-3.6c0-1.2,0.1-2.5,0.2-3.7
				c0.3-4.1,0.5-11.6,0.5-20.1c0-9-0.2-17.4-0.5-25c-0.2-2.1-0.2-3.9-0.2-5.4c0-0.6,0-1.6,0.7-1.6c0.3,0,0.6,0.5,1.7,3v0
				c0.5,1.4,0.9,2.9,1.1,4.4l36.6-3.8c0.7,0,1.3-0.3,1.7-0.8c1-1.7,1.3-1.8,1.5-1.8c0.9,0.1,1.7,0.5,2.4,0.9
				c1.6,1.1,1.8,1.6,1.8,1.9c0,0.5-0.4,1.1-1.5,2.2c-0.5,1-0.8,2-0.7,3.1c-0.6,9.8-0.9,17.9-0.9,24.9c-0.2,7.8-0.6,14.5-1.3,19.4
				c-0.6,3.8-1.2,5.3-2,5.3c-0.8,0-1.6-1.4-2-2.3c-0.5-0.9-0.7-1.8-0.8-2.8c0-1.1,0.2-2.1,0.7-3.1c0-0.1,0-0.1,0-0.2
				c-0.1,0-0.2,0-0.3,0c-0.3,0-0.7,0.1-1,0.1c-3.2,0.2-6.3,0.3-9.3,0.5c-8.6,0.5-16.7,0.9-24.2,1.4v4.8
				C27.3,104.5,26.8,105.8,25.9,106.1L25.9,106.1z M24.2,45.2c-0.1,0-0.2,0.2-0.2,1.1c0,1.4,0.1,3.2,0.2,5.3c0.3,7.6,0.5,16,0.5,25
				c0,8.5-0.2,16-0.5,20.1c-0.2,1.2-0.2,2.4-0.2,3.6c0,1.2,0.3,2.4,0.8,3.4c0.6,1.4,0.9,1.7,1.1,1.7c0.4-0.2,0.9-1,1.2-3.8v-5.2
				l0.2,0c7.6-0.5,15.8-1,24.5-1.4c3-0.2,6.1-0.3,9.3-0.5c0.3,0,0.7,0,1-0.1c0.3,0,0.5-0.1,0.7-0.1h0.4l-0.2,0.3
				c-0.1,0.1-0.1,0.2-0.1,0.4l0,0.1c-0.4,0.9-0.7,1.9-0.7,3c0.1,0.9,0.4,1.8,0.8,2.6c0.7,1.4,1.3,2,1.6,2s0.9-0.6,1.6-4.9
				c0.6-4.8,1-11.5,1.2-19.3c0-7,0.3-15.1,0.9-24.9c-0.1-1.2,0.2-2.4,0.8-3.4c0.7-0.7,1.4-1.5,1.4-1.9c0-0.1-0.1-0.5-1.6-1.5
				c-0.7-0.4-1.4-0.7-2.1-0.9c0,0-0.3,0.1-1.2,1.6c-0.4,0.7-1.2,1.1-2,1l-37,3.9l0-0.2c-0.2-1.5-0.6-3-1.1-4.5
				C25.1,47,24.7,46.1,24.2,45.2L24.2,45.2z M27.1,94.5V82.9l4.5-0.5c7.8-0.9,15.9-1.8,24.9-2.8c0.8,0,2.1-0.1,2.1-0.8
				c-0.2-0.3-0.5-0.6-0.8-0.8l-0.4-0.3c-0.5-0.4-1.1-0.7-1.7-0.9c-0.9,0-1.7,0.1-2.6,0.3c-2.9,1.2-12,2.5-25.8,3.5l-0.2,0V69.5
				l0.2,0c7.5-1,15.6-2,24.1-3l4.2-0.5c2.1-0.2,2.1-0.7,2.1-0.9c-0.2-0.2-0.3-0.4-0.6-0.6c-0.2-0.1-0.3-0.3-0.5-0.5
				c-0.5-0.5-1.1-0.8-1.8-1c-0.7,0-1.4,0.2-2.1,0.4l-0.3,0.1c-2.8,1.3-11.4,2.7-25,4l-0.2,0l0-8.9c-0.1-1.4-0.2-2.7-0.2-4v-0.2
				l0.2,0l39-4.1l-0.2,4.7c-0.3,6.8-0.9,17.2-1.6,30.6c-0.2,2.7-0.5,5.3-1,8l-0.1,0.4l-1-1c-0.6-0.5-1.3-0.8-2.1-1.1
				c-0.9,0-1.9,0.1-2.9,0.2C54,93,43.9,93.8,27.3,94.4L27.1,94.5z M27.5,83.3V94C44,93.3,54,92.5,57.1,91.6l0,0c1-0.1,2-0.2,3-0.2
				c0.8,0.2,1.6,0.6,2.3,1.2l0.4,0.4c0.4-2.5,0.8-5,0.9-7.5c0.7-13.4,1.3-23.7,1.6-30.6l0.2-4.2l-38.3,4c0,1.2,0.1,2.4,0.2,3.7
				l0,0.3v8.2c13.4-1.3,21.9-2.7,24.7-3.9l0.4-0.1c0.7-0.2,1.5-0.3,2.2-0.4c0.8,0.1,1.5,0.5,2.1,1.1c0.2,0.2,0.4,0.4,0.5,0.5
				c0.5,0.4,0.7,0.7,0.7,0.9c0,1-1.4,1.3-2.5,1.4l-4.2,0.5c-8.5,1-16.5,2-23.9,3v10.4c13.6-1.1,22.7-2.3,25.5-3.5
				c0.9-0.2,1.8-0.3,2.7-0.4c0.7,0.1,1.4,0.5,1.9,1l0.4,0.3c0.7,0.6,1,0.8,1,1.1c0,0.8-0.8,1.2-2.5,1.2c-8.9,1-17,1.9-24.8,2.8
				L27.5,83.3z M24.5,43.1c-0.5,0-1.1-0.4-1.8-1.2c-0.8-0.7-1.1-1-1.1-1.3c0-0.5,0.2-1,0.4-1.4c0.4-0.6,0.5-1.4,0.6-2.1V23.4
				c-9,0.9-13.8,1.6-14.7,1.8c-0.9,0.3-1.8,0.5-2.8,0.5c-1.3-0.1-2.6-0.7-3.7-1.5C0.5,23.5,0,23,0,22.4c0-0.5,0.3-1.1,1.5-1.1
				c6.9,0,21.5-0.7,40.1-1.9c20.1-1.8,32.9-3.6,38.1-5.3c0.8-0.4,1.7-0.7,2.6-0.7c0.5,0,1.4,0.5,3.2,1.6v0c2.4,1.6,2.4,2,2.4,2.1
				c0.1,0.5-0.3,1.1-0.8,1.1c-0.1,0-0.2,0-0.3,0C72.6,19.1,55.9,20.4,37,22c-4,0.4-7.5,0.8-10.4,1l-0.4,15.8l31.7-3.2
				c5.1-0.3,7.1-1,7.8-1.4l0.1,0c0.4-0.1,0.7-0.2,1-0.2c0.5-0.1,0.9-0.2,1.4-0.2c0.9,0.2,1.8,0.6,2.5,1.2c1.2,1,1.7,1.6,1.7,2.1
				c0,0.6-0.5,1-1.4,1.1c-9.4,0.6-24.2,1.9-41.7,3.5c-1,0.1-1.9,0.2-2.9,0.5C25.8,42.7,25.2,42.9,24.5,43.1L24.5,43.1z M23.1,22.9
				v14.1c0,0.8-0.2,1.6-0.6,2.3c-0.2,0.4-0.3,0.8-0.3,1.3c0,0.1,0.3,0.4,0.9,1c0.7,0.8,1.2,1.1,1.5,1.1c0.5-0.1,1-0.4,1.5-0.8l0.1,0
				c1-0.3,2-0.5,3-0.6c17.5-1.6,32.3-2.9,41.7-3.5c0.6-0.1,1-0.4,1-0.7c0-0.4-0.7-1-1.5-1.8c-0.7-0.5-1.4-0.9-2.2-1.1
				c-0.4,0-0.9,0.1-1.3,0.2c-0.3,0.1-0.6,0.1-1,0.2c-1.3,0.7-4.1,1.3-7.9,1.5l-32.2,3.2l0.5-16.7l0.2,0c2.9-0.2,6.5-0.6,10.6-1
				c18.9-1.7,35.7-3,49.8-3.9c0.5,0,0.7-0.2,0.7-0.7c0,0-0.2-0.4-2.2-1.7c-0.9-0.7-1.9-1.2-2.9-1.6c-0.8,0-1.7,0.3-2.4,0.7
				c-5.3,1.8-18.2,3.6-38.3,5.4C23,21,8.4,21.7,1.5,21.7c-0.9,0-1,0.3-1,0.7c0,0.4,0.5,0.8,1.3,1.4c1,0.8,2.1,1.3,3.4,1.4
				c0.9,0,1.8-0.2,2.7-0.4c1-0.2,5.8-0.9,15.1-1.8L23.1,22.9z M48.1,16.4c-1,0-1.4-0.9-1.7-1.5c-2-4.4-4.4-8.6-7.2-12.5
				c-0.8-1.1-1-1.5-1-1.7c0-0.3,0.2-0.6,0.5-0.7c0,0,0,0,0,0c0.7,0.1,1.3,0.3,1.8,0.7l0,0c2.9,2.3,5.6,4.9,8.1,7.6
				c1.2,1.5,1.9,2.4,1.9,2.9c0,1-0.2,2-0.6,2.9C49.2,15.7,48.6,16.4,48.1,16.4L48.1,16.4z M38.8,0.4c-0.1,0-0.1,0.1-0.1,0.2
				s0.1,0.5,0.9,1.5c2.9,3.9,5.3,8.1,7.3,12.5c0.3,0.9,0.7,1.2,1.3,1.2c0.2,0,0.6-0.2,1.5-1.9c0.4-0.9,0.6-1.8,0.5-2.7
				c0-0.5-1.2-1.8-1.8-2.6c-2.4-2.8-5.1-5.3-8-7.6C39.9,0.8,39.3,0.5,38.8,0.4z"/>
		</g>
		<g id="Group_1496" transform="translate(115.729 3.979)">
			<path id="Path_185" class="st0" d="M13.7,10.1c0.7,1.9,1.1,3.8,1.2,5.8l14.6-2.8c1.9-0.3,3.2-0.9,3.6-1.8
				c0.7-1.1,1.2-1.7,1.7-1.7c0.3,0,1,0.6,2,1.7c0.5,0.5,0.8,1.1,1,1.8c-0.1,0.6-0.4,1.2-0.9,1.7c-0.6,0.6-0.9,1.4-0.9,2.3l-1.6,15.2
				c0.5,0,0.8-0.1,1.3-0.1c0.6,0.2,1.1,0.5,1.6,0.9c0.7,0.7,1,1.1,1,1.4c0,0.5-0.6,0.7-1.7,0.7c-3.9,0.5-7.4,0.9-10.7,1.2v19.6
				c4.8-0.9,7.7-1.7,8.8-2.6c0.3-0.1,0.7-0.2,1-0.2c0.6,0.2,1.1,0.5,1.6,0.9c0.7,0.7,1,1,1,1.3c0,0.6-0.3,0.8-1,0.8
				c-4.1,0.9-8,1.7-11.4,2.4v21.7l10.3-3.8c0.2-0.1,0.4-0.2,0.7-0.2c0,0.5-0.3,0.9-1,1.4L13.9,87.8c-2.9,1.2-5.7,2.6-8.4,4.1
				c-0.5,0.4-1.1,0.7-1.7,0.7c-0.9-0.2-1.6-0.7-2.2-1.4c-0.5-0.5-0.9-1.1-1.4-1.7c0-0.4,0.3-0.9,0.7-1c2.5-0.6,5.9-1.6,10-3V58.8
				c0-1.5-0.2-2.9-0.7-4.3c-0.3-0.7-0.6-1.5-0.7-2.3c0-0.5,0.1-0.8,0.5-0.9c0.8,0.2,1.5,0.6,2.2,1.1c1.1,0.9,1.8,1.7,1.8,2.4
				c0,0.5-0.1,0.9-0.2,1.4c-0.2,0.9-0.3,1.7-0.2,2.6v25.9c0.2,0,0.5-0.1,0.7-0.2l9.1-3.3V36.7c-2.8,0.5-5.5,0.8-8,1v2.8
				c-0.2,2.5-0.7,3.9-1.4,4c-0.5,0-0.9-0.6-1.4-1.8c-0.5-1.1-0.8-2.2-0.8-3.4c0-0.7,0.1-1.4,0.2-2c0.4-3.4,0.5-6.8,0.5-10.2
				c0-6.7-0.2-11.8-0.5-15.2c-0.1-1.1-0.2-2.1-0.2-3.2c0-0.9,0.1-1.4,0.3-1.4S13,8.3,13.7,10.1z M31.8,33.1L33,15.7l-17.7,3
				c0,0.8,0.1,1.6,0.1,2.4v14.1C20.9,34.8,26.4,34.1,31.8,33.1z M56.6,24.2c0.7,0.9,1.1,2,1.4,3.1c0,0.5-0.2,0.9-0.6,1.3
				c-1.3,1.5-2.4,3.3-3.2,5.1c-1.5,2.7-2.8,5.1-4.2,7.2v57.5c-0.1,0.8-0.5,1.2-0.9,1.4c-0.3,0-1-0.8-2.2-2.4c-0.6-0.9-0.9-1.9-1-3
				c0.1-1.2,0.4-2.3,0.8-3.4c0.4-2.1,0.6-4.2,0.6-6.4v-40c-2.5,2.9-5.1,5.7-8,8.3c-0.5,0.5-0.7,0.7-0.9,0.7c-0.3,0-0.5-0.1-0.5-0.5
				c0-0.1,0.1-0.3,0.5-0.8c2.8-3,5.3-6.2,7.5-9.7c2.6-4,4.8-8.1,6.7-12.5c1.1-2.4,1.7-5.1,1.8-7.7v-0.5
				C54.7,21.9,55.5,22.7,56.6,24.2L56.6,24.2z M53.4,6.5c0.7,0.9,1.1,2,1.4,3.1c0,0.3-0.1,0.7-0.3,0.9c-1.1,1.2-1.9,2.6-2.5,4.1
				c-1.5,3-3.2,5.8-5.2,8.4c-1.9,2.5-4,4.8-6.3,6.9c-0.3,0.2-0.6,0.5-0.7,0.5c-0.3,0-0.5-0.1-0.5-0.3c0,0,0.1-0.2,0.3-0.7
				c2-2.5,3.9-5.2,5.5-8C47,18,48.6,14.6,50,11c0.8-2,1.2-4.2,1.3-6.4V4.2C51.6,4.2,52.3,5,53.4,6.5z M77.4,41.7
				c1.1,1,1.8,1.8,1.8,2.5c0,0.5-0.1,0.9-0.2,1.4c-0.2,0.9-0.3,1.7-0.2,2.6v11.4c6.3-0.8,10-1.6,11.3-2.3c0.4-0.1,0.8-0.2,1.2-0.2
				c0.6,0.1,1.2,0.5,1.6,0.9c0.7,0.7,1,1,1,1.3c0,0.5-0.5,0.7-1.1,0.7c-5.2,0.8-9.9,1.6-14,2.3v20.9c3.2,2.3,6.5,4.4,10,6.3
				c4.8,1.7,9.8,2.7,14.9,3.2c0.2,0,0.4,0.2,0.5,0.5c0,0.3-0.3,0.7-0.9,0.9c-1.8,0.6-4.8,1.2-8.8,2.2c-1.5,0.4-3,0.7-4.5,0.9
				c-0.8-0.1-1.5-0.4-2-0.9c-4-3.8-9-8.2-14.9-13.4c-3.8-3.2-7.6-6.5-11.5-10.1c-0.7,1.7-1.4,3.2-1.9,4.5c-1.9,4.2-4.1,8.2-6.7,11.9
				c-0.3,0.5-0.6,0.8-0.7,0.9c-0.3,0-0.5-0.1-0.5-0.5c0.1-0.4,0.3-0.7,0.5-1c2.3-4.1,4.3-8.5,5.8-13c2.2-5.4,4-11,5.3-16.7
				c0.8-3.3,1.2-6.7,1.2-10.1v-0.5c0.3,0,1,0.8,2.2,2.2c0.9,1.5,1.5,2.5,1.5,3.2c0,0.6-0.2,1.1-0.5,1.6c-0.8,1.1-1.7,3.5-2.7,7.2
				c-0.8,2.8-1.7,5.5-2.7,8.2c2.5,2,5.8,4.7,10,8c1.4,1.1,2.7,2,3.9,2.8V48.2c0-1.5-0.2-3-0.7-4.4c-0.3-0.7-0.6-1.5-0.7-2.3
				c0-0.4,0.1-0.7,0.5-0.9C76.1,40.8,76.8,41.2,77.4,41.7L77.4,41.7z M70.4,3.3c0.7,0.9,1.2,2,1.4,3.2c0,0.6-0.2,1.1-0.5,1.6
				c-1.1,2.3-2,4.7-2.6,7.2c-0.7,2-1.2,3.8-1.7,5.3c3.1,2.3,5.2,4,6.6,5.2c0.7,0.6,1.1,1.5,1.3,2.4c0.1,0.9-0.1,1.8-0.3,2.6
				c-0.2,0.7-0.5,0.9-0.9,0.9c-0.2,0-0.6-0.3-1-1c-1.7-2.6-3.5-5.3-5.5-8.1c-0.2-0.3-0.5-0.6-0.6-0.8c-1,2.8-2.1,5.5-3.4,8.2
				c-1.9,4.1-4.1,8.1-6.6,11.9c-0.2,0.3-0.5,0.7-0.8,0.9c-0.3,0-0.5-0.1-0.5-0.5c0.1-0.4,0.2-0.7,0.5-1c2.3-4.2,4.3-8.5,5.9-13
				c2.1-5.5,3.8-11,5.2-16.7c0.9-3.3,1.3-6.7,1.4-10.1V1.1C68.5,1.1,69.2,1.9,70.4,3.3L70.4,3.3z M88.6,2.4c0.7,0.9,1.2,2,1.4,3.2
				c0,0.5-0.2,1-0.5,1.5c-1.1,2.1-1.9,4.3-2.5,6.6c-0.9,2.7-1.7,5-2.4,6.9c0.2,0.2,0.4,0.3,0.7,0.5c3.5,2.5,6.8,4.8,9.8,6.8
				c0.7,0.5,1.1,1.3,1.1,2.2c0,0.5-0.1,1.4-0.1,2.5c-0.1,1-0.2,1.5-0.3,1.5c-0.6-0.1-1.2-0.5-1.5-1c-3-4-6.4-7.8-10.1-11.3
				c-0.9,2.3-1.8,4.1-2.5,5.7c-1.9,3.8-4.1,7.5-6.5,11c-0.2,0.3-0.5,0.7-0.8,0.9c-0.3,0-0.5-0.1-0.5-0.5c0.1-0.4,0.2-0.7,0.5-1
				C76.5,34,78.4,30,80,25.8c2-5.1,3.7-10.3,5.1-15.6c0.8-3.1,1.2-6.3,1.3-9.6V0.2C86.7,0.2,87.4,1,88.6,2.4L88.6,2.4z"/>
			<path id="Path_186" class="st0" d="M49.1,99.9c-0.4,0-0.9-0.4-2.4-2.5c-0.6-0.9-1-2-1.1-3.1c0.1-1.2,0.4-2.4,0.8-3.5
				c0.4-2.1,0.6-4.2,0.6-6.3V45.2c-2.4,2.8-4.9,5.4-7.6,7.9c-0.5,0.5-0.7,0.7-1.1,0.7c-0.3,0.1-0.6-0.2-0.7-0.5c0-0.1,0-0.1,0-0.2
				c0-0.1,0.1-0.3,0.5-0.9c2.8-3,5.3-6.2,7.5-9.6c2.6-4,4.8-8.1,6.7-12.5c1.1-2.4,1.7-5,1.8-7.6v-0.7h0.2c0.4,0,1.5,1.3,2.3,2.4l0,0
				c0.7,0.9,1.2,2,1.4,3.2c0,0.5-0.3,1-0.6,1.4c-1.3,1.5-2.4,3.2-3.2,5.1c-1.7,3.1-3,5.3-4.2,7.1v57.5
				C50.1,99.2,49.7,99.8,49.1,99.9L49.1,99.9z M47.5,44v40.6c0,2.2-0.2,4.3-0.6,6.4c-0.4,1.1-0.7,2.2-0.8,3.4c0.1,1,0.4,2,1,2.8
				c1.3,1.9,1.8,2.3,2,2.3c0.3-0.1,0.6-0.5,0.7-1.2V40.7l0-0.1c1.2-1.8,2.5-4,4.2-7.1c0.8-1.9,1.9-3.6,3.2-5.2
				c0.3-0.3,0.5-0.7,0.5-1.1c0-0.4-0.2-1.2-1.3-2.9c-0.5-0.7-1.1-1.4-1.8-2v0.1c-0.1,2.7-0.7,5.4-1.8,7.8c-1.9,4.4-4.1,8.6-6.7,12.5
				c-2.2,3.5-4.7,6.7-7.5,9.7c-0.4,0.5-0.4,0.6-0.4,0.6c0,0.2,0,0.2,0.2,0.2c0.1,0,0.4-0.2,0.8-0.6c2.8-2.6,5.5-5.4,7.9-8.3L47.5,44
				z M89.9,97.2c-0.8-0.1-1.6-0.4-2.2-1c-3.8-3.6-8.4-7.7-14.9-13.4c-4-3.4-7.6-6.4-11.3-9.9c-0.4,0.9-0.7,1.8-1.1,2.6
				c-0.3,0.6-0.5,1.1-0.7,1.7c-1.9,4.2-4.1,8.2-6.7,12c-0.1,0.2-0.2,0.3-0.3,0.5c-0.1,0.2-0.2,0.3-0.4,0.5l-0.1,0.1h-0.1
				c-0.3,0.1-0.6-0.2-0.7-0.5c0-0.1,0-0.1,0-0.2l0-0.1c0.1-0.4,0.3-0.7,0.5-1.1c2.3-4.1,4.3-8.5,5.8-12.9c2.2-5.4,4-11,5.3-16.7
				c0.8-3.3,1.2-6.7,1.2-10.1V48h0.2c0.4,0,1,0.6,2.3,2.2c1,1.7,1.5,2.6,1.5,3.3c0,0.6-0.2,1.2-0.5,1.7c-0.8,1.1-1.7,3.5-2.7,7.1
				c-0.9,3.1-1.8,5.8-2.7,8.1c2.3,1.9,5.4,4.3,9.9,7.9c1.1,0.9,2.3,1.7,3.3,2.4l0.2,0.2V48.2c0-1.5-0.2-3-0.7-4.4
				c-0.3-0.7-0.6-1.5-0.7-2.4c0-0.4,0.2-0.9,0.6-1.1l0.1,0h0.1c0.9,0.2,1.6,0.6,2.3,1.2l0,0c1.1,1,1.9,1.9,1.9,2.7
				c0,0.5-0.1,1-0.2,1.4C79,46.5,79,47.3,79,48.2v11.1c5.8-0.7,9.7-1.5,10.9-2.2l0.1,0l0.2-0.1c0.4-0.1,0.7-0.2,1.1-0.2
				c0.7,0.1,1.3,0.5,1.7,1c0.8,0.8,1.1,1.1,1.1,1.4c0,0.6-0.5,0.9-1.4,0.9c-4.3,0.7-8.3,1.3-11.8,1.9L79,62.4V83
				c3.2,2.3,6.5,4.3,9.9,6.2c4.8,1.7,9.8,2.7,14.8,3.2l0,0c0.4,0,0.6,0.3,0.7,0.7c0,0.4-0.4,0.9-1,1.1c-1.8,0.6-4.6,1.2-8.8,2.2
				C93,96.7,91.5,97,89.9,97.2L89.9,97.2z M61.4,72.1l0.2,0.2c3.8,3.5,7.4,6.7,11.5,10.1c6.5,5.8,11.1,9.8,14.9,13.4
				c0.5,0.5,1.2,0.8,1.9,0.9c1.5-0.2,3-0.5,4.5-0.9c4.1-0.9,7-1.6,8.7-2.2c0.5-0.2,0.8-0.5,0.8-0.7c0-0.1-0.1-0.2-0.2-0.2
				c-5.1-0.4-10.1-1.5-15-3.2c-3.5-1.9-6.8-4-10.1-6.3l-0.1-0.1V62l2.3-0.4c3.5-0.6,7.5-1.3,11.9-1.9c0.3,0,0.9,0,0.9-0.5
				c-0.3-0.4-0.6-0.8-1-1.1c-0.9-0.8-1.3-0.8-1.4-0.8c-0.3,0-0.7,0.1-1,0.2l-0.2,0.1c-1.4,0.7-5.3,1.5-11.3,2.3l-0.2,0V48.2
				c0-0.9,0-1.8,0.2-2.7c0.1-0.4,0.2-0.9,0.2-1.3c0-0.7-0.9-1.6-1.7-2.3c-0.6-0.5-1.2-0.9-2-1.1C75.1,41,75,41.2,75,41.5
				c0.1,0.8,0.3,1.5,0.7,2.2c0.5,1.5,0.7,3,0.7,4.5v33.5l-0.9-0.6c-1-0.7-2.2-1.5-3.3-2.4c-4.6-3.6-7.7-6-10-8L62,70.5l0.1-0.2
				c1-2.7,2-5.4,2.7-8.2c1-3.6,2-6.1,2.8-7.2c0.2-0.5,0.4-1,0.4-1.5c-0.3-1.1-0.8-2.2-1.4-3.1c-0.5-0.7-1.1-1.3-1.8-1.9v0.1
				c0,3.4-0.5,6.8-1.3,10.2c-1.4,5.7-3.2,11.3-5.4,16.7c-1.5,4.5-3.5,8.8-5.8,13c-0.2,0.3-0.3,0.6-0.4,1c0,0.1,0,0.2,0.1,0.2
				c0.1-0.1,0.2-0.2,0.3-0.4s0.2-0.3,0.3-0.5c2.6-3.8,4.8-7.7,6.7-11.9c0.2-0.5,0.5-1.1,0.7-1.7c0.4-0.9,0.8-1.8,1.2-2.9L61.4,72.1z
				 M3.7,92.8C2.8,92.5,2,92,1.4,91.3c-0.4-0.5-0.7-0.9-0.9-1.1C0.1,89.7,0,89.6,0,89.5c0-0.5,0.3-1,0.8-1.2
				c2.4-0.6,5.6-1.5,9.9-2.9V58.8c0-1.4-0.2-2.9-0.7-4.2c-0.3-0.7-0.6-1.5-0.7-2.3c0-0.6,0.2-1,0.6-1.1l0.1,0
				c0.9,0.2,1.6,0.6,2.3,1.2c1.3,1,1.9,1.9,1.9,2.6c0,0.5-0.1,1-0.2,1.4c-0.2,0.8-0.3,1.7-0.2,2.6v25.7c0.1,0,0.2-0.1,0.4-0.2l9-3.3
				V37c-2.7,0.4-5.2,0.8-7.5,1v2.6c-0.2,2.7-0.7,4.1-1.5,4.2l0,0c-0.6,0-1.1-0.6-1.6-2c-0.5-1.1-0.8-2.3-0.8-3.5
				c0-0.7,0.1-1.4,0.2-2.1c0.4-3.4,0.5-6.8,0.5-10.2c0-6.9-0.2-12.1-0.5-15.2c-0.1-1.1-0.2-2.1-0.2-3.2c0-0.8,0.1-1.6,0.6-1.6
				c0.2,0,0.5,0,1.8,3v0c0.7,1.8,1.1,3.7,1.2,5.6l14.3-2.8c1.9-0.3,3.1-0.9,3.5-1.7c0.8-1.3,1.4-1.8,1.9-1.8c0.3,0,0.8,0.2,2.2,1.8
				c0.8,1.1,1.1,1.6,1.1,2c-0.1,0.7-0.4,1.4-1,1.8c-0.5,0.6-0.8,1.3-0.9,2.1l-1.6,15c0.1,0,0.2,0,0.3,0c0.2,0,0.4-0.1,0.7-0.1
				c0.2,0,0.5,0.1,1.7,0.9c1,1,1.1,1.3,1.1,1.5c0,0.9-1.4,0.9-1.9,0.9c-1.2,0.1-2.5,0.3-3.7,0.4c-2.4,0.3-4.7,0.6-6.8,0.8v19.1
				c5-1,7.5-1.7,8.4-2.5l0.1,0c0.3-0.1,0.7-0.2,1.1-0.2c0.2,0,0.5,0.1,1.7,1c0.8,0.8,1.1,1.1,1.1,1.4c0,0.7-0.4,1-1.2,1
				c-3.4,0.8-7,1.5-11.1,2.3v21.2l10-3.6c0.2-0.1,0.5-0.2,0.8-0.2h0.2v0.2c0,0.5-0.4,1.1-1.1,1.5L13.9,87.9
				c-2.9,1.2-5.7,2.5-8.4,4.1C5.1,92.5,4.4,92.7,3.7,92.8L3.7,92.8z M10,51.5c-0.1,0.1-0.3,0.2-0.3,0.7c0.1,0.8,0.3,1.5,0.7,2.2
				c0.5,1.4,0.7,2.9,0.7,4.4v26.9L11,85.7c-4.3,1.4-7.6,2.4-10,3c-0.3,0.1-0.5,0.5-0.5,0.8c0,0,0.2,0.2,0.4,0.5
				c0.2,0.3,0.5,0.6,0.9,1.1c0.5,0.6,1.2,1.1,2,1.3c0.6,0,1.1-0.2,1.6-0.6c2.7-1.6,5.6-2.9,8.5-4.1l22.2-10.2
				c0.4-0.2,0.7-0.5,0.8-0.9c-0.1,0-0.2,0.1-0.3,0.1l-10.7,3.9V58.2l0.2,0c4.2-0.8,7.9-1.6,11.4-2.4c0.7,0,0.8-0.2,0.8-0.6
				c-0.3-0.4-0.6-0.8-1-1.1c-1.1-0.8-1.4-0.8-1.4-0.8c-0.3,0-0.6,0.1-0.9,0.2c-1,0.9-3.7,1.7-8.8,2.6l-0.3,0v-20l0.2,0
				c2.2-0.2,4.5-0.5,7-0.8c1.2-0.1,2.4-0.3,3.7-0.4c1,0,1.5-0.2,1.5-0.5c0,0,0-0.3-1-1.2c-1.1-0.8-1.4-0.8-1.4-0.8
				c-0.2,0-0.4,0-0.6,0.1c-0.2,0-0.4,0.1-0.7,0.1h-0.2L35.9,17c0-0.9,0.4-1.7,1-2.4c0.4-0.4,0.7-1,0.9-1.6c-0.2-0.6-0.5-1.2-1-1.7
				c-1.4-1.5-1.8-1.6-1.9-1.6c-0.2,0-0.7,0.2-1.5,1.6c-0.5,0.9-1.7,1.5-3.8,1.9l-14.8,2.9l0-0.2c-0.2-2-0.6-3.9-1.2-5.7
				c-0.3-0.9-0.8-1.8-1.4-2.7C12.1,7.9,12,8.3,12,8.6c0,1.1,0.1,2.1,0.2,3.2c0.2,3.1,0.5,8.3,0.5,15.3c0.1,3.4-0.1,6.9-0.5,10.3
				c-0.2,0.7-0.2,1.3-0.2,2c0,1.2,0.3,2.3,0.8,3.3c0.5,1.5,1,1.7,1.2,1.7c0.2,0,0.8-0.5,1.1-3.8v-3l0.2,0c2.4-0.2,5-0.6,7.9-1l0.3,0
				v44.9l-0.1,0.1l-9.1,3.3c-0.2,0.1-0.5,0.2-0.8,0.2h-0.2V58.8c0-0.9,0-1.8,0.2-2.7c0.1-0.4,0.2-0.9,0.2-1.3c0-0.6-0.6-1.3-1.7-2.2
				C11.5,52.1,10.8,51.7,10,51.5L10,51.5z M55.8,43.1L55.8,43.1c-0.4,0.1-0.7-0.2-0.7-0.5c0-0.1,0-0.1,0-0.2
				c0.1-0.4,0.2-0.8,0.5-1.1c2.3-4.1,4.3-8.5,5.9-12.9c2.1-5.4,3.8-11,5.2-16.7C67.5,8.4,68,5,68,1.6V0.9h0.2c0.4,0,0.9,0.6,2.3,2.2
				l0,0c0.7,1,1.2,2.1,1.4,3.3c0,0.6-0.2,1.2-0.5,1.7c-1.1,2.3-2,4.7-2.6,7.1l0,0.1c-0.6,1.9-1.2,3.6-1.6,5.1
				c3.1,2.3,5.2,3.9,6.5,5.2c0.7,0.7,1.2,1.6,1.3,2.6c0.1,0.9-0.1,1.8-0.4,2.7c-0.2,0.6-0.5,1-1.1,1c-0.3,0-0.7-0.3-1.2-1.1
				c-2.1-3.2-3.8-5.7-5.5-8.1c-0.1-0.2-0.2-0.3-0.3-0.4l0-0.1c-0.9,2.7-2,5.3-3.3,7.8c-1.9,4.1-4.1,8.1-6.6,12l-0.2,0.2
				C56.3,42.6,56.1,42.8,55.8,43.1L55.8,43.1z M68.4,1.5v0.1c0,3.4-0.5,6.9-1.4,10.2c-1.4,5.7-3.1,11.3-5.2,16.7
				c-1.6,4.5-3.6,8.8-5.9,13c-0.2,0.3-0.3,0.6-0.4,0.9c0,0.2,0,0.2,0.2,0.2c0.2-0.2,0.4-0.4,0.5-0.6l0.1-0.2
				C58.8,38,61,34,62.9,29.9c1.3-2.7,2.4-5.4,3.4-8.2l0.2-0.5l0.2,0.5c0.1,0.1,0.2,0.2,0.3,0.4c0.1,0.1,0.2,0.3,0.3,0.4
				c1.7,2.3,3.4,4.9,5.5,8.1c0.6,0.9,0.8,0.9,0.8,0.9c0.3,0,0.5-0.1,0.7-0.8c0.3-0.8,0.4-1.7,0.3-2.5c-0.1-0.9-0.6-1.7-1.2-2.2
				c-1.3-1.2-3.4-2.9-6.6-5.2l-0.1-0.1l0-0.1c0.5-1.6,1-3.3,1.7-5.3l0-0.1c0.6-2.5,1.5-4.9,2.6-7.2c0.3-0.5,0.4-1,0.4-1.5
				c-0.2-1.1-0.6-2.2-1.3-3.1C69.6,2.7,69.1,2.1,68.4,1.5z M74.4,39.6L74.4,39.6c-0.4,0.1-0.7-0.2-0.7-0.5c0-0.1,0-0.1,0-0.2
				c0.1-0.4,0.2-0.8,0.5-1.1c2.2-3.9,4.1-7.9,5.7-12c2-5.1,3.7-10.3,5.1-15.6c0.8-3.1,1.2-6.3,1.2-9.5V0h0.2c0.4,0,1,0.6,2.3,2.2
				l0,0c0.7,1,1.2,2.1,1.4,3.3c0,0.6-0.2,1.1-0.5,1.6c-1.1,2.1-1.9,4.3-2.5,6.6c-0.9,2.7-1.7,4.9-2.3,6.8c0.2,0.1,0.3,0.2,0.5,0.3
				c3.2,2.3,6.2,4.4,8.9,6.2l0.9,0.6c0.8,0.5,1.2,1.4,1.2,2.3c0,0.2,0,0.4,0,0.7c0,0.5-0.1,1.1-0.1,1.8c-0.2,1.5-0.3,1.7-0.6,1.7
				c-0.7-0.1-1.3-0.5-1.7-1.1c-3-4-6.2-7.6-9.9-11c-0.5,1.3-1.1,2.5-1.5,3.5c-0.3,0.7-0.6,1.3-0.8,1.9c-1.9,3.8-4.1,7.5-6.5,11.1
				l-0.2,0.2C75,39.1,74.7,39.3,74.4,39.6L74.4,39.6z M86.6,0.6v0.1c-0.1,3.2-0.5,6.5-1.3,9.6c-1.4,5.3-3.1,10.5-5.1,15.6
				c-1.6,4.2-3.5,8.2-5.7,12.1c-0.2,0.3-0.3,0.6-0.4,0.9c0,0.2,0,0.2,0.2,0.2c0.2-0.2,0.4-0.4,0.5-0.6l0.2-0.2
				c2.4-3.5,4.5-7.2,6.5-11c0.2-0.6,0.5-1.2,0.8-1.9c0.5-1.1,1.1-2.4,1.7-3.8l0.1-0.3l0.2,0.2c3.7,3.4,7.1,7.2,10.1,11.3
				c0.3,0.5,0.7,0.8,1.2,0.9c0.1-0.4,0.2-0.8,0.2-1.3c0-0.7,0-1.3,0.1-1.8c0-0.3,0-0.5,0-0.7c0-0.8-0.4-1.5-1.1-2L94,27.4
				c-2.7-1.9-5.7-3.9-8.9-6.2c-0.3-0.1-0.5-0.3-0.7-0.5l-0.1-0.1l0-0.1c0.7-1.9,1.5-4.2,2.4-6.9c0.6-2.3,1.4-4.5,2.5-6.6
				c0.2-0.4,0.4-0.9,0.4-1.4c-0.2-1.1-0.6-2.2-1.3-3.1C87.8,1.8,87.2,1.2,86.6,0.6L86.6,0.6z M15.1,35.4V21c0-0.4,0-0.8-0.1-1.2
				S15,19,15,18.6v-0.2l18.2-3l0,0.3L32,33.3l-0.2,0c-5.5,1-11,1.7-16.5,2.1L15.1,35.4z M15.5,18.8c0,0.3,0,0.7,0.1,1
				c0,0.4,0.1,0.8,0.1,1.2v13.9c5.4-0.4,10.7-1,16.1-2l1.1-16.9L15.5,18.8z M39.8,30.6c-0.6,0-0.7-0.3-0.7-0.6l0-0.1l0.3-0.7
				c2-2.5,3.9-5.2,5.5-8c1.9-3.3,3.5-6.8,4.9-10.3c0.8-2,1.2-4.1,1.2-6.3V4h0.2c0.4,0,0.9,0.5,2.3,2.4l0,0c0.7,0.9,1.2,2,1.4,3.2
				c0,0.4-0.1,0.8-0.4,1.1c-1,1.2-1.9,2.6-2.5,4c-1.5,3-3.2,5.8-5.3,8.5c-1.9,2.5-4,4.8-6.3,7c-0.2,0.1-0.3,0.2-0.4,0.3
				C40.1,30.5,39.9,30.6,39.8,30.6z M39.5,30.1c0,0,0,0.1,0.2,0.1c0,0,0.1-0.1,0.2-0.2s0.2-0.2,0.4-0.3c2.2-2.1,4.3-4.4,6.2-6.9
				c2-2.6,3.8-5.4,5.2-8.4c0.6-1.5,1.5-2.9,2.5-4.1c0.2-0.2,0.3-0.5,0.3-0.8c0-0.4-0.2-1.2-1.3-2.9c-0.5-0.7-1.1-1.4-1.8-2.1v0.1
				C51.4,6.9,51,9,50.2,11.1c-1.4,3.6-3,7-4.9,10.4c-1.6,2.8-3.4,5.5-5.5,8L39.5,30.1z"/>
		</g>
		<g id="Group_1497" transform="translate(249.356 0)">
			<path id="Path_187" class="st0" d="M11.7,13.5c0.2,0.8,0.5,1.6,0.7,2.4L26,13.5c1.9-0.3,3.2-0.9,3.6-1.8c0.7-1.1,1.2-1.7,1.7-1.7
				c0.3,0,1,0.6,2,1.7c0.5,0.5,0.8,1.1,1,1.8c0,0.5-0.3,0.9-0.9,1.6c-0.5,0.7-0.8,1.5-0.8,2.4L31,35.8c0.2,0,0.6-0.1,0.8-0.1
				c0.6,0.1,1.2,0.5,1.6,0.9c0.7,0.7,1,1.1,1,1.4c0,0.5-0.6,0.8-1.6,0.8c-3.1,0.5-5.9,0.8-8.6,1v18.3c4.8-1,7.6-2,8.5-3
				c0.2-0.2,0.5-0.3,0.8-0.3c0.6,0.2,1.2,0.5,1.7,0.9c0.7,0.7,1,1.1,1,1.4c0,0.4-0.4,0.8-0.8,0.8c0,0-0.1,0-0.1,0
				c-4.1,1.1-7.8,2-11.1,3v20.3l12.6-5.2c0.2-0.1,0.5-0.2,0.8-0.2c0.2,0,0.3,0.2,0.3,0.5c0,0.5-0.3,0.9-1,1.4L14.5,88.9
				c-3.9,1.9-6.8,3.5-8.6,4.7c-0.4,0.4-1,0.7-1.6,0.8c-1-0.2-1.8-0.6-2.5-1.4c-1.1-1-1.6-1.6-1.6-1.8c0-0.5,0.3-1,0.8-1.1
				c2.8-0.8,5.5-1.7,8.2-2.7C9,77.6,8.8,68.5,8.5,60c-0.1-1.3-0.3-2.8-0.7-4.8L7.4,53c0-0.2,0.1-0.3,0.3-0.3c0,0,0.1,0,0.1,0
				c1,0.5,2,1.2,2.8,1.9c1.4,1.1,2.2,1.9,2.2,2.2c-0.2,0.6-0.3,1.2-0.6,1.8c-0.2,0.7-0.3,1.4-0.3,2.2v25.6c0.9-0.3,1.7-0.7,2.5-1
				l7.3-3.1V40.1c-3.2,0.5-6.1,0.8-9,1.1c0,1.8,0.1,3.9,0.1,5.9c0,1.2-0.3,1.8-0.9,1.8c-0.3,0-0.8-0.6-1.5-1.9
				c-0.5-0.9-0.8-1.9-0.8-3c0-0.8,0-1.6,0.1-2.4c0.2-2.3,0.5-6.3,0.5-12.1c0-3.8-0.2-8.1-0.5-12.8c-0.2-3.2-0.3-5.2-0.5-6
				c0-0.2,0.1-0.3,0.3-0.3c0,0,0.1,0,0.1,0C10.1,10.5,10.8,11.5,11.7,13.5z M28.3,36.5L29.4,16l-16.7,2.6c0,2,0,8.6-0.1,20
				C20.6,37.8,25.8,37.2,28.3,36.5L28.3,36.5z M49.7,71c0.4,0.9,0.7,1.9,0.8,2.8c0,0.4-0.2,0.7-0.5,0.9c-1.6,1.7-3.1,3.5-4.4,5.5
				c-2.3,3.3-5,6.5-7.8,9.3c-2.4,2.4-5,4.6-7.7,6.6c-0.3,0.2-0.6,0.3-0.9,0.3c-0.2,0-0.4-0.1-0.5-0.4c0,0,0-0.1,0-0.1
				c0.1-0.4,0.3-0.7,0.7-0.8c4.1-3.9,7.9-8.1,11.1-12.7c2.9-4.1,5.2-8.5,6.8-13.3c0-0.5,0.2-0.7,0.5-0.7
				C48.2,68.5,48.9,69.5,49.7,71z M44.2,21.9c0,1.5-0.1,2.7-0.1,3.9l17.8-2c11.4-1.4,18-2.3,19.6-2.7c1.7-0.3,3.2-1.2,4.2-2.6
				c0.5-0.9,0.9-1.4,1.6-1.4c0.2,0,0.9,0.7,2.3,1.9c0.8,0.6,1.4,1.5,1.7,2.5c0.1,0.8-0.5,1.6-1.4,1.7c-2.2,1.7-5.3,5.7-9.5,11.9
				c-0.2,0.3-0.3,0.6-0.6,0.6c-0.3,0-0.5-0.3-0.5-0.9c0.2-1,0.7-2,1.2-2.8c1.6-3.3,2.8-6.1,3.8-8.4l-40.4,5
				c-0.1,3.8-0.6,7.5-1.7,11.1c-0.7,2.3-1.4,3.4-2,3.6c-0.5,0-0.9-0.5-1.6-1.6c-0.3-0.7-0.5-1.3-0.7-2c0-0.7,0.2-1.3,0.7-1.8
				c2.5-3.9,4-9.9,4.7-18.1c0-0.6,0.1-0.9,0.5-0.9C44,18.9,44.2,19.9,44.2,21.9L44.2,21.9z M88.7,54.6c0.9,0.8,1.4,1.5,1.4,2
				c0,0.2-0.1,0.4-0.4,0.5c0,0-0.1,0-0.1,0c-8,0.6-16.5,1.2-25.8,1.9c0.1,0.2,0.2,0.4,0.5,0.6c1.1,1.1,1.8,2.2,1.8,2.8
				c0,0.6-0.1,1.2-0.2,1.8c-0.2,1.3-0.3,2.6-0.2,3.9V93c-0.1,4.2-0.5,7.2-1.1,8.8c-0.7,1.9-1.4,3.1-2,3.3c-0.6,0-1.1-0.5-1.7-1.4
				c-3.8-4.5-7.2-8.3-10.1-11.3c-0.7-0.9-1-1.4-1-1.6c0-0.2,0.1-0.4,0.4-0.5c0,0,0.1,0,0.1,0c0.3,0,1,0.5,2.2,1.4
				c4.8,4.1,7.7,6.1,9,6.1c0.6-0.5,0.9-1.6,1-3.6c0-2.5,0.1-5.3,0.2-8.3V64.6c0-1.5-0.2-2.9-0.6-4.3c-0.1-0.3-0.1-0.7-0.1-1h-0.1
				c-9.8,0.8-15.8,1.4-18,1.8c-0.7,0.3-1.3,0.4-2,0.5c-0.8-0.1-1.6-0.5-2.2-1c-1-0.7-1.5-1.2-1.5-1.7c0-0.2,0.1-0.4,0.4-0.5
				c0,0,0.1,0,0.1,0c8-0.3,13.5-0.7,16.5-1.1c3.8-0.2,7.3-0.6,10.6-1c4.8-0.5,8.8-0.8,11.7-1.2c2.1-0.2,4.3-0.5,6.4-1
				c1.4-0.2,2.3-0.3,2.8-0.5C87.3,53.5,88.1,53.9,88.7,54.6L88.7,54.6z M77.5,39.7c0.9,0.8,1.4,1.4,1.4,1.8c0,0.2-0.1,0.4-0.4,0.5
				c0,0-0.1,0-0.1,0c-5,0.5-10.5,0.9-16.4,1.6c-5.7,0.6-9.1,1-10.5,1.3c-0.4,0.2-0.7,0.2-1.1,0.2c-0.7,0-1.4-0.3-1.9-0.8
				c-0.8-0.7-1.1-1.1-1.1-1.4s0.1-0.5,0.3-0.5c4.5-0.3,7.7-0.7,9.4-0.9c2.2-0.2,4.2-0.5,6.1-0.7c2.7-0.3,4.9-0.7,6.7-0.9
				c1.2-0.2,2.4-0.5,3.6-0.8c0.8-0.1,1.4-0.2,1.7-0.2C76.1,38.9,76.9,39.2,77.5,39.7L77.5,39.7z M57.3,1c2.7,2.5,5.2,5.3,7.5,8.2
				c0.8,0.8,1.3,1.9,1.6,3c0,1-0.2,2.1-0.5,3.1c-0.7,1.6-1.2,2.3-1.7,2.3c-0.7,0-1.1-0.5-1.4-1.5c-1.8-4.7-4.1-9.2-6.7-13.5
				c-0.4-0.5-0.7-1.2-0.8-1.8c0-0.2,0.1-0.4,0.4-0.5c0,0,0.1,0,0.1,0C56.3,0.4,56.8,0.7,57.3,1L57.3,1z M73.8,73.7
				c4.7,3.5,9.2,7.3,13.4,11.4c1.6,1.8,2.4,3.5,2.4,4.9c0,1.2-0.1,2.5-0.5,3.6c-0.2,0.8-0.7,1.2-1.4,1.2c-0.5,0-1.1-0.7-1.9-1.9
				c-3.6-5-7.3-10.1-11.1-15.2c-2.3-2.7-3.4-4.2-3.4-4.7c0-0.2,0.1-0.4,0.4-0.5c0,0,0.1,0,0.1,0C72.5,72.8,73.2,73.2,73.8,73.7
				L73.8,73.7z"/>
			<path id="Path_188" class="st0" d="M62.4,105.3L62.4,105.3c-0.7,0-1.3-0.5-1.9-1.5c-3.5-4.3-6.9-8.1-10.1-11.2l0,0
				c-0.7-1-1-1.4-1-1.7c0-0.3,0.2-0.7,0.6-0.7c0,0,0.1,0,0.1,0c0.4,0,1,0.4,2.3,1.4c4.7,4,7.5,6,8.8,6.1c0.5-0.5,0.8-1.6,0.9-3.4
				c0-2.4,0.1-5,0.2-7.8l0-0.5V64.6c0-1.4-0.2-2.9-0.6-4.3c-0.1-0.3-0.1-0.6-0.1-0.8c-10.7,0.9-15.9,1.4-17.8,1.8
				c-0.7,0.3-1.4,0.4-2.1,0.5c-0.9-0.1-1.7-0.5-2.3-1.1c-1.1-0.7-1.6-1.3-1.6-1.9c0-0.3,0.2-0.7,0.6-0.7c0,0,0.1,0,0.1,0
				c8.8-0.4,13.7-0.7,16.4-1.1c3.7-0.2,7.3-0.6,10.6-1l2.2-0.2c3.8-0.4,7.1-0.7,9.5-1c2.1-0.2,4.3-0.5,6.3-1
				c0.6-0.1,1.2-0.2,1.6-0.3c0.5-0.1,0.9-0.1,1.2-0.2h0c0.9,0.1,1.8,0.5,2.5,1.2l0,0c1,0.8,1.4,1.6,1.4,2.2c0,0.3-0.2,0.7-0.6,0.7
				c0,0-0.1,0-0.1,0c-4.3,0.3-8.7,0.6-13.3,1c-3.9,0.3-7.9,0.6-12.1,0.9c0,0.1,0.1,0.1,0.2,0.2l0.1,0c0.9,0.9,1.9,2.1,1.9,3
				c0,0.6-0.1,1.2-0.2,1.8l0,0.1c-0.2,1.3-0.3,2.5-0.2,3.8V93c-0.1,4.5-0.5,7.3-1.2,8.8C63.9,103.9,63.2,105,62.4,105.3L62.4,105.3z
				 M50,90.6c-0.1,0-0.2,0-0.2,0.2c0.3,0.5,0.6,1,1,1.4c3.2,3.2,6.6,7,10.1,11.3c0.5,0.8,1,1.3,1.5,1.3c0.4-0.2,1.1-0.8,1.9-3.1
				c0.6-1.5,1-4.3,1.1-8.7V68.1c-0.1-1.3,0-2.6,0.2-3.9c0.1-0.6,0.2-1.2,0.2-1.8c-0.3-1.1-0.9-2-1.7-2.7c-0.2-0.2-0.4-0.4-0.5-0.6
				l-0.1-0.3l0.3,0c4.3-0.3,8.5-0.6,12.5-0.9c4.6-0.4,9.1-0.7,13.3-1c0.2,0,0.2-0.1,0.2-0.2c0-0.5-0.4-1.1-1.3-1.9
				c-0.6-0.6-1.3-1-2.1-1.1c-0.3,0.1-0.7,0.1-1.2,0.2c-0.4,0.1-1,0.1-1.6,0.3c-2.1,0.5-4.2,0.8-6.4,1c-2.5,0.4-5.8,0.7-9.6,1
				l-2.2,0.2c-3.3,0.5-6.9,0.8-10.6,1c-2.7,0.4-7.6,0.8-16.5,1.1c-0.1,0-0.2,0-0.2,0.2c0,0.2,0.2,0.7,1.4,1.5c0.6,0.5,1.3,0.9,2,1
				c0.7,0,1.3-0.2,2-0.4c2.3-0.5,8.9-1.1,18-1.8h0.4v0.2c0,0.3,0,0.7,0.1,1c0.3,1.4,0.5,2.9,0.6,4.4l0,21.9
				c-0.1,2.8-0.2,5.4-0.2,7.8c-0.1,2.1-0.5,3.3-1.1,3.8l-0.1,0h-0.1c-1.3,0-4.2-2-9.1-6.2C51.4,91.4,50.8,90.9,50,90.6L50,90.6z
				 M29.1,96.7c-0.3,0-0.7-0.2-0.7-0.6c0,0,0-0.1,0-0.1c0.1-0.4,0.4-0.8,0.8-1c4.1-3.8,7.8-8.1,11.1-12.7c2.9-4,5.2-8.5,6.8-13.2
				c0-0.6,0.3-0.9,0.7-0.9c0.2,0,0.8,0,2.1,2.6l0,0l0.1,0.2c0.4,0.9,0.6,1.8,0.7,2.7c0,0.4-0.2,0.8-0.5,1.1
				c-1.6,1.7-3.1,3.5-4.4,5.4c-2.3,3.3-5,6.5-7.9,9.4c-2.4,2.4-5,4.6-7.8,6.6C29.8,96.5,29.5,96.7,29.1,96.7L29.1,96.7z M47.7,68.8
				c-0.1,0-0.2,0.2-0.2,0.5l0,0.1c-1.6,4.8-3.9,9.3-6.8,13.4c-3.3,4.6-7,8.9-11.2,12.8l-0.1,0c-0.4,0.2-0.6,0.5-0.6,0.6
				c0,0.2,0.1,0.2,0.2,0.2c0.3-0.1,0.6-0.2,0.8-0.3c2.7-2,5.3-4.2,7.7-6.6c2.9-2.9,5.5-6,7.8-9.3c1.3-2,2.8-3.8,4.5-5.5l0.1,0
				c0.2-0.2,0.4-0.4,0.3-0.7c-0.1-0.9-0.4-1.8-0.7-2.6l-0.1-0.2C48.3,68.9,47.8,68.8,47.7,68.8L47.7,68.8z M87.8,95
				c-0.5,0-1.3-0.7-2.1-2c-1-1.3-1.9-2.7-2.9-4c-2.7-3.7-5.4-7.5-8.2-11.2c-2.6-3.1-3.5-4.3-3.5-4.8c0-0.3,0.2-0.7,0.6-0.7
				c0,0,0.1,0,0.1,0c0.8,0.3,1.5,0.7,2.2,1.2l0,0c4.7,3.5,9.2,7.3,13.4,11.4c1.6,1.8,2.5,3.6,2.5,5c0,1.2-0.1,2.5-0.5,3.7
				C89,94.8,88.3,95,87.8,95z M71.7,72.7c-0.1,0-0.2,0-0.2,0.2c0,0.5,2.3,3.2,3.4,4.5c2.8,3.8,5.6,7.6,8.2,11.2c1,1.3,1.9,2.7,2.9,4
				c0.9,1.4,1.5,1.8,1.8,1.8c0.6,0,0.9-0.4,1.2-1.1c0.3-1.2,0.5-2.4,0.4-3.6c0-1.3-0.8-3-2.3-4.7c-4.2-4-8.7-7.8-13.4-11.3
				C73.1,73.3,72.4,73,71.7,72.7L71.7,72.7z M4.3,94.6c-1-0.1-2-0.6-2.7-1.4C0,91.6,0,91.3,0,91.2c0-0.6,0.4-1.1,0.9-1.3
				c2.1-0.6,4.8-1.5,8-2.7C8.7,77.1,8.5,68.2,8.3,60c-0.1-1.2-0.3-2.8-0.7-4.7L7.2,53c0-0.3,0.1-0.6,0.4-0.6c0,0,0.1,0,0.1,0
				c0.3,0,0.8,0.4,2.6,1.7l0.4,0.3c2.2,1.9,2.2,2.2,2.2,2.3c-0.1,0.5-0.2,0.9-0.4,1.4c-0.1,0.2-0.1,0.3-0.2,0.5
				c-0.2,0.7-0.3,1.4-0.3,2.1V86c0.8-0.3,1.4-0.6,2.2-0.9l7.1-3V40.4c-2.7,0.4-5.2,0.7-7.7,1l-0.9,0.1c0,0.8,0,1.7,0.1,2.6
				c0,1,0.1,2.1,0.1,3.1c0,1.7-0.6,2-1.1,2c-0.5,0-0.9-0.6-1.7-2.1c-0.5-0.9-0.8-2-0.8-3.1c0-0.8,0-1.6,0.1-2.4
				c0.2-1.7,0.5-5.5,0.5-12c0-3.4-0.2-7.3-0.4-11.4l-0.1-1.4c-0.1-1-0.1-1.8-0.2-2.6c-0.1-1.7-0.2-2.9-0.3-3.4
				c0-0.3,0.2-0.6,0.5-0.6c0,0,0.1,0,0.1,0c0.7,0,1.4,0.9,2.4,3.2l0,0l0.6,2.2L26,13.3c1.9-0.3,3.1-0.9,3.5-1.7
				c0.8-1.3,1.4-1.8,1.9-1.8c0.3,0,0.8,0.2,2.2,1.8c0.8,1,1.1,1.6,1.1,2c0,0.5-0.4,1-1,1.7c-0.5,0.7-0.7,1.4-0.7,2.2l-1.7,18.1
				c0,0,0.1,0,0.1,0c0.1,0,0.3-0.1,0.4-0.1c0.7,0.1,1.3,0.5,1.7,1c1,1,1.1,1.3,1.1,1.5c0,0.5-0.5,1-1.8,1c-3,0.5-5.8,0.8-8.4,1v17.8
				c4.4-1,7.3-2,8.2-2.8c0.3-0.2,0.6-0.4,1-0.4c0.4,0,0.9,0.3,1.8,1c1,1,1.1,1.3,1.1,1.5c0,0.6-0.5,1-1,1c0,0,0,0-0.1,0
				c-2.2,0.6-4.3,1.1-6.3,1.7c-1.6,0.4-3.2,0.8-4.7,1.2v19.9l12.3-5.1c0.3-0.1,0.6-0.2,0.9-0.2c0.3,0,0.6,0.3,0.6,0.6c0,0,0,0,0,0
				c0,0.5-0.4,1.1-1.1,1.5L14.6,89.1c-3.9,2-6.8,3.5-8.6,4.6C5.6,94.2,5,94.5,4.3,94.6z M7.7,52.8c-0.1,0-0.1,0-0.1,0.1l0.4,2.2
				c0.3,1.9,0.6,3.5,0.7,4.8C9,68.3,9.2,77.2,9.4,87.3v0.2l-0.1,0.1c-2.7,1-5.4,2-8.2,2.7c-0.4,0.1-0.6,0.5-0.6,0.9
				c0,0,0.1,0.4,1.5,1.7c0.6,0.7,1.4,1.2,2.4,1.3c0.5-0.1,1.1-0.4,1.5-0.7c1.8-1.2,4.8-2.7,8.7-4.7l22.4-11.4
				c0.6-0.4,0.9-0.8,0.9-1.2c0-0.1,0-0.2-0.1-0.2c-0.2,0-0.5,0.1-0.7,0.2L24,81.5V60.6l0.2,0c1.5-0.4,3.1-0.8,4.8-1.3
				c2-0.5,4.1-1.1,6.3-1.7l0.1,0c0.4,0,0.7-0.2,0.7-0.6c0,0,0-0.3-1-1.2c-0.5-0.4-1-0.7-1.5-0.8c-0.2,0-0.5,0.1-0.6,0.3
				c-1.2,1.2-5.4,2.3-8.6,3L24,58.4V39.6l0.2,0c2.7-0.2,5.5-0.6,8.6-1c0.8,0,1.4-0.2,1.4-0.6c0,0,0-0.3-1-1.2
				c-0.9-0.8-1.3-0.8-1.4-0.8c-0.1,0-0.2,0-0.4,0.1C31.3,36,31.2,36,31,36h-0.2l1.7-18.5c0-0.9,0.3-1.8,0.8-2.5
				c0.5-0.6,0.9-1.1,0.9-1.5c-0.2-0.6-0.5-1.2-1-1.7c-1.4-1.5-1.8-1.6-1.9-1.6c-0.2,0-0.7,0.2-1.5,1.6c-0.5,0.9-1.7,1.5-3.8,1.9
				l-13.8,2.4l-0.7-2.6c-0.9-1.9-1.5-2.9-2-2.9c-0.1,0-0.1,0-0.1,0.1c0.1,0.5,0.2,1.7,0.3,3.4c0.1,0.7,0.1,1.6,0.2,2.6l0.1,1.4
				c0.2,4.2,0.4,8.1,0.4,11.5c0,6.5-0.3,10.4-0.5,12.1c-0.1,0.8-0.1,1.6-0.1,2.4c0,1,0.3,2,0.8,2.9c0.8,1.6,1.2,1.8,1.3,1.8
				c0.6,0,0.7-0.9,0.7-1.6c0-1.1,0-2.1-0.1-3.1c0-1-0.1-1.9-0.1-2.8v-0.2l1.3-0.2c2.5-0.3,5.1-0.6,7.9-1l0.3,0v42.5l-7.4,3.1
				c-0.8,0.4-1.6,0.7-2.5,1l-0.3,0.1V60.7c0-0.7,0.2-1.5,0.3-2.2c0.1-0.2,0.1-0.4,0.2-0.5c0.2-0.4,0.3-0.8,0.4-1.2
				c-0.6-0.8-1.3-1.4-2.1-2L10,54.4C9.3,53.8,8.5,53.3,7.7,52.8L7.7,52.8z M50.5,45.2c-0.8,0-1.5-0.3-2.1-0.8
				c-1.2-1-1.2-1.4-1.2-1.5c0-0.3,0.2-0.6,0.5-0.7c0,0,0,0,0,0c5.4-0.4,8.4-0.8,9.4-0.9c2.2-0.2,4.2-0.5,6.1-0.7
				c1.5-0.2,2.8-0.4,4-0.5c1-0.1,1.9-0.3,2.7-0.4c1.2-0.2,2.4-0.4,3.6-0.8l0.7-0.1c0.4-0.1,0.7-0.1,1.1-0.1c0.8,0.1,1.6,0.4,2.3,0.8
				l0,0c1,0.9,1.4,1.5,1.4,2c0,0.3-0.2,0.7-0.6,0.7c0,0-0.1,0-0.1,0l-2.8,0.3c-4.3,0.4-8.7,0.8-13.6,1.3c-5.4,0.5-9,1-10.5,1.2
				C51.3,45.2,50.9,45.2,50.5,45.2L50.5,45.2z M75.4,39.1c-0.3,0-0.7,0.1-1,0.1c-0.2,0-0.4,0.1-0.7,0.1c-1.2,0.3-2.4,0.6-3.6,0.8
				c-0.8,0.1-1.7,0.2-2.7,0.4c-1.2,0.2-2.5,0.4-4,0.5c-1.9,0.2-4,0.5-6.1,0.7c-1,0.1-4.1,0.5-9.4,0.9c-0.1,0-0.1,0.1-0.1,0.2
				c0,0,0,0.3,1.1,1.2c0.5,0.4,1.1,0.7,1.8,0.7c0.4,0,0.7-0.1,1.1-0.2c1.5-0.3,5.1-0.7,10.5-1.3c4.8-0.6,9.3-1,13.6-1.3l2.8-0.3
				c0.2,0,0.3-0.1,0.3-0.2c0-0.5-0.7-1.2-1.3-1.6C76.8,39.4,76.1,39.2,75.4,39.1L75.4,39.1z M40.3,43.5L40.3,43.5
				c-0.6,0-1.1-0.5-1.8-1.7c-0.3-0.7-0.6-1.4-0.7-2.2c0-0.7,0.3-1.4,0.7-2c2.4-3.7,3.9-9.6,4.6-18c0-0.3,0-1.1,0.7-1.1
				c0.2,0,0.7,0,0.7,3.3c0,0.8,0,1.5-0.1,2.2c0,0.5,0,1,0,1.4l17.6-2c11.6-1.4,18-2.3,19.5-2.7c1.6-0.3,3.1-1.2,4.1-2.5
				c0.4-0.7,0.9-1.5,1.8-1.5c0.3,0,0.6,0.3,1.7,1.3l0.7,0.7c1.1,1.1,1.8,2.1,1.8,2.7c0.1,0.9-0.6,1.7-1.5,1.9
				c-2.1,1.7-5.3,5.7-9.5,11.9l-0.1,0.1c-0.2,0.3-0.3,0.5-0.7,0.5c-0.7,0-0.7-0.9-0.7-1.1c0.2-1.1,0.7-2.1,1.3-3
				c1.4-2.9,2.6-5.7,3.6-8l-39.8,4.9c-0.1,3.7-0.7,7.4-1.7,11C41.8,42,41.1,43.3,40.3,43.5L40.3,43.5z M43.7,19.1
				c-0.1,0-0.2,0.2-0.2,0.7c-0.7,8.5-2.2,14.4-4.7,18.2c-0.4,0.5-0.6,1.1-0.6,1.7c0.1,0.7,0.4,1.3,0.7,2c0.6,1,1,1.4,1.3,1.5
				c0.4-0.2,1.1-0.9,1.9-3.5c1.1-3.6,1.6-7.3,1.7-11.1l0-0.2l0.2,0l40.7-5l-0.1,0.3c-1,2.4-2.3,5.4-3.8,8.4c-0.6,0.8-1,1.8-1.2,2.7
				c0,0.7,0.2,0.7,0.2,0.7s0.2-0.1,0.3-0.3l0.1-0.1c4.2-6.2,7.4-10.3,9.6-12l0.1,0c0.7-0.1,1.3-0.8,1.2-1.5c0-0.3-0.4-1.1-1.6-2.3
				l-0.7-0.7c-0.4-0.4-0.9-0.8-1.4-1.2c-0.5,0-0.9,0.4-1.4,1.2c-1,1.5-2.6,2.5-4.4,2.7c-1.6,0.4-8,1.3-19.6,2.7L43.9,26v-0.2
				c0-0.5,0-1.1,0.1-1.7c0-0.7,0.1-1.4,0.1-2.2C44.1,21,44,20,43.7,19.1L43.7,19.1z M12.4,38.9v-0.2c0.1-11.4,0.1-17.9,0.1-20v-0.2
				l17.2-2.7l-1.2,20.9l-0.2,0c-2.4,0.6-7.2,1.3-15.7,2.2L12.4,38.9z M13,18.8c0,2.3,0,8.7-0.1,19.6c8.1-0.8,12.9-1.5,15.3-2.1
				l1.1-20L13,18.8z M64.2,17.7c-0.8,0-1.3-0.6-1.6-1.7c-1.8-4.7-4-9.2-6.7-13.5c-0.4-0.6-0.7-1.2-0.8-1.9c0-0.3,0.2-0.7,0.6-0.7
				c0,0,0.1,0,0.1,0c0.2,0,0.6,0.1,1.6,0.8l0,0c2.7,2.5,5.3,5.3,7.5,8.2c1.1,1.5,1.6,2.5,1.6,3.1c0,1.1-0.2,2.1-0.5,3.1
				C65.4,17,64.8,17.7,64.2,17.7L64.2,17.7z M55.8,0.4c-0.1,0-0.2,0-0.2,0.2c0.1,0.6,0.4,1.2,0.8,1.7c2.7,4.3,4.9,8.8,6.7,13.6
				c0.3,1.2,0.8,1.3,1.2,1.3c0.2,0,0.7-0.2,1.5-2.1c0.3-1,0.4-2,0.4-3c0-0.3-0.3-1.1-1.5-2.8c-2.3-2.9-4.7-5.6-7.5-8.1
				C56.2,0.5,55.9,0.4,55.8,0.4L55.8,0.4z"/>
		</g>
	</g>
	<g id="Group_1511" transform="translate(1060.619 287.433)">
		<g id="Group_1499" transform="translate(0 11.757)">
			<path id="Path_189" class="st0" d="M0.3,21.3l0.8-1.4c1.9,1.8,4.4,2.8,6.9,2.7c2.7,0.1,5-1.9,5.2-4.6c0-0.1,0-0.3,0-0.4
				c0-3.9-3.8-4.8-5.3-4.9c-3.3-0.2-7.8-1.5-7.8-6c0.1-3.6,3-6.4,6.5-6.3c0,0,0.1,0,0.1,0C9,0.2,11,1,12.5,2.4L11.6,4
				c-1.2-1.3-2.9-2-4.7-2C4.4,1.8,2.1,3.8,2,6.4c0,0.1,0,0.1,0,0.2c0,3.1,2.7,4.2,5.4,4.4c3.6,0.2,7.7,2.4,7.7,6.6
				c0,3.8-3.1,6.8-6.8,6.8c0,0-0.1,0-0.1,0C4.9,24.3,1.8,23.1,0.3,21.3z"/>
			<path id="Path_190" class="st0" d="M8.1,24.5c-3.3,0-6.4-1.2-7.9-3L0,21.3l1-1.7l0.2,0.2c1.8,1.8,4.3,2.7,6.8,2.6
				c2.6,0.1,4.8-1.8,5-4.4c0-0.1,0-0.3,0-0.4c0-4.2-4.6-4.7-5.1-4.7c-2.4-0.1-8-1-8-6.3C0,2.9,3.1-0.1,6.7,0c0,0,0.1,0,0.1,0
				c2.2,0,4.2,0.8,5.8,2.3l0.1,0.1l-1.1,2l-0.2-0.2c-1.2-1.2-2.8-1.9-4.6-2C4.5,2.1,2.3,3.9,2.2,6.4c0,0,0,0.1,0,0.1
				c0,3.4,3.2,4.1,5.2,4.2c3.9,0.2,7.9,2.6,7.9,6.8c0,3.9-3.2,7-7,7C8.2,24.5,8.1,24.5,8.1,24.5z M0.6,21.3C2,23,5,24,8.1,24
				c3.6,0.1,6.6-2.8,6.7-6.4c0,0,0-0.1,0-0.1c0-3.9-3.7-6.2-7.5-6.3C3.8,11,1.8,9.3,1.8,6.5c0.1-2.7,2.3-4.9,5-4.8
				c0.1,0,0.1,0,0.2,0c1.7,0,3.4,0.7,4.7,1.9l0.7-1.2c-1.5-1.3-3.4-2-5.4-2C3.5,0.3,0.6,3,0.4,6.4c0,0,0,0.1,0,0.1
				c0,4.9,5.3,5.7,7.5,5.8c0.6,0,5.5,0.5,5.5,5.1c0.1,2.8-2.1,5.2-4.9,5.3c-0.2,0-0.3,0-0.5,0c-2.5,0.1-5-0.8-6.9-2.5L0.6,21.3z"/>
		</g>
		<g id="Group_1500" transform="translate(19.511 2.57)">
			<path id="Path_191" class="st0" d="M0.2,1.3c0-0.6,0.5-1.1,1.1-1.1c0.6,0,1.1,0.5,1.1,1.1c0,0,0,0,0,0c0,0.6-0.5,1.1-1.1,1
				c0,0,0,0,0,0C0.7,2.4,0.2,1.9,0.2,1.3z M2.1,9.7v23.9H0.2V9.7L2.1,9.7z"/>
			<path id="Path_192" class="st0" d="M2.3,33.8H0V9.5h2.3V33.8z M0.4,33.4h1.5V9.9H0.4V33.4z M1.3,2.6C0.6,2.6,0,2,0,1.3
				S0.5,0,1.2,0c0,0,0,0,0.1,0C2,0,2.6,0.5,2.6,1.3S2.1,2.6,1.3,2.6C1.4,2.6,1.3,2.6,1.3,2.6z M1.3,0.4c-0.5,0-0.9,0.4-0.9,0.9
				c0,0.5,0.4,0.8,0.9,0.8c0.5,0,0.9-0.3,0.9-0.8c0,0,0,0,0,0C2.2,0.8,1.8,0.5,1.3,0.4C1.3,0.4,1.3,0.4,1.3,0.4L1.3,0.4z"/>
		</g>
		<g id="Group_1501" transform="translate(26.441 11.661)">
			<path id="Path_193" class="st0" d="M19.3,35.1c-5,3.9-12.2,3.1-16.1-1.9C3.1,33.2,3,33.1,3,33l0.7-1.1v0L4,31.3
				c1.8,2.7,4.9,4.4,8.1,4.4c4.4,0,9.3-4.1,9.6-8.7v-3.8l0-3.7l-2.5,2.1l0,0C15,25,9.2,25.1,5,21.9c-1.3-1-2.4-2.2-3.1-3.6
				c-1.1-1.9-1.6-4-1.6-6.1C0.1,5.7,5.3,0.3,11.9,0.2c2.7,0,5.3,0.9,7.3,2.7L21.7,5V0.2h1.9v25.4C23.7,29.3,22.1,32.8,19.3,35.1z
				 M21.7,10.9c-0.6-5.4-5.5-9.3-10.9-8.7C5.7,2.8,1.9,7.2,2,12.3c0,1.1,0.2,2.2,0.5,3.2c0.6,1.9,1.7,3.5,3.2,4.8
				c1.7,1.4,3.9,2.2,6.1,2.2c2.4,0,4.6-0.9,6.4-2.4c1.5-1.3,2.5-3,3.1-4.9c0.1-0.5,0.2-1,0.3-1.5L21.7,10.9z"/>
			<path id="Path_194" class="st0" d="M12.1,37.8c-3.7,0-7.1-1.7-9.3-4.7L2.7,33L4,30.9l0.2,0.3c1.8,2.7,4.7,4.3,8,4.3
				c4.5,0,9.1-4.1,9.4-8.5v-3.7l0-3.2l-2.2,1.8c-4.2,3.4-10.1,3.5-14.4,0.3c-1.3-1-2.4-2.2-3.2-3.6c-1.1-1.9-1.6-4-1.6-6.2
				C-0.1,5.6,5.2,0.1,11.9,0c2.7,0,5.4,0.9,7.5,2.7l2.2,1.8V0h2.3v25.6c0.1,3.7-1.6,7.3-4.4,9.7l0,0C17.3,36.9,14.8,37.8,12.1,37.8z
				 M3.2,33C7,37.9,14.1,38.8,19,35c0,0,0.1-0.1,0.1-0.1c2.8-2.3,4.3-5.7,4.2-9.3V0.4H22v5l-2.9-2.4c-2-1.7-4.6-2.6-7.2-2.6
				C5.5,0.6,0.3,5.8,0.4,12.3c0,2.1,0.6,4.2,1.6,6c2,3.5,5.8,5.8,9.8,5.8c2.6,0,5.1-0.9,7.1-2.5l0,0l2.9-2.4l0.1,4.2V27
				c-0.3,4.6-5.1,8.9-9.8,8.9c-3.2,0-6.3-1.6-8.1-4.2l-0.6,1.1v-0.1L3.2,33z M11.9,22.6c-2.3,0-4.5-0.8-6.3-2.2
				c-1.6-1.3-2.7-3-3.3-4.9c-0.3-1.1-0.5-2.1-0.5-3.3C1.6,6.7,5.9,2,11.5,1.8c5.3-0.2,9.9,3.8,10.4,9.1v2.6
				c-0.1,0.5-0.2,1.1-0.3,1.6c-0.6,1.9-1.7,3.7-3.2,5C16.6,21.7,14.3,22.6,11.9,22.6L11.9,22.6z M11.9,2.3c-5.4,0.1-9.7,4.5-9.7,9.9
				c0,1.1,0.2,2.1,0.5,3.1c0.6,1.8,1.7,3.4,3.2,4.7c1.7,1.4,3.8,2.1,6,2.1c2.3,0,4.5-0.9,6.3-2.4c1.4-1.3,2.5-2.9,3-4.8
				c0.1-0.5,0.2-1,0.3-1.5v-2.6C20.9,6.1,16.8,2.4,11.9,2.3L11.9,2.3z"/>
		</g>
		<g id="Group_1502" transform="translate(55.55 0.049)">
			<path id="Path_195" class="st0" d="M2.2,20.9V36h-2V0.2h2v16.9c0.7-1,1.5-1.8,2.4-2.6c4.2-3.5,10.6-3,14.1,1.3
				c0.5,0.6,0.9,1.2,1.2,1.8c0.9,1.6,1.5,3.3,1.6,5.1c0,0.8,0.1,2.7,0,13.2h-1.8V22.1C19.3,17.8,15,14,10.9,14
				C6.8,14.1,3.2,16.9,2.2,20.9z"/>
			<path id="Path_196" class="st0" d="M2.4,36.2H0V0h2.4v16.5c0.6-0.8,1.3-1.5,2-2.1c4.3-3.6,10.8-3,14.4,1.3
				c0.5,0.6,0.9,1.2,1.2,1.9c0.9,1.6,1.5,3.4,1.6,5.2c0,0.2,0,0.3,0,0.6c0,1.2,0.1,3.9-0.1,12.7v0.2h-2.2V22.1
				c-0.4-4.1-4.5-7.9-8.5-7.9c-4,0.1-7.5,2.9-8.5,6.8L2.4,36.2z M0.4,35.8H2l0-14.9c1.1-4.1,4.7-7,9-7.1c4.2,0,8.5,4.1,8.9,8.3v13.6
				h1.4c0.1-8.6,0.1-11.3,0.1-12.5c0-0.2,0-0.4,0-0.5c-0.1-1.8-0.7-3.5-1.6-5c-2.5-4.8-8.4-6.7-13.2-4.2c-0.6,0.3-1.3,0.7-1.8,1.2
				c-0.9,0.8-1.7,1.6-2.3,2.6l-0.4,0.6V0.4H0.4L0.4,35.8z"/>
		</g>
		<g id="Group_1503" transform="translate(80.424 2.379)">
			<path id="Path_197" class="st0" d="M14,13.6H8.1v20.1H6.2V13.6H0.2v-2h5.9V0.2H8l0,11.5H14L14,13.6z"/>
			<path id="Path_198" class="st0" d="M8.3,33.9H5.9V13.9H0v-2.4h5.9V0h2.3v0.2l0,11.3h5.9v2.4H8.3V33.9z M6.4,33.5h1.5V13.4h5.9
				v-1.5H7.9v-0.2l0-11.3H6.4v11.5H0.4v1.5h5.9L6.4,33.5z"/>
		</g>
		<g id="Group_1504" transform="translate(97.516 0.065)">
			<path id="Path_199" class="st0" d="M14.2,21.1H5.9V36H4.1V21.1H0.2v-1.6h3.9v-7.4C4,6.2,8.4,1.1,14.2,0.3v1.8
				c-4.9,0.7-8.5,5-8.3,10v7.5h8.3L14.2,21.1z"/>
			<path id="Path_200" class="st0" d="M6.1,36.2H3.9V21.4H0v-2.1h3.9v-7.2C3.8,6.1,8.2,0.9,14.2,0l0.3,0v2.2l-0.2,0
				C9.4,3,5.9,7.2,6.1,12.1v7.3h8.3v2.1H6.1L6.1,36.2z M4.3,35.8h1.3V20.9H14v-1.2H5.7v-7.7C5.5,7,9,2.7,14,1.9V0.5
				c-5.6,1-9.7,5.9-9.6,11.6v7.6H0.4v1.2h3.9V35.8z"/>
		</g>
		<g id="Group_1505" transform="translate(115.592 11.708)">
			<path id="Path_201" class="st0" d="M23.5,13.2H1.9c0.9,6.3,5.6,9.3,9.9,9.3c1.8-0.1,3.6-0.6,5.1-1.5l2.9,0c-2.2,2.1-5,3.2-8,3.2
				C5.2,24.1,0,18.5,0.2,11.9C0.4,5.5,5.5,0.4,11.9,0.2C18.4,0.2,23.4,5.9,23.5,13.2z M21.6,11.4C20.4,5.1,16.3,2,11.9,2
				S2.9,4.7,2,11.4H21.6z"/>
			<path id="Path_202" class="st0" d="M11.9,24.5C5.1,24.3-0.2,18.6,0,11.9C0.2,5.4,5.4,0.2,11.9,0c6.6,0,11.7,5.7,11.9,13.2v0.2
				H2.2c0.7,4.3,4,8.9,9.7,8.9c1.8-0.1,3.5-0.5,5-1.4l0.1,0l3.5,0.1L20,21.2C17.8,23.3,14.9,24.5,11.9,24.5z M11.9,0.4
				C5.4,0.7,0.2,6.1,0.5,12.7c0.2,6.2,5.2,11.2,11.4,11.4c2.7,0,5.4-1,7.4-2.8l-2.2,0c-1.6,0.9-3.4,1.4-5.2,1.5
				c-6.1,0-9.5-4.9-10.2-9.5l0-0.2h21.6C23.1,5.8,18.2,0.4,11.9,0.4z M21.9,11.6H1.7l0-0.3c0.6-4.4,3.7-9.6,10.1-9.6
				c4.9,0,8.8,3.8,10,9.6L21.9,11.6z M2.2,11.1h19.1c-1.2-5.4-4.9-8.9-9.5-8.9C7.9,2.2,3.3,4.6,2.2,11.1z"/>
		</g>
		<g id="Group_1506" transform="translate(143.301 11.708)">
			<path id="Path_203" class="st0" d="M23.5,13.2H1.9c0.9,6.3,5.6,9.3,9.9,9.3c1.8-0.1,3.6-0.6,5.1-1.5l2.9,0c-2.2,2.1-5,3.2-8,3.2
				C5.2,24.1,0,18.5,0.2,11.9C0.4,5.5,5.5,0.4,11.9,0.2C18.5,0.2,23.4,5.9,23.5,13.2z M21.6,11.4C20.4,5.1,16.3,2,11.9,2
				S2.9,4.7,2,11.4H21.6z"/>
			<path id="Path_204" class="st0" d="M11.9,24.5C5.1,24.3-0.2,18.6,0,11.9C0.2,5.4,5.4,0.2,11.9,0c6.6,0,11.7,5.7,11.9,13.2v0.2
				H2.2c0.7,4.3,4,8.9,9.7,8.9c1.8-0.1,3.5-0.5,5-1.4l0.1,0l3.5,0.1L20,21.2C17.8,23.3,14.9,24.5,11.9,24.5z M11.9,0.4
				C5.4,0.7,0.2,6.1,0.5,12.7c0.2,6.2,5.2,11.2,11.4,11.4c2.7,0,5.4-1,7.4-2.8l-2.2,0c-1.6,0.9-3.4,1.4-5.2,1.5
				c-6.1,0-9.5-4.9-10.2-9.5l0-0.2h21.6C23.1,5.8,18.2,0.4,11.9,0.4z M21.9,11.6H1.7l0-0.3c0.6-4.4,3.7-9.6,10.1-9.6
				c4.9,0,8.8,3.8,10,9.6L21.9,11.6z M2.2,11.1h19.1c-1.2-5.4-4.9-8.9-9.5-8.9C7.9,2.2,3.3,4.6,2.2,11.1L2.2,11.1z"/>
		</g>
		<g id="Group_1507" transform="translate(171.874)">
			<path id="Path_205" class="st0" d="M2.3,0.2V36h-2V0.2H2.3z"/>
			<path id="Path_206" class="st0" d="M2.5,36.2H0V0h2.5V36.2z M0.4,35.8H2V0.4H0.4V35.8z"/>
		</g>
		<g id="Group_1508" transform="translate(180.551 2.57)">
			<path id="Path_207" class="st0" d="M0.2,1.3c0-0.6,0.5-1.1,1.1-1.1c0.6,0,1.1,0.5,1.1,1.1c0,0,0,0,0,0c0,0.6-0.5,1.1-1.1,1
				c0,0,0,0,0,0C0.7,2.4,0.2,1.9,0.2,1.3z M2.1,9.7v23.9H0.2V9.7L2.1,9.7z"/>
			<path id="Path_208" class="st0" d="M2.3,33.8H0V9.5h2.3V33.8z M0.4,33.4h1.5V9.9H0.4V33.4z M1.3,2.6C0.6,2.6,0,2,0,1.3
				C0,0.6,0.6,0,1.3,0C2,0,2.6,0.5,2.6,1.3S2.1,2.6,1.3,2.6C1.4,2.6,1.3,2.6,1.3,2.6z M1.3,0.4c-0.5,0-0.9,0.4-0.9,0.9
				c0,0.5,0.4,0.8,0.9,0.8c0.5,0,0.9-0.3,0.9-0.8c0,0,0,0,0,0C2.2,0.8,1.8,0.5,1.3,0.4C1.3,0.4,1.3,0.4,1.3,0.4L1.3,0.4z"/>
		</g>
		<g id="Group_1509" transform="translate(188.764 12.041)">
			<path id="Path_209" class="st0" d="M2,8.9L2,24H0.2V0.3H2v4.9c0.7-1,1.5-1.8,2.4-2.6C8.7-1,15-0.4,18.5,3.8
				C19,4.4,19.4,5,19.7,5.6c0.9,1.6,1.5,3.3,1.6,5.1c0,0.8,0.1,2.7,0,13.2h-1.7l0-13.9c-0.4-4.3-4.7-8.2-8.8-8.2
				C6.6,2.1,3.1,4.9,2,8.9z"/>
			<path id="Path_210" class="st0" d="M2.3,24.2H0V0.1h2.3v4.4c0.6-0.8,1.3-1.5,2-2.1c4.3-3.6,10.8-3,14.4,1.3
				c0.5,0.6,0.9,1.2,1.2,1.9c0.9,1.6,1.5,3.4,1.6,5.2c0,0.2,0,0.3,0,0.6c0,1.2,0.1,3.9-0.1,12.7v0.2h-2.2V24l0-13.9
				c-0.4-4.1-4.5-8-8.5-8C6.7,2.3,3.3,5.1,2.2,9L2.3,24.2z M0.4,23.8h1.4l0-14.9l0,0c1.1-4.1,4.8-7,9-7.2c4.2,0,8.6,4.1,9,8.4
				l0,13.6h1.3c0.1-8.6,0.1-11.3,0.1-12.5c0-0.2,0-0.4,0-0.5c-0.1-1.8-0.7-3.5-1.6-5C17.1,0.9,11.2-1,6.4,1.5
				C5.7,1.8,5.1,2.3,4.5,2.7C3.7,3.5,2.9,4.4,2.2,5.3L1.8,5.9V0.5H0.4L0.4,23.8z"/>
		</g>
		<g id="Group_1510" transform="translate(214.461 11.661)">
			<path id="Path_211" class="st0" d="M19.3,35.1c-5,3.9-12.2,3.1-16.1-1.9C3.1,33.2,3,33.1,3,33l0.7-1.1v0L4,31.3
				c1.8,2.7,4.9,4.4,8.1,4.4c4.4,0,9.3-4.1,9.6-8.7v-3.8l0-3.7l-2.5,2.1l0,0C15,25,9.2,25.1,5,21.9c-1.3-1-2.4-2.2-3.1-3.6
				c-1.1-1.9-1.6-4-1.6-6.1C0.1,5.7,5.3,0.3,11.9,0.2c2.7,0,5.3,0.9,7.3,2.7L21.7,5V0.2h1.9v25.4C23.7,29.3,22.1,32.8,19.3,35.1z
				 M21.7,10.9c-0.6-5.4-5.5-9.3-10.9-8.7C5.7,2.8,1.9,7.1,2,12.3c0,1.1,0.2,2.2,0.5,3.2c0.6,1.9,1.7,3.5,3.2,4.8
				c1.7,1.4,3.9,2.2,6.1,2.2c2.4,0,4.6-0.9,6.4-2.4c1.5-1.3,2.5-3,3.1-4.9c0.1-0.5,0.2-1,0.3-1.5V10.9z"/>
			<path id="Path_212" class="st0" d="M12.1,37.8c-3.7,0-7.1-1.7-9.3-4.7L2.7,33L4,30.9l0.2,0.3c1.8,2.7,4.7,4.3,8,4.3
				c4.5,0,9.1-4.1,9.4-8.5v-3.7l0-3.2l-2.2,1.8c-4.2,3.4-10.1,3.5-14.4,0.3c-1.3-1-2.4-2.2-3.2-3.6c-1.1-1.9-1.6-4-1.6-6.2
				C-0.1,5.6,5.2,0.1,11.9,0c2.7,0,5.4,1,7.5,2.7l2.2,1.8V0h2.3v25.6c0.1,3.7-1.6,7.3-4.4,9.7l0,0C17.3,36.9,14.8,37.8,12.1,37.8z
				 M3.2,33C7,37.9,14.1,38.8,19,35c0,0,0.1-0.1,0.1-0.1c2.8-2.3,4.3-5.7,4.2-9.3V0.4H22v5l-2.9-2.4c-2-1.7-4.6-2.6-7.2-2.6
				C5.5,0.6,0.3,5.8,0.4,12.3c0,2.1,0.6,4.2,1.6,6c2,3.5,5.8,5.8,9.9,5.8c2.6,0,5.1-0.9,7.1-2.5l0,0l2.9-2.4l0.1,4.2V27
				c-0.3,4.6-5.1,8.9-9.8,8.9c-3.2,0-6.3-1.6-8.1-4.2l-0.6,1.1v-0.1L3.2,33z M11.9,22.6c-2.3,0-4.5-0.8-6.3-2.2
				c-1.6-1.3-2.7-3-3.3-4.9c-0.3-1.1-0.5-2.1-0.5-3.3C1.6,6.7,5.9,2,11.5,1.8c5.3-0.2,9.9,3.8,10.4,9.1v2.6
				c-0.1,0.5-0.2,1.1-0.3,1.6c-0.6,1.9-1.7,3.7-3.2,5C16.6,21.7,14.3,22.6,11.9,22.6z M11.9,2.3c-5.4,0.1-9.7,4.5-9.7,9.9
				c0,1.1,0.2,2.1,0.5,3.1c0.6,1.8,1.7,3.4,3.2,4.7c1.7,1.4,3.8,2.1,6,2.1c2.3,0,4.5-0.9,6.3-2.4c1.4-1.3,2.5-2.9,3-4.8
				c0.1-0.5,0.2-1,0.3-1.5v-2.6C20.9,6.1,16.8,2.4,11.9,2.3z"/>
		</g>
	</g>
	<g id="Group_1512" transform="translate(679.088 106.981)">
		<rect id="Rectangle_148" x="0" y="0" class="st0" width="44.6" height="3.5"/>
		<rect id="Rectangle_149" x="0" y="0" class="st0" width="3.5" height="198"/>
		<rect id="Rectangle_150" x="0" y="194.5" class="st0" width="44.6" height="3.5"/>
	</g>
	<g id="Group_1513" transform="translate(1277.088 211.346)">
		<rect id="Rectangle_151" x="0" y="0" class="st0" width="44.6" height="3.5"/>
		<rect id="Rectangle_152" x="41" y="0" class="st0" width="3.5" height="198"/>
		<rect id="Rectangle_153" x="0" y="194.5" class="st0" width="44.6" height="3.5"/>
	</g>
	<path id="Path_213" class="st0" d="M989.9,318.3c-24.6,24.7-57.9,38.8-92.8,39.4c-35.2,0.5-69-13.4-93.7-38.4
		c-18.3-18.6-30.7-42.3-35.5-68c-1.6-8.5-2.4-17.1-2.4-25.7c0.1-17.3,3.5-34.4,10-50.4c6.6-16,16.2-30.6,28.3-42.9
		c12.2-12.4,26.7-22.2,42.7-29c16-6.8,33.3-10.3,50.7-10.4c17.4-0.1,34.7,3.3,50.8,9.9c49.7,20.3,82,69,81.3,122.7
		C1028.8,260.5,1014.6,293.8,989.9,318.3z M989.7,318.1c24.4-24.5,37.9-57.9,37.3-92.5c-0.4-34.3-14.3-67.1-38.5-91.3
		c-50.6-50.5-132.4-50.7-183.3-0.6c-31.1,30.5-44.6,74.7-35.8,117.4c7.2,33.6,27.2,63.1,55.8,82.2c7.1,4.7,14.6,8.7,22.4,12
		c15.7,6.6,32.5,10,49.5,10.3C931.8,356,965.2,342.6,989.7,318.1L989.7,318.1z"/>
	<path id="Path_214" class="st0" d="M1051.8,224.1c0,20.3-3.8,40.4-11.3,59.2c-7.5,19-18.6,36.3-32.8,51
		c-28.8,29.9-68.7,46.7-110.2,46.2c-20.5-0.2-40.7-4.5-59.6-12.6c-37.7-16.4-67.6-46.6-83.7-84.5c-3.9-9.4-6.9-19.1-9-29
		c-2.1-10-3.2-20.1-3.3-30.3c-0.6-41.5,15.5-81.4,44.8-110.8c14.5-14.6,31.7-26.3,50.7-34.3c38.4-16.1,81.7-16,120.1,0.2
		c18.9,8,36,19.8,50.2,34.7c14.1,14.7,25.3,32,32.8,51C1048,183.7,1051.8,203.8,1051.8,224.1z M1051.2,224.1c0-10.1-1.1-20.1-3.1-30
		c-2-9.8-5.1-19.4-9.1-28.7c-8-18.4-19.6-35-34-48.9c-14.4-13.8-31.2-24.7-49.7-32.1c-78.2-31.7-167.3,6-199,84.2
		c-7.2,17.6-10.9,36.5-11.2,55.5c-0.8,51.1,24.7,99.1,67.5,127c25.2,16.4,54.8,24.9,84.9,24.5c19.9-0.2,39.5-4.1,57.9-11.6
		c18.4-7.6,35.3-18.5,49.6-32.3c14.4-13.9,26-30.5,34-48.9c4-9.2,7-18.8,9.1-28.7C1050.1,244.2,1051.1,234.1,1051.2,224.1
		L1051.2,224.1z"/>
</g>
</svg>
