<svg xmlns="http://www.w3.org/2000/svg" xmlns:xlink="http://www.w3.org/1999/xlink" width="180.696" height="68.816" viewBox="0 0 180.696 68.816">
  <defs>
    <clipPath id="clip-path">
      <path id="Path_180" data-name="Path 180" d="M0-288.488H178.5v-27.09H0Z" transform="translate(0 315.578)" fill="none"/>
    </clipPath>
  </defs>
  <g id="Group_1528" data-name="Group 1528" transform="translate(-293 -20.48)">
    <g id="Group_1489" data-name="Group 1489" transform="translate(293 357.558)">
      <g id="Group_1488" data-name="Group 1488" transform="translate(0 -315.578)" clip-path="url(#clip-path)">
        <g id="Group_1484" data-name="Group 1484" transform="translate(0 0.029)">
          <path id="Path_176" data-name="Path 176" d="M-2.778-286.948l-.261-.289a19.565,19.565,0,0,0,4.776-7.786,15.837,15.837,0,0,0,1.013-5.7,19.794,19.794,0,0,1,3.5.955q.521.26.029.492l-.521.261a21.881,21.881,0,0,1-1.332,3.733,8.245,8.245,0,0,0,4.6,4.255v-5.933a37.885,37.885,0,0,0-.377-5.933,17.867,17.867,0,0,1,3.473,1.042q.521.29.058.579l-.492.318v2.981h4.428l.753-1.042q.087-.115.26-.319.549-.752.724-.752A5.217,5.217,0,0,1,19.492-299q1.346,1.086,1.346,1.4-.116.463-.782.463H11.693v6.772a35.036,35.036,0,0,0,4.8.26q5.094,0,6.8-.058v.377q-1.274.289-1.389,2.257H16.352q-5.181,0-7.756-1.389a10,10,0,0,1-4.486-5.673,17.739,17.739,0,0,1-6.888,7.641m.926-15.542-.753-1.447q1.591.173,3.849.231H8.827v-4.659H5.181a29.33,29.33,0,0,0-4.341.4l-.753-1.476q1.591.173,3.85.232H8.827a30.972,30.972,0,0,0-.289-4.689,19.387,19.387,0,0,1,3.415.984q.492.29.029.579l-.492.318v2.808h4.573l.753-1.042c.077-.1.173-.231.289-.4q.492-.666.666-.666a4.946,4.946,0,0,1,1.592,1.085q1.3,1.086,1.3,1.4-.115.463-.782.463H11.49v4.659h6.8l.752-1.071c.058-.077.145-.183.261-.319q.549-.752.724-.752a5.222,5.222,0,0,1,1.635,1.085q1.346,1.086,1.346,1.4-.087.463-.781.463H2.489a29.334,29.334,0,0,0-4.341.405" transform="translate(3.039 313.893)" fill="#2b2e34"/>
        </g>
        <g id="Group_1485" data-name="Group 1485" transform="translate(29.203 0.405)">
          <path id="Path_177" data-name="Path 177" d="M-16.337-131.3l-1.1-3.3q1.071,0,3.676-.145a56.339,56.339,0,0,0,1.157-5.7h-1.621a13.092,13.092,0,0,0-2.894.406l-.753-1.476q1.591.174,3.849.231h7.727l.666-1.013q.087-.115.231-.347.492-.695.666-.695.289,0,1.49,1.057t1.2,1.375q-.115.463-.752.463H-9.449a46.181,46.181,0,0,1-3.126,5.644l1.447-.087q3.154-.173,4.862-.319a11.656,11.656,0,0,0-2.17-2.807l.289-.231a9.311,9.311,0,0,1,3.878,2.229,3.842,3.842,0,0,1,1.215,2.4,1.574,1.574,0,0,1-.608,1.563q-.694.463-1.562-.26a7.484,7.484,0,0,0-.695-2.229q-2.547.753-9.667,2.634a.978.978,0,0,1-.752.608m.029,13.892-1.389-3.415q1.938-.2,6.164-.9v-5.325h-1.823a16.2,16.2,0,0,0-3.242.405l-.724-1.476q1.591.173,3.85.231h1.939a29.334,29.334,0,0,0-.26-4.254,17.971,17.971,0,0,1,3.271.984q.491.26.058.55l-.463.289v2.431h1.91l.695-1.042c.058-.077.135-.193.232-.348q.491-.694.665-.694.261,0,1.4,1.071t1.143,1.389q-.087.463-.752.463h-5.3v4.891q2.489-.405,6.628-1.158l.087.434q-5.181,2.113-13.371,4.8a.918.918,0,0,1-.723.665m15.8-5.759a.768.768,0,0,1-.521-.174.519.519,0,0,1-.2-.4q.2-2.489.261-5.5V-135.7a37.9,37.9,0,0,0-.377-5.933,18.8,18.8,0,0,1,3.27,1.013q.492.26.058.55l-.492.318v8.828q.057,3.589.231,6.8a1.688,1.688,0,0,1-.868.651,3.383,3.383,0,0,1-1.36.3m3.792,6.193a3.39,3.39,0,0,0-.608-1.91,3.931,3.931,0,0,0-2.315-.955v-.434q1.678.087,3.328.2.608,0,.608-.578v-17.047a37.9,37.9,0,0,0-.377-5.933,20.062,20.062,0,0,1,3.357,1.013q.492.29.058.578l-.492.319v21.3a3.621,3.621,0,0,1-.579,2.345,4.553,4.553,0,0,1-2.981,1.1" transform="translate(17.871 143.625)" fill="#2b2e34"/>
        </g>
        <g id="Group_1486" data-name="Group 1486" transform="translate(58.058 0)">
          <path id="Path_178" data-name="Path 178" d="M-58.865-286.64a.786.786,0,0,1-.506-.174.511.511,0,0,1-.217-.405q.26-3.734.319-7.525v-9.377h-1.563a12.315,12.315,0,0,0-2.837.405l-.723-1.476q1.591.174,3.849.231h4.949l.637-1.013a3.216,3.216,0,0,0,.2-.318q.492-.695.666-.695.289,0,1.433,1.042t1.143,1.361q-.087.463-.724.463h-4.6v9.725q.057,3.589.231,6.8a1.9,1.9,0,0,1-.753.607,3.2,3.2,0,0,1-1.505.348m-4.949-2.287-.347-.289q1.042-2.72,1.042-8.538v-1.911a15.3,15.3,0,0,0-.116-2.084,11.4,11.4,0,0,1,2.663.955q.405.29-.029.55l-.463.289v2.229q-.059,6.107-2.75,8.8m1.071-20.954-.724-1.476q1.591.174,3.849.231h2.894l.694-.984c.058-.077.135-.183.232-.319q.492-.666.666-.665a4.461,4.461,0,0,1,1.5,1.013q1.216,1.013,1.216,1.331-.116.463-.781.463H-58.4a29.415,29.415,0,0,0-4.341.4m7.93,19.189q-.55,0-.55-.579.115-1.216.174-3.039v-1.823a37.668,37.668,0,0,0-.347-5.586,13.378,13.378,0,0,1,2.807.955q.405.26,0,.55l-.463.289v2.489q.087,3.85.2,5.962a1.368,1.368,0,0,1-.709.535,2.773,2.773,0,0,1-1.114.246m2.026,3.271-.753-1.476q1.591.174,3.85.231h2.344v-13.486h-1.447a10.273,10.273,0,0,0-2.547.4l-.753-1.476q1.331.174,3.242.232h1.505v-4.631a37.887,37.887,0,0,0-.377-5.933,20.189,20.189,0,0,1,3.589,1.042q.521.29.058.579l-.521.318v8.625h27.263l.665-1.042c.058-.077.135-.193.232-.347q.492-.695.666-.695.289,0,1.433,1.071t1.143,1.389q-.116.463-.724.463H-44.6v13.486h30.91l.724-1.1q.115-.144.29-.405.491-.723.665-.724.289,0,1.534,1.143t1.245,1.462q-.116.462-.781.463H-48.446a29.291,29.291,0,0,0-4.341.406" transform="translate(64.393 313.556)" fill="#2b2e34"/>
        </g>
        <g id="Group_1487" data-name="Group 1487" transform="translate(119.119 0.405)">
          <path id="Path_179" data-name="Path 179" d="M-8.63-284.171a.829.829,0,0,1-.535-.174.509.509,0,0,1-.217-.405q.26-3.734.318-7.525v-12.069a37.85,37.85,0,0,0-.376-5.933l3.357,1.447H45.484l.724-1.013q.087-.115.231-.319.521-.694.695-.694a4.7,4.7,0,0,1,1.548,1.042q1.259,1.042,1.259,1.36-.087.463-.724.463H-6.459v20.867H11.274l.752-1.042q.087-.116.26-.318.549-.752.724-.753a4.854,4.854,0,0,1,1.577,1.086q1.288,1.085,1.288,1.4-.115.463-.781.463H-6.459v1.244q0,.232-.579.521a3.514,3.514,0,0,1-1.592.347m4.312-4.226q-.492,0-.492-.579.115-1.041.174-2.634v-1.621a30.245,30.245,0,0,0-.318-4.949l2.663,1.158H.2l.492-.666a.673.673,0,0,0,.116-.174q.376-.521.578-.521.289,0,1.245.825t.955,1.143a1.513,1.513,0,0,1-.926.492v2.113q.057,2.546.173,4.022a1.737,1.737,0,0,1-.825.55,3.178,3.178,0,0,1-1.23.289q-.492,0-.492-.578l.087-.261a.535.535,0,0,1,.029-.173v-.521H-2.407v1.36q0,.2-.608.435a3.116,3.116,0,0,1-1.3.289m1.911-2.923H.4v-4.891H-2.407Zm1.215-6.975q-.521,0-.521-.578.057-.579.116-1.563c.019-.29.029-.531.029-.724v-1.447a31.881,31.881,0,0,0-.261-4.428l2.894,1.274H5.929l.55-.781c.039-.058.1-.135.174-.232q.405-.549.579-.55a3.989,3.989,0,0,1,1.418.955q1.129.955,1.129,1.273a1.706,1.706,0,0,1-1.071.521v1.736q0,.406.029,1.071.057,1.476.116,2.258-.116.232-.883.535a3.738,3.738,0,0,1-1.346.3H6.189V-300H.951v.9q0,.2-.695.492a3.71,3.71,0,0,1-1.447.318m2.142-2.547H6.189v-4.109H.951ZM4.684-288.8c-.328,0-.492-.193-.492-.579q.115-.955.173-2.489v-1.563a31.452,31.452,0,0,0-.29-4.747l2.634,1.158H9.344l.492-.695a1.745,1.745,0,0,0,.2-.26q.348-.463.521-.463.289,0,1.3.868t1.013,1.187a1.852,1.852,0,0,1-1.013.492v2.055q.057,2.518.173,3.907a1.626,1.626,0,0,1-.839.579,3.233,3.233,0,0,1-1.216.289h-.4v-1.418H6.623v.955q0,.2-.607.434a3.316,3.316,0,0,1-1.332.29m1.939-2.518H9.575v-4.891H6.623Z" transform="translate(9.44 310.855)" fill="#2b2e34"/>
        </g>
      </g>
    </g>
    <path id="Path_219" data-name="Path 219" d="M5.792-11.936v1.3H2.736v-1.3ZM2.736-8.816v-1.36H5.792v1.36Zm3.056.464v.4l-.16-.08A7.578,7.578,0,0,1,5.024-6.72a3.41,3.41,0,0,0-.9-.24l-.144.128a2.556,2.556,0,0,1,.976,1.36c.656.448,1.232-.432.432-1.04.368-.256.736-.512.96-.7.3.064.512-.064.544-.208l-.752-.368a1.485,1.485,0,0,0,.864-.384V-11.76a1.207,1.207,0,0,0,.576-.272L6.256-13.056l-.608.672H2.816L1.5-12.992V1.28h.224C2.32,1.28,2.736.96,2.736.8V-8.352Zm.656,3.008a2.8,2.8,0,0,1,.352.656c-.432.016-.88.016-1.28.032A19.68,19.68,0,0,0,7.344-6.144a.51.51,0,0,0,.608-.16l-1.12-.7A17.349,17.349,0,0,1,4.96-4.64h-1.3l.544,1.1a.5.5,0,0,0,.384-.336c1.008-.192,1.776-.368,2.32-.5a1.756,1.756,0,0,1,.08.56c.736.72,1.76-.8-.352-1.632ZM10.624-6.96A16.523,16.523,0,0,1,8.752-4.64H7.92l.56,1.088a.441.441,0,0,0,.352-.32c.96-.208,1.664-.4,2.176-.544a2.443,2.443,0,0,1,.192.7c.816.72,1.744-.976-.672-1.84l-.16.112a4.913,4.913,0,0,1,.48.7c-.544.032-1.088.064-1.584.08a18.922,18.922,0,0,0,1.872-1.456.49.49,0,0,0,.608-.16ZM6.416-1.872a1.376,1.376,0,0,1-.016.256H5.376V-2.864c.256-.064.384-.176.4-.336L4.4-3.36V-.416h.176c.352,0,.8-.224.8-.336v-.4h.96A2.834,2.834,0,0,1,4.368.88l.176.208C6.928.416,7.392-.752,7.408-1.856v-1.1c.384-.048.5-.192.528-.384L6.416-3.52Zm4.032-1.472v1.728H9.312V-3.04c.288-.064.4-.176.432-.352L8.3-3.552V.864H8.5c.352,0,.816-.208.816-.336v-1.68h1.136v.72h.192c.368,0,.816-.208.816-.3V-2.848c.272-.064.4-.176.416-.336Zm-.416-5.472v-1.36h3.184v1.36Zm3.184-3.12v1.3H10.032v-1.3Zm.448-1.216-.608.768H10.112l-1.3-.56v5.088h.176A1.744,1.744,0,0,0,9.408-7.9,11.829,11.829,0,0,1,8.8-6.736a3.921,3.921,0,0,0-.96-.256l-.16.144A2.654,2.654,0,0,1,8.72-5.472c.656.448,1.232-.448.416-1.056.384-.256.784-.528,1.024-.72a.436.436,0,0,0,.528-.192L9.664-7.984c.208-.1.368-.192.368-.256v-.112h3.184V-.5c0,.192-.048.272-.256.272-.256,0-1.248-.08-1.248-.08v.256a1.384,1.384,0,0,1,.912.432,1.717,1.717,0,0,1,.256.912c1.408-.128,1.6-.672,1.6-1.648V-11.7a1.306,1.306,0,0,0,.672-.32Zm7.664,1.792h9.7c.208,0,.384-.08.416-.256-.56-.5-1.488-1.2-1.488-1.2l-.816.992H26.72v-1.024c.352-.064.5-.208.512-.416l-1.744-.16v1.6H21.2Zm2.128,5.1H21.488l.128.464H24.64a.328.328,0,0,0,.368-.256A11.234,11.234,0,0,0,24-6.9Zm-.032,1.584h-2.08l.128.48h3.136a.364.364,0,0,0,.4-.256c-.4-.384-1.024-.88-1.024-.88Zm4.432-3.44V-9.9h1.232v1.792ZM23.3-9.9h1.232v1.792H23.3Zm3.52,0v1.792h-1.28V-9.9Zm2.272,2.8h.176a1.629,1.629,0,0,0,.944-.32V-9.776a1.019,1.019,0,0,0,.56-.272l-1.232-.928-.576.608H23.376L22.192-10.9v3.952h.16A1.4,1.4,0,0,0,23.3-7.28v-.352h5.792Zm.32.848H27.376l.128.464h3.088c.224,0,.352-.08.4-.256-.416-.384-1.04-.864-1.04-.864Zm1.328,2.064c.208,0,.368-.08.4-.256-.416-.4-1.056-.88-1.056-.88l-.544.656H27.36l.128.48ZM17.5-10.352a4.924,4.924,0,0,1-.672,2.88.753.753,0,0,0-.224.976c.272.336.864.176,1.136-.24a4.556,4.556,0,0,0,.048-3.6Zm1.184-3.12V1.3h.24c.448,0,.96-.272.96-.416v-13.7c.4-.064.528-.224.56-.464Zm1.344,2.8a5.924,5.924,0,0,1,.64,2.544c.864.9,2-1.024-.448-2.624Zm9.616,6.64a13.437,13.437,0,0,1-1.92,1.9,6.092,6.092,0,0,1-1.184-1.616c.432.032.656-.064.736-.224L26.032-4.4c.336-.048.672-.224.672-.32V-6.608c.32-.064.432-.192.464-.352l-1.6-.176v2.608a16.838,16.838,0,0,1-5.088,3.28l.128.208a18.164,18.164,0,0,0,2.976-1.04V-.352c-.784.128-1.44.24-1.856.288l.736,1.36a.563.563,0,0,0,.368-.368c2.1-.736,3.632-1.344,4.72-1.792L27.5-1.088c-.944.176-1.888.352-2.736.512v-2.1A16.571,16.571,0,0,0,26.32-3.6a7.311,7.311,0,0,0,4.32,4.848A1.334,1.334,0,0,1,31.6.16l.016-.176A8.452,8.452,0,0,1,28-1.856,13.634,13.634,0,0,0,30.336-2.88c.3.112.464.1.592-.048Zm7.36-2.384h5.824v1.44l-.128.128c-2.048.272-4.016.544-5.7.752Zm5.824-4.528v1.776H37.008v-1.776ZM37.008-8.7h5.824V-6.88H37.008Zm8.72.256a14.8,14.8,0,0,1-1.6,2.128V-10.7a1.192,1.192,0,0,0,.688-.336l-1.5-1.152-.64.768H39.6c.352-.416.8-.944,1.088-1.344.32,0,.544-.128.592-.368l-2-.368c-.1.624-.32,1.488-.464,2.08H37.1l-1.392-.592v8.08c-1.12.128-2.048.224-2.656.272l.608,1.488a.617.617,0,0,0,.416-.336c3.36-.7,5.984-1.312,8.048-1.824A27.225,27.225,0,0,1,32.96.8l.112.272A26.692,26.692,0,0,0,42.832-3.5V-.48c0,.272-.08.384-.416.384-.368,0-2.272-.144-2.272-.144V0a4.112,4.112,0,0,1,1.568.448,1.233,1.233,0,0,1,.416.848c1.792-.16,2-.7,2-1.664V-4.576a18.649,18.649,0,0,0,2.448-2.656c.368.112.56.08.672-.048ZM49.5-12.96a5.254,5.254,0,0,1,1.728,2.208c1.248.656,1.952-1.84-1.584-2.352Zm-.672,3.28a5.282,5.282,0,0,1,1.856,2.144c1.28.624,1.872-1.9-1.712-2.272ZM61.744-5.056h.112L61.28-4.4H58.368v-.64a.576.576,0,0,0,.352-.208c.176.176.544.192,1.2.192ZM55.456-9.28h4.9v.752h-4.9Zm4.9-2.432v.752h-4.9v-.752Zm0,1.968h-4.9V-10.5h4.9Zm-.416,6.992a1.757,1.757,0,0,1-.432,1.04.8.8,0,0,1-.448.08c-.272,0-1.1-.048-1.584-.1v.272a2.262,2.262,0,0,1,1.056.336.719.719,0,0,1,.24.624,2.764,2.764,0,0,0,1.408-.272c.512-.288.768-.864.912-1.84a1.034,1.034,0,0,0,.592-.224l-1.216-.976-.608.592H57.312a3.792,3.792,0,0,0,.32-.736h5.1c.208,0,.368-.08.4-.24A11.946,11.946,0,0,0,62-5.056c1.008-.016,1.216-.176,1.216-.5,0-.144-.08-.16-.464-.272l-.064-.608h-.144a1.726,1.726,0,0,1-.384.608.817.817,0,0,1-.336.048H60.016c-.384,0-.4-.016-.4-.416v-.544H61.36c-.16.272-.336.576-.448.752l.224.1a7.838,7.838,0,0,0,1.36-.7c.3-.016.48-.032.608-.16L62-7.808l-.576.608h-3.04v-.576q.36-.072.432-.288h1.536v.48h.192a1.524,1.524,0,0,0,.992-.384V-11.5a1.4,1.4,0,0,0,.64-.3l-1.36-1.024-.624.672H57.584c.256-.24.544-.5.752-.7.32-.016.512-.16.56-.384l-1.728-.288c-.048.368-.112.96-.16,1.376H55.536L54.32-12.7v5.2H54.5c.48,0,.96-.256.96-.384v-.176h1.776V-7.2H54.208a4,4,0,0,0-.112-.7h-.288a1.54,1.54,0,0,1-.9,1.3.686.686,0,0,0-.4.816c.144.336.672.336.992.16a1.594,1.594,0,0,0,.672-1.1h1.68c-.336.96-1.184,1.472-2.688,1.84l.08.256c1.92-.192,3.376-.72,3.9-2.1h1.36v.528a2.542,2.542,0,0,0,.08.8l-1.376-.144V-4.4H52.768l.128.448h3.328c-.416,1.456-1.408,2.384-3.28,3.088l.032.112A3.907,3.907,0,0,1,51.7-1.68V-4.752a1.411,1.411,0,0,0,.784-.3L50.96-6.3l-.688.912H48.624l.1.464H50.5v3.7c-.7.416-1.424.816-1.9,1.04l.816,1.456a.357.357,0,0,0,.176-.4A25.405,25.405,0,0,0,51.52-1.36C52.656.512,53.952.912,56.976.912h5.616A1.1,1.1,0,0,1,63.5-.128V-.352c-2,.064-4.608.064-6.544.064A11.489,11.489,0,0,1,53.2-.672a6.1,6.1,0,0,0,3.808-2.08ZM70.8-13.152c-.016,4.944.048,10.128-6.16,14.176l.208.256c5.76-2.944,6.912-6.992,7.216-10.928.464,4.864,1.84,8.592,6.064,10.9A1.493,1.493,0,0,1,79.456.08L79.488-.1c-5.52-2.4-6.96-6.432-7.312-12.4.416-.048.544-.208.576-.448Z" transform="translate(387 88)"/>
    <path id="Path_218" data-name="Path 218" d="M8.56-3.664V-6.176h3.376v2.512ZM4.048-6.176h3.2v2.512h-3.2Zm3.2-2.9V-6.64h-3.2V-9.072Zm4.688,0V-6.64H8.56V-9.072Zm1.536,5.408h-.256v-5.1a1.384,1.384,0,0,0,.8-.368L12.4-10.352l-.656.816H8.56v-2.1h6.08c.224,0,.4-.08.448-.256-.624-.528-1.616-1.3-1.616-1.3l-.88,1.1H1.008l.144.448h6.1v2.1H4.224l-1.472-.608v6.48H.528L.672-3.2h2.08V1.3H2.96A1.245,1.245,0,0,0,4.048.864V-3.2h7.888V-.656c0,.256-.1.368-.416.368-.4,0-2.352-.144-2.352-.144v.256a3.109,3.109,0,0,1,1.584.5,1.356,1.356,0,0,1,.432.96c1.824-.192,2.032-.8,2.032-1.76V-3.2h1.92c.224,0,.384-.08.416-.256a15.93,15.93,0,0,0-1.344-1.2Zm16.96-7.808c.224,0,.4-.08.432-.256-.56-.512-1.472-1.248-1.472-1.248l-.816,1.024H22.944l.128.48ZM20.5-13.424a18.941,18.941,0,0,1-3.744,4.5l.16.176a19.056,19.056,0,0,0,4.624-3.536c.352.064.512,0,.608-.16Zm.144,3.312a23.811,23.811,0,0,1-4.208,5.776l.176.176A17.442,17.442,0,0,0,19.12-6.128V1.3h.24A1.488,1.488,0,0,0,20.4.912V-6.832a.61.61,0,0,0,.48-.288l-.544-.208a18.7,18.7,0,0,0,1.392-1.664c.4.064.544-.016.64-.176Zm8.576,1.856H22.064l.128.464h5.056V-.656c0,.24-.112.352-.448.352-.432,0-2.736-.16-2.736-.16v.24A4.252,4.252,0,0,1,25.9.288a1.148,1.148,0,0,1,.464.928c1.888-.144,2.176-.848,2.176-1.824V-7.792H31.1c.224,0,.384-.08.416-.256-.544-.528-1.5-1.264-1.5-1.264Zm14.56-4.112-.752.7H39.36c.448-.352.864-.7,1.216-1.04.464.016.688-.1.752-.272L39.3-13.52a17.292,17.292,0,0,1-6.144,4.784l.128.208a18.071,18.071,0,0,0,3.376-1.408,6.085,6.085,0,0,1,1.968,1.664c1.184.448,1.552-1.6-1.44-1.952.544-.32,1.056-.64,1.536-.976h4.1c-2.208,2.832-5.536,4.608-9.984,5.856l.112.256c5.408-.96,8.992-2.864,11.44-5.872a1.227,1.227,0,0,0,.784-.192Zm2.1,5.648-.768.752H41.28a17.217,17.217,0,0,0,1.584-1.3c.48.016.7-.1.784-.272l-2.1-.528a18.735,18.735,0,0,1-7.44,5.28l.112.224a21.276,21.276,0,0,0,3.888-1.488A5.514,5.514,0,0,1,40.3-1.92c1.328.624,1.84-1.84-1.648-2.4a21,21,0,0,0,1.984-1.2h4.3C42.56-1.9,38.8-.192,33.328.992l.1.272C39.9.5,43.856-1.376,46.512-5.264a1.151,1.151,0,0,0,.784-.208ZM48.7-6.848l.16.528H62.9c.256,0,.448-.064.5-.256-.768-.72-2.016-1.76-2.016-1.76l-1.1,1.488Zm19.744-.464a13.9,13.9,0,0,1-3.808,4.56l.144.208a13.893,13.893,0,0,0,4.752-3.728c.368.064.5,0,.592-.16ZM69.2-3.456a2.377,2.377,0,0,1,1.28.432,1.282,1.282,0,0,1,.336.848c1.632-.144,1.84-.688,1.84-1.648V-7.216c.336-.064.5-.176.528-.4L71.36-7.808v3.92c0,.208-.064.288-.3.288-.3,0-1.856-.112-1.856-.112Zm-3.584,4.8c5.12-.608,8.8-1.856,11.808-6.64.416.064.592.016.7-.16l-1.776-.912c-2.528,4.944-6.144,6.4-10.8,7.408ZM76.944-8.288H72.672v-2.176h4.752c.208,0,.384-.08.416-.256-.592-.544-1.6-1.3-1.6-1.3l-.864,1.088h-2.7v-1.9c.4-.08.544-.24.576-.464l-1.888-.176v5.184H68.768v-3.344c.368-.064.5-.208.528-.384l-1.76-.176v3.9H64.624l.128.464H78.976a.383.383,0,0,0,.416-.256c-.592-.528-1.584-1.28-1.584-1.28ZM81.36,3.264A4,4,0,0,0,83.7-.432c0-.944-.5-1.584-1.28-1.584A1.067,1.067,0,0,0,81.3-.928c0,.88.864,1.184,1.536,1.424A3.064,3.064,0,0,1,81.1,2.832Zm19.792-10.3a10.825,10.825,0,0,0,2.832-3.456,4.175,4.175,0,0,1,1.04,1.728c1.088.768,2.064-1.232-.816-2.16a12.56,12.56,0,0,0,.7-1.632c.4,0,.528-.112.608-.288l-1.936-.608A15.428,15.428,0,0,1,100.976-7.2Zm-1.264-6.416a20.582,20.582,0,0,1-3.232,4.3l.176.192a18.67,18.67,0,0,0,4.128-3.408c.384.08.512,0,.624-.16Zm-.08,6.064a19.42,19.42,0,0,0,1.424-1.872c.4.064.528-.016.608-.192l-1.76-.864A21.21,21.21,0,0,1,96.5-4.672l.16.176a15.859,15.859,0,0,0,2.032-1.7V1.3h.24A1.381,1.381,0,0,0,99.952.864V-6.864a.65.65,0,0,0,.48-.3Zm7.184,3.168h3.728c.224,0,.368-.08.416-.256-.56-.512-1.456-1.2-1.456-1.2l-.8.992h-1.888V-7.024c.384-.064.512-.192.544-.416l-1.712-.176a10.659,10.659,0,0,0,2.5-2.88A7.992,7.992,0,0,1,110.24-8c1.28.768,2.064-1.68-1.7-2.832a16.583,16.583,0,0,0,.832-1.712c.368,0,.5-.112.576-.288l-1.92-.608a14.039,14.039,0,0,1-2.576,5.776l.16.192.112-.08V-.816A4.5,4.5,0,0,1,103.44-3.44a17.41,17.41,0,0,0,.448-2.464c.352-.032.544-.16.592-.4l-1.936-.32c-.032,2.608-.56,5.76-2.256,7.728l.16.16a7.909,7.909,0,0,0,2.832-4.208c1.008,3.136,2.768,3.968,5.824,3.968h1.92c.016-.544.208-.992.64-1.072V-.256c-.656.016-1.888.016-2.448.016a11.716,11.716,0,0,1-2.224-.176Zm9.456,3.872V-3.408h7.3V-.352Zm7.3-6.528v2.992h-7.3V-6.88Zm0-3.392v2.944h-7.3v-2.944Zm.528-1.264-.7.816H119.2a15.823,15.823,0,0,0,1.552-2,.538.538,0,0,0,.56-.368l-2.112-.368a17.316,17.316,0,0,1-.56,2.736h-2.08l-1.424-.64V1.264h.224c.592,0,1.088-.336,1.088-.5V.128h7.3v1.1h.192a1.756,1.756,0,0,0,1.136-.464V-10a1.363,1.363,0,0,0,.688-.352Zm8.736,5.12h5.824v1.44l-.128.128c-2.048.272-4.016.544-5.7.752Zm5.824-4.528v1.776h-5.824v-1.776ZM133.008-8.7h5.824V-6.88h-5.824Zm8.72.256a14.8,14.8,0,0,1-1.6,2.128V-10.7a1.192,1.192,0,0,0,.688-.336l-1.5-1.152-.64.768H135.6c.352-.416.8-.944,1.088-1.344.32,0,.544-.128.592-.368l-2-.368c-.1.624-.32,1.488-.464,2.08H133.1l-1.392-.592v8.08c-1.12.128-2.048.224-2.656.272l.608,1.488a.617.617,0,0,0,.416-.336c3.36-.7,5.984-1.312,8.048-1.824A27.226,27.226,0,0,1,128.96.8l.112.272a26.691,26.691,0,0,0,9.76-4.576V-.48c0,.272-.08.384-.416.384-.368,0-2.272-.144-2.272-.144V0a4.112,4.112,0,0,1,1.568.448,1.233,1.233,0,0,1,.416.848c1.792-.16,2-.7,2-1.664V-4.576a18.649,18.649,0,0,0,2.448-2.656c.368.112.56.08.672-.048ZM145.36,3.264a4,4,0,0,0,2.336-3.7c0-.944-.5-1.584-1.28-1.584A1.067,1.067,0,0,0,145.3-.928c0,.88.864,1.184,1.536,1.424A3.064,3.064,0,0,1,145.1,2.832Z" transform="translate(326 34)"/>
  </g>
</svg>
