<svg xmlns="http://www.w3.org/2000/svg" xmlns:xlink="http://www.w3.org/1999/xlink" width="296.053" height="51.515" viewBox="0 0 296.053 51.515">
  <defs>
    <clipPath id="clip-path">
      <path id="Path_175" data-name="Path 175" d="M0-250.572H296.053v-29.766H0Z" transform="translate(0 280.338)"/>
    </clipPath>
  </defs>
  <g id="Group_1526" data-name="Group 1526" transform="translate(-225 -26.427)">
    <path id="Path_217" data-name="Path 217" d="M10.848-4.56H8.672v-4h2.176Zm2.144-4.464h-.256v-3.584c.432-.064.56-.24.592-.464l-2.48-.224v4.272H8.672v-3.792c.448-.064.56-.24.592-.464L6.832-13.5v4.48h-2.1v-3.44c.432-.064.544-.24.592-.464l-2.48-.24v4.144H.464l.144.464h2.24v10H3.2c.72,0,1.536-.464,1.536-.656V-.032h9.936c.224,0,.4-.08.448-.256-.72-.688-1.936-1.68-1.936-1.68L12.08-.5H4.736V-8.56h2.1V-2.5h.336c.7,0,1.5-.384,1.5-.56V-4.1h2.176v1.232h.336c.736,0,1.552-.384,1.552-.56V-8.56H15.28c.224,0,.4-.08.432-.256-.64-.624-1.728-1.536-1.728-1.536Zm7.456-.528h2.608V-7.3H20.448Zm2.608-2.592V-10H20.448v-2.144Zm4.576,0V-10H24.88v-2.144ZM24.88-7.3V-9.552h2.752V-7.3Zm2.752.464v.672h.32a2.892,2.892,0,0,0,1.568-.464V-11.84a1.082,1.082,0,0,0,.64-.336l-1.824-1.392-.864.96h-6.9l-1.984-.784v7.408h.272c.784,0,1.584-.4,1.584-.592v-.256H21.52a10.5,10.5,0,0,1-5.04,3.776l.112.224A16.6,16.6,0,0,0,20.848-4.3v1.136c0,1.616-.576,3.312-3.872,4.448l.1.176C21.792.592,22.64-1.3,22.688-3.136V-4.464c.368-.048.5-.208.512-.4l-1.232-.128a7.586,7.586,0,0,0,1.872-1.84h1.408A6.817,6.817,0,0,0,26.48-5.024l-1.12-.112v6.56h.368c.608,0,1.472-.352,1.472-.5V-4.384a10.462,10.462,0,0,0,2.976,1.632A1.987,1.987,0,0,1,31.52-4.464l.016-.192c-2.144-.256-4.576-.912-5.872-2.176Zm8.112-6.784A19.018,19.018,0,0,1,32.48-8.928l.144.16A17.465,17.465,0,0,0,37.36-12.24c.384.048.528-.048.608-.208Zm.432,3.232A22.218,22.218,0,0,1,32.448-4.32l.144.16A16.872,16.872,0,0,0,34.736-5.7v7.1h.336c.784,0,1.488-.48,1.488-.656v-7.5c.3-.064.432-.16.5-.3l-.624-.224c.544-.592,1.024-1.152,1.424-1.68.368.064.528-.048.608-.208Zm4.352,4H42a13.565,13.565,0,0,0,1.312,4.56c-.96.176-1.9.336-2.784.48ZM44.4-12.032V-9.76H40.528v-2.272Zm0,5.184H40.528V-9.3H44.4Zm0,.464V-5.7h.3a3.249,3.249,0,0,0,.848-.144,19.2,19.2,0,0,1-1.968,2.3,8.059,8.059,0,0,1-1.3-2.848Zm1.424.464c.24-.08.416-.176.416-.224v-5.584a1.083,1.083,0,0,0,.656-.336L45.1-13.44l-.864.944H40.8l-2.1-.784V-1.056c-.672.1-1.216.176-1.568.208L38,1.44a.755.755,0,0,0,.448-.416c2.3-1.136,3.888-2.048,4.912-2.672l-.016-.112A8.285,8.285,0,0,0,46.1,1.248,2.151,2.151,0,0,1,47.744-.32L47.776-.5A9.444,9.444,0,0,1,43.92-3.1a14.536,14.536,0,0,0,2.992-1.184c.4.112.592.064.736-.1ZM63.024-8.3c.24,0,.416-.08.464-.256-.8-.688-2.1-1.664-2.1-1.664L60.208-8.768h-3.6c.112-1.3.128-2.656.16-4.048.384-.064.528-.224.576-.464l-2.688-.256c0,1.664.016,3.264-.1,4.768H48.624l.128.464h5.776c-.352,3.648-1.6,6.816-6.048,9.5l.144.24c5.808-2.288,7.408-5.552,7.888-9.36.432,3.2,1.632,7.088,5.36,9.36A2,2,0,0,1,63.6-.416l.032-.176C59.152-2.4,57.3-5.344,56.736-8.3ZM65.088,3.552A4.416,4.416,0,0,0,67.744-.56c0-1.1-.64-1.744-1.472-1.744a1.309,1.309,0,0,0-1.36,1.312C64.912.08,66,.464,66.7.7a3.237,3.237,0,0,1-1.872,2.368ZM88.944-.192v-2.24H91.6v2.24ZM84.5-2.432H87.1v2.24H84.5ZM87.1-5.072V-2.9H84.5V-5.072Zm4.5,0V-2.9H88.944V-5.072Zm2.16-8.144-.912.88H87.68l.064.224-1.664-1.52a18.693,18.693,0,0,1-2.288,1.456l-1.9-.736V-8.1c-.624.16-1.12.272-1.472.352l1.072,2a.617.617,0,0,0,.384-.432c1.712-.976,3.04-1.792,4.032-2.464a3.808,3.808,0,0,1,.144.816c1.536,1.3,3.136-1.84-1.056-3.168l-.16.1a8.4,8.4,0,0,1,.912,1.776c-.752.208-1.472.4-2.16.592v-3.008a29.365,29.365,0,0,0,3.248-.528,1.14,1.14,0,0,0,.944.032l.048.16h1.488A5.9,5.9,0,0,1,86-6.128l.16.208c4.112-1.408,4.832-3.568,5.056-5.952h1.76c-.128,2.144-.368,3.312-.7,3.568a.689.689,0,0,1-.48.128c-.3,0-1.056-.048-1.5-.08v.224a1.874,1.874,0,0,1,1.1.544,1.867,1.867,0,0,1,.256,1.168c.192,0,.384-.016.56-.032l-.768.832H84.624L82.656-6.3V1.44h.272c.768,0,1.568-.416,1.568-.608V.256h7.1V1.312h.32A3,3,0,0,0,93.488.848v-5.6a.986.986,0,0,0,.624-.352l-1.68-1.28a2.251,2.251,0,0,0,1.04-.432c.752-.544,1.088-1.872,1.264-4.784a1.086,1.086,0,0,0,.64-.272Zm9.776-.144a8.294,8.294,0,0,1,2.176,2.912c1.856.992,2.944-2.608-2.048-3.024ZM99.68-8.768a20.77,20.77,0,0,0,1.856-3.728.577.577,0,0,0,.64-.336L99.6-13.616a25.579,25.579,0,0,1-3.344,8.3l.208.128a12.514,12.514,0,0,0,1.888-1.808v8.4H98.7A2.292,2.292,0,0,0,100.24.88V-8.08c.3-.048.432-.16.5-.3ZM108.72.256h-1.888v-5.04h3.824c.224,0,.4-.08.448-.256-.672-.608-1.76-1.44-1.76-1.44l-.96,1.232h-1.552V-9.392h4.048c.24,0,.4-.08.448-.256-.7-.608-1.856-1.52-1.856-1.52l-1.04,1.328H101.04l.128.448h3.648v4.144h-3.424l.128.464h3.3V.256h-4.16l.128.448h10.5c.24,0,.416-.08.464-.256-.736-.656-1.952-1.6-1.952-1.6ZM113.648-10.5a4.335,4.335,0,0,1-.8,2.656.968.968,0,0,0-.336,1.248.893.893,0,0,0,1.44-.064,4.61,4.61,0,0,0-.064-3.84Zm.976-3.088V1.424h.368c.688,0,1.472-.368,1.472-.528V-12.9c.432-.064.544-.224.576-.448Zm1.84,3.056a6.072,6.072,0,0,1,.608,2.608c1.1,1.152,2.64-1.2-.416-2.688Zm7.5.624V-5.92h-1.92c.112-1.168.144-2.5.144-3.984Zm3.392,4.448a.383.383,0,0,0,.416-.256c-.448-.592-1.328-1.52-1.328-1.52L125.7-5.92h-.016V-9.632a1.244,1.244,0,0,0,.64-.336l-1.664-1.264-.848.9h-1.616c.016-.768.016-1.568.016-2.432.352-.048.544-.208.592-.464l-2.5-.224c0,1.12.016,2.16.016,3.12h-2.384l.128.432h2.256c.016,1.488,0,2.816-.1,3.984h-3.36l.128.464h3.184c-.288,2.848-1.168,4.816-3.648,6.336l.16.224c3.664-1.36,4.88-3.36,5.3-6.5.336,2.5,1.28,5.168,4.128,6.432a1.881,1.881,0,0,1,1.632-1.888v-.208c-3.408-.848-4.992-2.416-5.5-4.4Zm14.256-1.728c-.576.064-1.152.128-1.68.176.384-.384.784-.8,1.168-1.232A5.887,5.887,0,0,1,141.616-7.184Zm-.112-4.1c-.464,1.072-1.376,2.992-2.08,4.336-.416.032-.784.064-1.024.08l.928,1.728a.567.567,0,0,0,.4-.368q1.3-.792,2.016-1.3a4.337,4.337,0,0,1,.192,1.152c1.3,1.216,2.928-1.408-.672-2.672l-.144.064c.656-.7,1.264-1.408,1.664-1.888.384.048.56-.048.624-.192Zm-10.736-2.288c-.128.576-.352,1.568-.576,2.4a5.283,5.283,0,0,0-1.312-.352l-.144.1a3.364,3.364,0,0,1,.96,2.032c1.056.864,2.176-.528,1.008-1.472.544-.592,1.184-1.248,1.536-1.664.4.032.56-.08.608-.24Zm.768,5.456a5.455,5.455,0,0,1,.352,1.056c-.5.048-.992.112-1.456.144C130.768-7.28,131.152-7.7,131.536-8.112Zm5.28-3.088v1.984h-1.7V-11.2Zm-1.7,4.528v-2.08h1.7v2.08Zm-1.472,1.328h.224c.608,0,1.248-.336,1.248-.48v-.384h1.7V-5.6h.256a2.385,2.385,0,0,0,1.3-.416v-4.992c.064-.016.112-.032.16-.048a3.011,3.011,0,0,1,.7,1.728c1.088.88,2.272-.672.784-1.552.592-.528,1.312-1.152,1.68-1.536.384.032.528-.048.592-.208l-2.032-.944c-.144.592-.432,1.68-.656,2.48a3.718,3.718,0,0,0-.7-.192l-1.488-1.152-.736.768h-.944c.352-.384.8-.88,1.088-1.216q.5-.048.576-.432l-2.128-.288c-.016.576-.048,1.392-.1,1.936l-1.52-.64v1.792l-1.712-.768c-.432,1.088-1.312,3.072-1.968,4.416-.656.048-1.216.1-1.568.112l.944,1.84a.538.538,0,0,0,.4-.384c.976-.56,1.712-1.008,2.24-1.344a4.743,4.743,0,0,1,.064,1.056c1.168,1.232,2.784-1.184-.32-2.736.624-.688,1.2-1.376,1.584-1.856a1.158,1.158,0,0,0,.336,0Zm9.376,1.84c.24,0,.416-.08.448-.256-.72-.624-1.9-1.536-1.9-1.536l-1.056,1.344h-3.536v-.9c.432-.064.56-.24.592-.448l-2.592-.224v1.568h-6.448l.144.448h4.9a14.027,14.027,0,0,1-5.152,4.24l.112.208a16.784,16.784,0,0,0,6.448-3.168V1.424h.352a2.562,2.562,0,0,0,1.648-.48V-3.5h.016A8.873,8.873,0,0,0,142.128.784,2.181,2.181,0,0,1,143.6-.976l.016-.192A12.623,12.623,0,0,1,137.44-3.5Zm7.376-8.448c.224,0,.384-.08.432-.256-.592-.528-1.52-1.28-1.52-1.28l-.848,1.088h-3.2l.128.448ZM145.344-5.76H150.4c.224,0,.384-.08.432-.256-.56-.512-1.472-1.232-1.472-1.232l-.8,1.04h-3.344Zm3.216-2.528h-3.344l.128.448H150.4c.224,0,.384-.08.432-.256-.56-.512-1.472-1.232-1.472-1.232Zm-1.584,8V-3.76h1.76V-.288Zm1.6-3.936H147.04l-1.744-.7V1.44h.24c.7,0,1.44-.384,1.44-.544V.176h1.76V1.184h.288a2.342,2.342,0,0,0,1.408-.5V-3.5a1.026,1.026,0,0,0,.608-.32l-1.664-1.264Zm.72-6.128h-4.848l.128.432h6.688c.224,0,.384-.08.432-.24-.592-.544-1.552-1.3-1.552-1.3ZM158.624-3.1h-.176A12.554,12.554,0,0,1,157.7-.9a.464.464,0,0,1-.448.24c-.24.016-.768.032-1.376.032h-1.648c-.56,0-.656-.1-.656-.4V-6.7h2.976v.784h.3a2.573,2.573,0,0,0,1.5-.5v-5.1a1.191,1.191,0,0,0,.672-.336l-1.792-1.36-.848.944H151.6l.144.448h4.8v4.656h-2.768l-2.048-.784V-.576c0,1.312.448,1.648,2.16,1.648H155.7c2.864,0,3.648-.336,3.648-1.12,0-.336-.144-.544-.672-.752Zm2.8-7.44a4.493,4.493,0,0,1-.688,2.768.9.9,0,0,0-.288,1.168.83.83,0,0,0,1.344-.128,4.646,4.646,0,0,0-.112-3.808Zm9.744-.928a15.96,15.96,0,0,1-.544,2.256h-2.016c.912-.208,1.3-1.712-1.008-2.256Zm3.92,2.7c.24,0,.4-.08.448-.256-.64-.544-1.648-1.3-1.648-1.3l-.912,1.1H171.1A11.969,11.969,0,0,0,173.04-10.7a.572.572,0,0,0,.592-.32l-1.744-.448h2.784c.224,0,.384-.08.432-.256-.656-.576-1.712-1.36-1.712-1.36l-.944,1.168h-1.664V-12.9c.384-.064.5-.208.528-.416L168.96-13.5v1.584h-3.52l.128.448h1.392a4.291,4.291,0,0,1,.656,1.984,1.245,1.245,0,0,0,.544.272h-2.3a2.852,2.852,0,0,0-1.568-1.68l-.128.032V-12.9c.416-.064.544-.224.576-.464l-2.288-.224V1.424h.352c.64,0,1.36-.336,1.36-.512V-10.64a5.672,5.672,0,0,1,.464,2.32.7.7,0,0,0,1.264-.448ZM167.84-4.416V-5.664h4.5v1.248Zm4.5-2.88v1.2h-4.5V-7.3Zm.3,3.952a2.155,2.155,0,0,0,1.456-.368V-7.184a.834.834,0,0,0,.576-.288l-1.584-1.216-.816.944h-4.256l-1.872-.72v5.312h.288c.88,0,1.408-.288,1.408-.416v-.384h4.5v.608Zm-3.84-.208a4.886,4.886,0,0,1,1.648,2.064c1.536.8,2.4-2.16-1.52-2.176Zm-2.512.72a2.058,2.058,0,0,1-1.008,1.76A.961.961,0,0,0,164.64.1a.955.955,0,0,0,1.392.4c.688-.416,1.152-1.632.5-3.328ZM172.7-1.5h-.176A3.813,3.813,0,0,1,172-.432a.458.458,0,0,1-.336.128c-.176,0-.56.016-.992.016h-1.12c-.4,0-.432-.048-.432-.24V-2.32c.288-.048.432-.176.464-.384l-2.048-.176V-.16c0,1.04.224,1.328,1.616,1.328H170.5c2.192,0,2.816-.3,2.816-.944,0-.3-.128-.48-.56-.656Zm-.176-1.3a5.535,5.535,0,0,1,1.44,2.992c1.584,1.264,3.12-2.064-1.3-3.1Zm4.56,6.352A4.416,4.416,0,0,0,179.744-.56c0-1.1-.64-1.744-1.472-1.744a1.309,1.309,0,0,0-1.36,1.312C176.912.08,178,.464,178.7.7a3.237,3.237,0,0,1-1.872,2.368Z" transform="translate(225 40.059)"/>
    <g id="Group_1483" data-name="Group 1483" transform="translate(225 328.514)">
      <g id="Group_1482" data-name="Group 1482" transform="translate(0 -280.338)" clip-path="url(#clip-path)">
        <g id="Group_1476" data-name="Group 1476" transform="translate(0 0)">
          <path id="Path_169" data-name="Path 169" d="M-13.944-48.011a4.531,4.531,0,0,0-.671-1.279,5.256,5.256,0,0,0-.985-1.069l.168-.147a4.537,4.537,0,0,1,2.307.629,1.443,1.443,0,0,1,.713,1.09.886.886,0,0,1-.441.86.982.982,0,0,1-1.09-.084m7.192,14.049q-.5,0-.5-.419.1-1.028.147-2.7v-1.573h-4.759a21.284,21.284,0,0,0-3.145.294l-.545-1.069q1.153.126,2.789.168h5.661v-1.971a2.52,2.52,0,0,1-.965.189h-.315v-6.982a13.51,13.51,0,0,1-2.16,1.74l-.273-.231A13.958,13.958,0,0,0-8.89-49.353a14.53,14.53,0,0,0,.9-2.212,10.576,10.576,0,0,0,.5-2.149,15.346,15.346,0,0,1,2.348,1.049q.357.251,0,.356l-.377.126a10.612,10.612,0,0,1-.839,1.531l.084.021h2.327a10.864,10.864,0,0,0,.44-2.915,12.672,12.672,0,0,1,2.39.755q.357.189.021.335l-.356.147a15.907,15.907,0,0,1-1.8,1.677H-.335l.5-.713c.042-.056.1-.133.168-.231q.357-.482.482-.482a3.11,3.11,0,0,1,1.069.734q.86.734.86.964-.063.336-.524.336H-2.159v1.95H-.587l.44-.65c.042-.056.1-.133.168-.231q.315-.44.44-.44.21,0,.986.681t.776.912q-.063.336-.524.336H-2.159v1.992H-.545l.44-.65c.042-.056.1-.133.168-.231q.315-.441.441-.44.209,0,.975.681t.766.912q-.063.336-.545.336H-2.159v2.076H.189l.5-.713q.063-.084.189-.273.335-.461.461-.461.209,0,1.038.744t.829.975q-.063.336-.524.336h-9.2v.524q0,.105-.293.273a9.409,9.409,0,0,1,1.908.608q.294.168.021.336l-.273.168v1.006H-.188l.566-.755q.083-.1.231-.294.378-.482.5-.482a3.587,3.587,0,0,1,1.153.786q.944.786.944,1.017-.063.336-.545.335H-5.158v1.4q0,.336.021.86.042,1.174.084,1.8-.084.209-.629.419a2.971,2.971,0,0,1-1.07.21M-13.1-40.693q-.629,0-.8-.818.356-2.579-.294-2.977a2.6,2.6,0,0,0-.923-.252v-.44h.965a.791.791,0,0,0,.315-.042.953.953,0,0,0,.294-.294q.461-.566,4.131-5.745l.294.147q-.357.713-1.51,2.81t-1.3,2.432a3.344,3.344,0,0,0-.4,1.426,2.691,2.691,0,0,0,.231.881,3.969,3.969,0,0,1,.315,1.636A1.155,1.155,0,0,1-13.1-40.693m.776-10.023a3.667,3.667,0,0,0-.65-1.342,6.97,6.97,0,0,0-.985-1.132l.168-.147a4.673,4.673,0,0,1,2.328.734,1.446,1.446,0,0,1,.692,1.132.878.878,0,0,1-.461.86.963.963,0,0,1-1.09-.105m5.808,2.642h2.558v-1.95H-6.521Zm0,2.6h2.558v-1.992H-6.521Zm0,2.684h2.558v-2.076H-6.521Z" transform="translate(15.6 53.714)"/>
        </g>
        <g id="Group_1477" data-name="Group 1477" transform="translate(20.948 0.063)">
          <path id="Path_170" data-name="Path 170" d="M-23.65-165.039a.634.634,0,0,1-.409-.126.368.368,0,0,1-.157-.294q.189-2.7.231-5.452v-5.137a15.52,15.52,0,0,1-2.223,2.537l-.251-.168a30.806,30.806,0,0,0,2.809-6.416,22.258,22.258,0,0,0,.608-2.327,12.512,12.512,0,0,0,.314-2.223,19.646,19.646,0,0,1,2.621.943q.377.231.021.378l-.4.168a27.994,27.994,0,0,1-1.824,4.361l.839.315a.8.8,0,0,1-.65.419v7.4q.042,2.6.168,4.927a1.579,1.579,0,0,1-.65.44,2.5,2.5,0,0,1-1.049.252m4.676.126a.56.56,0,0,1-.378-.126.377.377,0,0,1-.147-.294c0-.084.007-.2.021-.356q.146-2.328.189-4.634v-2.726a19.1,19.1,0,0,1-2.474,1.992l-.252-.294a15.847,15.847,0,0,0,3.879-6.416h-.944a5.51,5.51,0,0,0-1.594.294l-.545-1.069q1.006.126,2.39.168h1.111v-2.7h-.776a3.8,3.8,0,0,0-1.3.294l-.545-1.069a14.206,14.206,0,0,0,1.8.168h.818a17.76,17.76,0,0,0-.168-2.768,13.539,13.539,0,0,1,2.327.734q.315.21-.021.42l-.378.231v1.384H-13.4a17.761,17.761,0,0,0-.168-2.768,13.532,13.532,0,0,1,2.307.734q.314.21,0,.42l-.378.231v1.384h.734l.44-.692.189-.252q.294-.44.419-.44.209,0,.985.713t.776.944q-.063.336-.545.335h-3v2.7h1.3l.44-.692.189-.252q.293-.44.419-.44.21,0,.986.713t.776.944q-.084.336-.524.336H-16.1a12.1,12.1,0,0,1-.985,1.95h6.081l.378-.5a1.235,1.235,0,0,0,.105-.126q.293-.377.44-.377a3.11,3.11,0,0,1,1.059.65q.849.65.849.881a1.545,1.545,0,0,1-.881.44v7.716a2.563,2.563,0,0,1-.335,1.51,2.445,2.445,0,0,1-1.741.671,2.7,2.7,0,0,0-.231-1.216,1.586,1.586,0,0,0-1.027-.566v-.294q.629.021,1.258.063a.3.3,0,0,0,.336-.335v-2.328H-13.27v1.174q0,.273.021.713.042,1.028.084,1.531a1.139,1.139,0,0,1-.482.419,2.314,2.314,0,0,1-1.048.231q-.461,0-.461-.419.083-.9.126-2.286v-1.363h-2.453v1.384q0,.336.021.839.042,1.195.084,1.8a1.076,1.076,0,0,1-.5.44,2.323,2.323,0,0,1-1.09.252m1.489-8.094h2.453v-2.2h-2.453Zm0,2.768h2.453v-2.16h-2.453Zm1.531-8.136H-13.4v-2.7h-2.558Zm2.684,5.368H-10.8v-2.2H-13.27Zm0,2.768H-10.8v-2.16H-13.27Z" transform="translate(26.459 184.644)"/>
        </g>
        <g id="Group_1478" data-name="Group 1478" transform="translate(46.22 0.253)">
          <path id="Path_171" data-name="Path 171" d="M-2.93-245.246l-.317-.38a17.393,17.393,0,0,0,6.517-7.718,20.172,20.172,0,0,0-2.563-2.309q-.379,1.328-.538,1.9a3.312,3.312,0,0,1-2.783.095q1.391-4.206,3.1-11.894H-.621a5.078,5.078,0,0,0-1.835.443l-.823-1.613a21.414,21.414,0,0,0,2.72.253H.707q.254-1.138.348-1.708a27.257,27.257,0,0,0,.7-6.2,17.028,17.028,0,0,1,3.48.981q.505.253-.031.506l-.6.285q-.664,3.385-1.3,6.136H5.674l.664-.791a1.783,1.783,0,0,1,.221-.253q.474-.538.664-.538.316,0,1.5,1.06t1.186,1.408a1.563,1.563,0,0,1-1.17.506,34.475,34.475,0,0,1-2.689,11.167,8.137,8.137,0,0,1,3.005,3.574A2.637,2.637,0,0,1,9-247.745q-.7.949-1.993.158a13.03,13.03,0,0,0-2.214-4.049,18.466,18.466,0,0,1-7.718,6.39m6.959-9.869a41.407,41.407,0,0,0,1.929-10.439H3.112Q2.194-261.283.9-256.349a23.725,23.725,0,0,1,3.132,1.234m156.39-4.27H18.042v10.629a4.156,4.156,0,0,1-.664,2.657,5.305,5.305,0,0,1-3.416,1.234,3.463,3.463,0,0,0-.7-2.183,5.125,5.125,0,0,0-2.689-1.075v-.443q1.961.095,3.89.221.7,0,.7-.6v-10.439H12.981A22.655,22.655,0,0,0,9-258.943L8.2-260.556q1.74.19,4.207.253h2.752a37.018,37.018,0,0,0-.348-5.725l2.309.348a48.187,48.187,0,0,0,3.29-4.9h-6.2a32.081,32.081,0,0,0-4.745.443l-.854-1.613q1.74.19,4.207.253H20.6l.759-.822.317-.316q.474-.537.664-.538.284,0,1.5,1.155t1.218,1.5a1.924,1.924,0,0,1-1.266.348,69.192,69.192,0,0,1-5.757,4.587l1.075.1q-.095.728-1.075.854v4.334h142.5" transform="translate(3.278 274.379)"/>
        </g>
        <g id="Group_1479" data-name="Group 1479" transform="translate(105.214 0.854)">
          <path id="Path_172" data-name="Path 172" d="M-870.749-243.383q-.76,0-.759-.632.19-2.657.253-5.378V-252.4H-971.15a7.135,7.135,0,0,0-2.215.443l-.823-1.582a26.151,26.151,0,0,0,2.974.253h99.958v-6.674a41.381,41.381,0,0,0-.411-6.485l3.7,1.518h5.188v-4.112h-56.749a32.14,32.14,0,0,0-4.745.443l-.822-1.613q1.739.19,4.207.253h68.137l.823-1.17q.126-.158.316-.443.537-.728.727-.728a5.7,5.7,0,0,1,1.788,1.2q1.47,1.2,1.47,1.55-.127.506-.822.506h-11.42v4.112h5.567l.665-.886a1.23,1.23,0,0,0,.158-.221q.506-.664.728-.664a5.66,5.66,0,0,1,1.771,1.123q1.455,1.123,1.455,1.471a2.482,2.482,0,0,1-1.518.791v10.028h.253l.664-1.076q.095-.126.253-.348.475-.728.665-.728.285,0,1.439,1.107t1.155,1.455q-.095.474-.791.475h-3.637v5.093a3.823,3.823,0,0,1-.7,2.594q-.918,1.012-3.575,1.265a3.625,3.625,0,0,0-.791-2.214,5.813,5.813,0,0,0-2.973-1.107v-.474q2.182.127,4.365.285.76,0,.759-.728V-252.4h-14.392v2.689q.063,3.321.19,5.219a1.749,1.749,0,0,1-.822.7,3.787,3.787,0,0,1-1.771.411m2.4-15.447h5.567v-5.177h-5.567Zm0,5.547h5.567v-4.629h-5.567Zm8.477-5.547h5.915v-5.177h-5.915Zm0,5.547h5.915v-4.629h-5.915Z" transform="translate(974.187 272.295)"/>
        </g>
        <g id="Group_1480" data-name="Group 1480" transform="translate(237.659 0.411)">
          <path id="Path_173" data-name="Path 173" d="M-7.724-246.844q-.728,0-.727-.633.158-1.55.221-4.081v-2.372a41.386,41.386,0,0,0-.411-6.485A21.956,21.956,0,0,1-5-259.307q.537.284.063.6l-.506.316v7.782h7.5V-263.04H-3.992v1.107q0,.222-.727.506a4.153,4.153,0,0,1-1.55.316q-.665,0-.665-.633.126-1.329.19-3.353v-2.025a41.663,41.663,0,0,0-.38-6.168,20.567,20.567,0,0,1,3.606,1.107q.538.285.063.6l-.538.316v7.307H2.05v-5.725a41.449,41.449,0,0,0-.411-6.485,19.532,19.532,0,0,1,3.8,1.139q.569.317.063.633l-.538.348v10.091h6.263V-266.8a41.451,41.451,0,0,0-.411-6.485,22.051,22.051,0,0,1,3.669,1.107q.537.285.063.6l-.538.316v2.657q.095,4.112.221,6.39a2.011,2.011,0,0,1-.949.633,4.156,4.156,0,0,1-1.55.316.559.559,0,0,1-.632-.633,2.076,2.076,0,0,0,.063-.285,2.113,2.113,0,0,1,.063-.253v-.6H4.96v12.432h7.718v-3.321a41.46,41.46,0,0,0-.411-6.485,22.065,22.065,0,0,1,3.7,1.107q.538.284.063.6l-.506.316v3.1q.063,3.828.253,7.244a1.9,1.9,0,0,1-.981.6,4.486,4.486,0,0,1-1.613.316.559.559,0,0,1-.633-.632q.031-.222.063-.569c.021-.211.042-.38.063-.506v-.854H-5.447v.7q.031.316.031.728.031.348.063.506-.064.348-.822.632a4.377,4.377,0,0,1-1.55.285" transform="translate(8.642 276.167)"/>
        </g>
        <g id="Group_1481" data-name="Group 1481" transform="translate(267.33 0.411)">
          <path id="Path_174" data-name="Path 174" d="M-51.659-247.11a2.118,2.118,0,0,0-.538-1.8,5.048,5.048,0,0,0-2.531-.949v-.506a34.566,34.566,0,0,0,3.638.253,1.478,1.478,0,0,0,.98-.253q.854-.759,1.234-5.789h-3.669q-.064.348-.19.949a.857.857,0,0,0-.032.19,3.464,3.464,0,0,1-2.594.127c.021-.084.053-.221.1-.411q.126-.76.222-1.139a30.516,30.516,0,0,0,.633-6.453l3.132,1.55h2.5v-3.7h-3.511a28.009,28.009,0,0,1-5.282,2.341l-.222-.443a22.331,22.331,0,0,0,6.042-4.46A20.077,20.077,0,0,0-47.8-273.46h-2.373a27.4,27.4,0,0,0-4.365.443l-.854-1.613q1.739.19,4.207.253h3.416l.791-.822.222-.222q.57-.6.791-.6.316,0,1.518,1.091t1.2,1.439a1.943,1.943,0,0,1-1.234.443,19.814,19.814,0,0,1-6.421,7.117h2.5l.506-.759.19-.285q.348-.506.538-.506.284,0,1.2,1.028t.917,1.376a2.06,2.06,0,0,1-1.139.538v1.518q0,.349.031.917.063,1.266.127,1.9a1.753,1.753,0,0,1-.822.443,4.072,4.072,0,0,1-1.424.285h-.506v-.981h-3.132q-.19,1.36-.506,3.416h3.29l.633-.728c.063-.063.147-.158.253-.285q.41-.442.6-.443.316,0,1.423.949t1.107,1.3a1.831,1.831,0,0,1-1.171.475q-.411,6.516-2.183,7.845a5.474,5.474,0,0,1-3.195.822m-1.234-21.352a5.167,5.167,0,0,0-.917-1.929,7.042,7.042,0,0,0-1.55-1.518l.253-.253a6.453,6.453,0,0,1,3.511.917,2.032,2.032,0,0,1,1.012,1.645,1.376,1.376,0,0,1-.664,1.3,1.452,1.452,0,0,1-1.645-.158m20.814,21.32a17.819,17.819,0,0,1-6.991-3.132,22.9,22.9,0,0,1-8.477,3.1l-.158-.443a19.846,19.846,0,0,0,7.244-4.017,13.7,13.7,0,0,1-2.689-4.84h-.538a1.319,1.319,0,0,0-.759.443l-.854-1.582q1.739.19,4.207.253h4.049l1.613-1.55h-.886a2.43,2.43,0,0,1-1.8-.475,2.6,2.6,0,0,1-.379-1.676v-3.986h-2.531v.949q0,4.492-4.587,6.358l-.253-.411a6.18,6.18,0,0,0,1.961-2.91,10.77,10.77,0,0,0,.348-3.005v-1.645a15,15,0,0,0-.095-1.771l3.037,1.55h1.835l1.3-1.392a19.652,19.652,0,0,1-5.251-8.857l.411-.285a14.259,14.259,0,0,0,2.879,4.334A13.687,13.687,0,0,0-36.7-276.4a17.236,17.236,0,0,1,2.72,2.025q.379.411-.127.474l-.569.032a23.015,23.015,0,0,1-4.176,2.341,19.392,19.392,0,0,0,2.879,2.246,12.246,12.246,0,0,0,2.594-4.239,21.512,21.512,0,0,1,2.752,2.087q.411.412-.095.475l-.538.032a28.936,28.936,0,0,1-3.954,2.088,28.3,28.3,0,0,0,6.137,2.562l-.063.348a3.3,3.3,0,0,0-2.467,2.562,24.313,24.313,0,0,1-3.954-2.309l.569.474a1.732,1.732,0,0,1-1.012.411v3.258q0,.222.079.284a.747.747,0,0,0,.4.063H-34.2a2.12,2.12,0,0,0,.538,0,.537.537,0,0,0,.443-.158,7.609,7.609,0,0,0,.759-1.835h.348l.126,1.835a1.746,1.746,0,0,1,.633.427.889.889,0,0,1,.158.554,1.149,1.149,0,0,1-.791,1.123,8.159,8.159,0,0,1-2.815.332h-.443A15,15,0,0,1-33-256.758q.284.444-.222.57l-.6.127a14.03,14.03,0,0,1-3.163,4.175,26.831,26.831,0,0,0,7.117,1.55v.38a3.405,3.405,0,0,0-2.214,2.815m-7.086-5.852a13.144,13.144,0,0,0,2.119-3.48h-5.409a9.979,9.979,0,0,0,3.29,3.48" transform="translate(57.796 276.465)"/>
        </g>
      </g>
    </g>
  </g>
</svg>
