<svg enable-background="new 0 0 919.9 123.9" viewBox="0 0 919.9 123.9" xmlns="http://www.w3.org/2000/svg" xmlns:xlink="http://www.w3.org/1999/xlink"><clipPath id="a"><path d="m-47 0h661.5v123.9h-661.5z"/></clipPath><g transform="translate(-219 -41.948)"><path d="m246.3 50.4c1.8 1.3 3.9 3.7 4.5 5.5 2.2 1.4 3.4-3.2-4.1-5.8zm9.3 22.3-.5-.1c-.4 1.3-.8 2.7-1.3 4-.3.7-.5.8-1.1.3-2.2-1.4-4-3.4-5.1-5.8 1.9-2.1 3.5-4.5 4.7-7.1.9.1 1.2 0 1.4-.4l-3-1.3c-1 2.5-2.3 4.8-3.9 7-1.1-2.8-1.8-5.8-2.1-8.7h10.3c.5 0 .9-.2.9-.6-1.2-1.1-3-2.5-3-2.5l-1.7 2h-6.8c-.3-3.3-.5-6.6-.4-10 .9-.1 1.2-.6 1.3-1l-3.3-.4c0 3.8.2 7.6.6 11.3h-8.6v-7.2c1.9-.5 3.6-1.1 5-1.6.8.3 1.4.3 1.7 0l-2.5-2c-4.6 2.4-9.5 4.1-14.6 5.2l.2.6c2.8-.4 5.6-.9 8.3-1.7v6.7h-9l.3 1.1h8.7v6.5c-3.9 1-7.1 1.8-8.9 2.1l1.2 2.6c.4-.1.7-.4.8-.8 2.5-.8 4.8-1.6 6.9-2.3v8.7c0 .5-.2.8-.9.8s-4.5-.3-4.5-.3v.5c1.1.1 2.2.3 3.1.8.5.4.8.9.8 1.5 3-.3 3.3-1.6 3.3-3.3v-9.3c3-1 5.5-1.9 7.6-2.7l-.2-.6c-2.6.7-5.1 1.4-7.4 2v-6h8.8c.4 3.6 1.3 7.1 2.7 10.4-2.8 3.4-6.3 6.1-10.2 8.2l.3.5c4-1.6 7.6-4.1 10.7-7.1 1.3 2.5 3.2 4.7 5.6 6.3 1.6 1.1 3.6 1.9 4.2.9.2-.4.1-.8-.9-1.8zm3.7-6.8c1.3-1.8 2.5-3.7 3.5-5.6v20.4h.3c.6 0 1.1-.2 1.5-.6v-21.6c.6-.1 1-.3 1.1-.6l-1.5-.6c1.1-2.5 2-5.1 2.7-7.7.8 0 1.3-.3 1.4-.8l-3.2-.9c-1.3 6.1-3.4 12.1-6.2 17.6zm11.3-4.9v-4.3h5.4v4.3zm5.4-9.6v4.3h-5.4v-4.3zm-.4-1h-4.9l-2-1.1v31.3h.4c.9 0 1.5-.5 1.5-.8v-17.7h5.4v2.2h.3c.6 0 1.5-.5 1.5-.7v-11.8c.6-.1 1.1-.3 1.5-.7l-2.5-2zm6.9 10.6v-4.3h5.7v4.3zm5.7-9.6v4.3h-5.7v-4.3zm.8-2.4-1.1 1.4h-5.1l-2-1v14.7h.3c.8 0 1.5-.4 1.5-.6v-1.4h5.7v15.2c0 .6-.2.8-.9.8-.8 0-4.6-.3-4.6-.3v.6c1.1.1 2.1.3 3.1.8.5.4.7.9.8 1.5 3.1-.3 3.4-1.5 3.4-3.2v-25.7c.6-.1 1.2-.3 1.6-.7zm16.8 8.6c-.3 4.2-1.2 8.4-2.7 12.3-1.4-.9-2.9-1.7-4.5-2.3.9-3.1 1.9-6.7 2.8-10zm1-2.4-1.3 1.3h-3.9c.7-2.8 1.3-5.3 1.6-7 .9 0 1.3-.3 1.4-.8l-3.1-.7c-.4 2.1-1 5.2-1.8 8.5h-4.7l.3 1.1h4.2c-1.1 4.5-2.4 8.9-3.9 13.2.7.3 1.4.2 2.1-.1.3-.8.5-1.6.8-2.6 1.4.9 2.8 2 4 3.2-1.8 3.5-4.5 6.4-7.8 8.4l.4.5c3.6-1.7 6.6-4.4 8.6-7.7 1.5 1.4 2.6 3.2 3.3 5.1 2.2 1.3 3-2.7-2.3-6.8 1.9-3.9 2.8-8.4 3.3-13 .5 0 1-.1 1.4-.5zm17.3 8.2h-5.2v-5c.9-.1 1.2-.4 1.3-.9l-.7-.1c2.2-1.7 4.8-4 6.4-5.4.8 0 1.3-.1 1.5-.3l-2.5-2.4-1.5 1.4h-14.5l.3 1h13.9c-1.4 1.9-3 3.8-4.6 5.5l-1.6-.2v6.3h-8.7l.3 1h8.4v12.8c0 .6-.2.8-1 .8s-5-.3-5-.3v.6c1.2.1 2.3.4 3.4.8.5.4.8.9.9 1.5 3.2-.4 3.6-1.5 3.6-3.2v-13h8.6c.5 0 .8-.2.9-.6-1-1-2.8-2.4-2.8-2.4zm14-15.5c-1.5 6.3-3.9 12.4-7.2 18.1l.5.3c1.5-1.8 2.9-3.8 4-5.8v20.1h.3c.6 0 1.2-.3 1.6-.7v-21.5c.6-.1 1-.3 1.1-.6l-1.3-.5c1.2-2.4 2.2-5 3-7.6.8 0 1.2-.3 1.4-.8zm6.1 8.8h6.8v4.6h-6.8zm9.4-4.7c-.8 1.3-1.7 2.5-2.7 3.7h-6.2l-1-.4c1.2-1 2.2-2.1 3.2-3.2h6.7zm6.1 4.7v4.6h-6.8v-4.6zm2 6.9c-1.6 1.7-3.4 3.3-5.3 4.8-1.1-1.9-1.9-3.9-2.4-5.9h5.7v1.2h.3c.6 0 1.6-.5 1.6-.7v-6c.5-.1 1-.3 1.4-.6l-2.5-1.9-1.1 1.2h-7.5c1.5-1 3-2.2 4.4-3.5.6 0 1.1-.1 1.4-.4l-2.4-2.2-1.3 1.3h-6.1c.5-.6.9-1.2 1.3-1.8.9.1 1.2 0 1.3-.4l-3.2-1.1c-2 4-4.9 7.4-8.4 10.1l.4.5c1.1-.6 2.1-1.2 3-2v7.5h.3c.6.1 1.2-.2 1.6-.6v-.8h5.6c-3.2 2.4-6.6 4.3-10.4 5.6l.4.6c3.2-.9 6.3-2.2 9.1-3.8.5.5.9 1 1.2 1.5-3 2.8-6.4 4.9-10.3 6.3l.3.7c3.9-1.2 7.6-3 11-5.4.3.7.6 1.4.9 2.1-3.7 3.7-8.2 6.3-13.1 7.8l.2.6c4.9-1.2 9.5-3.4 13.5-6.5.5 2.8.2 5.2-.6 6.2-.2.3-.4.3-.8.3-.8 0-3.3-.1-4.7-.2v.6c1 .1 1.9.3 2.8.6.4.2.7.7.7 1.2 1.8 0 2.8-.4 3.4-1.2 2.1-2.4 1.8-10.3-3.9-15 1-.6 1.9-1.3 2.8-2.1h.7c1.3 6.8 4.4 12 9.2 15.2.3-.8 1-1.3 1.8-1.4l.1-.4c-3.1-1.6-5.8-4-7.6-6.9 2.2-.9 4.2-2 6.2-3.3.5.2.8.1 1-.1zm37.4 1.6c.5 0 .8-.2.9-.6-1.2-1.1-3.1-2.6-3.1-2.6l-1.7 2.1h-11.2c.4-2.5.6-5.1.6-7.7h11.1c.5 0 .9-.2 1-.5-1.2-1.1-3.1-2.6-3.1-2.6l-1.7 2.1h-7.3c0-1.9 0-3.9.1-5.9.9-.1 1.2-.5 1.3-1l-3.3-.4v7.3h-7.8c.8-1.6 1.4-3.3 1.9-5 .6.1 1.1-.2 1.3-.8l-3.3-.9c-1 5.4-3.1 10.4-5.6 13.6l.5.4c1.9-1.8 3.5-3.9 4.7-6.3h8.3c0 2.6-.2 5.1-.6 7.7h-14.6l.3 1.1h14.1c-1.4 6.6-5.1 11.3-14.8 14.8l.4.7c11-3.5 15-8.5 16.5-15.5h.5c1.2 5.1 4.1 11.5 13.8 15.6.3-1.1 1-1.4 2.1-1.5l.1-.4c-9.9-3.6-13.7-8.9-15.2-13.6zm32-2h-10.7v-7.6h12c.5 0 .9-.2 1-.6-1.2-1.1-3.1-2.6-3.1-2.6l-1.7 2.1h-8.1v-5.2c.8-.1 1.2-.5 1.3-1l-3.3-.4v6.6h-12.7l.3 1.1h12.3v7.6h-15.4l.3 1h13c-1.5 4.3-3.4 8.4-5.7 12.3-2.5.2-4.6.3-6 .4l1.4 2.9c.4-.1.7-.4.9-.8 9.9-1.3 17.2-2.5 22.7-3.4 1 1.3 1.8 2.7 2.4 4.3 2.8 1.9 3.9-4.9-8.7-11.9l-.4.4c2.3 2 4.3 4.2 6.2 6.6-6.4.6-12.5 1.1-17.2 1.5 2.8-3.9 5.2-8 7.3-12.2h15.8c.5 0 .9-.2.9-.5-1.2-1.2-3.2-2.6-3.2-2.6zm36.5-14-1.5 1.5h-24.5l.3 1h23.6c-2.7 2.5-5.7 4.8-8.8 6.8l-2.1-.3v18.9c0 .6-.3.9-1 .9-1 0-6-.4-6-.4v.6c1.4.1 2.8.3 4.1.8.5.4.8.9 1 1.5 3.6-.4 4-1.5 4-3.2v-17.7c.8-.1 1.2-.4 1.3-.9h-.2c3.9-1.9 7.6-4.1 11.1-6.7.6.1 1.1-.1 1.6-.4zm15.5-1.3c-2.2 3.6-4.9 6.9-8 9.8l.5.5c3.4-2.4 6.5-5.2 9.2-8.5.8.2 1.1.1 1.3-.3zm.8 7.2c-2.3 4.7-5.3 9-9 12.8l.4.5c1.8-1.4 3.5-2.9 5-4.6v16.9h.4c.6 0 1.2-.3 1.5-.8v-17.6c.6-.1.9-.3 1-.6l-.9-.4c1.1-1.4 2.2-2.9 3.2-4.4.9.1 1.2 0 1.4-.4zm6.9 2.1h11.9v5.5h-11.9zm11.9-6.3v5.3h-11.9v-5.3zm2.5 14.2c-1.9 2.1-4 4-6.3 5.7-1.4-2.1-2.5-4.5-3.2-7h6.9v1.6h.3c.6 0 1.2-.3 1.7-.7v-13.4c.6-.1 1.1-.3 1.5-.7l-2.7-2-1.2 1.3h-11.1l-2.3-1v28.1c-1.7.4-3 .7-3.9.8l1.2 2.8c.4-.1.7-.5.8-.9 5.1-1.9 9-3.5 11.8-4.6l-.1-.5c-2.8.7-5.5 1.4-7.8 2v-12.8h4.2c1.7 7.8 5.5 13.4 11.7 16.6.3-.8 1-1.4 1.8-1.4l.1-.4c-3.7-1.4-6.8-3.9-9.2-7.1 2.5-1.1 4.9-2.5 7.1-4.2.7.3 1.1.1 1.3-.1zm31-14.5-1.3 1.1h-9.5c1-.8 1.9-1.6 2.8-2.4 1 0 1.4-.2 1.6-.5l-3.3-1c-2.7 3.5-8.4 8-14.3 10.5l.4.5c2.5-.8 4.9-1.9 7.1-3.2 2 .9 3.7 2.2 5.2 3.8 2.1.8 2.4-3-4.3-4.3 1.2-.7 2.3-1.5 3.4-2.2h10.4c-5.1 6.6-12.6 10.5-22.8 13.2l.3.6c11.6-2.5 19.4-6.7 24.9-13.6.9 0 1.4-.1 1.7-.4zm5.3 12.6-1.3 1.2h-9.9c1.3-1 2.6-2 3.8-3.2 1 0 1.5-.1 1.7-.5l-3.5-.9c-3.4 4.1-10.2 8.8-17.6 11.6l.3.6c2.8-.8 5.6-1.9 8.2-3.2 2.3 1.2 5 3.1 6 5 2.3 1 2.7-3.7-5-5.5 1.6-.9 3.1-1.8 4.5-2.7h11.1c-5.7 8.4-14.2 11.9-26.6 14.4l.3.7c14-2 22.7-6 28.8-14.8.6.1 1.2-.1 1.7-.4zm13 .5h8v4.1h-8zm7.9-5v3.9h-8v-3.9zm10.1 0v3.9h-8.1v-3.9zm-8.1 9.1v-4.1h8.1v4.1zm8.1 1v1.9h.3c.6 0 1.3-.3 1.7-.7v-11c.6-.1 1.1-.3 1.5-.7l-2.7-2.1-1.2 1.3h-7.8v-3.9h13.9c.5 0 .9-.1 1-.5-1.3-1.1-3.2-2.7-3.2-2.7l-1.7 2.2h-9.9v-3.4c.9-.1 1.2-.5 1.3-1l-3.2-.4v4.8h-14.6l.3 1h14.3v3.9h-7.8l-2.2-1v14.3h.3c.8 0 1.7-.5 1.7-.6v-1.4h6.5c-3.8 4.5-8.5 8.1-13.9 10.5l.4.6c6-2.2 11.3-5.6 15-9.8v10.5h.4c.8 0 1.6-.5 1.6-.8v-10.8c3.1 4.9 8.6 8.7 14 10.7.3-.8 1-1.5 1.9-1.6l.1-.4c-5.5-1.4-11.8-4.8-15.2-8.9zm24.1-10.9v-6.1h4.9v6.1zm15 1.1v17h-24.1v-17h7.1c-.1 4.5-1.3 8.9-6.9 12.5l.4.5c7.1-3.2 8.2-8.2 8.4-13h4.9v8.7c0 1.4.4 1.9 2.4 1.9h2.2c3.6 0 4.5-.4 4.5-1.2 0-.4-.2-.7-.8-.9l-.1-4.6h-.5c-.3 1.8-.6 4-.8 4.5 0 .2-.2.4-.5.4s-.9 0-1.8 0h-1.8c-.8 0-.9-.1-.9-.7v-8.1zm-8.2-7.2h11.4c.5 0 .9-.2.9-.6-1.2-1.1-3.1-2.6-3.1-2.6l-1.7 2.1h-27.7l.3 1h11.1v6.1h-6.6l-2.3-1v23.6h.3c1 0 1.6-.5 1.6-.7v-2.7h24.1v3.4h.3c.9 0 1.6-.5 1.6-.7v-20.5c.5 0 1.1-.2 1.5-.6l-2.5-2-1 1.3h-8.1v-6.1zm20.7 29.1c2.8 0 5-2.3 5-5 0-2.8-2.2-5-5-5-2.8 0-5 2.2-5 5s2.2 5 5 5zm0-8.9c2.1 0 3.8 1.7 3.9 3.9 0 2.1-1.7 3.9-3.9 3.9-2.1 0-3.9-1.7-3.9-3.9s1.7-3.9 3.9-3.9z"/><path d="m891.1 125.6h15.7c.8 0 1.4-.3 1.6-.9-2.4-2.1-6.2-5.1-6.2-5.1l-3.4 4.4h-7.6v-10.7h15.3c.8 0 1.4-.3 1.5-.9-.9-.8-2-1.7-3.1-2.5 2.5-1.6 4.8-3.4 6.9-5.3.8 0 1.6-.2 2.2-.7l-5.9-5.6-3.4 3.4h-13.5v-6.4c1.5-.3 2-.8 2.1-1.6l-8.8-.7v8.7h-13.8c-.2-1.2-.5-2.3-.9-3.4h-.8c-.1 3-1.8 5.7-4.4 7.2-1.7.8-3 2.4-2.3 4.4.8 2.2 3.5 2.7 5.4 1.5 2-1.3 3.5-4.1 3.2-8.1h34.1c-.4 1.7-.9 3.9-1.5 5.7-1.1-.8-1.8-1.4-1.8-1.4l-3.5 4.2h-29.2l.4 1.6h15.1v23c-3.5-1.1-6.5-3.4-8.5-6.6 1-2.6 1.8-5.2 2.4-7.9 1.3-.1 2-.6 2.2-1.4l-8.7-1.5c-.6 8.4-3.1 19-10.4 26l.4.5c5.9-3 10.6-7.9 13.4-13.9 4.1 10.3 11.3 12.7 24.2 12.7h11.3c.1-2.7 1.2-5.2 3.5-5.7v-.7c-3.6.1-11.1.1-14.4.1-3.2 0-6.1-.1-8.7-.3v-12.1zm41.6-31.4c6.3 3.6 10.1 8.6 11.3 11.7 7 4.1 12.9-11.5-11-12.3zm-7.7 17.6c-.1 5.8-3 11-5.7 13-1.6 1.3-2.5 3.3-1.3 5.2 1.3 2.1 4.5 2.1 6.4-.1 2.8-3 4.7-9.2 1.3-18.1zm33.3 16.2h-.6c-.7 2.8-1.7 5.5-2.9 8.1-.4.6-1.1.9-1.8.9-1 .1-2.9.1-5.2.1h-6.3c-2.3 0-2.9-.4-2.9-1.7v-5.5c10-7.7 18.4-17.4 24.6-28.4 1.5.2 2-.1 2.4-.7l-8.3-4c-4.6 10.1-10.9 19.4-18.6 27.5v-17.5c1.3-.2 1.8-.8 1.9-1.5l-8.6-.8v26.2c-4.4 3.8-9.1 7.2-14.2 10.1l.5.7c4.8-1.9 9.4-4.2 13.7-6.9v2.8c0 5.2 2.1 6.4 8.5 6.4h6.8c11.1 0 13.9-1.3 13.9-4.4 0-1.2-.6-2-2.6-2.8zm-1.4-16.1c3.2 5 6.3 11.8 6.6 17.9 6.6 5.9 12.5-9.2-6-18.2zm53.9 1.6v7.1h-18.2v-7.1zm-18.2 15.9v-7.2h18.2v7.2zm22.2-27.1h-17c1-1.8 1.9-3.7 2.6-5.7 1.5 0 2-.4 2.2-1.1l-9.1-2.7c-.8 3.3-1.9 6.4-3.2 9.5h-16.1l.4 1.6h15c-3.6 8-9.1 15.9-16.4 21.5l.5.6c4.4-2.1 8.5-4.8 12.2-8.2v27.6h1.2c3.3 0 5.4-1.5 5.4-2v-12.4h18.2v5.9c0 .8-.2 1.1-1.2 1.1-1.3 0-7.2-.3-7.2-.3v.7c2.9.5 4.1 1.2 5 2.3.9 1 1.2 2.6 1.4 4.8 7.7-.7 8.7-3.3 8.7-7.8v-22.9c1-.1 1.9-.6 2.6-1.3l-6.7-5.2-3.1 3.6h-16.9l-1.3-.5c1.8-2.4 3.5-4.8 5-7.4h27.2c.8 0 1.5-.3 1.6-.9-2.6-2.3-7-5.6-7-5.6zm40.9-2.3c.8 0 1.4-.3 1.6-.9-2.3-2.1-6.1-5.3-6.1-5.3l-3.4 4.5h-17.5l.4 1.6zm-16.1 21.7c.1-1.3.1-2.6.1-3.8v-8.7h7.4v12.5zm8.6 5.1c1.9 0 5-1.1 5-1.5v-15.1c.9-.2 1.7-.6 2.3-1.2l-6.1-4.5-2.9 3.1h-5.9l-7.4-3v13.4c0 8.6-.2 18.9-4.4 27.2l.6.4c7.6-6.1 9.6-14.9 10-22.3h7.6v3.5zm25.2-14.4h-9.5v-10.2c4.8-.7 9.6-1.7 14.3-3 1.7.5 3 .4 3.6-.2l-7.2-5.8c-3.4 2.7-7.1 5-10.9 7.1l-6.2-2v15.7c0 10.6-1.3 21.8-10.4 30.9l.6.6c14.8-8 16.2-21 16.2-31.4v-.1h6v31.5h1.2c3.4 0 5.4-1.4 5.4-1.8v-29.7h4.5c.8 0 1.4-.3 1.6-.9-2.2-2.1-5.9-5.2-5.9-5.2zm22.4-19.5c-2.8 5.7-6.4 11.1-10.6 15.8l.5.6c5.8-3.1 11.2-6.9 15.9-11.5 1.3.2 1.8-.2 2.1-.7zm1.5 11.2c-2.1 5.9-6.8 15.1-12 21l.6.6c2.3-1.4 4.5-3.1 6.5-4.9v24.8h1.2c2.6 0 5.2-1.6 5.2-2.1v-26.9c1-.2 1.6-.6 1.7-1.1l-2-.7c1.7-1.8 3.2-3.7 4.6-5.7 1.4.1 1.8-.2 2.1-.8zm9.7 24.1c2.1 2.4 3.7 5.2 4.5 8.3 5.6 3.8 10.4-6.8-4-8.7zm5.8-17v-5.8h13.9v5.8zm13.9-12.9v5.5h-13.9v-5.5zm6.4.4c.8 0 1.6-.4 2.1-1l-5.8-4.4-3 3.4h-13.1l-6.8-2.6v21.7h1.1c3.2 0 5.1-1.1 5.1-1.5v-1.5h13.9v2h1.1c1.4 0 2.8-.2 4.1-.7l-2.8 3.8h-26l.4 1.6h33.2c.8 0 1.3-.3 1.5-.9-1.8-1.7-4.6-4-5.5-4.8.3-.2.6-.3.6-.4zm-2.3 26.4h-.9v-3.4c1.2-.2 1.8-.6 1.9-1.4l-8.5-.7v5.5h-21.4l.4 1.6h21v11.4c0 .6-.2.9-1.1.9-1.1 0-6.4-.4-6.4-.4v.8c2.7.4 3.8 1.1 4.5 2 .8 1 1.1 2.4 1.2 4.3 7.4-.6 8.4-3 8.4-7.4v-11.5h7.5c.8 0 1.3-.3 1.5-.9-2-1.9-5.3-4.6-5.3-4.6z"/><g transform="translate(219 41.948)"><path d="m9.3 96.3c-.3 0-.5-.1-.7-.3-.2-.1-.3-.4-.3-.6.3-3.8.4-7.6.5-11.4v-12.1c-1.5 2.5-3.3 4.9-5.2 7l-.6-.4c2.6-4.2 4.8-8.6 6.5-13.3.5-1.5 1-3.1 1.5-4.8.4-1.5.7-3.1.8-4.6 1.5.4 2.9 1 4.2 1.6.4.3.4.5-.1.7l-.9.2c-1.1 3.2-2.5 6.4-4 9.5.6.4 1.1.8 1.4 1.4.1.3 0 .5-.4.7l-.6.3v14.7c.1 3.6.2 7.1.4 10.3-.3.3-.6.6-1 .7-.5.2-1 .4-1.5.4zm5.2-1.8-1.1-2.3c1.6.2 3.6.3 5.9.4h17.3l.9-1.4c.1-.1.2-.2.3-.4.4-.6.7-1 .9-1 .3 0 1 .5 2 1.4 1.1 1 1.6 1.6 1.6 1.9-.1.5-.4.7-1.1.7h-20.1c-2.2.1-4.4.3-6.6.7zm4.2-5.8c-.2 0-.5-.1-.7-.3-.2-.1-.3-.4-.3-.6.3-3.8.4-7.6.5-11.4v-8.8c0-3-.1-6-.6-9l3.5 1.7h13.3l.7-1.1c.1-.1.1-.2.3-.4.3-.5.6-.7.7-.7.3 0 .9.4 1.8 1.3s1.4 1.5 1.4 1.8c-.5.5-1.1.8-1.7.8v14.1c.1 3.6.2 7.1.4 10.3-.3.4-.7.6-1.2.8-.5.3-1 .4-1.6.4-.4 0-.6-.3-.6-.9 0-.1.1-.3.1-.5 0-.1.1-.3.1-.4v-.8h-13.8v.9.9c0 .2 0 .4.1.6-.1.4-.4.7-.8.9-.5.2-1 .4-1.6.4zm2.3-5.1h13.9v-10.4h-13.9zm0-11.6h13.9v-10.6h-13.9zm63.4 23.4c-.4.7-1.1.8-2.1.2-1.2-2.5-2.8-4.8-4.8-6.8-2-2.2-4.3-4.1-6.6-5.9l.5-.4c3.2 1.3 6.2 3 8.9 5.2 1.6 1.3 3 2.9 3.9 4.7.5 1.3.6 2.3.2 3zm-37.1.9-.4-.6c3.1-2.1 5.9-4.5 8.4-7.2 2-2.1 3.6-4.4 4.8-7l2.3 1.6c.6.2 1.1.5 1.6 1 .1.2 0 .3-.5.4l-.8.1c-1.9 2.3-4.1 4.5-6.5 6.3-2.8 2.1-5.8 3.9-8.9 5.4zm6.4-14.3c-.2 0-.4-.1-.6-.3s-.3-.4-.3-.6c.2-2.7.3-5.7.4-9v-4.9c0-3-.1-6-.6-9l3.6 1.7h20.8l.7-1c.1-.1.1-.2.2-.3.4-.5.7-.8.9-.8.3 0 .9.4 1.8 1.3s1.4 1.5 1.4 1.8c-.5.5-1.1.8-1.8.9v8.1c.1 3.6.2 7.1.4 10.3-.3.4-.7.6-1.2.8-.5.3-1 .4-1.5.4-.4 0-.6-.3-.6-.9 0-.2.1-.4.1-.5 0-.2.1-.3.1-.4v-.9h-21.5v.7c0 .2.1.5.1.7s0 .4.1.5c-.1.3-.3.6-.9.9-.5.3-1.1.5-1.6.5zm2.3-4.6h21.4v-16.2h-21.4zm70.5 18.7c-.7.3-1.5.3-2.1-.2-3.5-2.3-7.4-4.1-11.4-5.4-2.7 1.8-5.6 3.1-8.8 3.9-4.2 1-8.5 1.7-12.9 2l-.2-.8c8.6-1.2 14.9-3.2 18.9-5.9-3-.9-5.8-1.6-8.5-2.2-.1.1-.2.3-.3.4-.6.9-1.1 1.5-1.4 1.8-1 .2-2.1-.1-2.9-.7 2.1-2.6 4-5.3 5.9-8.1h-4.2c-2.2 0-4.4.2-6.6.6l-1.1-2.2c1.6.2 3.6.3 5.9.4h6.9c1.2-1.8 2.3-3.8 3.3-5.7h-8.5v1.6c0 .1-.2.3-.7.5s-1.1.3-1.6.4c-.4 0-.6-.3-.6-.9.1-.6.1-1.4.2-2.5 0-.4 0-.8 0-1.1v-2.2c0-2.3-.1-4.6-.4-6.9l3.4 1.6h6v-4.5h-5.7c-2.2 0-4.4.2-6.6.6l-1.2-2.2c1.6.2 3.6.3 5.9.4h27l.9-1.2c.1-.1.2-.2.3-.4.4-.6.7-.9.9-.9.8.3 1.4.7 2 1.3 1 .9 1.6 1.5 1.6 1.8-.1.5-.5.7-1.1.7h-12.2v4.5h6l.7-1c.1-.1.1-.2.3-.4.3-.4.6-.7.7-.7.3 0 .9.4 1.8 1.3s1.4 1.4 1.4 1.7c-.5.5-1.1.8-1.8.9v2.9 1.8c.1 1.7.1 2.9.2 3.8-.3.3-.6.6-1.1.7-.5.2-1 .4-1.5.4h-.4v-2h-15.2c1 .2 2.1.5 3 .9.3.2.2.4-.3.6l-.9.3c-.3.5-.9 1.6-1.9 3.1l-.5.8h17.3l.9-1.3c.1-.1.1-.2.2-.4.5-.6.8-1 1-1 .3 0 1 .4 2 1.3s1.6 1.5 1.6 1.8c-.1.5-.5.7-1.1.7h-9c-1 2.9-2.6 5.5-4.8 7.7 2.9.6 5.8 1.7 8.5 3 1.3.6 2.5 1.5 3.2 2.8.3.9.2 1.5-.4 1.8zm-14.4-8.1c2.1-2 3.6-4.4 4.5-7.1h-10.5c-1.2 1.8-2.5 3.7-3.9 5.6 3.3.4 6.6.9 9.9 1.5zm-13.7-15.3h6.2v-7h-6.2zm8.9 0h6.3v-7h-6.3zm9 0h6.4v-7h-6.4zm-9-8.2h6.3v-4.5h-6.3z"/><g clip-path="url(#a)"><path d="m168.7 35.3h-.8c-.2 1.7-.9 3.4-2 4.7-1.4 1.6-3.4 2.5-5.5 2.5h-167c-.2 0-.4 0-.6-.1-.1-.2-.2-.4-.1-.6v-10h.3c.9 0 1.8-.2 2.6-.5.7-.3 1-.6 1-.8v-24.5c.8-.1 1.5-.4 2-1 0-.4-.6-1.1-1.9-2.2s-2-1.6-2.4-1.6c-.2 0-.5.3-1 1-.3.2-.4.3-.5.5l-1 1.4h-8.1l-4.8-2.1c.1 1.1.2 2.2.2 3.3-1-1-2-1.9-3.1-2.8l-1.9 2.5h-1.9v-1.8l.8-.5c.4-.3.4-.7-.1-1-1.6-.7-3.3-1.3-5-1.7.2 1.7.3 3.4.3 5h-5.1v-1.8l.7-.6c.4-.3.4-.6-.1-.9-1.6-.7-3.2-1.3-4.9-1.7.2 1.7.3 3.4.3 5h-1.9c-1.4 0-2.8-.1-4.2-.4l1.2 2.6c1-.4 2-.7 3-.7h1.8v1.1c0 .1-.1.3-.1.5s-.1.4-.1.6c0 .7.3 1 1 1 .8 0 1.7-.1 2.4-.4.5-.2.8-.4.8-.6v-2.2h5.1v1c0 .1-.1.2-.1.4s-.1.4-.1.6c0 .7.3 1 1 1 .9 0 1.7-.1 2.5-.4.5-.2.7-.4.7-.6v-2h6.1c.3 0 .6-.1.8-.2v26.1h.7c.9 0 1.7-.1 2.5-.5-.1 2.2-.4 4.3-1 6.4-.6 1.9-1.6 3.6-3 5.1v-.2c-1.3-1.2-2.7-2.4-4-3.6l-2.3 3h-2.6v-4h6.5c.7 0 1.1-.3 1.2-.8 0-.4-.5-1-1.5-1.9s-1.6-1.3-2-1.3c-.2 0-.5.3-1 .9-.1.2-.2.4-.3.4l-.9 1.3h-2.1v-4h6.5c.6.1 1.1-.3 1.2-.8 0-.4-.5-1-1.5-1.9s-1.7-1.3-2-1.3c-.2 0-.6.3-1 1 0 .1-.1.3-.2.4l-.9 1.3h-2.1v-3.9h7.3c.7 0 1.1-.3 1.3-.8 0-.4-.5-1-1.6-2s-1.8-1.4-2.1-1.4c-.2 0-.6.3-1 1-.1.2-.2.3-.3.4l-1 1.3h-4.3c1-.9 1.9-2 2.9-3.1l.8-.5c.5-.3.5-.6 0-.8-1.7-.5-3.4-.9-5.1-1.1 0 1.8-.1 3.6-.3 5.4h-4.2l-.8-.4c.5-.9.9-1.7 1.3-2.6l.9-.4c.6-.2.6-.5.1-.9-1.5-.8-3.1-1.4-4.7-1.9-.1 0-.2-.1-.3-.1v.5c-.2 1.6-.5 3.2-1 4.8-.5 1.8-1.1 3.6-1.9 5.4-.6 1.4-1.4 2.8-2.2 4.1l.7.5c1.1-1 2.2-2.1 3.2-3.3v5.1c-.1 3.1-.2 6.2-.4 9.3 0 .3.1.5.3.7s.5.3.8.3c.8 0 1.7-.2 2.4-.6.6-.3.9-.6.9-.8v-2h16.1c.3 0 .5 0 .8-.1-1.1 1.1-2.3 2-3.7 2.8l.2.8c4.2-1.5 7.3-3.7 9.2-6.5 1.7-2.6 2.7-6.2 3-10.8h2.1v13.7c-.1 1 .1 2 .6 2.8.8.7 1.8 1 2.8.9h170.6c.8 0 1.6-.2 2.3-.6 1.6-.9 2.8-2.3 3.3-4 1-2.5 1.1-5.2.5-7.8m-203.3 7.3h-4.4v-4h4.4zm0-5.5h-4.4v-4h4.4zm0-5.4h-4.4v-3.9h4.4zm26.7-3h-8.9v-6.8h8.9zm0-8.3h-8.9v-6.7h8.9zm0-8.2h-8.9v-6.6h8.9z" transform="translate(308.282 53.047)"/><path d="m-32.8 39.7c-.3 0-.6-.1-.9-.3-.2-.2-.3-.4-.3-.7.2-3.2.4-6.8.5-10.7v-5.9c.1-3.5-.2-7-.7-10.4l5.5 2.4h2.1c0-1.2.1-3 .2-5.6h-11.6c-2.6 0-5.1.3-7.6.7l-1.4-2.6c1.9.2 4.1.3 6.8.4h13.8c.2-2.3.1-4.7-.3-7 2 .1 4 .4 6 .8.7.2.7.5.2.9l-.9.6-.4 4.7h10.1l1.4-1.9c.1-.2.3-.4.6-.8.6-.8 1-1.2 1.2-1.2.3 0 1.3.7 3 2 1.6 1.3 2.5 2.2 2.5 2.5-.1.5-.6.8-1.3.8h-17.6l-.6 5.6h7.4l1-1.3c.1-.1.2-.2.3-.4.5-.6.9-1 1.2-1 1 .4 1.8.9 2.6 1.7 1.3 1.2 2 2 2 2.3-.5.6-1.2.9-1.9 1v9.2c.1 4.2.2 8.2.4 12-.5.5-1 .9-1.7 1.2-.8.4-1.7.6-2.6.7h-.8v-2.5h-14.4v1.3c0 .3-.4.6-1.2 1-.8.3-1.7.5-2.6.5m-10.2 7.8c-.4 0-.7-.1-1-.3-.2-.2-.4-.4-.4-.7.3-4.4.5-8.8.6-13.2v-8.3c.1-3.5-.2-7-.7-10.4 2 .4 4.1 1 6 1.8.6.3.6.7.1 1l-.9.6v24.7h28.8l1.4-2c.1-.2.3-.4.6-.8.6-.8 1-1.2 1.2-1.2.3 0 1.3.7 2.9 2s2.4 2.2 2.4 2.6c0 .5-.5.7-1.3.7h-35.9v2c0 .3-.4.6-1.2.9-.8.4-1.7.6-2.6.6m14-26.5h14.4v-5.5h-14.4zm0 7.1h14.4v-5.6h-14.4zm0 7.2h14.4v-5.8h-14.4z" transform="translate(207.315 52.998)"/><path d="m-42.4 46.5c-.3 0-.7-.1-.9-.3s-.4-.4-.4-.7c.3-4.4.5-8.8.6-13.2v-11.4c.1-3.5-.2-7-.7-10.4l5.8 2.4h9.3c.2-1.1.4-3 .8-5.8.1-.8.2-1.4.2-1.7h-10.3c-2.6 0-5.1.3-7.6.7l-1.4-2.6c1.9.2 4.1.3 6.8.4h30.3l1.4-1.9c.1-.1.3-.4.5-.7.7-.9 1.1-1.3 1.3-1.3.3 0 1.3.7 2.9 2s2.4 2.2 2.4 2.5c-.1.5-.5.8-1.3.8h-18.9c-2.1 3.1-4 5.6-5.5 7.5h17.1l1.1-1.5c.1-.1.3-.3.5-.6.5-.6.8-.9 1-.9.9.4 1.8.9 2.5 1.7 1.3 1.1 2 1.8 2 2.2-.5.6-1.3.9-2 1v17.7c.1 4.2.2 8.2.4 12-.5.5-1 .9-1.5 1.1-1 .4-2 .6-3 .6-.5.1-.9-.3-1-.8 0-.1 0-.2 0-.3 0-.2.1-.5.1-.8s.1-.5.1-.7v-1.2h-28.7v.9c0 .3.1.6.1.9 0 .2 0 .5.1.7-.1.4-.5.7-1.1 1-1 .5-2 .7-3 .7m3.9-5.6h6.4v-26.5h-6.4zm10.7-18.8h7.2v-7.7h-7.2zm0 9.4h7.2v-7.9h-7.2zm0 9.4h7.2v-8h-7.2zm11.6 0h6.4v-26.5h-6.4z" transform="translate(257.516 53.864)"/><path d="m-35.2 3.1c0-.4-.5-1-1.4-1.8s-1.6-1.2-2-1.2c-.2 0-.5.3-.9.8-.1.1-.2.2-.2.3l-.7 1h-2.3l-4.3-2c.3 2 .4 4 .4 6v1.8c0 .2 0 .5-.1.9-.1.8-.1 1.5-.2 1.9 0 .7.3 1 .8 1 .7 0 1.4-.1 2-.5.1-.1.3-.2.4-.3.2-.1.3-.3.3-.4v-1h3.3v1.6h.5c.6 0 1.2-.2 1.8-.5.5-.2.9-.5 1.2-.8 0-.5-.1-1.2-.1-2.2 0-.7-.1-1.3-.1-1.7v-2.1c.6 0 1.2-.3 1.6-.8m-4.9 5.1h-3.3v-4.6h3.3zm15.3-2.2v-2c.6-.1 1.2-.4 1.6-.8 0-.4-.5-1-1.5-1.8s-1.6-1.3-2-1.3c-.2 0-.5.3-.9.8-.1.1-.2.2-.3.3l-.8 1h-2.3l-4.3-1.9c.3 1.9.4 3.8.3 5.7v1.8.8c-.1.7-.1 1.3-.2 1.8 0 .7.3 1 .8 1 .7 0 1.4-.2 2-.5.5-.3.8-.5.8-.7v-.6h3.3v1.4h.6c.6 0 1.2-.2 1.8-.5.5-.2.9-.5 1.2-.9 0-.5-.1-1.2-.2-2.1.2-.5.1-1.1.1-1.5m-3.3 2.2h-3.3v-4.6h3.3z" transform="translate(310.013 62.465)"/><path d="m-46.8 3.3h177.8l1-1.4c.1-.1.2-.3.4-.6.4-.6.8-.9 1-.9.3 0 1.2.6 2.5 1.8s2 2 2 2.3c-.5.6-1.3.9-2 1v12.9c.1 4.2.2 8.2.4 12-.5.5-1 .8-1.7 1-.7.3-1.5.5-2.3.5-.6 0-.9-.3-.9-1 0-.2.1-.5.1-.8s.1-.5.1-.7v-1.3h-178.6m0-13.3h178.5v-10h-178.5zm0 11.9h178.5v-10.4h-178.5zm180.4 18.4c.3-3.6-.3-7.1-1.6-10.4l.7-.2c2 1.2 3.6 2.9 4.7 4.9.7 1.3 1 2.8.8 4.3-.1 1.1-.8 2-1.8 2.4-1.1.3-2.2-.1-2.8-1m3.7-26.7-.6-.7c2.8-1.7 5-4.1 6.6-7 1-2.2 1.6-4.6 1.7-7h-2.2c-1.3 0-2.6.3-3.9.7l-1.4-2.5c1.9.2 4.1.3 6.8.4h12l1-1.1c.1-.1.2-.3.4-.5.4-.5.8-.7 1-.7.9.3 1.7.8 2.3 1.5 1.2 1 1.8 1.7 1.8 2.1-.5.5-1.2.7-1.8.8-.1 2.5-.4 5-1 7.5-.3 1.4-1 2.7-2 3.7-1.5.9-3.2 1.4-4.9 1.3.1-1.1-.2-2.1-.9-3-1.1-.8-2.4-1.3-3.8-1.4v-.8c.2 0 .7 0 1.3.1 2.3.1 3.6.2 4.1.2.5.1 1-.1 1.4-.4.7-.6 1.2-3.3 1.5-7.9h-6.7c-.3 2.9-1.4 5.6-3.1 7.9-2 2.8-5.2 5.1-9.6 6.8m3.8 14.8c-.6 0-.9-.3-.9-1 .1-1.1.2-2.6.3-4.4v-2.7c0-2.8-.1-5.6-.5-8.3l5.1 2.2h9.3l1-1.4c.1-.1.2-.3.4-.5.5-.6.8-1 1-1 .3 0 1.2.6 2.5 1.7 1.4 1.2 2 1.9 2 2.3-.5.6-1.2.9-1.9 1v3.5c.1 2.9.2 5.1.3 6.7-.4.5-1 .8-1.7 1-.8.3-1.6.5-2.4.5h-.8v-2.5h-10v1.4c0 .2-.4.5-1.2.9s-1.6.6-2.5.6m7.3 12.5c-1 .5-2.2.3-2.9-.5-.3-1.9-.8-3.7-1.6-5.4s-1.7-3.3-2.9-4.8l.5-.3c2.5.8 4.7 2.2 6.5 4.1 1.1 1.1 1.8 2.7 1.8 4.3.1 1-.5 2-1.4 2.6m-3.6-16.7h10v-8.5h-10zm16.5 17.3c-.9.7-2 .6-3.2-.3-.6-2.2-1.5-4.3-2.8-6.2-1.2-2-2.6-3.8-4.2-5.5l.5-.4c3 .8 5.7 2.3 8 4.4 1.4 1.2 2.4 2.9 2.7 4.8.3 1.2-.1 2.4-1 3.2" transform="translate(350.007 53.915)"/><path d="m-13.1 67.7v-37.4c-.8.3-1.5.8-2.1 1.4s-1.1 1.3-1.4 2.2c-5-3.5-8.4-8.8-10.3-15.8-2.3 7-7.3 12.8-13.9 16l-.6-.7c5.8-4.8 9.7-11.6 10.9-19.1h-11.3v19.3c.1 4.2.2 10.1.4 13.8-.4.6-.9 1-1.6 1.3-.9.4-1.8.7-2.7.7-.3 0-.7-.1-.9-.3s-.4-.4-.4-.7c.3-4.4.5-10.7.6-15.1v-12.4c.1-3.5-.2-7-.7-10.4l5.8 2.4h13.3c-.4-2.6-.8-5.4-1.1-8.5h-2.6c-1.6 0-3.2.3-4.8.7l-1.4-2.5c1.7.2 3.5.4 5.2.4h2.4c.4-.7 1-1.7 1.8-3l4.6 3.8c-.6.7-1.9 1.1-3.8 1.3.4 2.6.9 5.3 1.6 7.8h12.6l1-1.3c.1-.2.3-.3.4-.5.4-.6.8-.9 1-.9 1 .4 1.9 1 2.7 1.7 1.4 1.1 2.2 1.9 2.2 2.3-.5.6-1.2 1-2 1v53.1c0 2.3-1.9 4.2-4.2 4.2h-.7zm0-38v-15.3h-12.5c2.5 7.3 6.7 12.4 12.5 15.3" transform="translate(568.098 51.416)"/><path d="m-35.6 20.5c.1 2.6-.6 5.2-2 7.5-2.2 3.6-5.2 6.6-8.8 8.7l-.6-.5c2.2-2.5 3.8-5.3 4.8-8.4.9-2.3 1.1-4.8.7-7.3-.1-.8 0-1.7.2-2.5.3-.8 1-1.3 1.8-1.5 1-.3 2 .1 2.6.8.9.9 1.3 2 1.3 3.2m11 24.1c-2.6 0-4.4-.3-5.2-1-1-.7-1.4-2-1.4-4.1v-18.9c.1-3.5-.2-7-.7-10.4 2.1.4 4.1 1 6.1 1.8.6.3.6.6.1 1l-.9.6v24.6c-.1.5.2 1 .6 1.2.7.3 1.4.4 2.2.3h5.9c2.6 0 4.3-.1 5.2-.2.6 0 1.2-.3 1.4-.9.5-1 1.3-3.7 2.2-8.2h.6l.2 8.6c.6.2 1.1.5 1.5.9.3.3.4.8.4 1.2 0 1.3-.8 2.1-2.3 2.6-1.7.5-4.9.8-9.6.8zm8.8-33.4c-.9.9-2.3.9-3.3.2-1-2-2.4-3.7-4-5.2-2.2-2.2-4.8-4-7.6-5.4l.1-.4.2-.4c3.9.3 7.7 1.4 11.1 3.2 1.9.9 3.4 2.5 4.2 4.5.5 1.2.2 2.6-.7 3.5m15.2 21.7c-1.2.8-2.3.5-3.3-1 0-2.8-.5-5.7-1.3-8.3-.9-3.2-2.6-6.1-4.8-8.5l.4-.5c3.5 1.6 6.5 4.1 8.8 7.2 1.4 2 2.2 4.4 2.2 6.9-.2 2.1-.8 3.5-2 4.2" transform="translate(613.212 52.79)"/></g><path d="m469 81.7h-3.9v-24.5h3.9z"/></g></g></svg>