<svg xmlns="http://www.w3.org/2000/svg" width="250.656" height="45.593" viewBox="0 0 250.656 45.593">
  <path id="Path_220" data-name="Path 220" d="M3.822-8.568v-3.15H8.8v3.15ZM8.8-15.393v3.066H3.822v-3.066ZM8.589-16H4.074L2.5-16.716V-2.037c-.756.147-1.365.273-1.806.336L1.617.1a.809.809,0,0,0,.462-.483C4.914-1.428,7.056-2.331,8.652-3a6.2,6.2,0,0,1,.714,2.31c1.47,1.26,2.667-2.436-2.457-5.439l-.273.168A13.735,13.735,0,0,1,8.463-3.381C6.8-3,5.187-2.625,3.822-2.331V-7.938H8.8V-6.51h.21c.441,0,1.092-.315,1.113-.462V-15.12a1.722,1.722,0,0,0,.9-.42L9.366-16.821Zm9.7-.8-.714.861H13.86l-1.6-.819v18.4h.21a1.265,1.265,0,0,0,1.113-.483V-15.309h4.2V-3.927c0,.315-.105.42-.462.42-.4,0-2.289-.147-2.289-.147v.336a3.244,3.244,0,0,1,1.6.546,1.517,1.517,0,0,1,.42,1.05c1.869-.21,2.079-.924,2.079-2.037v-11.3a1.568,1.568,0,0,0,.9-.42Zm7.5,4.746a32.076,32.076,0,0,0,2-4.473c.462.021.714-.147.8-.4L26.418-17.6A34.63,34.63,0,0,1,21.735-7.077l.294.21a19.873,19.873,0,0,0,2.6-3.255V1.617h.252a1.464,1.464,0,0,0,1.092-.462v-12.5c.357-.063.567-.189.63-.4Zm3.948,4.767V-11.13h3.717v3.045c0,.273,0,.546-.021.8ZM38.43-11.13v3.843H34.776c0-.273.021-.546.021-.819V-11.13Zm0,4.452v1.092h.21c.462,0,1.134-.336,1.134-.483v-4.788a1.721,1.721,0,0,0,.924-.42L39-12.558l-.777.84H34.8v-2.31h5.859c.294,0,.483-.1.546-.336-.714-.651-1.869-1.554-1.869-1.554l-1.008,1.26H34.8v-2.1c.525-.084.693-.294.735-.588l-2.079-.231v2.919H27.636l.168.63h5.649v2.31H29.841l-1.428-.651V-5.5H28.6c.546,0,1.134-.315,1.134-.441v-.735H33.39a8.546,8.546,0,0,1-1.2,3.885A8.7,8.7,0,0,1,29.82-5.46l-.315.189a10.345,10.345,0,0,0,2.142,3.234,11.2,11.2,0,0,1-5.292,3.3l.168.357a13.088,13.088,0,0,0,5.838-2.982,14.947,14.947,0,0,0,7.812,2.982A1.65,1.65,0,0,1,41.391.273V.042A17.627,17.627,0,0,1,33.1-2.184a8.48,8.48,0,0,0,1.617-4.494Zm10-1.659h8.022V-6.51l-.147.147c-2.856.4-5.586.777-7.875,1.092Zm8.022-6.027v2.373H48.426v-2.373Zm-8.022,2.982h8.022v2.415H48.426Zm11.739.5A21.309,21.309,0,0,1,57.834-7.9v-6.195a1.564,1.564,0,0,0,.882-.441l-1.764-1.344-.714.9H51.849c.42-.546.945-1.26,1.281-1.764.42,0,.693-.168.777-.462l-2.226-.462a26.526,26.526,0,0,1-.735,2.688H48.531l-1.491-.693V-5.082c-1.512.189-2.751.336-3.57.4L44.184-3a.867.867,0,0,0,.5-.483c4.515-.861,8.064-1.6,10.9-2.247a36.726,36.726,0,0,1-12.243,6.8l.147.357a35.553,35.553,0,0,0,12.957-6.3V-.483c0,.357-.1.5-.567.5-.5,0-3-.189-3-.189V.147a5.331,5.331,0,0,1,2.058.546,1.336,1.336,0,0,1,.525.945c2.121-.189,2.373-.882,2.373-2V-6.048A23.023,23.023,0,0,0,61-9.534c.483.189.714.147.9-.063ZM74.928-3.906V-6.027h5.187v2.121Zm5.4,1.365c.42,0,1.071-.252,1.092-.378V-5.754a2.084,2.084,0,0,0,.966-.42l-1.722-1.3-.756.84H75.012l-1.365-.609v4.977h.189a2,2,0,0,0,.924-.252,6.12,6.12,0,0,1,.819,2.6c1.071,1.029,2.436-1.2-.588-2.751l-.084.042c.021-.021.021-.021.021-.042v-.609h5.187v.735Zm.588-5.964H72.534l.147.609h10.1a.477.477,0,0,0,.525-.336C82.719-8.8,81.732-9.6,81.732-9.6ZM66.843-15.9h3.465v1.743H69.237l-1.281-.588v3.633H66.843Zm2.121,4.788v-2.415h1.344v2.415Zm6.783-3.843v1.785H74.3v-1.785Zm2.541,0v1.785H76.776v-1.785Zm2.457,0v1.785H79.317v-1.785Zm-1.428,4.158v-1.764h1.428v1.764Zm-2.541-1.764h1.512v1.764H76.776Zm-1.029,1.764H74.3v-1.764h1.449Zm-4.011.294c-.147.483-.357,1.05-.483,1.386l.315.126a12.676,12.676,0,0,0,1.491-1.323h.021v1.239h.189c.5,0,1.029-.294,1.029-.42v-.672h6.447v.714h.189a1.628,1.628,0,0,0,1.029-.42V-14.7a1.8,1.8,0,0,0,.945-.42L81.27-16.38l-.735.819H79.317v-1.26c.42-.084.588-.252.63-.5l-1.659-.21v1.974H76.776v-1.26c.42-.084.609-.252.651-.5l-1.68-.21v1.974H74.382l-1.3-.63v4.935l-.63-.609-.756.756h-.21V-15.75a1.341,1.341,0,0,0,.966-.4l-1.7-1.239-.672.861h-3l-1.386-.609v6.027h-.336c-.042-.21-.084-.42-.147-.63h-.4a2.59,2.59,0,0,1-.693,1.953A.8.8,0,0,0,63.8-8.778c.21.357.84.252,1.113-.063a2.273,2.273,0,0,0,.483-1.659ZM67.011-3.276V-5.46h3.213v2.184Zm3.213-4.851V-6.09H67.011V-8.127Zm.462-1.407-.63.8h-2.94L65.73-9.387V1.68h.21c.567,0,1.071-.315,1.071-.462V-2.667h3.213V-.315c0,.252-.063.357-.378.357s-1.617-.105-1.617-.105V.294a2.025,2.025,0,0,1,1.2.441,1.539,1.539,0,0,1,.315.9c1.6-.168,1.785-.777,1.785-1.806v-7.77a1.57,1.57,0,0,0,.777-.378ZM81,.42h-2.52a17.837,17.837,0,0,0,1.638-2.037.669.669,0,0,0,.8-.357l-2.058-.735c-.231.945-.588,2.2-.924,3.129H72.072l.168.588H82.971A.485.485,0,0,0,83.5.693,19.542,19.542,0,0,0,81.858-.693ZM99.372-10.059v2.646H91.2v-2.646ZM91.2-4.116V-6.783h8.169v2.667Zm9.975-10.206H93.219a24.407,24.407,0,0,0,1.029-2.31c.567.042.756-.084.84-.336L92.9-17.682a23.621,23.621,0,0,1-1.26,3.36H85.029l.189.609H91.35a21.709,21.709,0,0,1-6.468,7.9l.21.252a18.7,18.7,0,0,0,4.767-3.843V1.617h.231c.651,0,1.113-.357,1.113-.483v-4.62h8.169V-.567c0,.315-.084.462-.483.462-.441,0-2.646-.168-2.646-.168V.063A4.152,4.152,0,0,1,98.07.609a1.486,1.486,0,0,1,.483,1.008c2-.189,2.2-.882,2.2-1.995V-9.744a1.88,1.88,0,0,0,1.008-.462L99.9-11.592l-.756.9H91.455l-.4-.168A21.283,21.283,0,0,0,92.9-13.713h10.647c.294,0,.462-.1.525-.336-.714-.672-1.869-1.554-1.869-1.554Zm18.039,1.05h2.478v4.956h-2.6a23.356,23.356,0,0,0,.126-2.436Zm5.733,5.565c.252,0,.462-.105.5-.315A18.185,18.185,0,0,0,124-9.576l-.777,1.26h-.189v-4.746a1.572,1.572,0,0,0,.882-.4l-1.638-1.281-.777.84h-2.289v-2.9c.525-.084.672-.294.714-.588l-2.037-.21v3.7h-3.36a.32.32,0,0,0,.126-.231c-.63-.63-1.7-1.47-1.7-1.47l-.9,1.176h-3.423a21.056,21.056,0,0,0,.777-2.121c.42,0,.672-.189.735-.441l-2.079-.525a18.955,18.955,0,0,1-2.268,6.762l.294.21a11.046,11.046,0,0,0,2.247-3.255h1.386v3.885H105.8l.168.609h3.759V-1.89H107.9V-6.909c.441-.063.609-.252.651-.5l-1.869-.21V.882h.231c.462,0,.987-.273.987-.441V-1.281h4.83v1.3h.231c.441,0,.966-.252.966-.378V-6.909c.42-.063.567-.231.609-.483l-1.806-.189V-1.89h-1.7V-9.3h3.78c.294,0,.483-.105.546-.315-.63-.63-1.659-1.491-1.659-1.491l-.9,1.2h-1.764V-13.8h3.108a.6.6,0,0,0,.357-.084l.168.609h3.234v2.5a23.532,23.532,0,0,1-.1,2.457h-3.717l.168.609h3.486A11.164,11.164,0,0,1,112.119,1.3l.231.315a11,11,0,0,0,6.678-9.261c.777,4.305,2.268,7.413,5.229,9.156A1.569,1.569,0,0,1,125.391.273l.042-.231c-3.045-1.2-5.061-4.221-5.985-7.749Zm20.685.231c.294,0,.483-.1.546-.336-.735-.672-1.932-1.6-1.932-1.6l-1.092,1.323H136.92a32.358,32.358,0,0,0,.378-4.494h6.426c.294,0,.5-.1.546-.336-.735-.651-1.932-1.575-1.932-1.575l-1.071,1.323H137.3c.021-1.113.021-2.268.042-3.507.5-.084.693-.294.756-.588l-2.226-.252c0,1.554.021,3,0,4.347h-4.347a19.756,19.756,0,0,0,1.113-2.9c.462,0,.693-.189.777-.462l-2.184-.546a19.394,19.394,0,0,1-3.192,7.98l.315.21a12.085,12.085,0,0,0,2.877-3.7h4.641a29.2,29.2,0,0,1-.378,4.494h-8.4l.189.609h8.085c-.819,3.8-2.961,6.594-8.547,8.694l.21.4c6.531-2.037,8.9-5,9.765-9.093h.252c.693,3.087,2.394,6.8,7.854,9.114.147-.8.651-1.029,1.386-1.134l.063-.273c-5.775-1.974-8.043-4.935-8.883-7.707Zm3.3,11.592A5.015,5.015,0,0,0,151.809-.5c0-1.134-.567-1.974-1.554-1.974A1.281,1.281,0,0,0,148.89-1.2c0,1.071,1.029,1.428,1.89,1.743A3.885,3.885,0,0,1,148.6,3.591ZM19.194,21.8h-.273A20.946,20.946,0,0,1,18,25.286a.994.994,0,0,1-.819.42c-.63.063-2.163.084-4.305.084h-4.6c-1.869,0-2.2-.315-2.2-1.134V16.508l4.242-1.428v7.833h.252c.525,0,1.113-.315,1.113-.5V14.618l4.914-1.68c-.1,4.6-.4,7.035-.9,7.539-.168.189-.315.231-.693.231-.357,0-1.47-.1-2.121-.168v.378a3.783,3.783,0,0,1,1.491.462,1.123,1.123,0,0,1,.294.882,2.55,2.55,0,0,0,1.911-.672c.8-.756,1.2-3.3,1.323-8.463a1.437,1.437,0,0,0,.8-.294l-1.533-1.3-.693.777-.147.063-4.641,1.6v-4.7c.525-.084.714-.294.777-.588l-2.142-.252v6.006L6.069,15.878V10.9c.483-.084.714-.315.756-.588l-2.1-.252V16.34L.651,17.726l.378.483,3.7-1.26v7.98c0,1.785.945,2.163,3.612,2.163h4.494c6.09,0,7.224-.168,7.224-1.029,0-.294-.189-.462-.819-.651Zm13.86-6.678c2.268,1.3,5.46,3.738,6.615,5.586,1.932.84,2.121-3.087-6.4-5.838Zm4.725-4.935H22.092l.189.609h9.786c-1.89,3.8-6.027,7.812-10.311,10.395l.189.273a31.034,31.034,0,0,0,8.841-6.384v12.5h.252a1.659,1.659,0,0,0,1.134-.42V14.681c.357-.042.567-.168.63-.357l-.987-.378a23.893,23.893,0,0,0,2.226-3.15h6.342c.294,0,.5-.1.546-.336C40.152,9.767,38.913,8.8,38.913,8.8Zm18.543-.819a8.521,8.521,0,0,1,2.331,2.688c1.491.819,2.331-2.058-2.121-2.877ZM47.754,8.4a36.534,36.534,0,0,1-5.019,10.71l.294.21a20.782,20.782,0,0,0,3-3.612V27.638h.273a1.518,1.518,0,0,0,1.113-.483V14.66c.378-.042.567-.168.651-.357l-.966-.357a31.469,31.469,0,0,0,2.058-4.41c.5.021.756-.147.819-.378Zm14.28,14.406-.231-.063a17.336,17.336,0,0,1-.987,2.394c-.168.4-.315.4-.693.084-2.94-1.89-4.452-5.5-5.082-9.6l6.636-.756a.508.508,0,0,0,.5-.378c-.756-.546-1.974-1.3-1.974-1.3l-.882,1.365-4.368.483a36.983,36.983,0,0,1-.336-5.523c.5-.063.693-.315.735-.567L53.13,8.675a43.529,43.529,0,0,0,.441,6.531l-5.166.567.231.588,5.019-.567c.756,4.683,2.478,8.589,5.754,10.9,1.008.714,2.331,1.3,2.814.609.189-.231.1-.546-.525-1.344ZM80.01,18.02a20.983,20.983,0,0,1-3.633,3.57A12,12,0,0,1,74.3,17.411h8.169c.294,0,.483-.1.546-.336-.693-.672-1.806-1.554-1.806-1.554l-.987,1.26H74.214V14.408H80.7c.294,0,.5-.1.567-.336-.672-.63-1.7-1.449-1.7-1.449L78.645,13.8H74.214V11.468h7.329a.512.512,0,0,0,.546-.315C81.4,10.5,80.3,9.6,80.3,9.6l-.987,1.281h-5.1V9.221c.5-.084.714-.294.756-.588L72.828,8.4V10.88h-7.5l.189.588h7.308V13.8H66.213l.168.609h6.447v2.373H64.071l.189.63h7.287a22.888,22.888,0,0,1-7.749,5.8l.189.315A25.75,25.75,0,0,0,69.4,20.96v4.221c-1.428.315-2.6.567-3.339.693l.987,1.785a.72.72,0,0,0,.441-.5c3.7-1.3,6.363-2.352,8.274-3.129l-.063-.336c-1.722.42-3.4.819-4.914,1.176V20.015a15.39,15.39,0,0,0,2.73-2.6h.273c1.218,5.376,4.1,8.547,8.19,10a1.843,1.843,0,0,1,1.323-1.386l.021-.231a12.086,12.086,0,0,1-6.657-3.843,22.458,22.458,0,0,0,4.473-2.562c.441.126.63.042.777-.168Zm23.52-4.977c.294,0,.483-.1.546-.315-.735-.672-1.89-1.575-1.89-1.575l-1.029,1.281h-8.9a23.815,23.815,0,0,0,1.218-3.066c.546.021.735-.126.819-.378l-2.247-.63a26.192,26.192,0,0,1-1.323,4.074H85.05l.168.609h5.25a22.816,22.816,0,0,1-1.722,3.234l-.5-.1v.882a18.989,18.989,0,0,1-3.528,3.906l.252.252a18.1,18.1,0,0,0,3.276-2.73v9.135h.189c.735,0,1.134-.378,1.134-.5V17.054c.546-.063.756-.189.8-.42l-.5-.1a23.28,23.28,0,0,0,2.1-3.486Zm-2.268,13.251H97.5V19.511h4.956c.294,0,.5-.1.567-.336-.693-.63-1.785-1.47-1.785-1.47l-.945,1.2H97.5V14.87c.483-.084.63-.252.672-.525l-2.037-.231V18.9H91.287l.168.609h4.683v6.783H90.552l.168.609h12.873c.294,0,.483-.1.525-.315-.693-.672-1.848-1.554-1.848-1.554Zm10.206-1.239V18.188h8.295v6.867Zm8.295-14.049V17.6h-8.295V11.006Zm1.05-2-1.26,1.386h-7.917l-2.772-1.134v18.48h.441c1.134,0,2.163-.63,2.163-.966V25.664h8.295v1.911h.42a3.658,3.658,0,0,0,2.247-.819V11.426a1.632,1.632,0,0,0,.84-.441Zm9.345-.42a5.489,5.489,0,0,1,1.449,3.129c2.1,1.6,4.179-2.541-1.26-3.255Zm3.171,6.657h6.342v2.6h-6.342Zm7.812,5.334h-3.528V18.44h2.058v.777h.42a4.171,4.171,0,0,0,2.016-.546V15.6a1.49,1.49,0,0,0,.756-.42l-2.31-1.7-1.092,1.176h-6.006l-2.5-.987v5.922h.315c.987,0,2.058-.525,2.058-.735v-.42h1.89v2.142h-3.381l-2.583-1.029v7.5h.336c.987,0,2.058-.546,2.058-.756V21.17h3.57v6.678h.42a2.225,2.225,0,0,0,1.974-.819V21.17h3.738v2.94c0,.252-.084.378-.378.378-.441,0-1.953-.105-1.953-.105v.273a2.06,2.06,0,0,1,1.449.735,3.235,3.235,0,0,1,.357,1.617c2.6-.231,2.961-1.134,2.961-2.646V21.59a1.354,1.354,0,0,0,.84-.441l-2.415-1.785Zm2.94-9.7-1.323,1.344h-3.276A27.834,27.834,0,0,0,142.7,9.872c.462.042.714-.126.819-.357L140.154,8.4a34.029,34.029,0,0,1-1.281,3.822H137.7V8.969c.525-.084.672-.273.693-.525l-3.171-.273v4.053h-5.313a7.207,7.207,0,0,0-.4-1.323l-.294.021a2.845,2.845,0,0,1-1.449,2.541,1.4,1.4,0,0,0-.924,1.68,1.308,1.308,0,0,0,1.953.609,2.9,2.9,0,0,0,1.2-2.94h12.894c-.126.651-.294,1.491-.462,2.037l.168.126a15.821,15.821,0,0,0,3-1.659,1.09,1.09,0,0,0,.8-.252Zm19.026,15.33h-4.326v-6.3H165c.294,0,.5-.1.567-.336-1.008-.861-2.688-2.1-2.688-2.1l-1.47,1.827h-2.625V13.925h6.783c.336,0,.567-.1.63-.336-1.029-.861-2.646-2.037-2.646-2.037L162.1,13.337h-3.318V9.2c.567-.084.714-.294.777-.609l-3.486-.336v5.082h-3.381a21.439,21.439,0,0,0,1.386-2.961c.483,0,.756-.189.819-.441l-3.528-1.05a28.9,28.9,0,0,1-3.906,10l.231.189a16.563,16.563,0,0,0,4.662-5.145h3.717V19.3h-5.943l.168.609h5.775v6.3h-8.421l.168.609h18.942c.315,0,.546-.1.609-.336-1.05-.882-2.751-2.184-2.751-2.184ZM170.121,8.7a8.543,8.543,0,0,1,2.205,3.192c2.331,1.26,3.822-3.108-2.037-3.36Zm-1.575,4.6a6.643,6.643,0,0,1,2.016,3.024c2.205,1.344,3.822-2.94-1.848-3.192Zm6.447-.777c-4.032,7.959-4.032,7.959-4.515,8.736-.252.42-.357.441-.672.441h-.987v.378a2.185,2.185,0,0,1,1.113.357c.5.336.588,2.2.189,4.41.189.756.651,1.071,1.155,1.071a1.7,1.7,0,0,0,1.806-1.743c.063-1.827-.8-2.541-.84-3.633a8.386,8.386,0,0,1,.357-1.974c.294-1.05,1.848-5.544,2.709-7.938Zm9.471,7.812v5.04H178.1V20.33Zm.357-5.25H182.49V11.237c1.407-.168,2.709-.378,3.759-.588a1.509,1.509,0,0,0,1.386.042L185.2,8.339a55.48,55.48,0,0,1-10.374,3.192l.042.315c1.638-.042,3.423-.168,5.124-.336v3.57H174.51l.168.609h5.313v4.032h-1.764l-2.52-1.008v9.093h.315c1.029,0,2.079-.525,2.079-.756V25.979h6.363V27.7h.42a3.509,3.509,0,0,0,2.037-.693V20.729a1.566,1.566,0,0,0,.861-.441l-2.373-1.827-1.155,1.26H182.49V15.689h5.46c.294,0,.525-.1.588-.336-.882-.84-2.373-2.079-2.373-2.079Zm15.96,3.927V13.4h4.725v5.607Zm-7.308,0V13.4h4.683v5.607Zm13.02-7.518-1.176,1.3h-4.536V9.116c.567-.084.735-.315.777-.609l-3.4-.315v4.6h-4.494L190.869,11.7v10h.378c1.071,0,2.226-.588,2.226-.84V19.616h4.683v8.253h.483c1.008,0,2.142-.63,2.142-.9v-7.35h4.725V21.38h.441a4.177,4.177,0,0,0,2.184-.63V13.841a1.494,1.494,0,0,0,.861-.462Zm12.852,7.35c.441-.063.567-.231.609-.462l-2.541-.252v6.048h-.987V16.529h3.738c.294,0,.525-.1.588-.336-.8-.777-2.142-1.911-2.142-1.911l-1.176,1.659h-1.008v-3.78h3.066l.147.441h2.478v3.465c0,.5-.021,1.008-.042,1.512h-3l.168.588h2.793a12.507,12.507,0,0,1-2.688,7.371Zm6.741-6.237v4.977h-1.722q.063-.756.063-1.512V12.6Zm2.289,4.788V12.917a1.372,1.372,0,0,0,.861-.4l-2.226-1.7-1.134,1.176h-1.449v-2.9c.567-.084.714-.315.777-.609l-3.087-.294v3.8h-2.058a.422.422,0,0,0,.084-.168c-.8-.777-2.163-1.932-2.163-1.932L216.8,11.552h-2.793a13.457,13.457,0,0,0,.945-1.995c.462,0,.735-.189.819-.462l-3.318-.9a23.211,23.211,0,0,1-1.974,7.056l.252.168a11.863,11.863,0,0,0,2.919-3.255h.525v3.78h-3.7l.168.588h3.528v7.644h-1.008V18.8c.4-.063.525-.231.546-.441l-2.478-.252v8.988h.378c.693,0,1.554-.378,1.554-.567V24.782h4.242V26.1h.4a3.308,3.308,0,0,0,1.3-.294,10.989,10.989,0,0,1-2.079,1.806l.189.231c4.977-1.974,6.678-5.586,7.1-9.681h.021c.546,4.83,1.68,7.728,4.431,9.6a2.993,2.993,0,0,1,1.89-2.436l.021-.231a9.483,9.483,0,0,1-6.006-6.93h5.586c.294,0,.483-.084.546-.315-.546-.735-1.638-1.932-1.638-1.932Zm18.4,2.688h-2.6v-.966c.42-.063.567-.231.588-.483l-3.108-.273v1.722h-2.31l-2.5-.966V26.9h.336c.987,0,2-.525,2-.756v-5.46h2.478v7.182h.483c.924,0,2.037-.441,2.037-.63V20.687h2.814v3.192c0,.231-.084.357-.357.357-.4,0-1.659-.1-1.659-.1v.294a1.686,1.686,0,0,1,1.281.714,3.191,3.191,0,0,1,.315,1.554c2.436-.21,2.772-1.071,2.772-2.583V21.086a1.42,1.42,0,0,0,.84-.441L247.821,18.9Zm-2.352-2.793h-3.171V14.849h3.171Zm3.633-3.045h-1.281v-1.6c.5-.084.651-.273.693-.525l-3.045-.273V14.24h-3.171v-1.6c.5-.063.651-.273.693-.525l-3.024-.273V14.24h-2.982V11.384h14.616c.294,0,.525-.105.567-.336-.861-.819-2.31-2.016-2.31-2.016l-1.3,1.764h-4.221V8.99c.567-.084.735-.294.756-.588L240.87,8.15V10.8h-4.557l-2.751-.987v6.237c0,3.675-.1,7.749-1.932,10.983l.21.189c3.864-3.045,4.1-7.665,4.1-11.172v-1.2h2.982v3.843h.4a3.135,3.135,0,0,0,1.932-.546v-.252h3.171v.588h.42a3.333,3.333,0,0,0,1.932-.525V14.849h3.969c.294,0,.5-.105.567-.336-.8-.756-2.1-1.827-2.1-1.827Z" transform="translate(-0.651 17.682)"/>
</svg>
