<?xml version="1.0" encoding="utf-8"?>
<!-- Generator: Adobe Illustrator 25.2.3, SVG Export Plug-In . SVG Version: 6.00 Build 0)  -->
<svg version="1.1" id="Layer_1" xmlns="http://www.w3.org/2000/svg" xmlns:xlink="http://www.w3.org/1999/xlink" x="0px" y="0px"
	 viewBox="0 0 919.9 123.9" style="enable-background:new 0 0 919.9 123.9;" xml:space="preserve">
<style type="text/css">
	.st0{clip-path:url(#SVGID_2_);}
</style>
<g id="Group_1524" transform="translate(-219 -41.948)">
	<path id="Path_217" d="M246.3,50.4c1.8,1.3,3.9,3.7,4.5,5.5c2.2,1.4,3.4-3.2-4.1-5.8L246.3,50.4z M255.6,72.7l-0.5-0.1
		c-0.4,1.3-0.8,2.7-1.3,4c-0.3,0.7-0.5,0.8-1.1,0.3c-2.2-1.4-4-3.4-5.1-5.8c1.9-2.1,3.5-4.5,4.7-7.1c0.9,0.1,1.2,0,1.4-0.4l-3-1.3
		c-1,2.5-2.3,4.8-3.9,7c-1.1-2.8-1.8-5.8-2.1-8.7H255c0.5,0,0.9-0.2,0.9-0.6c-1.2-1.1-3-2.5-3-2.5l-1.7,2h-6.8
		c-0.3-3.3-0.5-6.6-0.4-10c0.9-0.1,1.2-0.6,1.3-1l-3.3-0.4c0,3.8,0.2,7.6,0.6,11.3H234v-7.2c1.9-0.5,3.6-1.1,5-1.6
		c0.8,0.3,1.4,0.3,1.7,0l-2.5-2c-4.6,2.4-9.5,4.1-14.6,5.2l0.2,0.6c2.8-0.4,5.6-0.9,8.3-1.7v6.7h-9l0.3,1.1h8.7v6.5
		c-3.9,1-7.1,1.8-8.9,2.1l1.2,2.6c0.4-0.1,0.7-0.4,0.8-0.8c2.5-0.8,4.8-1.6,6.9-2.3v8.7c0,0.5-0.2,0.8-0.9,0.8
		c-0.7,0-4.5-0.3-4.5-0.3v0.5c1.1,0.1,2.2,0.3,3.1,0.8c0.5,0.4,0.8,0.9,0.8,1.5c3-0.3,3.3-1.6,3.3-3.3V68c3-1,5.5-1.9,7.6-2.7
		l-0.2-0.6c-2.6,0.7-5.1,1.4-7.4,2v-6h8.8c0.4,3.6,1.3,7.1,2.7,10.4c-2.8,3.4-6.3,6.1-10.2,8.2l0.3,0.5c4-1.6,7.6-4.1,10.7-7.1
		c1.3,2.5,3.2,4.7,5.6,6.3c1.6,1.1,3.6,1.9,4.2,0.9c0.2-0.4,0.1-0.8-0.9-1.8L255.6,72.7z M259.3,65.9c1.3-1.8,2.5-3.7,3.5-5.6v20.4
		h0.3c0.6,0,1.1-0.2,1.5-0.6V58.5c0.6-0.1,1-0.3,1.1-0.6l-1.5-0.6c1.1-2.5,2-5.1,2.7-7.7c0.8,0,1.3-0.3,1.4-0.8l-3.2-0.9
		c-1.3,6.1-3.4,12.1-6.2,17.6L259.3,65.9z M270.6,61v-4.3h5.4V61L270.6,61z M276,51.4v4.3h-5.4v-4.3H276z M275.6,50.4h-4.9l-2-1.1
		v31.3h0.4c0.9,0,1.5-0.5,1.5-0.8V62.1h5.4v2.2h0.3c0.6,0,1.5-0.5,1.5-0.7V51.8c0.6-0.1,1.1-0.3,1.5-0.7l-2.5-2L275.6,50.4z
		 M282.5,61v-4.3h5.7V61L282.5,61z M288.2,51.4v4.3h-5.7v-4.3H288.2z M289,49l-1.1,1.4h-5.1l-2-1v14.7h0.3c0.8,0,1.5-0.4,1.5-0.6
		v-1.4h5.7v15.2c0,0.6-0.2,0.8-0.9,0.8c-0.8,0-4.6-0.3-4.6-0.3v0.6c1.1,0.1,2.1,0.3,3.1,0.8c0.5,0.4,0.7,0.9,0.8,1.5
		c3.1-0.3,3.4-1.5,3.4-3.2V51.8c0.6-0.1,1.2-0.3,1.6-0.7L289,49z M305.8,57.6c-0.3,4.2-1.2,8.4-2.7,12.3c-1.4-0.9-2.9-1.7-4.5-2.3
		c0.9-3.1,1.9-6.7,2.8-10L305.8,57.6z M306.8,55.2l-1.3,1.3h-3.9c0.7-2.8,1.3-5.3,1.6-7c0.9,0,1.3-0.3,1.4-0.8l-3.1-0.7
		c-0.4,2.1-1,5.2-1.8,8.5H295l0.3,1.1h4.2c-1.1,4.5-2.4,8.9-3.9,13.2c0.7,0.3,1.4,0.2,2.1-0.1c0.3-0.8,0.5-1.6,0.8-2.6
		c1.4,0.9,2.8,2,4,3.2c-1.8,3.5-4.5,6.4-7.8,8.4l0.4,0.5c3.6-1.7,6.6-4.4,8.6-7.7c1.5,1.4,2.6,3.2,3.3,5.1c2.2,1.3,3-2.7-2.3-6.8
		c1.9-3.9,2.8-8.4,3.3-13c0.5,0,1-0.1,1.4-0.5L306.8,55.2z M324.1,63.4h-5.2v-5c0.9-0.1,1.2-0.4,1.3-0.9l-0.7-0.1
		c2.2-1.7,4.8-4,6.4-5.4c0.8,0,1.3-0.1,1.5-0.3l-2.5-2.4l-1.5,1.4h-14.5l0.3,1h13.9c-1.4,1.9-3,3.8-4.6,5.5l-1.6-0.2v6.3h-8.7l0.3,1
		h8.4v12.8c0,0.6-0.2,0.8-1,0.8c-0.8,0-5-0.3-5-0.3v0.6c1.2,0.1,2.3,0.4,3.4,0.8c0.5,0.4,0.8,0.9,0.9,1.5c3.2-0.4,3.6-1.5,3.6-3.2
		v-13h8.6c0.5,0,0.8-0.2,0.9-0.6c-1-1-2.8-2.4-2.8-2.4L324.1,63.4z M338.1,47.9c-1.5,6.3-3.9,12.4-7.2,18.1l0.5,0.3
		c1.5-1.8,2.9-3.8,4-5.8v20.1h0.3c0.6,0,1.2-0.3,1.6-0.7V58.4c0.6-0.1,1-0.3,1.1-0.6l-1.3-0.5c1.2-2.4,2.2-5,3-7.6
		c0.8,0,1.2-0.3,1.4-0.8L338.1,47.9z M344.2,56.7h6.8v4.6h-6.8L344.2,56.7z M353.6,52c-0.8,1.3-1.7,2.5-2.7,3.7h-6.2l-1-0.4
		c1.2-1,2.2-2.1,3.2-3.2H353.6z M359.7,56.7v4.6h-6.8v-4.6L359.7,56.7z M361.7,63.6c-1.6,1.7-3.4,3.3-5.3,4.8
		c-1.1-1.9-1.9-3.9-2.4-5.9h5.7v1.2h0.3c0.6,0,1.6-0.5,1.6-0.7V57c0.5-0.1,1-0.3,1.4-0.6l-2.5-1.9l-1.1,1.2h-7.5
		c1.5-1,3-2.2,4.4-3.5c0.6,0,1.1-0.1,1.4-0.4l-2.4-2.2l-1.3,1.3h-6.1c0.5-0.6,0.9-1.2,1.3-1.8c0.9,0.1,1.2,0,1.3-0.4l-3.2-1.1
		c-2,4-4.9,7.4-8.4,10.1l0.4,0.5c1.1-0.6,2.1-1.2,3-2v7.5h0.3c0.6,0.1,1.2-0.2,1.6-0.6v-0.8h5.6c-3.2,2.4-6.6,4.3-10.4,5.6l0.4,0.6
		c3.2-0.9,6.3-2.2,9.1-3.8c0.5,0.5,0.9,1,1.2,1.5c-3,2.8-6.4,4.9-10.3,6.3l0.3,0.7c3.9-1.2,7.6-3,11-5.4c0.3,0.7,0.6,1.4,0.9,2.1
		c-3.7,3.7-8.2,6.3-13.1,7.8l0.2,0.6c4.9-1.2,9.5-3.4,13.5-6.5c0.5,2.8,0.2,5.2-0.6,6.2c-0.2,0.3-0.4,0.3-0.8,0.3
		c-0.8,0-3.3-0.1-4.7-0.2l0,0.6c1,0.1,1.9,0.3,2.8,0.6c0.4,0.2,0.7,0.7,0.7,1.2c1.8,0,2.8-0.4,3.4-1.2c2.1-2.4,1.8-10.3-3.9-15
		c1-0.6,1.9-1.3,2.8-2.1h0.7c1.3,6.8,4.4,12,9.2,15.2c0.3-0.8,1-1.3,1.8-1.4l0.1-0.4c-3.1-1.6-5.8-4-7.6-6.9c2.2-0.9,4.2-2,6.2-3.3
		c0.5,0.2,0.8,0.1,1-0.1L361.7,63.6z M399.1,65.2c0.5,0,0.8-0.2,0.9-0.6c-1.2-1.1-3.1-2.6-3.1-2.6l-1.7,2.1h-11.2
		c0.4-2.5,0.6-5.1,0.6-7.7h11.1c0.5,0,0.9-0.2,1-0.5c-1.2-1.1-3.1-2.6-3.1-2.6l-1.7,2.1h-7.3c0-1.9,0-3.9,0.1-5.9
		c0.9-0.1,1.2-0.5,1.3-1l-3.3-0.4c0,2.6,0,5,0,7.3h-7.8c0.8-1.6,1.4-3.3,1.9-5c0.6,0.1,1.1-0.2,1.3-0.8l-3.3-0.9
		c-1,5.4-3.1,10.4-5.6,13.6l0.5,0.4c1.9-1.8,3.5-3.9,4.7-6.3h8.3c0,2.6-0.2,5.1-0.6,7.7h-14.6l0.3,1.1h14.1
		c-1.4,6.6-5.1,11.3-14.8,14.8l0.4,0.7c11-3.5,15-8.5,16.5-15.5h0.5c1.2,5.1,4.1,11.5,13.8,15.6c0.3-1.1,1-1.4,2.1-1.5l0.1-0.4
		c-9.9-3.6-13.7-8.9-15.2-13.6L399.1,65.2z M431.1,63.2h-10.7v-7.6h12c0.5,0,0.9-0.2,1-0.6c-1.2-1.1-3.1-2.6-3.1-2.6l-1.7,2.1h-8.1
		v-5.2c0.8-0.1,1.2-0.5,1.3-1l-3.3-0.4v6.6h-12.7l0.3,1.1h12.3v7.6h-15.4l0.3,1h13c-1.5,4.3-3.4,8.4-5.7,12.3
		c-2.5,0.2-4.6,0.3-6,0.4l1.4,2.9c0.4-0.1,0.7-0.4,0.9-0.8c9.9-1.3,17.2-2.5,22.7-3.4c1,1.3,1.8,2.7,2.4,4.3
		c2.8,1.9,3.9-4.9-8.7-11.9l-0.4,0.4c2.3,2,4.3,4.2,6.2,6.6c-6.4,0.6-12.5,1.1-17.2,1.5c2.8-3.9,5.2-8,7.3-12.2H435
		c0.5,0,0.9-0.2,0.9-0.5c-1.2-1.2-3.2-2.6-3.2-2.6L431.1,63.2z M467.6,49.2l-1.5,1.5h-24.5l0.3,1h23.6c-2.7,2.5-5.7,4.8-8.8,6.8
		l-2.1-0.3v18.9c0,0.6-0.3,0.9-1,0.9c-1,0-6-0.4-6-0.4v0.6c1.4,0.1,2.8,0.3,4.1,0.8c0.5,0.4,0.8,0.9,1,1.5c3.6-0.4,4-1.5,4-3.2V59.6
		c0.8-0.1,1.2-0.4,1.3-0.9l-0.2,0c3.9-1.9,7.6-4.1,11.1-6.7c0.6,0.1,1.1-0.1,1.6-0.4L467.6,49.2z M483.1,47.9
		c-2.2,3.6-4.9,6.9-8,9.8l0.5,0.5c3.4-2.4,6.5-5.2,9.2-8.5c0.8,0.2,1.1,0.1,1.3-0.3L483.1,47.9z M483.9,55.1c-2.3,4.7-5.3,9-9,12.8
		l0.4,0.5c1.8-1.4,3.5-2.9,5-4.6v16.9h0.4c0.6,0,1.2-0.3,1.5-0.8V62.3c0.6-0.1,0.9-0.3,1-0.6l-0.9-0.4c1.1-1.4,2.2-2.9,3.2-4.4
		c0.9,0.1,1.2,0,1.4-0.4L483.9,55.1z M490.8,57.2h11.9v5.5h-11.9L490.8,57.2z M502.7,50.9v5.3h-11.9v-5.3H502.7z M505.2,65.1
		c-1.9,2.1-4,4-6.3,5.7c-1.4-2.1-2.5-4.5-3.2-7h6.9v1.6h0.3c0.6,0,1.2-0.3,1.7-0.7V51.3c0.6-0.1,1.1-0.3,1.5-0.7l-2.7-2l-1.2,1.3
		h-11.1l-2.3-1V77c-1.7,0.4-3,0.7-3.9,0.8l1.2,2.8c0.4-0.1,0.7-0.5,0.8-0.9c5.1-1.9,9-3.5,11.8-4.6l-0.1-0.5c-2.8,0.7-5.5,1.4-7.8,2
		V63.8h4.2c1.7,7.8,5.5,13.4,11.7,16.6c0.3-0.8,1-1.4,1.8-1.4l0.1-0.4c-3.7-1.4-6.8-3.9-9.2-7.1c2.5-1.1,4.9-2.5,7.1-4.2
		c0.7,0.3,1.1,0.1,1.3-0.1L505.2,65.1z M536.2,50.6l-1.3,1.1h-9.5c1-0.8,1.9-1.6,2.8-2.4c1,0,1.4-0.2,1.6-0.5l-3.3-1
		c-2.7,3.5-8.4,8-14.3,10.5l0.4,0.5c2.5-0.8,4.9-1.9,7.1-3.2c2,0.9,3.7,2.2,5.2,3.8c2.1,0.8,2.4-3-4.3-4.3c1.2-0.7,2.3-1.5,3.4-2.2
		h10.4c-5.1,6.6-12.6,10.5-22.8,13.2l0.3,0.6c11.6-2.5,19.4-6.7,24.9-13.6c0.9,0,1.4-0.1,1.7-0.4L536.2,50.6z M541.5,63.2l-1.3,1.2
		h-9.9c1.3-1,2.6-2,3.8-3.2c1,0,1.5-0.1,1.7-0.5l-3.5-0.9c-3.4,4.1-10.2,8.8-17.6,11.6L515,72c2.8-0.8,5.6-1.9,8.2-3.2
		c2.3,1.2,5,3.1,6,5c2.3,1,2.7-3.7-5-5.5c1.6-0.9,3.1-1.8,4.5-2.7h11.1c-5.7,8.4-14.2,11.9-26.6,14.4l0.3,0.7c14-2,22.7-6,28.8-14.8
		c0.6,0.1,1.2-0.1,1.7-0.4L541.5,63.2z M554.5,63.7h8v4.1h-8V63.7z M562.4,58.7v3.9h-8v-3.9H562.4z M572.5,58.7v3.9h-8.1v-3.9H572.5
		z M564.4,67.8v-4.1h8.1v4.1H564.4z M572.5,68.8v1.9h0.3c0.6,0,1.3-0.3,1.7-0.7V59c0.6-0.1,1.1-0.3,1.5-0.7l-2.7-2.1l-1.2,1.3h-7.8
		v-3.9h13.9c0.5,0,0.9-0.1,1-0.5c-1.3-1.1-3.2-2.7-3.2-2.7l-1.7,2.2h-9.9v-3.4c0.9-0.1,1.2-0.5,1.3-1l-3.2-0.4v4.8h-14.6l0.3,1h14.3
		v3.9h-7.8l-2.2-1v14.3h0.3c0.8,0,1.7-0.5,1.7-0.6v-1.4h6.5c-3.8,4.5-8.5,8.1-13.9,10.5l0.4,0.6c6-2.2,11.3-5.6,15-9.8v10.5h0.4
		c0.8,0,1.6-0.5,1.6-0.8V69c3.1,4.9,8.6,8.7,14,10.7c0.3-0.8,1-1.5,1.9-1.6l0.1-0.4c-5.5-1.4-11.8-4.8-15.2-8.9L572.5,68.8z
		 M596.6,57.9v-6.1h4.9v6.1L596.6,57.9z M611.6,59v17h-24.1V59h7.1c-0.1,4.5-1.3,8.9-6.9,12.5l0.4,0.5c7.1-3.2,8.2-8.2,8.4-13h4.9
		v8.7c0,1.4,0.4,1.9,2.4,1.9h2.2c3.6,0,4.5-0.4,4.5-1.2c0-0.4-0.2-0.7-0.8-0.9l-0.1-4.6h-0.5c-0.3,1.8-0.6,4-0.8,4.5
		c0,0.2-0.2,0.4-0.5,0.4c-0.3,0-0.9,0-1.8,0h-1.8c-0.8,0-0.9-0.1-0.9-0.7V59L611.6,59z M603.4,51.8h11.4c0.5,0,0.9-0.2,0.9-0.6
		c-1.2-1.1-3.1-2.6-3.1-2.6l-1.7,2.1h-27.7l0.3,1h11.1v6.1H588l-2.3-1v23.6h0.3c1,0,1.6-0.5,1.6-0.7V77h24.1v3.4h0.3
		c0.9,0,1.6-0.5,1.6-0.7V59.2c0.5,0,1.1-0.2,1.5-0.6l-2.5-2l-1,1.3h-8.1V51.8z M624.1,80.9c2.8,0,5-2.3,5-5c0-2.8-2.2-5-5-5
		c0,0,0,0,0,0c-2.8,0-5,2.2-5,5C619.1,78.7,621.3,80.9,624.1,80.9z M624.1,72c2.1,0,3.8,1.7,3.9,3.9c0,2.1-1.7,3.9-3.9,3.9
		c-2.1,0-3.9-1.7-3.9-3.9C620.2,73.7,621.9,72,624.1,72C624.1,72,624.1,72,624.1,72z"/>
	<path id="Path_219" d="M891.1,125.6h15.7c0.8,0,1.4-0.3,1.6-0.9c-2.4-2.1-6.2-5.1-6.2-5.1l-3.4,4.4h-7.6v-10.7h15.3
		c0.8,0,1.4-0.3,1.5-0.9c-0.9-0.8-2-1.7-3.1-2.5c2.5-1.6,4.8-3.4,6.9-5.3c0.8,0,1.6-0.2,2.2-0.7l-5.9-5.6l-3.4,3.4h-13.5v-6.4
		c1.5-0.3,2-0.8,2.1-1.6l-8.8-0.7v8.7h-13.8c-0.2-1.2-0.5-2.3-0.9-3.4h-0.8c-0.1,3-1.8,5.7-4.4,7.2c-1.7,0.8-3,2.4-2.3,4.4
		c0.8,2.2,3.5,2.7,5.4,1.5c2-1.3,3.5-4.1,3.2-8.1h34.1c-0.4,1.7-0.9,3.9-1.5,5.7c-1.1-0.8-1.8-1.4-1.8-1.4l-3.5,4.2h-29.2l0.4,1.6
		h15.1v23c-3.5-1.1-6.5-3.4-8.5-6.6c1-2.6,1.8-5.2,2.4-7.9c1.3-0.1,2-0.6,2.2-1.4l-8.7-1.5c-0.6,8.4-3.1,19-10.4,26l0.4,0.5
		c5.9-3,10.6-7.9,13.4-13.9c4.1,10.3,11.3,12.7,24.2,12.7h11.3c0.1-2.7,1.2-5.2,3.5-5.7v-0.7c-3.6,0.1-11.1,0.1-14.4,0.1
		c-3.2,0-6.1-0.1-8.7-0.3V125.6z M932.7,94.2c6.3,3.6,10.1,8.6,11.3,11.7c7,4.1,12.9-11.5-11-12.3L932.7,94.2z M925,111.8
		c-0.1,5.8-3,11-5.7,13c-1.6,1.3-2.5,3.3-1.3,5.2c1.3,2.1,4.5,2.1,6.4-0.1c2.8-3,4.7-9.2,1.3-18.1H925z M958.3,128h-0.6
		c-0.7,2.8-1.7,5.5-2.9,8.1c-0.4,0.6-1.1,0.9-1.8,0.9c-1,0.1-2.9,0.1-5.2,0.1h-6.3c-2.3,0-2.9-0.4-2.9-1.7v-5.5
		c10-7.7,18.4-17.4,24.6-28.4c1.5,0.2,2-0.1,2.4-0.7l-8.3-4c-4.6,10.1-10.9,19.4-18.6,27.5v-17.5c1.3-0.2,1.8-0.8,1.9-1.5l-8.6-0.8
		v26.2c-4.4,3.8-9.1,7.2-14.2,10.1l0.5,0.7c4.8-1.9,9.4-4.2,13.7-6.9v2.8c0,5.2,2.1,6.4,8.5,6.4h6.8c11.1,0,13.9-1.3,13.9-4.4
		c0-1.2-0.6-2-2.6-2.8L958.3,128z M956.9,111.9c3.2,5,6.3,11.8,6.6,17.9c6.6,5.9,12.5-9.2-6-18.2L956.9,111.9z M1010.8,113.5v7.1
		h-18.2v-7.1H1010.8z M992.6,129.4v-7.2h18.2v7.2H992.6z M1014.8,102.3h-17c1-1.8,1.9-3.7,2.6-5.7c1.5,0,2-0.4,2.2-1.1l-9.1-2.7
		c-0.8,3.3-1.9,6.4-3.2,9.5h-16.1l0.4,1.6h15c-3.6,8-9.1,15.9-16.4,21.5l0.5,0.6c4.4-2.1,8.5-4.8,12.2-8.2v27.6h1.2
		c3.3,0,5.4-1.5,5.4-2V131h18.2v5.9c0,0.8-0.2,1.1-1.2,1.1c-1.3,0-7.2-0.3-7.2-0.3v0.7c2.9,0.5,4.1,1.2,5,2.3c0.9,1,1.2,2.6,1.4,4.8
		c7.7-0.7,8.7-3.3,8.7-7.8v-22.9c1-0.1,1.9-0.6,2.6-1.3l-6.7-5.2l-3.1,3.6h-16.9l-1.3-0.5c1.8-2.4,3.5-4.8,5-7.4h27.2
		c0.8,0,1.5-0.3,1.6-0.9c-2.6-2.3-7-5.6-7-5.6L1014.8,102.3z M1055.7,100c0.8,0,1.4-0.3,1.6-0.9c-2.3-2.1-6.1-5.3-6.1-5.3l-3.4,4.5
		h-17.5l0.4,1.6L1055.7,100z M1039.6,121.7c0.1-1.3,0.1-2.6,0.1-3.8v-8.7h7.4v12.5H1039.6z M1048.2,126.8c1.9,0,5-1.1,5-1.5v-15.1
		c0.9-0.2,1.7-0.6,2.3-1.2l-6.1-4.5l-2.9,3.1h-5.9l-7.4-3V118c0,8.6-0.2,18.9-4.4,27.2l0.6,0.4c7.6-6.1,9.6-14.9,10-22.3h7.6v3.5
		L1048.2,126.8z M1073.4,112.4h-9.5v-10.2c4.8-0.7,9.6-1.7,14.3-3c1.7,0.5,3,0.4,3.6-0.2l-7.2-5.8c-3.4,2.7-7.1,5-10.9,7.1l-6.2-2
		V114c0,10.6-1.3,21.8-10.4,30.9l0.6,0.6c14.8-8,16.2-21,16.2-31.4V114h6v31.5h1.2c3.4,0,5.4-1.4,5.4-1.8V114h4.5
		c0.8,0,1.4-0.3,1.6-0.9c-2.2-2.1-5.9-5.2-5.9-5.2L1073.4,112.4z M1095.8,92.9c-2.8,5.7-6.4,11.1-10.6,15.8l0.5,0.6
		c5.8-3.1,11.2-6.9,15.9-11.5c1.3,0.2,1.8-0.2,2.1-0.7L1095.8,92.9z M1097.3,104.1c-2.1,5.9-6.8,15.1-12,21l0.6,0.6
		c2.3-1.4,4.5-3.1,6.5-4.9v24.8h1.2c2.6,0,5.2-1.6,5.2-2.1v-26.9c1-0.2,1.6-0.6,1.7-1.1l-2-0.7c1.7-1.8,3.2-3.7,4.6-5.7
		c1.4,0.1,1.8-0.2,2.1-0.8L1097.3,104.1z M1107,128.2c2.1,2.4,3.7,5.2,4.5,8.3c5.6,3.8,10.4-6.8-4-8.7L1107,128.2z M1112.8,111.2
		v-5.8h13.9v5.8L1112.8,111.2z M1126.7,98.3v5.5h-13.9v-5.5H1126.7z M1133.1,98.7c0.8,0,1.6-0.4,2.1-1l-5.8-4.4l-3,3.4h-13.1
		l-6.8-2.6v21.7h1.1c3.2,0,5.1-1.1,5.1-1.5v-1.5h13.9v2h1.1c1.4,0,2.8-0.2,4.1-0.7l-2.8,3.8H1103l0.4,1.6h33.2
		c0.8,0,1.3-0.3,1.5-0.9c-1.8-1.7-4.6-4-5.5-4.8c0.3-0.2,0.6-0.3,0.6-0.4L1133.1,98.7z M1130.8,125.1h-0.9v-3.4
		c1.2-0.2,1.8-0.6,1.9-1.4l-8.5-0.7v5.5h-21.4l0.4,1.6h21v11.4c0,0.6-0.2,0.9-1.1,0.9c-1.1,0-6.4-0.4-6.4-0.4v0.8
		c2.7,0.4,3.8,1.1,4.5,2c0.8,1,1.1,2.4,1.2,4.3c7.4-0.6,8.4-3,8.4-7.4v-11.5h7.5c0.8,0,1.3-0.3,1.5-0.9c-2-1.9-5.3-4.6-5.3-4.6
		L1130.8,125.1z"/>
	<g id="Group_1475" transform="translate(219 41.948)">
		<path id="Path_218" d="M9.3,96.3c-0.3,0-0.5-0.1-0.7-0.3c-0.2-0.1-0.3-0.4-0.3-0.6c0.3-3.8,0.4-7.6,0.5-11.4V71.9
			c-1.5,2.5-3.3,4.9-5.2,7l-0.6-0.4c2.6-4.2,4.8-8.6,6.5-13.3c0.5-1.5,1-3.1,1.5-4.8c0.4-1.5,0.7-3.1,0.8-4.6c1.5,0.4,2.9,1,4.2,1.6
			c0.4,0.3,0.4,0.5-0.1,0.7L15,58.3c-1.1,3.2-2.5,6.4-4,9.5c0.6,0.4,1.1,0.8,1.4,1.4c0.1,0.3,0,0.5-0.4,0.7l-0.6,0.3v14.7
			c0.1,3.6,0.2,7.1,0.4,10.3c-0.3,0.3-0.6,0.6-1,0.7C10.3,96.1,9.8,96.3,9.3,96.3z M14.5,94.5l-1.1-2.3c1.6,0.2,3.6,0.3,5.9,0.4
			h17.3l0.9-1.4c0.1-0.1,0.2-0.2,0.3-0.4c0.4-0.6,0.7-1,0.9-1c0.3,0,1,0.5,2,1.4c1.1,1,1.6,1.6,1.6,1.9c-0.1,0.5-0.4,0.7-1.1,0.7
			H21.1C18.9,93.9,16.7,94.1,14.5,94.5L14.5,94.5z M18.7,88.7c-0.2,0-0.5-0.1-0.7-0.3c-0.2-0.1-0.3-0.4-0.3-0.6
			c0.3-3.8,0.4-7.6,0.5-11.4v-8.8c0-3-0.1-6-0.6-9l3.5,1.7h13.3l0.7-1.1c0.1-0.1,0.1-0.2,0.3-0.4c0.3-0.5,0.6-0.7,0.7-0.7
			c0.3,0,0.9,0.4,1.8,1.3c0.9,0.9,1.4,1.5,1.4,1.8c-0.5,0.5-1.1,0.8-1.7,0.8v14.1c0.1,3.6,0.2,7.1,0.4,10.3
			c-0.3,0.4-0.7,0.6-1.2,0.8c-0.5,0.3-1,0.4-1.6,0.4c-0.4,0-0.6-0.3-0.6-0.9c0-0.1,0.1-0.3,0.1-0.5c0-0.1,0.1-0.3,0.1-0.4V85H21v0.9
			c0,0.3,0,0.6,0,0.9c0,0.2,0,0.4,0.1,0.6c-0.1,0.4-0.4,0.7-0.8,0.9C19.8,88.5,19.3,88.7,18.7,88.7L18.7,88.7z M21,83.6h13.9V73.2
			H21V83.6z M21,72h13.9V61.4H21V72z M84.4,95.4c-0.4,0.7-1.1,0.8-2.1,0.2c-1.2-2.5-2.8-4.8-4.8-6.8c-2-2.2-4.3-4.1-6.6-5.9l0.5-0.4
			c3.2,1.3,6.2,3,8.9,5.2c1.6,1.3,3,2.9,3.9,4.7C84.7,93.7,84.8,94.7,84.4,95.4z M47.3,96.3l-0.4-0.6c3.1-2.1,5.9-4.5,8.4-7.2
			c2-2.1,3.6-4.4,4.8-7l2.3,1.6c0.6,0.2,1.1,0.5,1.6,1c0.1,0.2,0,0.3-0.5,0.4l-0.8,0.1c-1.9,2.3-4.1,4.5-6.5,6.3
			C53.4,93,50.4,94.8,47.3,96.3z M53.7,82c-0.2,0-0.4-0.1-0.6-0.3c-0.2-0.2-0.3-0.4-0.3-0.6c0.2-2.7,0.3-5.7,0.4-9v-4.9
			c0-3-0.1-6-0.6-9l3.6,1.7H77l0.7-1c0.1-0.1,0.1-0.2,0.2-0.3c0.4-0.5,0.7-0.8,0.9-0.8c0.3,0,0.9,0.4,1.8,1.3s1.4,1.5,1.4,1.8
			c-0.5,0.5-1.1,0.8-1.8,0.9v8.1c0.1,3.6,0.2,7.1,0.4,10.3c-0.3,0.4-0.7,0.6-1.2,0.8c-0.5,0.3-1,0.4-1.5,0.4c-0.4,0-0.6-0.3-0.6-0.9
			c0-0.2,0.1-0.4,0.1-0.5c0-0.2,0.1-0.3,0.1-0.4v-0.9H56v0.7c0,0.2,0.1,0.5,0.1,0.7c0,0.2,0,0.4,0.1,0.5c-0.1,0.3-0.3,0.6-0.9,0.9
			C54.8,81.8,54.2,82,53.7,82z M56,77.4h21.4V61.2H56L56,77.4z M126.5,96.1c-0.7,0.3-1.5,0.3-2.1-0.2c-3.5-2.3-7.4-4.1-11.4-5.4
			c-2.7,1.8-5.6,3.1-8.8,3.9c-4.2,1-8.5,1.7-12.9,2l-0.2-0.8c8.6-1.2,14.9-3.2,18.9-5.9c-3-0.9-5.8-1.6-8.5-2.2
			c-0.1,0.1-0.2,0.3-0.3,0.4c-0.6,0.9-1.1,1.5-1.4,1.8c-1,0.2-2.1-0.1-2.9-0.7c2.1-2.6,4-5.3,5.9-8.1h-4.2c-2.2,0-4.4,0.2-6.6,0.6
			l-1.1-2.2c1.6,0.2,3.6,0.3,5.9,0.4h6.9c1.2-1.8,2.3-3.8,3.3-5.7h-8.5v1.6c0,0.1-0.2,0.3-0.7,0.5c-0.5,0.2-1.1,0.3-1.6,0.4
			c-0.4,0-0.6-0.3-0.6-0.9c0.1-0.6,0.1-1.4,0.2-2.5c0-0.4,0-0.8,0-1.1v-2.2c0-2.3-0.1-4.6-0.4-6.9l3.4,1.6h6V60h-5.7
			c-2.2,0-4.4,0.2-6.6,0.6l-1.2-2.2c1.6,0.2,3.6,0.3,5.9,0.4h27l0.9-1.2c0.1-0.1,0.2-0.2,0.3-0.4c0.4-0.6,0.7-0.9,0.9-0.9
			c0.8,0.3,1.4,0.7,2,1.3c1,0.9,1.6,1.5,1.6,1.8c-0.1,0.5-0.5,0.7-1.1,0.7h-12.2v4.5h6l0.7-1c0.1-0.1,0.1-0.2,0.3-0.4
			c0.3-0.4,0.6-0.7,0.7-0.7c0.3,0,0.9,0.4,1.8,1.3s1.4,1.4,1.4,1.7c-0.5,0.5-1.1,0.8-1.8,0.9v2.9c0,0.5,0,1.1,0,1.8
			c0.1,1.7,0.1,2.9,0.2,3.8c-0.3,0.3-0.6,0.6-1.1,0.7c-0.5,0.2-1,0.4-1.5,0.4h-0.4V74h-15.2c1,0.2,2.1,0.5,3,0.9
			c0.3,0.2,0.2,0.4-0.3,0.6l-0.9,0.3c-0.3,0.5-0.9,1.6-1.9,3.1l-0.5,0.8h17.3l0.9-1.3c0.1-0.1,0.1-0.2,0.2-0.4c0.5-0.6,0.8-1,1-1
			c0.3,0,1,0.4,2,1.3s1.6,1.5,1.6,1.8c-0.1,0.5-0.5,0.7-1.1,0.7h-9c-1,2.9-2.6,5.5-4.8,7.7c2.9,0.6,5.8,1.7,8.5,3
			c1.3,0.6,2.5,1.5,3.2,2.8C127.2,95.2,127.1,95.8,126.5,96.1z M112.1,88c2.1-2,3.6-4.4,4.5-7.1h-10.5c-1.2,1.8-2.5,3.7-3.9,5.6
			C105.5,86.9,108.8,87.4,112.1,88z M98.4,72.7h6.2v-7h-6.2V72.7z M107.3,72.7h6.3v-7h-6.3V72.7z M116.3,72.7h6.4v-7h-6.4V72.7z
			 M107.3,64.5h6.3V60h-6.3V64.5z"/>
		<g>
			<defs>
				<rect id="SVGID_1_" x="-47" y="0" width="661.5" height="123.9"/>
			</defs>
			<clipPath id="SVGID_2_">
				<use xlink:href="#SVGID_1_"  style="overflow:visible;"/>
			</clipPath>
			<g id="Group_1474" class="st0">
				<g id="Group_1467" transform="translate(308.282 53.047)">
					<path id="Path_160" d="M168.7,35.3h-0.8c-0.2,1.7-0.9,3.4-2,4.7l0,0c-1.4,1.6-3.4,2.5-5.5,2.5h-167c-0.2,0-0.4,0-0.6-0.1
						c-0.1-0.2-0.2-0.4-0.1-0.6v-10h0.3c0.9,0,1.8-0.2,2.6-0.5c0.7-0.3,1-0.6,1-0.8V6c0.8-0.1,1.5-0.4,2-1c0-0.4-0.6-1.1-1.9-2.2
						s-2-1.6-2.4-1.6c-0.2,0-0.5,0.3-1,1C-7,2.4-7.1,2.5-7.2,2.7l-1,1.4h-8.1l-4.8-2.1c0.1,1.1,0.2,2.2,0.2,3.3c-1-1-2-1.9-3.1-2.8
						L-25.9,5h-1.9V3.2l0.8-0.5c0.4-0.3,0.4-0.7-0.1-1c-1.6-0.7-3.3-1.3-5-1.7c0.2,1.7,0.3,3.4,0.3,5h-5.1V3.2l0.7-0.6
						c0.4-0.3,0.4-0.6-0.1-0.9c-1.6-0.7-3.2-1.3-4.9-1.7c0.2,1.7,0.3,3.4,0.3,5h-1.9C-44.2,5-45.6,4.9-47,4.6l1.2,2.6
						c1-0.4,2-0.7,3-0.7h1.8v1.1c0,0.1-0.1,0.3-0.1,0.5c0,0.2-0.1,0.4-0.1,0.6c0,0.7,0.3,1,1,1c0.8,0,1.7-0.1,2.4-0.4
						c0.5-0.2,0.8-0.4,0.8-0.6V6.5h5.1v1c0,0.1-0.1,0.2-0.1,0.4c0,0.2-0.1,0.4-0.1,0.6c0,0.7,0.3,1,1,1c0.9,0,1.7-0.1,2.5-0.4
						c0.5-0.2,0.7-0.4,0.7-0.6v-2h6.1c0.3,0,0.6-0.1,0.8-0.2v26.1h0.7c0.9,0,1.7-0.1,2.5-0.5c-0.1,2.2-0.4,4.3-1,6.4
						c-0.6,1.9-1.6,3.6-3,5.1l0-0.2c-1.3-1.2-2.7-2.4-4-3.6l-2.3,3h-2.6v-4h6.5c0.7,0,1.1-0.3,1.2-0.8c0-0.4-0.5-1-1.5-1.9
						s-1.6-1.3-2-1.3c-0.2,0-0.5,0.3-1,0.9c-0.1,0.2-0.2,0.4-0.3,0.4l-0.9,1.3h-2.1v-4h6.5c0.6,0.1,1.1-0.3,1.2-0.8
						c0-0.4-0.5-1-1.5-1.9s-1.7-1.3-2-1.3c-0.2,0-0.6,0.3-1,1c0,0.1-0.1,0.3-0.2,0.4l-0.9,1.3h-2.1v-3.9h7.3c0.7,0,1.1-0.3,1.3-0.8
						c0-0.4-0.5-1-1.6-2s-1.8-1.4-2.1-1.4c-0.2,0-0.6,0.3-1,1c-0.1,0.2-0.2,0.3-0.3,0.4l-1,1.3h-4.3c1-0.9,1.9-2,2.9-3.1l0.8-0.5
						c0.5-0.3,0.5-0.6,0-0.8c-1.7-0.5-3.4-0.9-5.1-1.1c0,1.8-0.1,3.6-0.3,5.4h-4.2l-0.8-0.4c0.5-0.9,0.9-1.7,1.3-2.6L-37,23
						c0.6-0.2,0.6-0.5,0.1-0.9c-1.5-0.8-3.1-1.4-4.7-1.9c-0.1,0-0.2-0.1-0.3-0.1l0,0.5c-0.2,1.6-0.5,3.2-1,4.8
						c-0.5,1.8-1.1,3.6-1.9,5.4c-0.6,1.4-1.4,2.8-2.2,4.1l0.7,0.5c1.1-1,2.2-2.1,3.2-3.3v5.1c-0.1,3.1-0.2,6.2-0.4,9.3
						c0,0.3,0.1,0.5,0.3,0.7c0.2,0.2,0.5,0.3,0.8,0.3c0.8,0,1.7-0.2,2.4-0.6c0.6-0.3,0.9-0.6,0.9-0.8v-2h16.1c0.3,0,0.5,0,0.8-0.1
						c-1.1,1.1-2.3,2-3.7,2.8l0.2,0.8c4.2-1.5,7.3-3.7,9.2-6.5c1.7-2.6,2.7-6.2,3-10.8h2.1V44c-0.1,1,0.1,2,0.6,2.8
						C-10,47.5-9,47.8-8,47.7l170.6,0c0.8,0,1.6-0.2,2.3-0.6c1.6-0.9,2.8-2.3,3.3-4C169.2,40.6,169.3,37.9,168.7,35.3 M-34.6,42.6
						H-39v-4h4.4V42.6z M-34.6,37.1H-39v-4h4.4V37.1z M-34.6,31.7H-39v-3.9h4.4V31.7z M-7.9,28.7h-8.9v-6.8h8.9V28.7z M-7.9,20.4
						h-8.9v-6.7h8.9V20.4z M-7.9,12.2h-8.9V5.6h8.9V12.2z"/>
				</g>
				<g id="Group_1468" transform="translate(207.315 52.998)">
					<path id="Path_161" d="M-32.8,39.7c-0.3,0-0.6-0.1-0.9-0.3c-0.2-0.2-0.3-0.4-0.3-0.7c0.2-3.2,0.4-6.8,0.5-10.7v-5.9
						c0.1-3.5-0.2-7-0.7-10.4l5.5,2.4h2.1c0-1.2,0.1-3,0.2-5.6H-38c-2.6,0-5.1,0.3-7.6,0.7L-47,6.6c1.9,0.2,4.1,0.3,6.8,0.4h13.8
						c0.2-2.3,0.1-4.7-0.3-7c2,0.1,4,0.4,6,0.8C-20,1-20,1.3-20.5,1.7l-0.9,0.6L-21.8,7h10.1l1.4-1.9c0.1-0.2,0.3-0.4,0.6-0.8
						c0.6-0.8,1-1.2,1.2-1.2c0.3,0,1.3,0.7,3,2C-3.9,6.4-3,7.3-3,7.6c-0.1,0.5-0.6,0.8-1.3,0.8h-17.6l-0.6,5.6h7.4l1-1.3
						c0.1-0.1,0.2-0.2,0.3-0.4c0.5-0.6,0.9-1,1.2-1c1,0.4,1.8,0.9,2.6,1.7C-8.7,14.2-8,15-8,15.3c-0.5,0.6-1.2,0.9-1.9,1v9.2
						c0.1,4.2,0.2,8.2,0.4,12c-0.5,0.5-1,0.9-1.7,1.2c-0.8,0.4-1.7,0.6-2.6,0.7h-0.8v-2.5H-29v1.3c0,0.3-0.4,0.6-1.2,1
						C-31,39.5-31.9,39.7-32.8,39.7 M-43,47.5c-0.4,0-0.7-0.1-1-0.3c-0.2-0.2-0.4-0.4-0.4-0.7c0.3-4.4,0.5-8.8,0.6-13.2v-8.3
						c0.1-3.5-0.2-7-0.7-10.4c2,0.4,4.1,1,6,1.8c0.6,0.3,0.6,0.7,0.1,1l-0.9,0.6v24.7h28.8l1.4-2c0.1-0.2,0.3-0.4,0.6-0.8
						c0.6-0.8,1-1.2,1.2-1.2c0.3,0,1.3,0.7,2.9,2s2.4,2.2,2.4,2.6C-2,43.8-2.5,44-3.3,44h-35.9v2c0,0.3-0.4,0.6-1.2,0.9
						C-41.2,47.3-42.1,47.5-43,47.5 M-29,21h14.4v-5.5H-29L-29,21z M-29,28.1h14.4v-5.6H-29L-29,28.1z M-29,35.3h14.4v-5.8H-29
						L-29,35.3z"/>
				</g>
				<g id="Group_1469" transform="translate(257.516 53.864)">
					<path id="Path_162" d="M-42.4,46.5c-0.3,0-0.7-0.1-0.9-0.3c-0.2-0.2-0.4-0.4-0.4-0.7c0.3-4.4,0.5-8.8,0.6-13.2V20.9
						c0.1-3.5-0.2-7-0.7-10.4l5.8,2.4h9.3c0.2-1.1,0.4-3,0.8-5.8c0.1-0.8,0.2-1.4,0.2-1.7H-38c-2.6,0-5.1,0.3-7.6,0.7L-47,3.5
						c1.9,0.2,4.1,0.3,6.8,0.4h30.3l1.4-1.9c0.1-0.1,0.3-0.4,0.5-0.7C-7.3,0.4-6.9,0-6.7,0c0.3,0,1.3,0.7,2.9,2
						c1.6,1.3,2.4,2.2,2.4,2.5c-0.1,0.5-0.5,0.8-1.3,0.8h-18.9c-2.1,3.1-4,5.6-5.5,7.5H-10l1.1-1.5c0.1-0.1,0.3-0.3,0.5-0.6
						c0.5-0.6,0.8-0.9,1-0.9c0.9,0.4,1.8,0.9,2.5,1.7c1.3,1.1,2,1.8,2,2.2c-0.5,0.6-1.3,0.9-2,1v17.7c0.1,4.2,0.2,8.2,0.4,12
						C-5,44.9-5.5,45.3-6,45.5C-7,45.9-8,46.1-9,46.1c-0.5,0.1-0.9-0.3-1-0.8c0-0.1,0-0.2,0-0.3c0-0.2,0.1-0.5,0.1-0.8
						c0-0.3,0.1-0.5,0.1-0.7v-1.2h-28.7v0.9c0,0.3,0.1,0.6,0.1,0.9c0,0.2,0,0.5,0.1,0.7c-0.1,0.4-0.5,0.7-1.1,1
						C-40.4,46.3-41.4,46.5-42.4,46.5 M-38.5,40.9h6.4V14.4h-6.4V40.9z M-27.8,22.1h7.2v-7.7h-7.2V22.1z M-27.8,31.5h7.2v-7.9h-7.2
						V31.5z M-27.8,40.9h7.2v-8h-7.2V40.9z M-16.2,40.9h6.4V14.4h-6.4L-16.2,40.9z"/>
				</g>
				<g id="Group_1470" transform="translate(310.013 62.465)">
					<path id="Path_163" d="M-35.2,3.1c0-0.4-0.5-1-1.4-1.8s-1.6-1.2-2-1.2c-0.2,0-0.5,0.3-0.9,0.8c-0.1,0.1-0.2,0.2-0.2,0.3l-0.7,1
						h-2.3L-47,0.2c0.3,2,0.4,4,0.4,6V8c0,0.2,0,0.5-0.1,0.9c-0.1,0.8-0.1,1.5-0.2,1.9c0,0.7,0.3,1,0.8,1c0.7,0,1.4-0.1,2-0.5
						c0.1-0.1,0.3-0.2,0.4-0.3c0.2-0.1,0.3-0.3,0.3-0.4V9.6h3.3v1.6h0.5c0.6,0,1.2-0.2,1.8-0.5c0.5-0.2,0.9-0.5,1.2-0.8
						c0-0.5-0.1-1.2-0.1-2.2c0-0.7-0.1-1.3-0.1-1.7V3.9C-36.2,3.9-35.6,3.6-35.2,3.1 M-40.1,8.2h-3.3V3.6h3.3V8.2z M-24.8,6v-2
						c0.6-0.1,1.2-0.4,1.6-0.8c0-0.4-0.5-1-1.5-1.8c-1-0.8-1.6-1.3-2-1.3c-0.2,0-0.5,0.3-0.9,0.8c-0.1,0.1-0.2,0.2-0.3,0.3l-0.8,1
						h-2.3l-4.3-1.9c0.3,1.9,0.4,3.8,0.3,5.7v1.8c0,0.2,0,0.5,0,0.8c-0.1,0.7-0.1,1.3-0.2,1.8c0,0.7,0.3,1,0.8,1
						c0.7,0,1.4-0.2,2-0.5c0.5-0.3,0.8-0.5,0.8-0.7V9.6h3.3v1.4h0.6c0.6,0,1.2-0.2,1.8-0.5c0.5-0.2,0.9-0.5,1.2-0.9
						c0-0.5-0.1-1.2-0.2-2.1C-24.7,7-24.8,6.4-24.8,6 M-28.1,8.2h-3.3V3.6h3.3V8.2z"/>
				</g>
				<g id="Group_1471" transform="translate(350.007 53.915)">
					<path id="Path_164" d="M-46.8,3.3H131l1-1.4c0.1-0.1,0.2-0.3,0.4-0.6c0.4-0.6,0.8-0.9,1-0.9c0.3,0,1.2,0.6,2.5,1.8
						c1.3,1.2,2,2,2,2.3c-0.5,0.6-1.3,0.9-2,1v12.9c0.1,4.2,0.2,8.2,0.4,12c-0.5,0.5-1,0.8-1.7,1c-0.7,0.3-1.5,0.5-2.3,0.5
						c-0.6,0-0.9-0.3-0.9-1c0-0.2,0.1-0.5,0.1-0.8c0-0.3,0.1-0.5,0.1-0.7v-1.3H-47 M-47,14.8h178.5v-10H-47V14.8z M-47,26.7h178.5
						V16.3H-47V26.7z M133.4,45.1c0.3-3.6-0.3-7.1-1.6-10.4l0.7-0.2c2,1.2,3.6,2.9,4.7,4.9c0.7,1.3,1,2.8,0.8,4.3
						c-0.1,1.1-0.8,2-1.8,2.4C135.1,46.4,134,46,133.4,45.1 M137.1,18.4l-0.6-0.7c2.8-1.7,5-4.1,6.6-7c1-2.2,1.6-4.6,1.7-7h-2.2
						c-1.3,0-2.6,0.3-3.9,0.7l-1.4-2.5c1.9,0.2,4.1,0.3,6.8,0.4h12l1-1.1c0.1-0.1,0.2-0.3,0.4-0.5c0.4-0.5,0.8-0.7,1-0.7
						c0.9,0.3,1.7,0.8,2.3,1.5c1.2,1,1.8,1.7,1.8,2.1c-0.5,0.5-1.2,0.7-1.8,0.8c-0.1,2.5-0.4,5-1,7.5c-0.3,1.4-1,2.7-2,3.7
						c-1.5,0.9-3.2,1.4-4.9,1.3c0.1-1.1-0.2-2.1-0.9-3c-1.1-0.8-2.4-1.3-3.8-1.4v-0.8c0.2,0,0.7,0,1.3,0.1c2.3,0.1,3.6,0.2,4.1,0.2
						c0.5,0.1,1-0.1,1.4-0.4c0.7-0.6,1.2-3.3,1.5-7.9h-6.7c-0.3,2.9-1.4,5.6-3.1,7.9C144.7,14.4,141.5,16.7,137.1,18.4 M140.9,33.2
						c-0.6,0-0.9-0.3-0.9-1c0.1-1.1,0.2-2.6,0.3-4.4v-2.7c0-2.8-0.1-5.6-0.5-8.3l5.1,2.2h9.3l1-1.4c0.1-0.1,0.2-0.3,0.4-0.5
						c0.5-0.6,0.8-1,1-1c0.3,0,1.2,0.6,2.5,1.7c1.4,1.2,2,1.9,2,2.3c-0.5,0.6-1.2,0.9-1.9,1v3.5c0.1,2.9,0.2,5.1,0.3,6.7
						c-0.4,0.5-1,0.8-1.7,1c-0.8,0.3-1.6,0.5-2.4,0.5h-0.8v-2.5h-10v1.4c0,0.2-0.4,0.5-1.2,0.9C142.6,33,141.8,33.2,140.9,33.2
						 M148.2,45.7c-1,0.5-2.2,0.3-2.9-0.5c-0.3-1.9-0.8-3.7-1.6-5.4c-0.8-1.7-1.7-3.3-2.9-4.8l0.5-0.3c2.5,0.8,4.7,2.2,6.5,4.1
						c1.1,1.1,1.8,2.7,1.8,4.3C149.7,44.1,149.1,45.1,148.2,45.7 M144.6,29h10v-8.5h-10V29z M161.1,46.3c-0.9,0.7-2,0.6-3.2-0.3
						c-0.6-2.2-1.5-4.3-2.8-6.2c-1.2-2-2.6-3.8-4.2-5.5l0.5-0.4c3,0.8,5.7,2.3,8,4.4c1.4,1.2,2.4,2.9,2.7,4.8
						C162.4,44.3,162,45.5,161.1,46.3"/>
				</g>
				<g id="Group_1472" transform="translate(568.098 51.416)">
					<path id="Path_165" d="M-13.1,67.7V30.3c-0.8,0.3-1.5,0.8-2.1,1.4c-0.6,0.6-1.1,1.3-1.4,2.2c-5-3.5-8.4-8.8-10.3-15.8
						c-2.3,7-7.3,12.8-13.9,16l-0.6-0.7c5.8-4.8,9.7-11.6,10.9-19.1h-11.3v19.3c0.1,4.2,0.2,10.1,0.4,13.8c-0.4,0.6-0.9,1-1.6,1.3
						c-0.9,0.4-1.8,0.7-2.7,0.7c-0.3,0-0.7-0.1-0.9-0.3c-0.2-0.2-0.4-0.4-0.4-0.7c0.3-4.4,0.5-10.7,0.6-15.1V20.9
						c0.1-3.5-0.2-7-0.7-10.4l5.8,2.4H-28c-0.4-2.6-0.8-5.4-1.1-8.5h-2.6c-1.6,0-3.2,0.3-4.8,0.7l-1.4-2.5c1.7,0.2,3.5,0.4,5.2,0.4
						h2.4c0.4-0.7,1-1.7,1.8-3l4.6,3.8c-0.6,0.7-1.9,1.1-3.8,1.3c0.4,2.6,0.9,5.3,1.6,7.8h12.6l1-1.3c0.1-0.2,0.3-0.3,0.4-0.5
						c0.4-0.6,0.8-0.9,1-0.9c1,0.4,1.9,1,2.7,1.7c1.4,1.1,2.2,1.9,2.2,2.3c-0.5,0.6-1.2,1-2,1v53.1c0,2.3-1.9,4.2-4.2,4.2
						c0,0,0,0,0,0h-0.7L-13.1,67.7z M-13.1,29.7V14.4h-12.5C-23.1,21.7-18.9,26.8-13.1,29.7"/>
				</g>
				<g id="Group_1473" transform="translate(613.212 52.79)">
					<path id="Path_166" d="M-35.6,20.5c0.1,2.6-0.6,5.2-2,7.5c-2.2,3.6-5.2,6.6-8.8,8.7l-0.6-0.5c2.2-2.5,3.8-5.3,4.8-8.4
						c0.9-2.3,1.1-4.8,0.7-7.3c-0.1-0.8,0-1.7,0.2-2.5c0.3-0.8,1-1.3,1.8-1.5c1-0.3,2,0.1,2.6,0.8C-36,18.2-35.6,19.3-35.6,20.5
						 M-24.6,44.6c-2.6,0-4.4-0.3-5.2-1c-1-0.7-1.4-2-1.4-4.1V20.6c0.1-3.5-0.2-7-0.7-10.4c2.1,0.4,4.1,1,6.1,1.8
						c0.6,0.3,0.6,0.6,0.1,1l-0.9,0.6v24.6c-0.1,0.5,0.2,1,0.6,1.2c0.7,0.3,1.4,0.4,2.2,0.3h5.9c2.6,0,4.3-0.1,5.2-0.2
						c0.6,0,1.2-0.3,1.4-0.9c0.5-1,1.3-3.7,2.2-8.2h0.6l0.2,8.6c0.6,0.2,1.1,0.5,1.5,0.9c0.3,0.3,0.4,0.8,0.4,1.2
						c0,1.3-0.8,2.1-2.3,2.6c-1.7,0.5-4.9,0.8-9.6,0.8L-24.6,44.6z M-15.8,11.2c-0.9,0.9-2.3,0.9-3.3,0.2c-1-2-2.4-3.7-4-5.2
						c-2.2-2.2-4.8-4-7.6-5.4l0.1-0.4l0.2-0.4c3.9,0.3,7.7,1.4,11.1,3.2c1.9,0.9,3.4,2.5,4.2,4.5C-14.6,8.9-14.9,10.3-15.8,11.2
						 M-0.6,32.9c-1.2,0.8-2.3,0.5-3.3-1c0-2.8-0.5-5.7-1.3-8.3c-0.9-3.2-2.6-6.1-4.8-8.5l0.4-0.5c3.5,1.6,6.5,4.1,8.8,7.2
						c1.4,2,2.2,4.4,2.2,6.9C1.2,30.8,0.6,32.2-0.6,32.9"/>
				</g>
			</g>
		</g>
		<path id="Path_168" d="M469,81.7h-3.9V57.2h3.9V81.7z"/>
	</g>
</g>
</svg>
