<svg viewBox="0 0 796.34 152.72" xmlns="http://www.w3.org/2000/svg" xmlns:xlink="http://www.w3.org/1999/xlink"><clipPath id="a" transform="translate(0 -6.74)"><path d="m0-100.9h711.48v366.1h-711.48z"/></clipPath><g clip-path="url(#a)"><path d="m289.28 50.71c0-.7-1-1.88-3.17-3.56s-3.53-2.52-4.24-2.52c-.43 0-1 .48-1.83 1.43-.29.32-.5.54-.64.67l-1.72 2h-110.37l-8.91-3.61a85.84 85.84 0 0 1 1 14v4.56c0 .57 0 1.33-.1 2.28-.14 2-.29 3.64-.43 4.85s.53 1.89 1.6 1.89a11.68 11.68 0 0 0 4.3-.85c1.36-.5 2.05-1 2.05-1.33v-4.13h111.71v3.71h1.18a11.23 11.23 0 0 0 4.15-1c1.53-.63 2.45-1.23 2.73-1.8-.14-1.51-.28-3.77-.43-6.74-.07-1.33-.11-2.41-.11-3.23v-5.18a4.54 4.54 0 0 0 3.23-1.43m-10.75 13h-111.75v-12.24h111.75zm23.69-26.5c-2.61-1.95-4.27-2.94-5-2.94-.42 0-1 .48-1.81 1.43a6.69 6.69 0 0 0 -.65.76l-1.6 2.08v-23.16c2.42-.25 4-.85 4.72-1.8q0-1-4.51-4c-3-1.9-4.88-2.86-5.59-2.86-.44 0-1.08.54-1.94 1.62a4.62 4.62 0 0 1 -.75 1l-1.83 2.57h-113.7l-11.17-4.23a111.29 111.29 0 0 1 1.4 19.47l-.28 11.84-11.72-.29-8.48-3.32v17.1q-.23 12.45-1.19 24.69a1.66 1.66 0 0 0 .75 1.33 2.79 2.79 0 0 0 1.73.57 12.51 12.51 0 0 0 5.15-1.08 6.73 6.73 0 0 0 3.12-2.09q-.66-10.55-.86-22.32v-11.8h145.67v29.34a1.51 1.51 0 0 1 -1.28 1.71 1.62 1.62 0 0 1 -.44 0q-4.4-.28-8.81-.48v1.33q4.62.59 6.44 2.19 1.41 1.12 1.62 4.56 7.08-.57 9.56-2.75 1.94-1.71 1.94-6.08v-28.78a5.92 5.92 0 0 0 3.43-1.62c0-.69-1.3-2-3.92-4m-17.89 1.79h-8.59v-12.41h8.59zm0-15.1h-7.33l-10-3.8a115.94 115.94 0 0 1 1.33 18.9h-99.95v-24.48h116zm-258.11.75q-.22-4.08-4.41-7.6-5.16-4.23-14.81-6.32l-.87.66a43.1 43.1 0 0 1 6.87 8.07 27.78 27.78 0 0 1 4.19 9.54q3.54 2.37 6.45.86a5 5 0 0 0 2.58-5.13m241.58 59.12c-9.75 0-229 5.84-244.81-8.17v-24.5q3.75-.48 5.16-1.9 0-1-4.73-4.65c-3.15-2.41-5.08-3.63-5.8-3.63-.43 0-1.19.72-2.25 2.19-.37.44-.61.75-.75.94l-2.27 3h-4a71.09 71.09 0 0 1 -8.35-.7l2.47 4.84a25.12 25.12 0 0 1 7.09-1.33h4.3v28.49q-8.71 3.99-13.21 5.57l5.69 10.2c1.07-.58 1.54-1.3 1.4-2.19a158 158 0 0 0 14-14.62c20 17.68 236.24 14.82 246.19 14.82h34.38q.66-6.37 6.56-7.51v-1.23q-17.1.38-41 .38" fill="#040809" transform="translate(0 -6.74)"/></g><g transform="translate(0 -6.74)"><path d="m545.42 117.28c-2.3 8.74-6.35 17.48-10.35 23.05l.64.46a42.06 42.06 0 0 0 5.79-7.18v25.76h.55a3.56 3.56 0 0 0 2.45-1v-27.37c.78-.09 1.24-.41 1.38-.83l-1.89-.69a72.26 72.26 0 0 0 4.41-9.84c1 .05 1.57-.32 1.75-.83zm9.2 17.8c-1.57 6.54-4.37 12.7-7.41 16.61l.69.51c3.91-3.36 7.27-8.7 9.52-14.77a1.53 1.53 0 0 0 1.7-.92zm6.94 19.5c0 .74-.27 1-1.15 1s-6.07-.37-6.07-.37v.79a9.27 9.27 0 0 1 4.14 1.2 3.3 3.3 0 0 1 1.1 2.21c4.42-.47 4.92-2 4.92-4.47v-25.24c1.1-.13 1.47-.55 1.61-1.2l-4.55-.5zm6-18.9c2.62 4.14 6.25 10.44 7.13 14.9 3.45 3 5.56-5.25-6.44-15.18zm6.67-11.59-1.81 1.91h-16.56a63.75 63.75 0 0 0 2.62-6.21c1 0 1.52-.32 1.75-.88l-4.69-1.51c-1.75 7.55-5 14.77-8.47 19.41l.65.46a36 36 0 0 0 7.45-9.93h17.48c-.46 2.11-1.2 4.87-1.8 6.67l.65.32a38.79 38.79 0 0 0 4.51-6.44c.87-.09 1.38-.14 1.7-.51zm27.23-3h12.54v4.65h-4.47l-3.12-1.38v8.64h-4.88zm7.45 12v-5.93h5v5.84zm-11.22 1.38h20.51v15.28c0 .5-.13.78-.78.78s-3.82-.23-3.82-.23v.69a5.75 5.75 0 0 1 2.76.87 2 2 0 0 1 .69 1.61c3.55-.32 4-1.47 4-3.5v-15.21a3.64 3.64 0 0 0 1.7-.78l-3.54-2.67-1.42 1.7h-1.06v-11.59c1.2-.13 1.75-.36 2.12-.87l-3.85-2.85-1.56 2h-11.44l-3.31-1.38v14.68h-.69l-3-1.43v21.07h.46c1.2 0 2.35-.65 2.35-1zm7 10.9v-6h6.57v6zm6.94 3.5c.83 0 2.16-.64 2.21-1v-8.23a2.2 2.2 0 0 0 1.47-.74l-3-2.3-1.31 1.4h-6l-2.76-1.29v12.65h.41c1.06 0 2.17-.6 2.17-.83v-1.93h6.57v2.16zm-28.06-29c2.35 2.07 5.06 5.61 5.61 8.46 3.45 2.49 5.94-5.06-5.1-8.78zm6.86 18.9a3.76 3.76 0 0 0 2.25-.82l-4-3.32-1.74 2.39h-5.57l.23 1.34h5.93v13.64c-2.34 1.43-4.83 2.86-6.34 3.59l2.16 3.68a.86.86 0 0 0 .46-1.06 70.56 70.56 0 0 0 6-6.25c3.27 5.24 7 6.3 15.5 6.3h16.24a2.62 2.62 0 0 1 2.3-2.49v-.64c-5.66.19-13 .19-18.59.19-8 0-11.59-.56-14.85-4.28zm71.37-17.77v4.65h-14.22v-4.65zm-14.22 10.77v-4.77h14.22v4.74zm0 1.38h14.22v1.66h.46a3.14 3.14 0 0 0 2.48-.92v-12.69a3.07 3.07 0 0 0 1.7-.78l-3.31-2.53-1.43 1.74h-13.61l-3.4-1.42v17h.46c1.47 0 2.44-.6 2.44-.83zm16.19 4.23h-22.9l.36 1.34h27.28c.65 0 1-.19 1.15-.69-1.47-1.43-3.86-3.27-3.86-3.27zm-26.95-20.06a56.75 56.75 0 0 1 -9.71 12.47l.55.55a53.15 53.15 0 0 0 11.64-10.34c1.1.23 1.52 0 1.8-.41zm.87 9.16a64.18 64.18 0 0 1 -10.62 16.19l.55.51a45.07 45.07 0 0 0 5.84-5.29v21.52h.6a3.33 3.33 0 0 0 2.34-1v-22.63c.78-.14 1.2-.42 1.38-.83l-1.33-.51a56 56 0 0 0 3.86-5.33c1.1.18 1.52-.05 1.8-.51zm7.68 19.87c1.66 1.66 3.73 4.37 4.28 6.58 3 2 5.34-4-3.77-6.86zm18.86-2.9h-2.23v-2.62c1.06-.14 1.52-.51 1.61-1.15l-4.6-.51v4.28h-18.93l.37 1.38h18.55v10.12c0 .65-.23.92-1 .92-1 0-5.75-.37-5.75-.37v.74a8.86 8.86 0 0 1 3.95 1.15 2.63 2.63 0 0 1 1 2.12c4.37-.42 4.83-1.94 4.83-4.37v-10.34h6.81a1.05 1.05 0 0 0 1.15-.74 46.93 46.93 0 0 0 -3.73-3.17zm27.93-18.91v18.36h.46c1.51 0 2.53-.69 2.53-.92v-3.77h16.14c.6 0 1.1-.23 1.2-.74a49.28 49.28 0 0 0 -4-3.27l-2.07 2.63h-11.27v-5.52h15.64c.6 0 1-.23 1.1-.69-1.38-1.34-3.68-3.13-3.68-3.13l-2 2.53h-11.06v-5.52h18.63c.64 0 1.15-.23 1.24-.73-1.61-1.43-4-3.31-4-3.31l-2.21 2.76h-22.17a44.93 44.93 0 0 0 2-4c1.15.09 1.52-.14 1.7-.65l-5-1.24c-1.84 6.53-6.12 13.94-11 18.17l.55.51a35.63 35.63 0 0 0 10.9-11.46zm-1.8 19.6c2.44 1.61 5.38 4.6 6 7.18 3.36 1.93 5-5.24-5.52-7.59zm-10.12 2a10.89 10.89 0 0 1 -5.38 7.64 2.06 2.06 0 0 0 -1.1 2.43c.55 1 2.21.83 3.45 0 1.93-1.33 4.51-4.73 3.82-10zm24.76 3.86h-.6a25.07 25.07 0 0 1 -1.38 5.11c-.23.42-.41.55-1.06.6s-2.8.09-5.52.09h-5.88c-2.07 0-2.3-.18-2.3-.87v-8.47c.82-.13 1.24-.5 1.33-1.05l-4.32-.46v10.53c0 2.35.82 2.94 4.87 2.94h6.26c8.51 0 10.07-.46 10.07-1.88 0-.6-.32-.92-1.38-1.24zm-.37-4.05c3.18 2.3 7 6.44 7.92 9.85 3.72 2.39 5.75-6-7.46-10.26zm31-21.06h10.49v3.54h-9.25l.37 1.33h8.88v3.73h-11.87l.36 1.33h25.86c.6 0 1-.18 1.15-.69-1.48-1.42-3.87-3.26-3.87-3.26l-2.11 2.62h-6.64v-3.73h9.43c.64 0 1.06-.23 1.2-.73-1.48-1.34-3.78-3.13-3.78-3.13l-2.07 2.53h-4.78v-3.54h10.9c.64 0 1.06-.23 1.2-.74-1.47-1.29-3.77-3.13-3.77-3.13l-2.07 2.53h-4.46a44.14 44.14 0 0 0 4.09-4.23c1 .05 1.56-.37 1.7-.92l-4.59-1.12c-.65 1.84-1.75 4.42-2.58 6.3h-5.11c1.75-.6 1.89-4.55-4.55-6.26l-.55.37a11.35 11.35 0 0 1 3.5 5.57 3.19 3.19 0 0 0 .64.32h-8.15zm6.21 11.63c4 .88 7.18 2.67 8.47 4 2.94.69 3.17-5.24-8.33-4.69zm-12.65-7.17h6a1.11 1.11 0 0 0 1.2-.74c-1.42-1.38-3.68-3.22-3.68-3.22l-2 2.62h-1.51v-8.87c1.2-.19 1.56-.65 1.7-1.34l-4.61-.5v10.7h-6.85l.32 1.34h6c-1.2 6.81-3.27 13.52-6.72 18.81l.65.65a36.62 36.62 0 0 0 6.57-10.63v21.12h.65c1.06 0 2.25-.64 2.25-1.06v-22.04a21.26 21.26 0 0 1 3.5 6.49c2.67 2.12 5.2-3.36-3.5-7.45zm12.81 14.56-1.88 1.8h-6.52l.4 1.29h6.16a20.4 20.4 0 0 1 -8.65 10.58l.42.69a20.48 20.48 0 0 0 11.5-11c1 0 1.52-.14 1.79-.56zm15.6-3.22c-1.29 1.7-3.87 4.74-5.89 6.86a18.53 18.53 0 0 1 -2.62-4.46v-.09a4.42 4.42 0 0 0 2-.92l-3.81-2.85-1.39 1.77h-7.89l.28 1.33h8v12.56c0 .65-.14.92-.92.92s-5.2-.32-5.2-.32v.74a6.57 6.57 0 0 1 3.54 1.1 3 3 0 0 1 1 2.07c4-.42 4.46-1.89 4.46-4.1v-9.57c2.21 5.8 5.75 10 10.63 12.47a3.39 3.39 0 0 1 2.53-2.71l.09-.51a22 22 0 0 1 -10.08-6.72c2.49-1.56 5.57-3.5 7.41-4.78 1 .32 1.42.18 1.7-.28zm26.77 10.12a2.74 2.74 0 0 0 -2.81 2.66v.15a2.72 2.72 0 0 0 2.68 2.76h.13a2.71 2.71 0 0 0 2.8-2.64v-.12a2.73 2.73 0 0 0 -2.66-2.8h-.14zm-3.5-27.6a10 10 0 0 1 4.32-.82c4.33 0 7.36 1.79 7.36 6 0 3-1.52 5-5 7.55s-4.37 3.81-4.37 5.88a33.65 33.65 0 0 0 .32 4.6h1.61l.23-3.31c.14-2.34 1.06-3.26 4.55-5.52 4.56-2.9 6.44-5.56 6.44-9.11 0-4.5-3.35-7.86-10.35-7.86-6 0-10.53 3.13-11.13 8.1a2.09 2.09 0 0 0 2 1.29c1.38 0 2.2-.88 2.8-3z"/><path d="m382.06 50.77h-12.36v-12.3h19.3c.9 0 1.5-.3 1.68-1-2.86-2.47-7.68-6.14-7.68-6.14l-4.2 5.46h-9.1v-8.79c1.62-.24 2.1-.84 2.22-1.68l-9.54-.84v11.31h-19.44l.48 1.68h19v12.3h-23.92l.48 1.74h19.62a160.2 160.2 0 0 1 -5.88 18.78c-4.62.3-8.52.48-11.16.54l4 9a2.7 2.7 0 0 0 1.8-1.44c15.24-3.3 25.74-6.06 33.42-8.58a39.23 39.23 0 0 1 4.2 8.64c8.64 5.88 13.8-12.3-13-20.88l-.54.42a77 77 0 0 1 8.28 10.26c-8.88.78-17.52 1.44-24.6 1.92a137.09 137.09 0 0 0 13.26-18.66h24.12c.9 0 1.56-.3 1.74-1-3-2.58-7.86-6.36-7.86-6.36zm65.52-19.38c.84 0 1.44-.3 1.62-1-2.46-2.16-6.48-5.16-6.48-5.16l-3.54 4.44h-18.54l.48 1.68zm5 6.72c.84 0 1.44-.3 1.62-1-2.46-2.16-6.42-5.22-6.42-5.22l-3.6 4.44h-28.82l.48 1.74zm-25.2 28.26v-8h13.72v8zm14.88 5c2.16 0 5.64-1.14 5.7-1.56v-10.28a4.45 4.45 0 0 0 2.4-1.26l-6.72-5-3.18 3.42h-12.74l-7.14-2.82v18.13h1c2.82 0 5.88-1.5 5.88-2v-1.8h13.64v3.24zm-21.6-19.8h27.34c.78 0 1.44-.3 1.56-1-2.4-2.1-6.42-5.1-6.42-5.1l-3.6 4.38h-19.32zm18.84-8.46h-19.28l.48 1.68h27.3c.78 0 1.44-.3 1.56-1-2.4-2.1-6.42-5.1-6.42-5.1zm-37.8-16.38c2.7 2.22 6.12 6.06 7.5 9.42 6.54 3.06 9.9-9.36-7-9.84zm-2.6 12.4c2.76 2 6.12 5.58 7.5 8.7 6.72 2.88 9.78-9.54-7-9.12zm13.26 19.14a4.9 4.9 0 0 0 3.06-1.27l-7.26-5.76-3.36 4.38h-6.6l.36 1.74h7.2v13.45c-2.76 1.19-5.52 2.19-7.44 2.82l3.84 7.8a1.65 1.65 0 0 0 1-1.5 109.94 109.94 0 0 0 8.52-10c4 8.4 8.58 10.14 20 10.14h18.66c.3-3.18 1.86-5.28 4.62-5.94v-.72c-7.44.18-16.62.24-23.4.24-11 0-15.06-.54-19.2-4.68zm46.14-7.44.54 1.92h53.76c1 0 1.68-.3 1.86-1-3.3-3.12-8.82-7.92-8.82-7.92l-5 7zm77.5 13.62v-14.58h10.56v14.58zm26.82 0h-8.64v-14.58h15.24c.9 0 1.56-.3 1.74-1-2.64-2.28-7.08-5.58-7.08-5.58l-3.9 4.86h-6v-11.78h17.28c.9 0 1.56-.3 1.74-1-3-2.52-7.56-5.88-7.56-5.88l-4.14 5.16h-24.88a59.55 59.55 0 0 0 3.48-5.52c1.38.12 2.22-.36 2.52-1.08l-9.9-3.78c-3.36 10.2-9.24 20.22-14.58 26.22l.6.54a53.31 53.31 0 0 0 16.68-14.7h11.1v11.86h-9.78l-8.28-3.12v19.38h-10.2l.48 1.74h27.78v15.24h1.48c4 0 6.18-1.56 6.18-2v-13.24h18.62c.9 0 1.56-.3 1.74-1-2.94-2.46-7.56-6-7.56-6zm17.64 25a16.57 16.57 0 0 0 10-15.42c0-4.14-2.4-6.54-5.52-6.54a4.91 4.91 0 0 0 -5.1 4.71v.21c0 4 4.08 5.46 6.72 6.36-.42 2.76-2.16 6.36-7 8.88z"/></g></svg>